<?xml version="1.0" encoding="utf-8"?>
<!-- Generator: Adobe Illustrator 19.0.0, SVG Export Plug-In . SVG Version: 6.00 Build 0)  -->
<svg version="1.1" id="Ebene_1" xmlns="http://www.w3.org/2000/svg" xmlns:xlink="http://www.w3.org/1999/xlink" x="0px" y="0px"
	 viewBox="0 0 141.7 141.7" style="enable-background:new 0 0 141.7 141.7;" xml:space="preserve">
<path style="fill:#070710;" d="M95.7,57.1c0,0-0.1,0-0.1,0c2.2-4,3.5-8.7,3.5-13.6c0-15.6-12.7-28.3-28.3-28.3
	c-15.6,0-28.3,12.7-28.3,28.3c0,4.9,1.3,9.6,3.5,13.6c0,0-0.1,0-0.1,0c-15.6,0-28.3,12.7-28.3,28.3c0,15.6,12.7,28.3,28.3,28.3
	c10.1,0,19-5.3,24-13.3l-1.2,4.8c-1.6,6.1-4.7,11.6-9.2,15.9l-6.1,6l2.1-0.6c10-2.8,20.6-2.8,30.6,0l2.1,0.6l-6.1-6
	c-4.5-4.4-7.6-9.9-9.2-15.9l-1.2-4.8c5,8,13.9,13.3,24,13.3c15.6,0,28.3-12.7,28.3-28.3C124,69.7,111.3,57.1,95.7,57.1z"/>
</svg>
