<?xml version="1.0" encoding="utf-8"?>
<!-- Generator: Adobe Illustrator 19.0.0, SVG Export Plug-In . SVG Version: 6.00 Build 0)  -->
<svg version="1.1" xmlns="http://www.w3.org/2000/svg" xmlns:xlink="http://www.w3.org/1999/xlink" x="0px" y="0px"
	 viewBox="-72 195.9 450 450" style="enable-background:new -72 195.9 450 450;" xml:space="preserve">
<style type="text/css">
	.st0{fill:#425866;}
	.st1{fill:#FFFFFF;}
	.st2{fill:#D8D56A;}
	.st3{fill:#93091A;}
	.st4{fill:#1D1D1B;}
	.st5{fill:#E84649;}
	.st6{fill:#44A0D9;}
	.st7{fill:#F6E71B;}
</style>
<g id="Layer_1">
	<path id="Untergrund_dunkel" class="st0" d="M210.1,376.9c-1.4-11.7-3.5-17.8-7.4-22.7c-1.6,0.3-3.3,0-4.8-1L184,343
		c-1.5-1.1-2.3-2.7-2.6-4.4c-0.7-0.2-1.3-0.5-2-0.7v13h-57V338c-0.7,0.2-1.4,0.4-2,0.7c-0.2,1.7-1.1,3.3-2.6,4.4l-13.9,10.2
		c-1.4,1.1-3.2,1.4-4.8,1c-3.8,4.9-6,10.9-7.4,22.7c-3.6,31,2.5,79.8,2.3,91.8c-0.8,64-1.3,103,2.9,116.5c0.8,2.6,2.8,4.7,5.6,6.4
		c0.6-0.3,1.3-0.5,2.2-0.5c5,0,7.4,3.2,12.9,2.3c3.6-0.6,4.8,2.4,5.3,4.5c3.2,0.5,6.5,0.9,9.6,1.2c0.5-0.7,1.3-1.2,2.3-1.2H167
		c0.9,0,1.8,0.5,2.3,1.2c2.3-0.2,4.7-0.5,7.1-0.8c0.3-2.1,1.5-5.5,5.3-4.9c5.5,0.9,7.9-2.3,12.9-2.3c1.5,0,2.6,0.5,3.3,1.2
		c3.5-1.9,6-4.2,6.9-7.2c4.2-13.5,3.7-52.5,2.9-116.5C207.6,456.7,213.7,407.9,210.1,376.9z"/>
	<path id="Frontschürze" class="st0" d="M179.4,350.9V338c-16.3-5.1-40.8-5.1-57,0v12.9H179.4z"/>
	<path id="Lack_Weiß" class="st1" d="M206.5,378.8c-2.2-19.5-6.7-22.7-17.6-31.8c-14.8-12.4-61.2-12.4-76,0
		c-10.9,9.1-15.4,12.4-17.6,31.8c-3.4,29.9,2.3,76.8,2.2,88.3c-0.7,61.6-1.2,99.2,2.7,112.2c4.6,15,50.6,14.2,50.7,14.2
		c0,0,46.1,0.8,50.7-14.2c4-13,3.5-50.5,2.7-112.2C204.2,455.6,209.9,408.7,206.5,378.8z"/>
	<path id="Scheibe_rechts" class="st0" d="M218.1,423.2c-1-1.4-10.4-4.3-10.4-4.3c-0.4-0.1-0.8-0.2-1.1-0.1
		c-0.4-2.8-3.1-3.9-4.2-4.2c-0.1-1.8-0.1-2.8-0.1-2.8l-7.8,43.2l-1.4,36.5l8.1-2.8c-0.3-2.9-0.6-8.7-0.6-17.2
		c0-8.9,1.2-22.7,1.6-32.8c0.2-3.9,0.2-7.5,0.3-10.8c0.8,0.1,2.4-2.2,3.3-4.7l12.2,3c0,0,0.2-0.4,0.3-0.9
		C218.6,424.8,218.6,424,218.1,423.2z"/>
	<path id="Scheibe_rechts_hinten" class="st0" d="M201.5,492.1l-8.4,3.5l-0.9,30.5c0,0,0.7,3.8,3.9,10c3.6,7.1,5.5,9.1,5.5,9.1
		S202.4,503.5,201.5,492.1z"/>
	<path id="Scheiebe_links_hinten" class="st0" d="M100.4,492.1l8.4,3.5l0.9,30.5c0,0-0.7,3.8-3.9,10c-3.6,7.1-5.5,9.1-5.5,9.1
		S99.4,503.5,100.4,492.1z"/>
	<path id="Scheibe_links" class="st0" d="M108.7,491.5l-1.4-36.5l-7.8-43.2c0,0-0.1,0.9-0.1,2.5c-1.1,0.3-4.1,1.4-4.6,4.2
		c-0.2,0-0.5,0-0.8,0.1c0,0-9.4,2.9-10.4,4.3c-0.6,0.8-0.5,1.8-0.3,2.4c0.1,0.4,0.3,0.7,0.3,0.7l12-3c1,2.6,2.7,4.9,3.6,4.6
		c0,3.3,0.1,7,0.3,11.1c0.4,10,1.6,23.9,1.6,32.8c0,8.5-0.3,14.2-0.6,17.2L108.7,491.5z"/>
	<path id="Scheibe_Front" class="st0" d="M128.2,443.2c10.6-1.5,34.7-1.5,45.4,0c9.6,1.4,16.5,4,19.1,5.1l6.2-35.3
		c-0.5-0.6-1.6-1.2-3.2-1.9c-3.7-1.6-10.2-4.3-20.4-6.5c-14.6-3.2-34-3.2-48.6,0c-10.2,2.2-16.7,4.9-20.4,6.5
		c-1.6,0.7-2.7,1.3-3.2,1.9l6.2,35.3C111.7,447.2,118.6,444.5,128.2,443.2z"/>
	<path id="Scheibe_Heck" class="st0" d="M114.3,545.4c-1.8,12.8-0.7,24.1-0.7,24.1s7.6,3.7,18.5,5.8c8.4,1.7,29.4,1.7,37.8,0
		c10.9-2.1,18.5-5.8,18.5-5.8s1.1-11.1-0.7-23.9c-6.4,1.8-18.4,4.2-36.7,4.2C133.9,549.8,121.1,547.3,114.3,545.4z"/>
	<path id="Frontlicht_links" class="st2" d="M103.9,353.2l13.9-10.2c1.5-1.1,2.3-2.7,2.6-4.4c-4,1.4-7.4,3.1-9.9,5.2
		c-4.9,4-8.6,6.9-11.3,10.4C100.7,354.6,102.5,354.3,103.9,353.2z"/>
	<path id="Frontlicht_rechts" class="st2" d="M184,343l13.9,10.2c1.4,1.1,3.2,1.4,4.8,1c-2.8-3.5-6.5-6.4-11.3-10.4
		c-2.5-2.1-5.9-3.8-9.9-5.2C181.7,340.3,182.6,342,184,343z"/>
	<path id="Bremslicht_links" class="st3" d="M117.7,593.5c-5.5,0.9-7.9-2.3-12.9-2.3c-0.9,0-1.6,0.2-2.2,0.5
		c5,3.2,12.6,5.1,20.3,6.3C122.5,595.8,121.3,592.9,117.7,593.5z"/>
	<path id="Bremslicht_rechts" class="st3" d="M181.7,593.5c-3.8-0.6-5,2.8-5.3,4.9c7.9-1.1,15.9-2.9,21.5-5.9
		c-0.7-0.7-1.8-1.2-3.3-1.2C189.6,591.2,187.2,594.4,181.7,593.5z"/>
</g>
<g id="Ebene_2">
	<path id="V" class="st4" d="M141.5,533v-2.9l14.9-4.6l-14.9-4.6v-2.9l19,6.2v2.5L141.5,533z"/>
	<rect id="i" x="146.9" y="512.9" width="13.5" height="2.7"/>
	<path id="s" class="st4" d="M160.7,505.3c0,0-0.1,0.4-0.2,1.1c-0.2,0.7-0.4,1.4-0.7,2c-0.3,0.6-0.7,1.2-1.2,1.7l-1.9-1.6
		c0.6-0.7,1-1.5,1.3-2.2c0.3-0.7,0.4-1.4,0.4-2.1c0-1.1-0.2-1.8-0.5-2.4c-0.3-0.5-0.8-0.8-1.5-0.8c-0.4,0-0.8,0.1-1,0.4
		c-0.2,0.3-0.4,0.6-0.4,1.1c-0.1,0.4-0.1,1-0.2,1.8c0,0.1,0,0.1,0,0.2c0,0.1,0,0.2,0,0.2c0,0,0,0.1,0,0.1c0,0,0,0.1,0,0.1
		c-0.1,0.9-0.2,1.6-0.4,2.2c-0.2,0.6-0.5,1.1-1.1,1.5c-0.5,0.4-1.2,0.6-2.2,0.6c-1,0-1.8-0.2-2.4-0.6c-0.6-0.4-1.1-1-1.4-1.7
		c-0.3-0.8-0.5-1.7-0.5-2.9c0-0.7,0.1-1.4,0.2-2s0.3-1.3,0.6-1.8c0.3-0.6,0.6-1.1,1-1.7l1.9,1.6c-0.4,0.7-0.8,1.3-1,2
		c-0.2,0.7-0.3,1.3-0.3,1.9c0,0.9,0.2,1.6,0.5,2c0.3,0.5,0.8,0.7,1.4,0.7c0.4,0,0.6-0.1,0.8-0.4c0.2-0.3,0.3-0.6,0.4-1
		c0.1-0.4,0.1-0.9,0.2-1.7c0-0.1,0-0.1,0-0.2c0-0.1,0-0.1,0-0.2c0,0,0-0.1,0-0.1s0-0.1,0-0.1c0.1-0.9,0.2-1.8,0.4-2.4
		c0.2-0.7,0.6-1.2,1.1-1.7c0.6-0.5,1.4-0.7,2.5-0.7c1,0,1.8,0.2,2.4,0.6c0.6,0.4,1.1,1,1.4,1.9c0.3,0.8,0.5,1.9,0.5,3.2
		C160.7,504.9,160.7,505.3,160.7,505.3z"/>
	<path id="u" class="st4" d="M146.9,486.9h8.5c0.9,0,1.5,0.2,2,0.7c0.5,0.5,0.7,1.2,0.7,2c0,0.9-0.3,1.6-0.8,2
		c-0.5,0.5-1.3,0.7-2.2,0.7h-8.2v2.7h8.2c1.7,0,3.1-0.4,4.1-1.2c1-0.8,1.4-2,1.4-3.5c0-0.9-0.2-1.7-0.7-2.3
		c-0.4-0.5-0.8-0.9-1.3-1.2h1.8v-2.6h-13.5V486.9z"/>
	<path id="a" class="st4" d="M149.1,470.6c-0.8,0.4-1.3,1-1.7,1.8c-0.4,0.8-0.6,1.8-0.6,2.9c0,1,0.2,2,0.5,2.8
		c0.3,0.8,0.8,1.5,1.4,2l1.3-1.9c-0.3-0.4-0.5-0.9-0.7-1.4c-0.2-0.5-0.2-1-0.2-1.6c0-0.9,0.2-1.5,0.7-2c0.5-0.5,1.2-0.7,2.1-0.7h0.6
		v3.7c0,1.5,0.3,2.7,1,3.4c0.7,0.8,1.7,1.1,3,1.1c1.4,0,2.5-0.4,3.2-1.2c0.7-0.8,1-2.1,1-3.7c0-0.6-0.1-1.1-0.2-1.5
		c-0.1-0.5-0.3-0.9-0.5-1.2c-0.2-0.2-0.3-0.4-0.5-0.6h1V470h-8.7C150.7,470,149.8,470.2,149.1,470.6z M158.2,473.3
		c0.2,0.5,0.3,1.3,0.3,2.3c0,0.9-0.2,1.6-0.5,2.1c-0.3,0.5-0.8,0.7-1.5,0.7c-0.6,0-1.1-0.2-1.4-0.5c-0.3-0.3-0.5-0.9-0.5-1.6v-3.7
		h2.6C157.6,472.5,158,472.8,158.2,473.3z"/>
	<path id="l" class="st4" d="M157,463.3c0.3,0,0.6-0.1,0.8-0.2c0.2-0.1,0.3-0.3,0.3-0.6v-1.3h2.5v1.6c0,1-0.3,1.8-0.9,2.3
		c-0.6,0.6-1.5,0.8-2.6,0.8h-15.4v-2.7H157z"/>
	<path id="X-Red_2" class="st5" d="M148.8,450.5c0,0.4-0.2,0.8-0.6,1.1l-7,3.9c-0.3,0.2-0.6,0.2-0.9,0.1c-0.3-0.1-0.6-0.3-0.7-0.6
		c-0.2-0.3-0.2-0.6-0.1-0.9c0.1-0.3,0.3-0.6,0.6-0.7l7-3.9c0.3-0.2,0.6-0.2,0.9-0.1c0.3,0.1,0.6,0.3,0.7,0.6
		C148.8,450.1,148.8,450.3,148.8,450.5z"/>
	<path id="X-Blue_2" class="st6" d="M148.8,542.6c0,0.2-0.1,0.4-0.1,0.6c-0.3,0.6-1.1,0.8-1.6,0.5l-7-3.9c-0.3-0.2-0.5-0.4-0.6-0.7
		c-0.1-0.3-0.1-0.6,0.1-0.9c0.3-0.6,1.1-0.8,1.6-0.5l7,3.9C148.6,541.7,148.8,542.1,148.8,542.6z"/>
	<path id="X-Red_1" class="st5" d="M162.6,454.4c0,0.2-0.1,0.4-0.1,0.6c-0.2,0.3-0.4,0.5-0.7,0.6c-0.3,0.1-0.6,0.1-0.9-0.1l-7-3.9
		c-0.4-0.2-0.6-0.6-0.6-1.1c0-0.2,0.1-0.4,0.1-0.6c0.2-0.3,0.4-0.5,0.7-0.6c0.3-0.1,0.6-0.1,0.9,0.1l7,3.9c0.3,0.2,0.5,0.4,0.6,0.7
		C162.6,454.1,162.6,454.2,162.6,454.4z"/>
	<path id="X-Blue_1" class="st6" d="M162.6,538.7c0,0.1,0,0.2,0,0.3c-0.1,0.3-0.3,0.6-0.6,0.7l-7,3.9c-0.6,0.3-1.3,0.1-1.6-0.5
		c-0.1-0.2-0.1-0.4-0.1-0.6c0-0.4,0.2-0.8,0.6-1.1l7-3.9c0.6-0.3,1.3-0.1,1.6,0.5C162.6,538.3,162.6,538.5,162.6,538.7z"/>
	<circle id="i-dot_yellow" class="st7" cx="143.1" cy="514.3" r="1.5"/>
</g>
</svg>
