<?xml version="1.0" encoding="utf-8"?>
<!-- Generator: Adobe Illustrator 19.0.0, SVG Export Plug-In . SVG Version: 6.00 Build 0)  -->
<svg version="1.1" id="Ebene_1" xmlns="http://www.w3.org/2000/svg" xmlns:xlink="http://www.w3.org/1999/xlink" x="0px" y="0px"
	 viewBox="-110 260.9 374 321" style="enable-background:new -110 260.9 374 321;" xml:space="preserve">
<style type="text/css">
	.st0{fill:#FFCCAA;stroke:#000000;stroke-width:2;}
	.st1{fill:none;stroke:#897F6A;stroke-width:2;}
</style>
<path class="st0" d="M-69.1,573.9c3.3-4,42-22.7,42-22.7c10-5.4,28.7-10,35.3-6.7s13.3,1.3,25.3,1.3c12,0,31.4,0.7,48-8
	s26-66,41.3-64.7s32.7,4.9,47.1,10.2c32.4,18.3,38.8,16,46.4,12c7.6-4,9.2-27.8-15.2-36.2c-24.5-8.4-24.2-11.4-43.8-18.3
	c-11.3-4-16.3-2.7-20.7-8.5c-7-9.4,43-28,65-32s63-10,56-24s-37-12-109,6s-75,10-89,4s8-48,8-61s-5-33-11-46s-20-12-27-7
	c3,7,5,23.5,4,30.5s-5,20-9,33s-15,36-27,55s-35,44-40,47s-40,23-62,26"/>
<path class="st1" d="M74.1,478.8c8-17.3,20-50,54-48"/>
<path class="st1" d="M31.2,460.1c14.3-8,25-29.4,25.3-54.7"/>
<path class="st1" d="M136.1,416.1c4-5.3-5.3-24-13.3-25.3"/>
<path class="st1" d="M178.8,398.8c2.7-5.4-8-14.7-13.3-18.7"/>
<path class="st1" d="M223.7,390.3c-1.4-2.7-3.5-14.2-10.2-18.2"/>
<path class="st1" d="M130.8,466.8c-2.7-9.4,1.3-22.7,9.3-26.7"/>
<path class="st1" d="M156.7,475.4c-2.6-4-2.1-24,4.6-28"/>
<path class="st1" d="M181.7,485.1c-4.5-11-3.5-20,5.1-26.5"/>
<path class="st1" d="M74.6,420.3c1-6-2-14-6-24"/>
<path class="st1" d="M42.6,324.3c22.3,4.3,13.1,2.7,25,1"/>
<path class="st1" d="M-21.8,466.8c-6.7-4-10.7-8-14.7-20"/>
<path class="st0" d="M98,533c4.7-2.7,15.3-26.1,6-25c-11.3,1.3-17.3-0.4-39.3-3.7S38,499,32.7,497s-27.3-4.7-29.3,0s-4.7,6-1.3,12.7
	c3.4,6.7,16,14,24.7,16.7s20.1,4.8,36,8C92.8,540.4,93.3,535.7,98,533z"/>
<path class="st0" d="M66.2,471.1c23.2-0.6,17.5-6.6,35.6-5.3s18.9,10,19.6,14s2.1,16.7-7.3,24s-19.6,8-24.7,6s-6.6-3.3-24-7.3
	s-18.9-2-27.6-4.7c-8.7-2.6-25.5-10-26.9-11.3s-3.6-6.6,1.5-12s14.5-4,33.4-2.7C45.8,471.8,42.9,471.8,66.2,471.1z"/>
<path class="st1" d="M106.1,503.7c9.6-7.1,12.6-8,10.7-25.3"/>
<path class="st1" d="M86.2,496.1c0,0,1.3-12,1.3-17.3"/>
<path class="st1" d="M53.2,494.4c0-4,1.3-14.6,1.3-17.3"/>
<path class="st1" d="M41.1,524.4c0,0,6.7-13.3,6.7-17.3"/>
<path class="st1" d="M73.4,530.8c4-1.3,5.4-13.3,6.7-16"/>
<path class="st1" d="M-25.9,528.1c-6.6-6.6-10.6-37.3-17.3-49.3"/>
</svg>
