<?xml version="1.0" encoding="utf-8"?>
<!-- Generator: Adobe Illustrator 19.0.0, SVG Export Plug-In . SVG Version: 6.00 Build 0)  -->
<svg version="1.1" xmlns="http://www.w3.org/2000/svg" xmlns:xlink="http://www.w3.org/1999/xlink" x="0px" y="0px"
	 viewBox="0 0 3500 2500" style="enable-background:new 0 0 3500 2500;" xml:space="preserve">
<g id="Object">
	<path style="fill:#576C89;" d="M2945.7,2196.1H516.3l0,0c0-30,24.3-54.3,54.3-54.3h2320.8
		C2921.4,2141.8,2945.7,2166.1,2945.7,2196.1L2945.7,2196.1z"/>
	<g>
		<g>
			<g>
				<path style="fill:#FAE0B2;" d="M1264.4,1580.5h-562c0,0,9.8,40.7,9.8,84.9c0,42.9-9.8,84.9-9.8,84.9h562
					c19.9,0,36.1-16.2,36.1-36.1v-97.5C1300.5,1596.7,1284.3,1580.5,1264.4,1580.5z"/>
				<path style="fill:#184655;" d="M694.8,1557.4c-6.4,0-11.5,5.2-11.5,11.5c0,3.2,1.3,6.1,3.4,8.2c2.1,2.1,5,3.4,8.2,3.4h7.6h562
					c19.9,0,36.1,16.2,36.1,36.1v97.5c0,19.9-16.2,36.1-36.1,36.1h-562h-7.6c-6.4,0-11.5,5.2-11.5,11.5c0,3.2,1.3,6,3.4,8.2
					c2.1,2.1,5,3.4,8.2,3.4h569.6c32.7,0,59.2-26.5,59.2-59.2v-97.6c0-32.7-26.5-59.2-59.2-59.2H694.8z"/>
			</g>
			<path style="fill:#E5BD83;" d="M1227.3,1613.4c-33.3-1.5-66.6-2.5-99.8-3c-33.3-0.6-66.6-0.8-99.8-0.9
				c-33.3,0.1-66.6,0.2-99.8,0.8c-33.3,0.5-66.6,1.5-99.8,3c33.3,1.5,66.6,2.5,99.8,3c33.3,0.6,66.6,0.8,99.8,0.8
				c33.3-0.1,66.6-0.2,99.8-0.9C1160.8,1615.8,1194,1614.8,1227.3,1613.4z"/>
			<path style="fill:#E5BD83;" d="M1248.1,1665.4c-12.6-1.6-25.1-2.4-37.7-3c-12.6-0.6-25.1-0.8-37.7-0.9
				c-12.6,0.1-25.1,0.2-37.7,0.8c-12.6,0.6-25.1,1.4-37.7,3c12.6,1.6,25.1,2.4,37.7,3c12.6,0.6,25.1,0.8,37.7,0.8
				c12.6-0.1,25.1-0.2,37.7-0.9C1223,1667.8,1235.5,1667,1248.1,1665.4z"/>
			<path style="fill:#E5BD83;" d="M1151.9,1718.7c-12.6-1.6-25.1-2.4-37.7-3c-12.6-0.6-25.1-0.8-37.7-0.9
				c-12.6,0.1-25.1,0.2-37.7,0.8c-12.6,0.6-25.1,1.4-37.7,3c12.6,1.6,25.1,2.4,37.7,3c12.6,0.6,25.1,0.8,37.7,0.8
				c12.6-0.1,25.1-0.2,37.7-0.9C1126.7,1721.1,1139.3,1720.3,1151.9,1718.7z"/>
			<path style="fill:#E5BD83;" d="M1072.5,1687.5c-29.1-1.5-58.1-2.5-87.2-3c-29.1-0.6-58.1-0.8-87.2-0.9
				c-29.1,0.1-58.1,0.2-87.2,0.8c-29.1,0.5-58.1,1.5-87.2,3c29.1,1.5,58.1,2.5,87.2,3c29.1,0.6,58.1,0.8,87.2,0.8
				c29.1-0.1,58.1-0.2,87.2-0.9C1014.4,1690,1043.4,1689,1072.5,1687.5z"/>
			<path style="fill:#50BFA5;" d="M1131.1,1768.1c17-32.1,17-70.6,0-102.8c32.1,0,64.2,0,96.3,0c17,32.1,17,70.6,0,102.8
				c-11.4-8.7-24.1-18-38-27.4C1171.1,1750.2,1151.7,1759.4,1131.1,1768.1z"/>
		</g>
		<g>
			<g>
				<path style="fill:#FAE0B2;" d="M1221.7,2047.6c0,0-11.8,38.5,0.5,85.8l41.1-3.4l116.8-8.9v0c0,0-3.5-18.7-3.5-40.5
					c0-20.1,3.5-40.6,3.5-40.6l-115.1,5.5L1221.7,2047.6z"/>
				<path style="fill:#F79C8D;" d="M1209.4,2029.6c0,0-22.9,53.2,0,122l173.8-11.5c3.7-0.3,6.7-4.7,6.5-10c-0.2-5.2-3.2-9.3-6.9-9.3
					c-0.1,0-0.2,0-0.3,0l-2.5,0.2l-116.8,8.9l-41.1,3.4c-12.3-47.3-0.5-85.8-0.5-85.8l43.3-2.2l115.1-5.5l2.8-0.2
					c3.7-0.2,6.6-4.4,6.6-9.6c0-5.3-3.1-9.6-6.8-9.6c-0.1,0-0.2,0-0.3,0L1209.4,2029.6z"/>
				<polygon style="fill:#F47458;" points="691,2012.9 707.6,2012.9 1209.4,2029.6 1382.4,2020.6 877.5,2010.6 				"/>
				<path style="fill:#F47458;" d="M691,2012.9c0,0-24.2,71.3-2.7,124.3h19.3l501.8,14.4c-22.9-68.8,0-122,0-122l-501.8-16.7H691z"
					/>
			</g>
			<path style="fill:#E5BD83;" d="M1219.1,2072c18.1,0.8,36.1,0.3,54.1-0.7c18-1.1,36-2.5,53.9-5.3c-18.1-0.9-36.1-0.3-54.1,0.7
				C1254.9,2067.8,1237,2069.2,1219.1,2072z"/>
			<path style="fill:#E5BD83;" d="M1311.4,2100.9c10.1,0.9,20,0.4,30-0.5c9.9-1,19.8-2.4,29.5-5.2c-10.1-0.9-20-0.4-30,0.5
				C1331,2096.8,1321.1,2098.2,1311.4,2100.9z"/>
			<path style="fill:#F8C558;" d="M1298.1,2116c7.5-11.6,6.1-37.9-2.6-48.7c-15.2,0.8-30.4,1.6-45.6,2.4c8.6,10.7,10,37.1,2.6,48.7
				c9.4-3.6,18.5-8.2,26.9-13.3C1286.1,2109.4,1292.3,2113.2,1298.1,2116z"/>
			<path style="fill:#F8C558;" d="M1167,2150.2c-21.5-53,2.6-122.1,2.6-122.1h-46.9c0,0-24.1,69.1-2.6,122.1H1167z"/>
			<path style="fill:#F8C558;" d="M772.9,2139.5c-21.5-53,2.6-122.1,2.6-122.1h-46.9c0,0-24.1,69.1-2.6,122.1H772.9z"/>
		</g>
		<g>
			<g>
				<path style="fill:#355389;" d="M908.8,1905.3l11.9,1.1c-29.6,2.1-51.8,27.7-49.7,57.3l1.2,16.4c1.8,24.7,20,44.2,43.1,48.8
					l-190.9-15.3c-31.8-3.1-55-31.5-51.7-63.3l0.9-8.8c3.2-31.4,31-54.3,62.4-51.5l0,0L908.8,1905.3z"/>
				<polygon style="fill:#355389;" points="1368.4,1896.2 920.7,1906.4 908.8,1905.3 736.1,1889.9 736,1889.9 734,1889.7 				"/>
				<path style="fill:#466EB6;" d="M1355.6,1914.2l-433.9,11.4c-9.8,0.8-18.6,5.7-24.7,13.6c-5.2,6.9-7.3,15.7-6.7,24.3l1.1,15.1
					c1.3,17.6,16,31.7,33.7,31.9c1,0,2,0,3-0.1l0.5,0l427.5-9.7l10.6-0.3c5-0.1,9.1,4,9,9l0,1.6c-0.1,4.7-3.9,8.6-8.6,8.7
					l-437.6,9.9c-4.9,0.3-9.6,0-14.2-0.9c-23.2-4.5-41.4-24.1-43.1-48.8l-1.2-16.4c-2.1-29.6,20.1-55.2,49.7-57.3l447.7-10.2
					c5-0.1,9.1,4,9,9c-0.1,4.7-3.8,8.6-8.6,8.7L1355.6,1914.2z"/>
				<path style="fill:#FAE0B2;" d="M1356.1,2000.7l-427.5,9.7l-0.5,0c-1,0.1-2,0.1-3,0.1c-17.6-0.3-32.4-14.3-33.7-31.9l-1.1-15.1
					c-0.6-8.7,1.5-17.4,6.7-24.3c6-7.9,14.9-12.8,24.7-13.6l433.9-11.4c-0.2,0.8-5.7,26.6-5.9,43.2
					C1349.4,1973.9,1356.1,2000.7,1356.1,2000.7z"/>
			</g>
			<path style="fill:#E5BD83;" d="M927.9,1950.7c12.5-2.1,25.1-3.4,37.6-4.5c12.6-1.1,25.1-1.8,37.7-2.3c12.6-0.4,25.2-0.8,37.8-0.7
				c12.6,0.1,25.2,0.4,37.9,1.5c-12.5,2.1-25.1,3.4-37.6,4.5c-12.6,1.1-25.1,1.8-37.7,2.3c-12.6,0.4-25.2,0.8-37.8,0.6
				C953.2,1952.1,940.6,1951.8,927.9,1950.7z"/>
			<path style="fill:#E5BD83;" d="M1031.4,1985.8c12.5-2.1,25.1-3.4,37.6-4.5c12.6-1.1,25.1-1.8,37.7-2.3
				c12.6-0.4,25.2-0.8,37.8-0.7c12.6,0.1,25.2,0.4,37.9,1.5c-12.5,2.1-25.1,3.4-37.6,4.5c-12.6,1.1-25.1,1.8-37.7,2.3
				c-12.6,0.4-25.2,0.8-37.8,0.6C1056.7,1987.3,1044.1,1986.9,1031.4,1985.8z"/>
			<path style="fill:#50BFA5;" d="M1048.5,2051.2c17.4-23.3,18.5-80.9,1.9-104.7c-32.1-0.5-60.6,2.9-92.7,2.4
				c16.6,23.8,11.9,77.5-5.4,100.8c20.3-6.2,40-14.6,58.5-24.1C1024.3,2035.6,1036.7,2044.4,1048.5,2051.2z"/>
			<path style="fill:#E5BD83;" d="M1142.3,1963.3c17.2-2.1,34.5-3.4,51.8-4.5c17.3-1.1,34.5-1.8,51.8-2.3
				c17.3-0.4,34.6-0.8,51.9-0.6c17.3,0.1,34.6,0.4,51.9,1.5c-17.2,2.1-34.5,3.4-51.8,4.5c-17.3,1.1-34.5,1.8-51.8,2.3
				c-17.3,0.4-34.6,0.8-51.9,0.6C1176.9,1964.8,1159.6,1964.4,1142.3,1963.3z"/>
		</g>
		<g>
			<g>
				<path style="fill:#FAE0B2;" d="M1122.8,1803.7c0,0-16.6,38.5,0.6,85.8l65.3-3.6l163.8-8.9v0c0,0-5-18.7-5-40.5
					c0-20.1,5-40.6,5-40.6v0l-161.4,5.5L1122.8,1803.7z"/>
				<path style="fill:#BF50A7;" d="M1356,1876.8l-3.4,0.2l-163.8,8.9l-65.3,3.6c-17.2-47.3-0.6-85.8-0.6-85.8l68.3-2.3l161.4-5.5
					l3.9-0.1c5.2-0.2,9.3-4.4,9.3-9.6c0-5.3-4.3-9.6-9.5-9.6c-0.2,0-0.3,0-0.4,0l-242.5,9c0,0-32,53.2,0,122l243.6-11.5
					c5.2-0.3,9.3-4.7,9.2-10c-0.2-5.2-4.5-9.3-9.7-9.3C1356.2,1876.8,1356.1,1876.8,1356,1876.8z"/>
				<polygon style="fill:#8F3C7D;" points="1355.7,1776.5 691.3,1768.1 694.9,1768.3 1113.3,1785.5 				"/>
				<path style="fill:#8F3C7D;" d="M1105.1,1785.1l-410.2-16.9c-20.4-0.8-37.5,15.5-37.6,36l-0.3,51.1
					c-0.1,19.5,15.3,35.6,34.8,36.4l421.4,15.8c-32-68.8,0-122,0-122L1105.1,1785.1z"/>
			</g>
			<path style="fill:#E5BD83;" d="M1124,1836.7c12.7,0.9,25.3,1,37.9,0.9c12.6-0.1,25.2-0.6,37.8-1.2c12.6-0.8,25.1-1.6,37.7-2.9
				c12.5-1.3,25.1-2.8,37.6-5.1c-12.7-0.9-25.3-1-37.9-0.9c-12.6,0.1-25.2,0.6-37.8,1.3c-12.6,0.8-25.1,1.6-37.7,2.9
				C1149.1,1832.8,1136.5,1834.4,1124,1836.7z"/>
			<path style="fill:#E5BD83;" d="M1257.9,1856.8c14,0.9,27.9,0.4,41.8-0.5c13.9-1,27.7-2.4,41.5-5.2c-14-0.9-27.9-0.4-41.8,0.5
				C1285.5,1852.7,1271.6,1854,1257.9,1856.8z"/>
			<path style="fill:#F47458;" d="M1235.4,1912c12.8-18.8,11.5-63.6-2.4-81.6c-25.1,0.7-49.3,3.8-74.5,4.6
				c13.9,18.1,14.2,60.4,1.4,79.3c15.6-5.6,30.8-12.8,44.9-20.9C1215.9,1900.7,1225.9,1907.2,1235.4,1912z"/>
		</g>
	</g>
	<g>
		<g>
			<rect x="2608.9" y="1384.5" style="fill:#FEC65E;" width="27.9" height="199.1"/>
			<polygon style="fill:#FEC65E;" points="2717.2,1384.5 2720.5,1384.5 2720.5,1583.7 2692.6,1583.7 2692.6,1384.5 			"/>
			<rect x="2636.8" y="1384.5" style="fill:#F7F07F;" width="55.8" height="199.1"/>
			<path style="fill:#DDDDDD;" d="M2717.3,1361.8c5.6,0,10.2,4.5,10.2,10.2v2.4c0,5.6-4.6,10.2-10.3,10.2h-24.6l-28.2-0.1l-52.9-0.1
				c-5.5-0.1-10.2-4.6-10.1-10.3v-2.4c0-5.5,4.3-10,9.9-10.2c0.3,0.1,0.5,0.1,0.7,0.1l52.3,0.1L2717.3,1361.8z"/>
			<path style="fill:#EFEFEF;" d="M2718.5,1339.2c5.2,0.2,9.5,4.7,9.5,10.1v2.5c0,5.5-4.6,10.2-10.2,10.1h-0.6l-52.9-0.1l-52.8-0.2
				c-0.1,0-0.2,0-0.3,0c-5.2-0.3-9.4-4.7-9.3-10.1v-2.4c0-5.4,4.1-9.7,9.3-10.2c0.3,0.1,0.6,0.1,0.8,0.1l105.7,0.2
				C2718.1,1339.2,2718.3,1339.2,2718.5,1339.2z"/>
			<path style="fill:#DDDDDD;" d="M2728.1,1329.1c-0.1,5.4-4.4,9.8-9.6,10.1c-0.2-0.1-0.4-0.1-0.6-0.1l-105.7-0.3
				c-0.3,0-0.6,0-0.8,0.1c-5.3-0.4-9.3-4.8-9.3-10.2v-2.4c0-5.5,4.6-10.1,10.2-10.1l105.7,0.1l0.4,0.1c5.5,0.3,9.7,4.7,9.8,10.2
				V1329.1z"/>
			<path style="fill:#F47458;" d="M2721.3,1273.8v42.6h-3l-0.4-0.1l-105.7-0.1l-3.3-0.1l0.1-42.6c0.1-15,12.2-27.1,27.1-27h58.3
				C2709.3,1246.7,2721.4,1258.8,2721.3,1273.8z"/>
		</g>
		<g>
			<path style="fill:#13375B;" d="M2945.2,1393.5l-24.1,132.9c-0.6,4-4.4,6.6-8.4,5.8c-3.7-0.6-6.3-4.1-5.9-7.9l11.9-113.6
				c1.3-12.6-4.5-25-15.1-32l-5.2-3.4l6.7-37.3l28.1,22.9C2942.9,1368.8,2947.4,1381.3,2945.2,1393.5z"/>
			<polygon style="fill:#86B1F2;" points="2785.8,1358.7 2897.7,1378.9 2853.9,1660.2 2735.1,1638.6 			"/>
			<polygon style="fill:#355389;" points="2898.4,1375.4 2897.7,1378.9 2785.8,1358.7 2794,1314.2 2905.8,1334.5 2905.1,1338.1 			
				"/>
			<path style="fill:#86B1F2;" d="M2892.5,1255.3c14.7,6.2,23.7,22,20.7,38.4l-7.4,40.8l-111.8-20.3l7.4-40.8
				c3-16.6,17.3-28.3,33.5-28.7L2892.5,1255.3z"/>
			<path style="fill:#355389;" d="M2834.8,1244.7l8.1-44.7c2.4-13.1,14.9-21.8,28-19.4l10.3,1.8c13.1,2.4,21.8,14.9,19.4,28
				l-8.1,44.9L2834.8,1244.7z"/>
		</g>
		<g>
			
				<rect x="2435" y="1105.1" transform="matrix(0.9927 -0.1208 0.1208 0.9927 -146.6574 310.9476)" style="fill:#FFDC9F;" width="114.1" height="520.8"/>
			<g>
				<g>
					
						<rect x="2434.9" y="1102.8" transform="matrix(0.121 0.9927 -0.9927 0.121 3269.7666 -1422.9801)" style="fill:#13375B;" width="6.9" height="64"/>
				</g>
				<g>
					
						<rect x="2423.7" y="1143.2" transform="matrix(0.121 0.9927 -0.9927 0.121 3285.9192 -1388.873)" style="fill:#13375B;" width="6.9" height="35.5"/>
				</g>
				<g>
					
						<rect x="2426.5" y="1166.2" transform="matrix(0.121 0.9927 -0.9927 0.121 3311.2173 -1371.4233)" style="fill:#13375B;" width="6.9" height="35.5"/>
				</g>
				<g>
					<polygon style="fill:#13375B;" points="2415.6,1212.5 2414.7,1205.6 2450,1201.3 2450.8,1208.2 					"/>
				</g>
				<g>
					
						<rect x="2432.1" y="1212.2" transform="matrix(0.121 0.9927 -0.9927 0.121 3361.7454 -1336.572)" style="fill:#13375B;" width="6.9" height="35.5"/>
				</g>
				<g>
					
						<rect x="2449.1" y="1219.2" transform="matrix(0.121 0.9927 -0.9927 0.121 3397.769 -1334.7118)" style="fill:#13375B;" width="6.9" height="64"/>
				</g>
				<g>
					
						<rect x="2437.7" y="1258.2" transform="matrix(0.121 0.9927 -0.9927 0.121 3412.3145 -1301.7017)" style="fill:#13375B;" width="6.9" height="35.5"/>
				</g>
				<g>
					
						<rect x="2440.5" y="1281.2" transform="matrix(0.121 0.9927 -0.9927 0.121 3437.6123 -1284.2524)" style="fill:#13375B;" width="6.9" height="35.5"/>
				</g>
				<g>
					
						<rect x="2443.3" y="1304.2" transform="matrix(0.121 0.9927 -0.9927 0.121 3462.897 -1266.8173)" style="fill:#13375B;" width="6.9" height="35.5"/>
				</g>
				<g>
					<polygon style="fill:#13375B;" points="2432.4,1350.5 2431.5,1343.6 2466.7,1339.3 2467.6,1346.2 					"/>
				</g>
				<g>
					
						<rect x="2463" y="1334.2" transform="matrix(0.121 0.9927 -0.9927 0.121 3524.2053 -1247.5242)" style="fill:#13375B;" width="6.9" height="64"/>
				</g>
				<g>
					
						<rect x="2451.7" y="1373.1" transform="matrix(0.121 0.9927 -0.9927 0.121 3538.7461 -1214.5179)" style="fill:#13375B;" width="6.9" height="35.5"/>
				</g>
				<g>
					
						<rect x="2454.5" y="1396.2" transform="matrix(0.121 0.9927 -0.9927 0.121 3564.0813 -1197.053)" style="fill:#13375B;" width="6.9" height="35.5"/>
				</g>
				<g>
					
						<rect x="2457.3" y="1419.1" transform="matrix(0.121 0.9927 -0.9927 0.121 3589.366 -1179.6176)" style="fill:#13375B;" width="6.9" height="35.5"/>
				</g>
				<g>
					
						<rect x="2460.1" y="1442.1" transform="matrix(0.121 0.9927 -0.9927 0.121 3614.6177 -1162.1967)" style="fill:#13375B;" width="6.9" height="35.5"/>
				</g>
				<g>
					
						<rect x="2477" y="1449.1" transform="matrix(0.121 0.9927 -0.9927 0.121 3650.637 -1160.3405)" style="fill:#13375B;" width="6.9" height="64"/>
				</g>
				<g>
					
						<rect x="2465.7" y="1488.1" transform="matrix(0.121 0.9927 -0.9927 0.121 3665.178 -1127.3342)" style="fill:#13375B;" width="6.9" height="35.5"/>
				</g>
				<g>
					
						<rect x="2468.5" y="1511.1" transform="matrix(0.121 0.9927 -0.9927 0.121 3690.4758 -1109.8854)" style="fill:#13375B;" width="6.9" height="35.5"/>
				</g>
				<g>
					
						<rect x="2471.3" y="1534.1" transform="matrix(0.121 0.9927 -0.9927 0.121 3715.7649 -1092.4481)" style="fill:#13375B;" width="6.9" height="35.5"/>
				</g>
				<g>
					
						<rect x="2474.1" y="1557.1" transform="matrix(0.121 0.9927 -0.9927 0.121 3741.0496 -1075.0129)" style="fill:#13375B;" width="6.9" height="35.5"/>
				</g>
				<g>
					
						<rect x="2491" y="1564.1" transform="matrix(0.121 0.9927 -0.9927 0.121 3777.0732 -1073.1527)" style="fill:#13375B;" width="6.9" height="64"/>
				</g>
			</g>
		</g>
		<path style="fill:#F47458;" d="M2885.7,1579.4v428.8c0,73.7-59.8,133.5-133.5,133.5h-186c-63.4,0-116.4-44.2-130-103.4h-0.1
			c-2.2-9.7-3.4-19.8-3.4-30.1v-428.8H2885.7z"/>
		<path style="fill:#E05D48;" d="M2885.7,1579.4v428.8c0,73.7-59.8,133.5-133.5,133.5h-186c-63.4,0-116.4-44.2-130-103.4
			c191,85.3,379.4,22.5,415.8-158.9C2882.2,1727.8,2885.4,1613.3,2885.7,1579.4z"/>
	</g>
	<g>
		<g>
			<polygon style="fill:#E5BD83;" points="2597.4,1051.9 2598.5,2030.2 2529.6,1961.4 2529.6,984 2556.5,1010.9 			"/>
			<path style="fill:#C9A16B;" d="M2529.6,1961.4l68.8,68.8c-356.1-59.7-644.8,21.3-644.8,21.3h-138.2
				c-204.8-92.2-635.6-20.3-635.6-20.3l69.8-69.8c0,0,430.1-71.9,640,27.9C2099.6,1889.4,2529.6,1961.4,2529.6,1961.4z"/>
			<path style="fill:#FAE0B2;" d="M2529.6,984v977.3c0,0-430.1-71.9-640,27.9v-892.7C1889.7,1096.6,2140.5,902.1,2529.6,984z"/>
			<path style="fill:#FAE0B2;" d="M1889.7,1096.6v892.7c-209.9-99.9-640-27.9-640-27.9V984
				C1638.8,902.1,1889.7,1096.6,1889.7,1096.6z"/>
			<path style="fill:#7F7F7F;" d="M2683.2,1010.9v1076.4c0,0-440-76.9-729.6,0h-148.5c-302-92.2-709,0-709,0V1010.9h126.7
				l-47.3,47.3l4.4,972.9c0,0,430.7-71.9,635.6,20.3h138.2c0,0,288.7-81,644.8-21.3l-1.1-978.3l-40.9-41H2683.2z"/>
			<polygon style="fill:#E5BD83;" points="1249.7,984 1249.7,1961.4 1179.9,2031.2 1175.5,1058.2 1222.8,1010.9 			"/>
		</g>
		<g>
			<path style="fill:#B28856;" d="M1438.8,1978.1c24.3-4,48.9-5.7,73.5-6.5c24.6-0.9,49.3-0.3,73.9,1.3c12.3,0.7,24.6,2.1,36.8,3.3
				c12.2,1.8,24.5,2.9,36.6,5.4c24.3,3.9,48.3,9.7,71.9,16.7c-12.2-1.7-24.2-4.4-36.4-5.9c-12.1-1.9-24.2-3.7-36.4-5.1
				c-24.3-3-48.7-5.4-73.1-6.9c-24.4-1.8-48.9-2.6-73.4-3.1C1487.9,1977,1463.4,1977.3,1438.8,1978.1z"/>
			<path style="fill:#B28856;" d="M1889.1,2015.6c-9.8-3.5-19.6-6.9-29.5-9.7c-9.9-3.1-19.8-5.9-29.8-8.5c-20-5.2-40.1-10-60.3-14.3
				c-20.2-4.3-40.5-8-60.9-11.5c-20.4-3.5-40.9-6.4-61.4-9.7c10.4,0.1,20.8,0.6,31.2,1.1c10.3,0.9,20.7,1.6,31.1,2.9
				c20.7,2.2,41.3,5.7,61.7,9.9c20.4,4.5,40.6,9.5,60.4,16.1C1851.2,1998.4,1870.8,2005.7,1889.1,2015.6z"/>
			<path style="fill:#B28856;" d="M2564,1999.9l-64-6l-63.9-5.7l-128-10.7c10.7-0.5,21.5-0.8,32.2-0.9c10.7,0,21.5,0.1,32.2,0.4
				c21.5,0.4,42.9,1.9,64.3,3.6c21.4,1.9,42.7,4.2,64,7.5C2521.9,1991.3,2543.1,1994.9,2564,1999.9z"/>
			<path style="fill:#B28856;" d="M2318.3,1958.7c-24.6-0.9-49.1-1.1-73.6-0.7c-24.5,0.5-49,1.3-73.4,3.1
				c-24.4,1.5-48.8,3.9-73.1,6.9c-12.2,1.3-24.3,3.1-36.4,5.1c-12.2,1.5-24.2,4.2-36.4,5.9c23.6-7,47.6-12.8,71.9-16.7
				c12.1-2.4,24.4-3.6,36.6-5.4c12.3-1.2,24.5-2.6,36.8-3.3c24.6-1.6,49.3-2.2,73.9-1.3C2269.3,1953,2294,1954.7,2318.3,1958.7z"/>
			<path style="fill:#B28856;" d="M1884.2,2042.5c18.3-10,37.9-17.3,57.7-23.8c19.8-6.6,40-11.6,60.4-16.1c20.4-4.1,41-7.7,61.7-9.9
				c10.3-1.2,20.7-1.9,31.1-2.9c10.4-0.5,20.8-1,31.2-1.1c-20.5,3.4-41.1,6.2-61.4,9.7c-20.4,3.5-40.7,7.2-60.9,11.5
				c-20.2,4.2-40.3,9-60.3,14.3c-10,2.6-20,5.4-29.8,8.5C1903.8,2035.6,1894,2038.9,1884.2,2042.5z"/>
			<path style="fill:#B28856;" d="M1226.7,1989.3c20.9-5,42.1-8.6,63.3-11.7c21.2-3.2,42.6-5.6,64-7.5c21.4-1.8,42.8-3.2,64.3-3.6
				c10.7-0.3,21.5-0.4,32.2-0.4c10.7,0.2,21.5,0.4,32.2,0.9l-128,10.7l-63.9,5.7L1226.7,1989.3z"/>
		</g>
		<path style="fill:#184655;" d="M1527.7,2095.7c19.1-37.7,21.4-83.9,6.2-123.3c32.4,1.6,64.8,3.2,97.3,4.9
			c15.3,39.4,13,85.6-6.2,123.3c-11-11.1-23.3-22.8-36.8-34.8C1569.3,2076.1,1549.1,2086.2,1527.7,2095.7z"/>
		<rect x="1815.4" y="2051.5" style="fill:#184655;" width="138.2" height="35.8"/>
		<path style="fill:#F7CC7F;" d="M1889.7,1096.6c4.7,74.4,7.2,148.8,8.8,223.2c1,37.2,1.3,74.4,1.9,111.6l0.6,111.6l-0.6,111.6
			c-0.6,37.2-0.8,74.4-1.9,111.6c-1.7,74.4-4.1,148.8-8.9,223.2c-4.7-74.4-7.2-148.8-8.9-223.2c-1.1-37.2-1.3-74.4-1.9-111.6
			l-0.6-111.6l0.6-111.6c0.6-37.2,0.8-74.4,1.9-111.6C1882.5,1245.4,1885,1171,1889.7,1096.6z"/>
	</g>
</g>
<g id="Ebene_2">
	<g>
		<g>
			<path style="fill:#030102;" d="M1381.7,1202.1c6.2-1.1,12.3-2.1,18.5-3c-12.2-45.9-24.4-93.1-36.6-141.7c-4.9,0.3-9.7,0.6-14.6,1
				c-17.7,51.3-35.3,105.4-52.8,162.1c6-1.6,12.1-3.1,18.2-4.6c3.6-12.2,7.3-24.2,10.9-36.1c16.2-3.3,32.6-6.2,49-8.7
				C1376.8,1181.6,1379.3,1191.9,1381.7,1202.1z M1332,1158.3c7.6-24.3,15.1-48.2,22.7-71.4c5,22.1,10.1,43.9,15.2,65.4
				C1357.3,1154.1,1344.6,1156.1,1332,1158.3z"/>
			<path style="fill:#030102;" d="M1488.6,1111.5c-2-5.8-5.1-10.2-9.3-13.3c-4.3-3.1-9.5-4.7-15.7-4.7c-5.3,0-10.1,1.6-14.6,4.7
				c-3.6,2.5-6.6,5.9-9.3,10.1c1.1-17.6,2.2-35.2,3.3-52.8c-5.8-0.1-11.5-0.1-17.3-0.1c-2.8,46.7-5.7,93.8-8.5,141.2
				c5.7-0.8,11.5-1.5,17.3-2.2c0.3-4.3,0.5-8.5,0.8-12.8c1.6,3.9,4,6.8,7.2,8.9c3.9,2.5,8.6,3.5,14.1,3c6.4-0.6,12-2.6,16.8-6.1
				c4.8-3.4,8.6-8,11.3-13.9c2.8-5.9,4.4-12.8,4.9-20.8c0.4-6.9,0.9-13.7,1.3-20.5C1491.3,1124.2,1490.6,1117.3,1488.6,1111.5z
				 M1473.4,1132.7c-0.4,6.9-0.9,13.9-1.3,20.8c-0.4,6.9-2.4,12.4-5.7,16.4c-3.4,4-7.9,6.3-13.7,6.8c-3.7,0.3-6.8-0.2-9.2-1.5
				c-2.5-1.4-4.3-3.5-5.5-6.3c-1.2-2.9-1.6-6.5-1.4-10.8c0,0,0,0,0,0c0.6-9,1.1-18.1,1.7-27.1l0,0c0.3-4.1,1.1-7.7,2.7-10.7
				c1.5-3,3.6-5.3,6.3-6.9c2.7-1.6,5.8-2.4,9.5-2.5c5.7-0.1,10,1.8,12.9,5.6C1472.6,1120.2,1473.8,1125.6,1473.4,1132.7z"/>
			<path style="fill:#030102;" d="M1520.3,1059.8c5.8,0.5,11.6,1.1,17.4,1.7c-0.4,5.9-0.8,11.7-1.2,17.6c-5.8-0.5-11.6-1-17.4-1.4
				C1519.5,1071.7,1519.9,1065.8,1520.3,1059.8z M1517.9,1096.4c5.8,0.3,11.6,0.7,17.4,1.1c-2,29.9-4.1,60.1-6.1,90.4
				c-5.8,0.1-11.6,0.3-17.4,0.6C1513.8,1157.5,1515.8,1126.9,1517.9,1096.4z"/>
			<path style="fill:#030102;" d="M1605.4,1061.4c4.4-2.5,8.8-4.9,13.2-7.2c7.4,11,14.8,21.8,22.3,32.5c-3.8,1.9-7.7,3.9-11.5,5.9
				C1621.4,1082.4,1613.4,1072,1605.4,1061.4z"/>
			<path style="fill:#030102;" d="M1662.5,1186.1c-5.5-6.1-7.9-14.2-7.2-24.1c1.3-16.7,2.6-33.3,3.9-49.9
				c0.8-9.8,4.4-16.8,10.8-20.8c6.4-4,15.4-4.4,26.8-1.4c11.5,3.1,20,8.2,25.5,14.8c5.5,6.7,7.9,14.5,7.1,23.5
				c-1.3,15.1-2.6,30.3-3.9,45.6c-0.8,9.1-4.3,15.5-10.7,19.6c-6.4,4.1-15.3,5.4-26.8,3.9
				C1676.6,1195.9,1668.1,1192.3,1662.5,1186.1z M1703.1,1181.3c3.1-2.2,4.9-5.8,5.3-10.8c1.3-15.6,2.6-31.2,3.9-46.7
				c0.4-5-0.7-9.1-3.4-12.5c-2.7-3.4-7-5.9-13.2-7.5c-6.1-1.5-10.8-1.3-13.9,0.8c-3.1,2.1-4.9,5.8-5.3,10.9
				c-1.3,16.2-2.6,32.5-3.9,48.9c-0.4,5.2,0.7,9.5,3.4,12.7c2.7,3.2,7.1,5.2,13.2,6.1C1695.3,1184.2,1699.9,1183.6,1703.1,1181.3z"
				/>
			<path style="fill:#030102;" d="M1764.9,1207.1c-5.4-3.4-9.4-7.4-12.1-12.2c-2.7-4.7-3.8-9.8-3.3-15.3c0-0.5,0.1-1.1,0.1-1.6
				c0.4-4.9,2.3-9.1,5.8-12.6c3.4-3.5,7.8-5.6,13-6.3c-4.1-3-7.3-6.7-9.6-10.9c-2.3-4.2-3.3-8.3-2.9-12.2c0.1-0.8,0.1-1.5,0.2-2.3
				c0.4-5,2.3-9,5.4-11.9c3.2-2.9,7.5-4.4,12.8-4.7c5.4-0.2,11.4,0.9,18.3,3.4c6.8,2.5,12.7,5.8,17.6,9.7c4.9,3.9,8.7,8.2,11.1,12.7
				c2.5,4.5,3.5,9.1,3.1,13.6c-0.1,0.7-0.1,1.4-0.2,2.1c-0.3,3.6-2,6.5-4.9,8.7c-2.9,2.3-6.6,3.5-11.1,3.8c4.9,3.7,8.7,8,11.4,12.8
				c2.7,4.8,3.8,9.4,3.4,13.8c0,0.5-0.1,1-0.1,1.4c-0.5,4.9-2.4,8.7-5.7,11.5c-3.4,2.9-7.9,4.6-13.6,5.3c-5.7,0.7-12.2,0.2-19.6-1.5
				C1776.7,1213,1770.3,1210.5,1764.9,1207.1z M1795.7,1203c3.1-0.4,5.6-1.4,7.4-3c1.8-1.6,2.9-3.8,3.1-6.5c0-0.3,0.1-0.6,0.1-0.9
				c0.3-2.8-0.3-5.4-1.8-8c-1.4-2.6-3.6-4.9-6.5-7c-2.9-2.1-6.3-3.7-10.2-4.8c-3.9-1.2-7.5-1.5-10.6-1.2c-3.1,0.4-5.6,1.5-7.4,3.2
				c-1.8,1.8-2.9,4.2-3.1,7.1c0,0.3-0.1,0.7-0.1,1c-0.3,2.9,0.3,5.6,1.8,8.2c1.4,2.6,3.6,4.8,6.5,6.7c2.9,1.9,6.3,3.3,10.3,4.3
				C1789.1,1203.1,1792.6,1203.4,1795.7,1203z M1798,1161.6c2.7-0.3,4.9-1.2,6.5-2.7c1.6-1.5,2.6-3.6,2.8-6.2c0-0.3,0.1-0.6,0.1-0.9
				c0.2-2.5-0.3-5-1.5-7.4c-1.3-2.4-3.1-4.7-5.6-6.6c-2.5-2-5.4-3.6-8.8-4.8c-3.4-1.2-6.4-1.7-9.1-1.5c-2.7,0.2-4.9,1.1-6.5,2.6
				c-1.6,1.5-2.6,3.7-2.8,6.3c0,0.3-0.1,0.6-0.1,1c-0.2,2.7,0.3,5.3,1.5,7.9c1.3,2.5,3.1,4.7,5.7,6.7c2.5,1.9,5.5,3.4,8.8,4.4
				C1792.3,1161.4,1795.3,1161.8,1798,1161.6z"/>
		</g>
	</g>
</g>
<g id="Ebene_3">
	<g>
		<path d="M2462,1674.5c-165.1-18.6-332.8-15.7-497.9,8.7c0-110.7,0-221.5,0-332.2c165.1-43.7,332.6-66,497.7-66.8
			C2461.8,1414.3,2461.9,1544.4,2462,1674.5z"/>
	</g>
</g>
<g id="Ebene_4">
	<g>
		<g>
			<path id="V_7_" d="M1318.9,1681.3c5.7-0.5,11.3-1,17-1.4c4.8,38.9,9.7,77.3,14.5,115.3c13.1-40.8,26.3-80,39.6-117.7
				c5.8-0.1,11.6-0.1,17.4-0.1c-17.8,47-35.4,96.6-52.9,149.1c-5,0.9-10,1.8-15,2.8C1332.6,1780.8,1325.7,1731.4,1318.9,1681.3z"/>
			<path id="i_7_" d="M1406.3,1818.6c5.3-0.7,10.7-1.3,16.1-1.9c3.8-33.5,7.7-66.7,11.5-99.5c-5.4,0-10.7,0.1-16.1,0.2
				C1413.9,1750.8,1410.1,1784.5,1406.3,1818.6z"/>
			<path id="s_7_" d="M1468.5,1814.2c0,0-2.1-0.4-6.2-1.3c-4.1-0.8-7.9-2.2-11.3-4.2c-3.4-2-6.5-4.6-9.2-7.7
				c3.7-5,7.5-9.8,11.2-14.6c4,3.8,8,6.5,12.2,8.3c4.2,1.8,8.4,2.6,12.7,2.4c6.4-0.2,11.4-1.5,14.9-3.8c3.5-2.3,5.5-5.7,6.1-10.1
				c0.4-3-0.2-5.2-1.8-6.7c-1.6-1.5-3.6-2.5-6.2-3c-2.5-0.5-6.2-1-10.8-1.3c-0.4,0-0.9,0-1.3,0c-0.5,0-0.9-0.1-1.3-0.1
				c-0.2,0-0.4,0-0.6,0c-0.2,0-0.4,0-0.6,0c-5.3-0.4-9.7-1.2-13.3-2.4c-3.5-1.2-6.3-3.6-8.4-7.2c-2-3.6-2.6-8.8-1.8-15.7
				c0.8-6.8,2.7-12.5,5.6-17c2.9-4.5,6.9-7.8,11.9-9.9c5-2.1,11-3,18.2-2.6c4.3,0.2,8.4,0.9,12.2,2c3.8,1.1,7.4,2.7,10.7,4.6
				c3.4,2,6.5,4.3,9.5,7.2c-3.8,4.1-7.7,8.2-11.5,12.4c-3.8-3.1-7.6-5.5-11.4-7.1c-3.8-1.6-7.7-2.5-11.5-2.7
				c-5.5-0.2-9.8,0.8-12.8,2.9c-3,2.1-4.8,5.4-5.3,9.7c-0.3,2.6,0.2,4.5,1.6,5.8c1.4,1.3,3.3,2.1,5.6,2.6c2.3,0.4,5.7,0.8,10.1,1.1
				c0.3,0.1,0.6,0.1,1,0.1c0.3,0,0.7,0,1.1,0.1c0.2,0,0.3,0,0.5,0c0.2,0,0.3,0,0.5,0.1c5.7,0.5,10.6,1.5,14.5,2.9
				c3.9,1.4,7,4,9.3,7.9c2.3,3.9,3,9.4,2,16.6c-0.8,6.5-2.8,12-5.9,16.3c-3.1,4.4-7.4,7.7-12.8,10.1c-5.4,2.4-12,3.8-19.8,4.2
				C1470.9,1814.1,1468.5,1814.2,1468.5,1814.2z"/>
			<path id="XMLID_94_" d="M1593.5,1728.8c-2.5,17.3-4.9,34.8-7.4,52.4c-0.7,5.3-2.8,9.2-6.1,11.9c-3.3,2.7-7.7,3.9-13.1,3.6
				c-5.4-0.3-9.4-2.1-11.9-5.6c-2.5-3.5-3.4-8.3-2.6-14.4c2.4-17.6,4.7-35.2,7.1-52.5c-5.5-0.6-10.9-1.2-16.4-1.8
				c-2.4,17.7-4.7,35.5-7.1,53.5c-1.5,11.5-0.2,20.5,4,26.8c4.2,6.4,10.9,9.6,20.1,9.8c5.6,0.2,10.6-1.1,14.8-3.8
				c3.4-2.1,6.2-4.7,8.4-7.8c-0.5,3.7-1,7.4-1.6,11.2c5.4,0.3,10.9,0.6,16.3,0.9c3.9-27.6,7.8-54.9,11.7-81.8
				C1604.4,1730.5,1599,1729.6,1593.5,1728.8z"/>
			<path id="a_7_" d="M1691.6,1760c-1.9-4.6-5.1-8.6-9.7-11.9c-4.6-3.3-10.3-5.8-17.2-7.3c-6.3-1.4-12.2-1.6-17.6-0.7
				c-5.5,0.9-10,2.9-13.7,5.9c3.6,3.3,7.2,6.5,10.8,9.8c2.7-1.3,5.7-2,9.1-2.4c3.3-0.3,6.6-0.1,10,0.5c5.3,1.1,9.3,3.3,11.7,6.7
				c2.5,3.3,3.3,7.4,2.6,12.3c-0.2,1.1-0.3,2.1-0.5,3.2c-7.6-1.5-15.3-2.9-22.9-4.2c-9.4-1.6-16.7-0.8-22,2.4
				c-5.2,3.2-8.4,8.9-9.6,16.8c-1.2,8.4,0.4,14.9,4.9,19.5c4.5,4.6,11.9,7.3,22.1,8.5c3.5,0.4,6.7,0.4,9.5,0.1c2.9-0.3,5.5-1,7.8-2
				c1.5-0.7,2.9-1.5,4.1-2.5c-0.3,1.9-0.6,3.9-0.9,5.8c5.2,0.7,10.4,1.5,15.5,2.2c2.5-15.9,5-31.6,7.5-47.2
				C1694,1769.8,1693.5,1764.7,1691.6,1760z M1667.4,1807c-3.3,0.8-8,0.7-14.3-0.1c-5.7-0.8-9.8-2.2-12.4-4.5
				c-2.5-2.3-3.5-5.4-2.9-9.4c0.5-3.7,2-6.3,4.4-7.8c2.4-1.5,5.7-1.9,10-1.2c7.6,1.2,15.2,2.5,22.8,3.9c-0.7,4.7-1.5,9.4-2.2,14.2
				C1672.5,1804.6,1670.7,1806.2,1667.4,1807z"/>
			<path id="l_7_" d="M1729.6,1811.8c-0.3,1.7-0.1,3.1,0.7,4.2c0.7,1.1,1.9,1.8,3.5,2.2c2.5,0.6,5.1,1.1,7.6,1.7
				c-0.7,4.3-1.4,8.5-2.2,12.8c-3.2-0.7-6.4-1.3-9.5-1.9c-6.2-1.2-10.6-3.7-13.5-7.6c-2.8-3.9-3.8-8.9-2.8-14.9
				c4.4-27,8.8-53.6,13.3-79.7c5.4,1.7,10.8,3.5,16.2,5.3C1738.4,1759.3,1734,1785.3,1729.6,1811.8z"/>
			<path id="XMLID_90_" style="fill:#E84649;" d="M1820.6,1760.1c-2.6-1.1-4.8-3.2-5.8-5.4c-5.7-13.5-11.5-27.3-17.3-41.3
				c-0.7-1.7-0.6-3.2,0.2-4.4c0.8-1.1,2.2-1.7,4.1-1.6c1.8,0.1,3.8,0.9,5.6,2.1c1.8,1.3,3.1,2.9,3.8,4.6c5.8,13.9,11.5,27.6,17.2,41
				c0.7,1.6,0.6,3.1-0.2,4.2c-0.8,1.1-2.2,1.7-4,1.6C1823.1,1760.9,1821.8,1760.6,1820.6,1760.1z"/>
			<path id="XMLID_89_" style="fill:#44A0D9;" d="M1841.1,1769.1c-1.2-0.5-2.3-1.3-3.3-2.2c-3.2-2.9-3.8-6.6-1.4-8.2
				c9.6-6.4,19.2-12.2,28.7-17.4c1.1-0.6,2.8-0.6,4.7,0c1.9,0.6,3.8,1.8,5.3,3.4c3.1,3.1,3.8,6.6,1.4,7.9c-9.5,5-19,10.5-28.6,16.7
				C1846.3,1770.3,1843.7,1770.2,1841.1,1769.1z"/>
			<path id="XMLID_88_" style="fill:#E84649;" d="M1785.7,1814.2c-1.2-0.4-2.4-0.9-3.4-1.7c-1.6-1.2-2.6-2.8-2.9-4.4
				c-0.3-1.6,0.2-3.1,1.4-4.1c9.8-8.7,19.5-16.8,29.2-24.3c1.6-1.2,4.2-1.4,6.8-0.3c1.2,0.5,2.4,1.2,3.3,2c1.5,1.3,2.6,2.9,2.8,4.5
				c0.3,1.6-0.2,2.9-1.4,3.8c-9.7,7.3-19.4,15.2-29.1,23.7c-1.2,1-2.9,1.5-4.8,1.4C1787.1,1814.5,1786.4,1814.4,1785.7,1814.2z"/>
			<path id="XMLID_87_" style="fill:#44A0D9;" d="M1852.5,1836.3c-0.7-0.2-1.3-0.6-1.9-0.9c-1.8-1-3.1-2.5-3.8-4
				c-5.7-12.7-11.4-25.6-17.1-38.8c-1.4-3.3,0.5-5.9,4.2-5.9c1.1,0,2.4,0.3,3.6,0.8c2.6,1.1,4.8,3.1,5.7,5.2
				c5.7,13.1,11.4,25.9,17,38.5c1.4,3.1-0.4,5.6-4.1,5.7C1854.9,1837,1853.7,1836.8,1852.5,1836.3z"/>
			<path id="XMLID_86_" style="fill:#F6E71B;" d="M1438.4,1689.1c-0.7,6.1-5.5,11-10.6,11c-5.1,0-8.7-5-8-11.3
				c0.7-6.2,5.5-11.2,10.6-11.1C1435.6,1677.9,1439.1,1683,1438.4,1689.1z"/>
			<path id="XMLID_85_" style="fill:#F6E71B;" d="M1838.9,1777.7c-0.7,3.6-5.4,4.8-10.4,2.7c-5.1-2.1-8.6-6.7-7.9-10.4
				c0.7-3.7,5.4-5,10.4-2.8C1836.1,1769.4,1839.6,1774.1,1838.9,1777.7z"/>
		</g>
	</g>
</g>
<g id="Ebene_5">
	<g>
		<g>
			<path style="fill:#005CB7;" d="M1984.9,1310.2c0,0-1.2,0-3.6,0.2c-2.4,0.1-4.7,0-6.8-0.4c-2.2-0.4-4.2-1-6.2-1.9
				c1.3-2,2.6-4.1,3.9-6.1c2.3,1,4.8,1.7,7.4,1.8c2.6,0.2,5.4,0,8.3-0.7c3.9-0.9,6.8-2.2,8.8-4c1.9-1.8,2.7-3.8,2.3-6.1c0,0,0,0,0,0
				c-0.3-1.6-1-2.8-2.1-3.6c-1.1-0.7-2.5-1.2-4.1-1.3c-1.6-0.1-3.7,0-6.2,0.2c-0.1,0-0.2,0-0.2,0c-0.1,0-0.2,0-0.2,0
				c-0.2,0-0.4,0-0.6,0c-3.7,0.3-6.8,0.4-9.1,0.3c-2.4-0.1-4.5-0.9-6.4-2.2c-1.9-1.4-3.1-3.7-3.7-6.9c0,0,0,0,0,0
				c-0.5-2.9-0.2-5.5,1-7.9c1.2-2.4,3.1-4.5,5.8-6.3c2.7-1.8,6.1-3.3,10.1-4.3c1.9-0.5,3.9-0.8,5.8-0.9c1.9-0.1,3.9,0,5.8,0.2
				c1.9,0.3,3.9,0.7,5.8,1.4c-1.1,2.1-2.3,4.2-3.4,6.3c-2.3-0.8-4.5-1.3-6.6-1.4c-2.2-0.1-4.3,0.1-6.3,0.6c-3.7,0.9-6.5,2.3-8.3,4.1
				c-1.8,1.8-2.5,3.8-2.2,6.2c0,0,0,0,0,0c0.3,1.6,1,2.7,2.2,3.4c1.2,0.7,2.6,1,4.3,1.1c1.6,0,3.9,0,6.8-0.2c0.1,0,0.2,0,0.3,0
				c0.1,0,0.2,0,0.3,0c0.1,0,0.3,0,0.4,0c0.2,0,0.3,0,0.4,0c3.4-0.2,6.2-0.2,8.5,0.1c2.3,0.3,4.4,1.1,6.1,2.6
				c1.8,1.5,2.9,3.7,3.4,6.9c0,0,0,0,0,0.1c0.5,2.9,0.1,5.6-1.1,8c-1.2,2.4-3.2,4.5-6,6.2c-2.8,1.7-6.3,3.1-10.5,4
				C1986.2,1309.9,1984.9,1310.2,1984.9,1310.2z"/>
			<path style="fill:#005CB7;" d="M2010.8,1254.4c2.5-0.6,5.1-1.2,7.6-1.9c2.6,15.9,5.2,32,7.9,48.1c-2.5,0.5-5.1,1.1-7.6,1.6
				C2016,1286.2,2013.4,1270.3,2010.8,1254.4z M2019.8,1288.5c5.5-8.6,10.9-17.2,16.4-25.8c3-0.7,6-1.3,8.9-2
				c-8.2,12.1-16.4,24.1-24.5,36C2020.3,1293.9,2020,1291.2,2019.8,1288.5z M2027.6,1279.7c1.4-1.9,2.8-3.7,4.1-5.6
				c7,6.9,13.9,13.9,20.9,21.1c-2.8,0.5-5.5,1.1-8.3,1.7C2038.8,1291.1,2033.2,1285.4,2027.6,1279.7z"/>
			<path style="fill:#005CB7;" d="M2077.3,1267.2c-0.4-2.3-1.3-4-2.9-5c-1.6-1-3.6-1.3-6.1-0.7c-1.5,0.3-3,0.9-4.4,1.6
				c-1.4,0.7-2.6,1.6-3.6,2.6c-2-0.8-4.1-1.5-6.1-2.3c1.2-1.9,2.9-3.6,5.2-5c2.3-1.4,4.9-2.4,7.8-3.1c3.2-0.7,6-0.7,8.5-0.2
				c2.5,0.6,4.4,1.7,5.9,3.5s2.5,4,2.9,6.8c1.2,7.7,2.4,15.4,3.6,23.1c-2.4,0.4-4.8,0.9-7.2,1.3
				C2079.7,1282.3,2078.5,1274.7,2077.3,1267.2z M2060.3,1291.5c-2.7-1.3-4.3-3.8-4.9-7.5c-0.6-3.5,0.1-6.3,2-8.5
				c1.9-2.2,5-3.7,9.4-4.6c3.7-0.7,7.3-1.5,11-2.2c0.5,1.8,0.9,3.7,1.4,5.5c-3.8,0.7-7.7,1.5-11.5,2.3c-2,0.4-3.4,1.1-4.3,2.1
				c-0.9,1-1.1,2.3-0.9,4c0.3,1.8,1.2,3,2.6,3.6c1.4,0.6,3.5,0.7,6.2,0.1c2.9-0.6,5-1.3,6.4-2.1c1.3-0.8,1.9-1.9,1.7-3.1
				c0.5,1.6,1,3.3,1.6,4.9c-0.5,1.1-1.2,2-2.1,2.8c-0.9,0.8-2,1.5-3.2,2c-1.2,0.6-2.7,1-4.3,1.3
				C2066.7,1293.1,2063,1292.8,2060.3,1291.5z"/>
			<path style="fill:#005CB7;" d="M2105.8,1275.7c0.1,0.9,0.4,1.5,0.9,1.9c0.5,0.4,1.1,0.5,1.8,0.4c1.2-0.2,2.4-0.4,3.6-0.6
				c0.4,2.3,0.7,4.6,1.1,6.8c-1.5,0.3-3,0.5-4.5,0.8c-2.9,0.5-5.3,0.1-7.1-1.3c-1.8-1.4-3-3.6-3.5-6.7c-2.1-13.8-4.3-27.5-6.4-41.1
				c2.5-0.5,5.1-1.1,7.6-1.6C2101.5,1248.1,2103.7,1261.8,2105.8,1275.7z"/>
			<path style="fill:#005CB7;" d="M2140.1,1255.4c-0.4-2.4-1.3-4.2-2.9-5.3c-1.6-1.1-3.6-1.4-6.1-1c-1.5,0.3-3,0.8-4.4,1.5
				c-1.4,0.7-2.6,1.6-3.7,2.6c-2-0.9-4.1-1.7-6.1-2.6c1.2-1.9,2.9-3.6,5.2-5c2.3-1.4,4.9-2.4,7.8-2.9c3.2-0.6,6-0.6,8.5,0.1
				c2.5,0.7,4.4,1.9,6,3.8c1.5,1.9,2.5,4.2,2.9,7.2c1.2,8,2.4,16,3.6,24c-2.4,0.4-4.8,0.8-7.3,1.1
				C2142.5,1271.2,2141.3,1263.3,2140.1,1255.4z M2123.1,1280c-2.7-1.5-4.3-4.1-4.9-7.9c-0.6-3.6,0.1-6.5,2-8.7
				c1.9-2.2,5-3.7,9.4-4.5c3.7-0.7,7.4-1.3,11-1.9c0.5,1.9,0.9,3.9,1.4,5.8c-3.8,0.6-7.7,1.3-11.5,2c-2,0.3-3.4,1-4.3,2
				c-0.9,1-1.2,2.4-0.9,4.1c0.3,1.9,1.2,3.1,2.6,3.8c1.4,0.7,3.5,0.8,6.2,0.4c2.9-0.5,5-1.1,6.4-2c1.3-0.8,1.9-1.9,1.7-3.1
				c0.5,1.7,1.1,3.4,1.6,5.1c-0.5,1.1-1.2,2.1-2.1,2.9c-0.9,0.8-2,1.5-3.2,2c-1.2,0.5-2.7,0.9-4.3,1.2
				C2129.5,1281.9,2125.8,1281.5,2123.1,1280z"/>
			<path style="fill:#005CB7;" d="M2156.9,1238.5c2.5-0.4,5.1-0.9,7.6-1.3c1.9,12.6,3.8,25.1,5.6,37.8c-2.5,0.4-5.1,0.8-7.6,1.1
				C2160.7,1263.5,2158.8,1251,2156.9,1238.5z M2176.8,1242.5c-1.1-0.2-2.3-0.3-3.6,0c-2.4,0.4-4.2,1.4-5.3,2.9
				c-1.1,1.5-1.5,3.4-1.2,5.7c-0.6-2.4-1.2-4.8-1.9-7.1c0.9-2.5,2.1-4.5,3.9-6c1.7-1.6,3.7-2.5,6-2.9c1.8-0.3,3.4-0.3,4.9,0
				c1.5,0.3,2.9,0.8,4.1,1.6c-1.3,2.5-2.7,4.9-4,7.4C2178.8,1243.2,2177.9,1242.7,2176.8,1242.5z"/>
			<path style="fill:#005CB7;" d="M2189.6,1233.1c2.5-0.4,5.1-0.8,7.6-1.2c2.6,18,5.3,36.1,7.9,54.3c-2.5,0.3-5.1,0.6-7.6,1
				C2194.9,1269,2192.2,1251,2189.6,1233.1z M2206.1,1268.8c-2-0.9-3.5-2.4-4.7-4.4c-0.2-2.7-0.4-5.4-0.7-8.1c0.2,1.7,0.7,3,1.5,4.1
				c0.8,1.1,1.8,1.9,3,2.3c1.2,0.5,2.6,0.6,4.3,0.4c2.5-0.3,4.4-1.4,5.5-3.1c1.2-1.7,1.5-4,1.1-6.8c-0.4-2.8-0.8-5.6-1.2-8.4
				c-0.4-2.8-1.4-5-3-6.3c-1.6-1.4-3.7-1.9-6.2-1.5c-1.6,0.2-3,0.7-4,1.5c-1,0.8-1.8,1.8-2.2,3c-0.4,1.2-0.5,2.7-0.3,4.3
				c-0.6-2.4-1.2-4.9-1.9-7.3c0.8-2.4,2.1-4.4,3.8-5.9c1.7-1.5,3.7-2.5,6.1-2.8c2.7-0.4,5.2-0.2,7.3,0.8c2.1,0.9,3.9,2.5,5.3,4.8
				c1.4,2.2,2.3,5,2.8,8.4c0.4,2.8,0.8,5.7,1.2,8.5c0.5,3.3,0.4,6.2-0.3,8.7c-0.7,2.5-2,4.5-3.8,6c-1.8,1.5-4.2,2.4-7,2.8
				C2210.3,1270,2208.1,1269.7,2206.1,1268.8z"/>
			<path style="fill:#005CB7;" d="M2231.3,1226.8c2.5-0.4,5.1-0.7,7.6-1.1c1.9,13.1,3.8,26.3,5.6,39.5c-2.5,0.3-5.1,0.6-7.6,0.9
				C2235,1253,2233.1,1239.8,2231.3,1226.8z M2251.1,1231.6c-1.1-0.3-2.3-0.4-3.6-0.2c-2.4,0.3-4.2,1.3-5.3,2.8
				c-1.1,1.5-1.5,3.5-1.2,5.9c-0.6-2.5-1.2-5-1.9-7.5c0.9-2.5,2.1-4.6,3.9-6.1c1.7-1.6,3.7-2.5,6-2.8c1.8-0.2,3.4-0.2,4.9,0.1
				c1.5,0.3,2.9,0.9,4.1,1.8c-1.3,2.5-2.7,5-4,7.5C2253.2,1232.5,2252.2,1232,2251.1,1231.6z"/>
			<path style="fill:#005CB7;" d="M2275.6,1260.3c-2.6-1.1-4.7-2.9-6.3-5.4c-1.6-2.5-2.7-5.6-3.2-9.3c-0.3-2.2-0.6-4.4-0.9-6.5
				c-0.5-3.6-0.3-6.8,0.6-9.6c0.9-2.7,2.4-4.9,4.6-6.6c2.2-1.7,5-2.7,8.4-3.1c3.4-0.4,6.3-0.1,8.9,1c2.6,1.1,4.7,2.9,6.3,5.4
				c1.6,2.5,2.7,5.6,3.2,9.3c0.3,2.3,0.6,4.5,0.9,6.8c0.5,3.7,0.3,7-0.6,9.7c-0.9,2.8-2.4,5-4.6,6.6c-2.2,1.6-5,2.6-8.3,2.9
				C2281.2,1261.9,2278.2,1261.5,2275.6,1260.3z M2289.3,1250.7c1.2-1.9,1.6-4.4,1.2-7.6c-0.3-2.2-0.6-4.5-0.9-6.7
				c-0.4-3.2-1.5-5.5-3.2-7.1c-1.7-1.6-3.9-2.2-6.5-1.9c-2.7,0.3-4.6,1.4-5.8,3.3c-1.2,1.9-1.6,4.4-1.2,7.5c0.3,2.2,0.6,4.4,0.9,6.7
				c0.4,3.1,1.5,5.5,3.2,7.1c1.7,1.6,3.9,2.2,6.5,2C2286.2,1253.7,2288.1,1252.6,2289.3,1250.7z"/>
			<path style="fill:#005CB7;" d="M2316.1,1256.8c-2.2-1.1-4-2.9-5.4-5.3c-1.4-2.4-2.3-5.4-2.8-8.9c-0.4-3-0.8-6-1.2-9.1
				c-0.5-3.5-0.4-6.6,0.3-9.2c0.7-2.6,1.9-4.7,3.7-6.2c1.8-1.5,4-2.4,6.8-2.7c2.3-0.2,4.5,0.2,6.6,1.3c2.1,1.1,3.9,2.7,5.3,4.9
				c0.1,2.9,0.2,5.7,0.4,8.6c-0.2-1.8-0.7-3.2-1.5-4.4c-0.8-1.2-1.8-2.1-3-2.6c-1.2-0.5-2.6-0.7-4.3-0.6c-2.5,0.3-4.3,1.3-5.5,3.1
				c-1.2,1.8-1.5,4.2-1.1,7.2c0.4,3,0.8,6,1.2,9c0.4,3,1.4,5.2,3,6.8c1.6,1.5,3.7,2.2,6.2,2c1.6-0.1,2.9-0.6,4-1.4
				c1-0.8,1.8-1.8,2.2-3.2c0.4-1.3,0.5-2.9,0.3-4.7c0.6,2.9,1.1,5.8,1.7,8.8c-0.5,2.1-1.5,4-3.1,5.5c-1.6,1.5-3.6,2.4-6.2,2.6
				C2320.8,1258.4,2318.3,1257.9,2316.1,1256.8z M2325.4,1198.4c2.5-0.3,5.1-0.6,7.6-0.8c2.6,19.4,5.3,38.9,7.9,58.5
				c-2.5,0.2-5.1,0.4-7.6,0.6C2330.7,1237.2,2328.1,1217.7,2325.4,1198.4z"/>
			<path style="fill:#005CB7;" d="M2357.9,1238.1c0.4,3,1.4,5.2,3,6.7c1.6,1.5,3.6,2.2,6.2,2c2.5-0.2,4.3-1,5.5-2.6
				c1.2-1.5,1.6-3.7,1.2-6.3c0.6,3,1.1,5.9,1.7,8.9c-0.5,2.2-1.6,4-3.2,5.6c-1.6,1.5-3.7,2.4-6.3,2.5c-4.3,0.3-7.8-1-10.5-3.9
				c-2.7-2.8-4.4-7-5.2-12.4c-1.1-8.5-2.3-17.1-3.4-25.6c2.5-0.2,5.1-0.5,7.6-0.7C2355.6,1221,2356.8,1229.6,2357.9,1238.1z
				 M2370.2,1211.1c2.5-0.2,5-0.4,7.6-0.6c1.9,14.2,3.7,28.5,5.6,42.8c-2.5,0.1-5,0.3-7.6,0.4
				C2374,1239.5,2372.1,1225.3,2370.2,1211.1z"/>
			<path style="fill:#005CB7;" d="M2387.1,1192.4c2.5-0.2,5.1-0.4,7.6-0.6c2.6,20.1,5.2,40.3,7.9,60.6c-2.5,0.1-5.1,0.2-7.6,0.4
				C2392.3,1232.5,2389.7,1212.4,2387.1,1192.4z M2396.1,1236.1c5.5-9.3,10.9-18.7,16.4-28.1c3-0.2,6-0.4,8.9-0.6
				c-8.2,13-16.3,26-24.5,38.8C2396.6,1242.8,2396.4,1239.5,2396.1,1236.1z M2403.9,1227c1.4-2,2.8-4,4.1-6
				c6.9,9.9,13.9,20,20.8,30.2c-2.8,0.1-5.5,0.2-8.3,0.3C2415.1,1243.3,2409.5,1235.1,2403.9,1227z"/>
			<path style="fill:#005CB7;" d="M2426.6,1207.1c5.8-0.3,11.6-0.7,17.4-1c0.3,2.6,0.7,5.2,1,7.9c-5.8,0.3-11.6,0.6-17.4,0.9
				C2427.3,1212.3,2427,1209.7,2426.6,1207.1z M2438,1248.1c-1.7-1.9-2.8-4.8-3.3-8.7c-1.9-15.2-3.8-30.3-5.8-45.4
				c2.5-0.2,5.1-0.3,7.6-0.5c1.9,15.2,3.9,30.4,5.8,45.6c0.1,1.1,0.4,1.9,0.9,2.5c0.4,0.6,1,0.8,1.7,0.8c1.2,0,2.4-0.1,3.6-0.1
				c0.3,2.8,0.7,5.5,1,8.3c-1.5,0-2.9,0.1-4.4,0.1C2442.2,1251,2439.7,1250,2438,1248.1z"/>
		</g>
	</g>
</g>
</svg>
