<?xml version="1.0" encoding="utf-8"?>
<!-- Generator: Adobe Illustrator 19.0.0, SVG Export Plug-In . SVG Version: 6.00 Build 0)  -->
<svg version="1.1" id="Layer_1" xmlns="http://www.w3.org/2000/svg" xmlns:xlink="http://www.w3.org/1999/xlink" x="0px" y="0px"
	 viewBox="25 195.9 646 450" style="enable-background:new 25 195.9 646 450;" xml:space="preserve">
<path style="fill:#6D6D6D;" d="M356.5,416.3c0.3,0.2,0.6,0.4,1,0.5c2,0.4,5-1.2,6.6-3.6c1.2-1.7,1.4-3.6,0.6-4.5
	c7.8,10.4,15.7,20.7,23.6,31.1c0.2,0.2,0.1,0.8-0.1,1.3c-0.5,0.7-1.3,1.2-1.8,1c-0.1,0-0.2-0.1-0.3-0.2
	C376.1,433.3,366.3,424.8,356.5,416.3z"/>
<path style="fill:#FF4343;" d="M383.8,390.3c-0.8-0.8-1.4-1.3-2.4-2.3c-1-0.9-2.2-1.7-2.2-1.7c-1-0.6-1.8-1.1-2.8-1.5
	c-1.2-0.5-1.8-0.7-3.7-1.2c-0.5-0.1-1.1-0.3-1.7-0.3c-0.8-0.1-2-0.2-2.8-0.3c-3.8-0.1-7,0.6-8.4,1.1c-1.7,0.5-3,0.9-3.9,1.4
	c-1.1,0.5-2.5,1.2-3.7,1.7c-0.5,0.3-1.4,0.7-1.8,1.1c-0.5,0.3-1.3,0.8-1.8,1.2c-1.1,0.7-2.3,1.8-3.4,2.5c-0.3,0.3-1.9,1.5-3.2,2.9
	c-3.5,3.5-5.3,6.4-6.7,8.7c-0.3,0.5-0.8,1.4-1.1,1.9c-0.5,1.1-1.2,2.7-1.7,3.7c-0.5,1.2-0.8,2.5-1.2,3.9c0,0-0.4,1.9-0.5,3.9
	c-0.1,1.6-0.1,2.3,0,3.9c0.1,1.4,0.5,3.2,0.7,3.9c0.1,0.3,0.6,1.8,0.9,2.7c0.6,1.2,0.9,2.1,1.9,3.4c0.5,0.8,1.2,1.6,2.1,2.8
	c0.2,0.2,0.4,0.5,0.5,0.6c1.7,1.7,3.8,2.9,6.5,3.6c11.5,2.7,28.5-6.6,37.9-20.7C388.4,406.4,389,395.9,383.8,390.3z M364.2,406.5
	c-5.3,8.1-14.9,13.3-21.6,11.8c-6.6-1.6-7.6-9.3-2.3-17.4c5.3-8.1,14.9-13.3,21.6-11.8l0,0C368.5,390.6,369.5,398.4,364.2,406.5z"/>
<path style="fill:#FF4343;" d="M383.1,389.5c-0.8-0.8-1.4-1.3-2.4-2.3c-1-0.9-2.2-1.7-2.2-1.7c-1-0.6-1.8-1.1-2.8-1.5
	c-1.2-0.5-1.8-0.7-3.7-1.2c-0.5-0.1-1.1-0.3-1.7-0.3c-0.8-0.1-2-0.2-2.8-0.3c-3.8-0.1-7,0.6-8.4,1.1c-1.7,0.5-3,0.9-3.9,1.4
	c-1.1,0.5-2.5,1.2-3.7,1.7c-0.5,0.3-1.4,0.7-1.8,1.1c-0.5,0.3-1.3,0.8-1.8,1.2c-1.1,0.7-2.3,1.8-3.4,2.5c-0.3,0.3-1.9,1.5-3.2,2.9
	c-3.5,3.5-5.3,6.4-6.7,8.7c-0.3,0.5-0.8,1.4-1.1,1.9c-0.5,1.1-1.2,2.7-1.7,3.7c-0.5,1.2-0.8,2.5-1.2,3.9c0,0-0.4,1.9-0.5,3.9
	c-0.1,1.6-0.1,2.3,0,3.9c0.1,1.4,0.5,3.2,0.7,3.9c0.1,0.3,0.6,1.8,0.9,2.7c0.6,1.2,0.9,2.1,1.9,3.4c0.5,0.8,1.2,1.6,2.1,2.8
	c0.2,0.2,0.4,0.5,0.5,0.6c1.7,1.7,3.8,2.9,6.5,3.6c11.5,2.7,28.5-6.6,37.9-20.7C387.8,405.6,388.4,395.2,383.1,389.5z M363.6,405.7
	c-5.3,8.1-14.9,13.3-21.6,11.8c-6.6-1.6-7.6-9.3-2.3-17.4c5.3-8.1,14.9-13.3,21.6-11.8l0,0C367.8,389.9,368.9,397.6,363.6,405.7z"/>
<path style="fill:#FF0000;" d="M314,376.7c0.5,0.8,1.3,1.4,2.3,1.6c3.4,0.8,8.4-2,11.2-6.2c2.3-3.5,2.3-6.9,0.2-8.4l36.9,26.6
	c4,2.8,3.9,9.4-0.5,16.2c-5.3,8.1-14.9,13.3-21.6,11.8c-2.1-0.5-3.6-1.6-4.4-3.1C330.1,402.4,322,389.5,314,376.7z"/>
<path style="fill:#FF0000;" d="M328.6,346.1c8.6,2,9.9,12.2,3,22.6c-6.9,10.5-19.5,17.3-28.1,15.4c-8.6-2-9.9-12.2-3-22.6
	C307.5,350.9,320,344.1,328.6,346.1z"/>
<path style="fill:#AA0000;" d="M298.6,381.4c1.2,1.3,2.8,2.2,4.9,2.6c8.6,2,21.2-4.9,28.1-15.4c5.3-8.1,5.8-15.8,1.9-20
	c0.8,0.9,1.2,1.5,1.2,1.6c0.4,0.6,0.8,1.5,1.2,2.5c0.1,0.7,0.4,1.5,0.6,2.8c0.2,1.5,0,3.1,0,3.1c-0.1,1.3-0.2,1.8-0.5,3.1
	c-0.4,1.6-1,3.1-1,3.1c-1,2.5-1.9,4.2-4,7.3c-1.1,1.4-4.8,6.2-11,9.6c-6.1,3.3-10.9,3.4-12.7,3.3c-2.8-0.2-3.9-0.7-5.5-1.3
	c-0.4-0.2-1-0.5-1.4-0.8C299.9,382.5,299.2,381.9,298.6,381.4z"/>
</svg>
