<?xml version="1.0" encoding="utf-8"?>
<!-- Generator: Adobe Illustrator 19.0.0, SVG Export Plug-In . SVG Version: 6.00 Build 0)  -->
<svg version="1.1" id="Ebene_1" xmlns="http://www.w3.org/2000/svg" xmlns:xlink="http://www.w3.org/1999/xlink" x="0px" y="0px"
	 viewBox="-128 191.9 338 458" style="enable-background:new -128 191.9 338 458;" xml:space="preserve">
<path style="fill:#FFCCAA;" d="M129,632.7c-2.4-3.3-6.5-9.3-9.3-13.3c-7.4-10.3-30.8-28.2-43.8-33c-11.1-4.1-21.8-6.6-32.8-7.7
	c-15.5-1.5-37.5-8.7-59.7-19.4c-13.8-6.7-18.8-8.3-28.2-6.9c-12.8,1.9-27.3,2.1-30.7-0.1c-4.4-2.9-10.1-9.7-10.1-16.3
	c0-8.2,1.9-15.1,8.6-18.9c3.4-2,8.2-2.4,7.2-2.6c-0.9-0.3-8.3-1.7-16.5-3.3c-9.1-1.7-16-3.6-17.8-4.9c-6.6-4.5-8.4-8.7-8.4-16
	c0-8-0.3-12.6,8.2-19.2c2.2-1.3,4.4-2.8,5.7-1.6c0-0.4-2.6-2.5-5.7-4.6s-8.1-5.8-10-8.2c-2.9-3.6-4.4-6.3-4.3-11.1
	c-2.9-15.5,13.7-32.9,31.2-30.6l10.3,3l-5.1-4.4c-11.5-9.9-15-20.9-3.1-35.8c7.2-8.1,22.1-13.1,52.3-19.7
	c25.4-5.5,33.4-3.9,62.9,4.1c16.9,4.6,28.2,4.4,38.6,0.9c9.8-3.3,14.7-6.3,16.2-9c2-3.7,1.9-17.7,0.5-28.1c-0.8-5.5-3.8-18.1-8.2-31
	c-7.1-20.9-8.1-22.8-8.2-33.5c-0.1-14.2,1.4-25.8,6.7-38.2c6.3-14.8,12.6-21,21.4-19.7c2.5,0.4,9.3,1.6,9.5,2.4
	c1.3,5.4,4,18.4,5.9,36.3c2,16.3,7.3,30.5,9.9,46c2.7,15.2,4.5,17.2,13.8,30.9c13.9,20.4,20,35,22.6,54.4
	c3.1,22.7,6.2,42.7,7.7,50.1c3.4,16.6,6.8,36.9,14.5,51.7c1.5,2.5,6.4,8.9,11,14.3s8.7,10.7,9,11.7c0.4,1.2-12.9,26.7-33.9,68.9
	c-18.3,36.9-33.5,67.7-33.7,68s-1.1-1.2-3.5-4.4L129,632.7z"/>
<path style="fill:none;stroke:#000000;stroke-width:1.9999;" d="M133,639.2l-20.1-28l-29.2-21.9c-30.8-12.9-34.8-9.3-51.2-12.2
	c-17.9-3.2-31.6-10.8-38.2-12.4c-4.4-1.1-14.7-7.8-25.7-12c-9.8-3.4-16.7,0.7-30.8,2c-12.6-0.8-19-1.3-23.6-16.3c0,0-1-9,1.8-14.6
	c5.1-8.8,13.7-9.9,13.7-9.9s-23.8-3.8-34.3-7c-8.8-6.5-9.9-13.4-8-25.5c1.4-5.9,5.6-10.1,11.9-13.3c0,0-0.9-1.2-10.6-7.1
	c-12.9-12.7-6.3-29.1-5-30.8c13-17.2,22.7-17.2,35.7-14.3c-11.9-9.5-14.9-19.1-10.6-30.4c3-6.7,7.4-13.3,24.4-19.4
	c5.5-2.3,18.8-5.8,41-10c15.1-3.2,24.5-2.1,38.3,0.9l28.8,7.8c19.7,2.4,37.3-4.6,42.3-10.2c2.1-3.5,3.3-17.5,0.1-38.7
	c-1.7-8.3-1.8-6.2-10-30.3c-3.9-10.1-4.7-14.2-5.7-23.4c-0.2-10.3,1.8-20.7,3.5-29.2c4.4-12.2,4.9-14.7,9.3-21
	c5-7.1,8.5-12.6,24.7-7.2c4.8,13.4,6.9,29.2,6.5,32.9l2.2,19l4.7,14.6c3.5,8.1,1.7,15.5,5.9,29.7c0,0,8.8,16.2,12.5,19.8
	c9.4,12.4,12.4,21.7,18.7,38.3c1.5,10.1,4,25.3,4,28.9s5.5,35.5,6.4,39.2c0.9,3.6,6.4,23.7,6.4,23.7c2.5,25,15.3,29.7,28.4,50.4
	L133,639.2z"/>
<path style="fill:none;stroke:#000000;stroke-width:1.9999;stroke-linecap:round;" d="M-60,370c5.7,4.3,12.1,8.7,12.1,8.7
	c5.7,2.8,13.3,5.7,19.1,6.6l13,1.8c11.4,1.8,21.1,6.2,21.1,6.2c8.3,3.5,10.8,6.4,10.8,6.4c10.4,12,10.1,20.6,3,33
	c2.1,1.1,3.8,1.8,5.9,4.8c8.1,11.6,5.7,20.9-1.4,29.9c0,0,4.9,3.8,5.9,6.6c2,5.2,2,8.3,2,10.8c-0.1,6.2-1.9,10.7-5.4,14.5
	c-2.4,2.5-9.6,4.1-9.6,4.1c9.8,5,10.8,13.1-0.4,24.1c-14.8,7.6-24.5,10.3-39.2,16.8l-21.4,7"/>
<path style="fill:none;stroke:#000000;stroke-width:3.0001;stroke-linecap:round;" d="M-82.9,414.8c12.5,6,22.7,11.6,35.7,15.1
	l22.5,2.4l19.8,1.4l15,0.9c5.8,0.5,9.3-1.6,9.3-1.6 M-101.4,468.4l51.5,9.2c0,0,8.5,0.5,12.8,0.2c8.1-0.6,19.4-3,24.2-3.9
	c10.9-2,22.4-2.9,36.7-6.3 M-71.9,514c0,0,15.8,2.1,25,1.7c11.2-0.5,24.7-2.9,33.3-4.8c8.5-1.9,12.1-4.1,18-5.5s12-1.8,12-1.8"/>
<path style="fill:none;stroke:#000000;stroke-width:1.0001;" d="M173.2,451.7c-4.7,27.1-17.7,35.9-40.8,47 M74.6,496
	c-0.5-0.2-37.8-10.1-49.9-30.6 M66.3,379.3c11.8-7.4,14.2-14.3,17.8-27 M77.1,287.2c7.4-5.7,10.3-4.7,19.4-5.6 M-16,559.3
	c0.5-4,0.4-8.1-0.6-12.5 M-19.4,383.1c0.6-2.8,2.1-11.6,3.5-20.8 M99.5,600.1c7.5-10.7,13.6-19.8,15.1-32.3
	c0.9-7.8,2.1-12.5,3.6-17.9"/>
<path style="fill:#CCCCCC;stroke:#000000;stroke-width:1.9999;" d="M14.3,431.5c-6.8-0.2-13.3-0.6-23.2-2.7
	c-5.8-2.8-7.1-3.1-8.7-9.6c0-2.7,0.5-6.5,2.8-9.6c4.6-3.6,12.7-5.8,26.8-4.6C18,413.2,19.2,422.6,14.3,431.5L14.3,431.5z
	 M-8.5,448.9c5.5-6.2,15.8-10,22.8-10.9c11.5,4.9,12.2,15.5,6.7,27c-11.3,2.7-22.8,3-26.4,2C-11.5,462.2-11.9,455.6-8.5,448.9z
	 M-4.8,491c-0.7-3.9,0.3-9.8,2.7-12.1c5.9-3.7,11.7-5.7,20.5-7.3c9.2,5.9,8.2,14.3,4.6,25.5c-9.3,1.8-14.2,1.9-23.2,0
	C-2.2,495.9-4.4,493.4-4.8,491L-4.8,491z M-1.4,509.9c6.4-2.2,10.3-3.7,15.5-4c6.9,2.4,7,7.7,3.9,13.8c-6.3,3.1-8.2,2.5-15.3,4.2
	c-8,1.5-9.5-3-9.5-5C-7,516.5-8.1,514-1.4,509.9z"/>
</svg>
