<?xml version="1.0" encoding="utf-8"?>
<!-- Generator: Adobe Illustrator 19.0.0, SVG Export Plug-In . SVG Version: 6.00 Build 0)  -->
<svg version="1.1" id="Ebene_1" xmlns="http://www.w3.org/2000/svg" xmlns:xlink="http://www.w3.org/1999/xlink" x="0px" y="0px"
	 viewBox="15 246.8 374 321" style="enable-background:new 15 246.8 374 321;" xml:space="preserve">
<path style="fill:#FFCCAA;stroke:#000000;stroke-width:2;" d="M384.4,450.2c-22-3-57-23-62-26s-28-28-40-47s-23-42-27-55s-8-26-9-33
	s1-23.5,4-30.5c-7-5-21-6-27,7s-11,33-11,46s22,55,8,61s-17,14-89-4s-102-20-109-6s34,20,56,24s72,22.6,65,32
	c-4.4,5.8-9.4,4.5-20.7,8.5c-19.6,6.9-19.3,9.9-43.8,18.3c-24.4,8.4-22.8,32.2-15.2,36.2s14,6.3,46.4-12
	c14.4-5.3,31.8-8.9,47.1-10.2s24.7,56,41.3,64.7c16.6,8.7,36,8,48,8s18.7,2,25.3-1.3c6.6-3.3,25.3,1.3,35.3,6.7
	c0,0,38.7,18.7,42,22.7"/>
<path style="fill:none;stroke:#897F6A;stroke-width:2;" d="M151.9,417.2c34-2,46,30.7,54,48"/>
<path style="fill:none;stroke:#897F6A;stroke-width:2;" d="M223.5,391.8c0.3,25.3,11,46.7,25.3,54.7"/>
<path style="fill:none;stroke:#897F6A;stroke-width:2;" d="M157.2,377.2c-8,1.3-17.3,20-13.3,25.3"/>
<path style="fill:none;stroke:#897F6A;stroke-width:2;" d="M114.5,366.5c-5.3,4-16,13.3-13.3,18.7"/>
<path style="fill:none;stroke:#897F6A;stroke-width:2;" d="M66.5,358.5c-6.7,4-8.8,15.5-10.2,18.2"/>
<path style="fill:none;stroke:#897F6A;stroke-width:2;" d="M139.9,426.5c8,4,12,17.3,9.3,26.7"/>
<path style="fill:none;stroke:#897F6A;stroke-width:2;" d="M118.7,433.8c6.7,4,7.2,24,4.6,28"/>
<path style="fill:none;stroke:#897F6A;stroke-width:2;" d="M93.2,445c8.6,6.5,9.6,15.5,5.1,26.5"/>
<path style="fill:none;stroke:#897F6A;stroke-width:2;" d="M211.4,382.7c-4,10-7,18-6,24"/>
<path style="fill:none;stroke:#897F6A;stroke-width:2;" d="M212.4,311.7c11.9,1.7,2.7,3.3,25-1"/>
<path style="fill:none;stroke:#897F6A;stroke-width:2;" d="M316.5,433.2c-4,12-8,16-14.7,20"/>
<path style="fill:#FFCCAA;stroke:#000000;stroke-width:2;" d="M217.2,520.8c15.9-3.2,27.3-5.3,36-8c8.7-2.7,21.3-10,24.7-16.7
	s0.7-8-1.3-12.7s-24-2-29.3,0s-10,4-32,7.3s-28,5-39.3,3.7c-9.3-1.1,1.3,22.3,6,25C186.7,522.1,187.2,526.8,217.2,520.8z"/>
<path style="fill:#FFCCAA;stroke:#000000;stroke-width:2;" d="M234.2,458.2c18.9-1.3,28.3-2.7,33.4,2.7s2.9,10.7,1.5,12
	s-18.2,8.7-26.9,11.3c-8.7,2.7-10.2,0.7-27.6,4.7s-18.9,5.3-24,7.3s-15.3,1.3-24.7-6c-9.4-7.3-8-20-7.3-24s1.5-12.7,19.6-14
	s12.4,4.7,35.6,5.3C237.1,458.2,234.2,458.2,234.2,458.2z"/>
<path style="fill:none;stroke:#897F6A;stroke-width:2;" d="M163.2,464.8c-1.9,17.3,1.1,18.2,10.7,25.3"/>
<path style="fill:none;stroke:#897F6A;stroke-width:2;" d="M192.5,465.2c0,5.3,1.3,17.3,1.3,17.3"/>
<path style="fill:none;stroke:#897F6A;stroke-width:2;" d="M225.5,463.5c0,2.7,1.3,13.3,1.3,17.3"/>
<path style="fill:none;stroke:#897F6A;stroke-width:2;" d="M232.2,493.5c0,4,6.7,17.3,6.7,17.3"/>
<path style="fill:none;stroke:#897F6A;stroke-width:2;" d="M199.9,501.2c1.3,2.7,2.7,14.7,6.7,16"/>
<path style="fill:none;stroke:#897F6A;stroke-width:2;" d="M323.2,465.2c-6.7,12-10.7,42.7-17.3,49.3"/>
</svg>
