<?xml version="1.0" encoding="utf-8"?>
<!-- Generator: Adobe Illustrator 19.0.0, SVG Export Plug-In . SVG Version: 6.00 Build 0)  -->
<svg version="1.1" id="Ebene_1" xmlns:ns0="http://www.iki.fi/pav/software/textext/"
	 xmlns="http://www.w3.org/2000/svg" xmlns:xlink="http://www.w3.org/1999/xlink" x="0px" y="0px" viewBox="-55 200.9 484 440"
	 style="enable-background:new -55 200.9 484 440;" xml:space="preserve">
<path style="fill:#FFCCAA;stroke:#000000;stroke-width:1.9998;stroke-linecap:round;" d="M129.8,388.1c0,0-2.2,4.5-2.8,6.6
	c-0.7,2.5-0.9,5.2-0.9,7.8c0.1,2.9,0.4,5.8,1.1,8.6c0.2,1,1,2.9,1,2.9"/>
<path style="fill:#FFCCAA;stroke:#000000;stroke-width:1.9998;stroke-linecap:round;" d="M419.4,218c3.8,7.6,1.1,16.1-0.1,24.5
	c-2,14.5-7.7,26.9-12.5,42.3c-2.4,7.9-6.9,15.7-7.4,23.5c-0.3,5-0.4,10.2,1.5,14.9c1.9,4.5,5.4,7.5,8.2,12.1c1.6,2.5,3.1,7.2,4,10
	c1.5,4.7,0.4,14.8,0.4,14.8s-2.5,10.1-3.6,15.3c-1.4,6.4-3.8,17.3-3.8,19.4s-1.3,14-2,21c-0.7,7.2,0.2,14.6-2.2,21.4
	c-2.7,8-7.4,15.5-13.4,21.5c-6.2,6.3-14.4,11.2-22.5,14.7c-12,5.4-25,6.5-37.7,9.9c-5.1,1.4-10.8,2.5-15.9,4
	c-5.7,1.6-12.1,4.1-18.4,4.8c-8.3,1-16.5,0.3-25.2-0.6c-8.1-0.9-15.8-2.1-23.6-3.4c-2.1-0.4-6.2-1.4-6.2-1.4l-16.1,17.5
	c-4.4,4.8-29,5.4-42.1,6.2l0.4,28.6c0,0,3.6,14.7,4.1,22.3c1,14.7,1.2,29.8-2.1,44.1c-1.7,7.4-3.8,15.2-8.8,21
	c-3.5,4-8.2,6.7-13.4,7.7c-5.4,1-10.7,0-14.9-3.5c-2.3-1.9-1.5-0.4-2.1-3.2c-2.1-10.3,0.5-35.3,0.5-35.3s-2-3-2.1-5.3
	c-0.5-13.3-1.2-19.2-3-27.8c-1-4.8-0.1-11.5-1.6-17.7c-4.4-18.2-4.5-25.8-7.5-38.7c-2.3-10.2-7.3-19.9-8.1-30.3
	c-0.2-2.4,0-6.8,0-6.8l3.9-20.3l4.1-69.1c0,0-14.9,1.3-22.8,0.8c-4.7-0.3-5.5-1.6-15.3-0.1s-33.1,2-51.9,1.2
	c-8.6-0.4-17.4,1.9-26,1.1c-14.1-1.3-28.1-4.9-41.2-10.3c-5.1-2.1-10.6-4.3-14.2-8.5c-3.4-3.8-6-8.9-6.2-14
	c-0.2-5.6,1.5-12.1,5.6-15.9c1.7-1.6,6.8-1.9,6.8-1.9s32.9,1.9,49.6,3.8c6.4,0.7,13.3,2.3,19.7,2.4c7.6,0.1,14.3-3.8,22.3-4.3
	c0.1,0,28.3-1.4,40.7-4.9c5-1.4,14.5-1.4,14.5-1.4c8.1-1,16.5-2,25.7-4.6c9.9-2.4,21.9-4.8,29.2-5.6c2.8-0.3,12.5-4.3,15.2-4.9
	c10.3-2.4,18-10.7,27.8-12.6c5.5-1.1,11.2-0.8,16.5,2.1c5.7,3.1,16.9,9.9,16.9,9.9L260,316c0,0,21.9,4.8,32.8,7.6
	c12.4,3.3,25.6,7.9,36.9,10.9c1.9,0.5,8.8-0.2,11.6-3.5c3.2-3.8,1.1-9.4,1.2-14.2c0.2-5.7-0.6-17.1-0.6-17.1s0.1-3.7,0.2-5.5
	c0.1-3.2,0.1-7.6,0.5-10.8c0.5-4.4,1.5-7.8,2.6-11.6c1.2-4.2,2.5-8.4,4.2-12.4c1.6-3.8,3.6-7.5,5.5-11.1c1.5-2.8,3.2-5.9,4.6-8.5
	c2.4-4.4,7-12.3,7-12.3l3.8-5.2c0,0,6-6.8,9.5-9.1c3.3-2.2,6.7-3.4,10.5-4.5c3.2-1,6.8-1.4,10.1-1.3c3.2,0.2,9.2,2.3,9.2,2.3
	S417.6,214.5,419.4,218L419.4,218z"/>
<path style="fill:none;stroke:#000000;stroke-width:1.0001;stroke-linecap:round;" d="M341.5,331.1c0,0-1,13-2.9,18.5
	c-3.1,9-7.5,17.5-12.2,25.7 M327,334.5c0,0-12,4.4-18.1,6.4c-8.6,2.9-25.9,8.2-25.9,8.2 M392.6,316.7c-6.5,6-7.9,6.7-16.4,6.1
	c-11.6,0.9-28.1-13.7-28.5-15.8 M304.8,478.5c0,0-15.9-10.5-22.9-16.9c-3.6-3.3-9.6-10.9-9.6-10.9 M237.3,379.5c0,0-2.7,8-5.4,11.1
	c-2.2,2.6-8.3,5.8-8.3,5.8s-8.5,4.5-13.1,5.7c-1.1,0.3-4.7-0.2-4.7-0.2 M193.8,391c0,0,5,1.6,7,3.2c2.7,2.1,4.4,4.1,4.9,7.7
	s-1.8,8.2-3.3,12.1s-3,7.9-4.1,12c-1.1,4.3-2.6,9.2-3.2,13.6c-0.9,6.3-1.3,18.6-1.3,18.6 M45.8,357.2c0,0-0.2,7.9-1.3,11.7
	c-0.9,2.9-4.2,8.2-4.2,8.2 M114.4,358.9c0,0-2,8.3-4.2,11.8c-1.5,2.3-6,5.8-6,5.8 M101.7,363.5c0,0-0.5,4.6-1.6,6.6
	c-1.7,2.9-7.4,7-7.4,7"/>
<path style="fill:none;stroke:#000000;stroke-width:1.9998;stroke-linecap:round;" d="M141.7,375.3l-9.2,39.9l-6,30 M167.5,377.3
	c0,0,4.9,6.5,7,9.9c2.4,4,4.6,8.2,6.4,12.5c1.8,4.2,2.8,7.6,3.8,12c1.1,4.6,0.4,10,0.4,14.7c0,0.6-1.6,10.8-1.6,10.8l-1.8,9.8
	l-1.9,15c0,0,5.9-3.1,9.2-3.6c3.6-0.6,7.4-0.2,10.9,0.7c2.4,0.6,6.9,3.1,6.9,3.1s1.8-3,3-4.1c1.6-1.5,5.4-3.2,5.4-3.2s2.5-3.4,4-4.9
	s3.2-2.7,4.9-4.1c1.7-1.4,3.6-2.7,5-4.5c1.3-1.7,1.6-4.1,2.9-5.8c1.9-2.5,4.4-4.5,7.2-6.1c3.7-2.1,7.9-3.6,12.2-3.9
	c4.3-0.3,8.8,0.2,12.8,1.8c3.1,1.1,6.2,2.8,8.3,5.4c1.5,1.8,2.1,3.2,2.6,6.6c1.3,8.2-14.4,21.7-22.4,28c0,0-1.9,4.3-3.2,6.3
	c-2.7,4.2-9.6,11.7-9.6,11.7s-4.6,6.2-7.7,8.5c-1.6,1.1-3.3,1.7-5.2,2.3c-5,1.7-10.7,1.8-15.9,2.6c-5.5,0.9-10.8,2.4-16.4,3
	c-4.6,0.5-13.8,0.5-13.8,0.5l-1-0.1l1.2,9.3"/>
<path style="fill:#FFCCAA;stroke:#000000;stroke-width:1.9998;stroke-linecap:round;" d="M180.6,309.5c0.2-0.3-7.9-2.9-12.4-2.2
	c-3.2,0.5-6,1.7-8.8,3.2c-2,1.1-6.8,5.5-7,5.8C162.2,315.3,171.8,313.6,180.6,309.5L180.6,309.5z"/>
<path style="fill:none;stroke:#000000;stroke-width:1.9998;stroke-linecap:round;" d="M179.9,462c0,0-2.5,4-3,6.2
	c-0.4,2,0.1,6.1,0.1,6.1l0.8,9.1l2.1,18.5"/>
<path style="fill:none;stroke:#000000;stroke-width:1.0001;stroke-linecap:round;" d="M206.8,462.2c0,0,2.9,1.7,3.5,3.1
	c0.4,1-0.1,1.8,0.2,2.8c0.4,1.5,2.3,4,2.3,4"/>
<path style="fill:#CCCCCC;stroke:#000000;stroke-width:1.0001;stroke-linecap:round;" d="M274.6,441.9c-2.2-1.2-6.7-3.4-6.7-3.4
	s-4.4,4.9-6,7.7c-3.9,6.5-13.6,24.1-9.1,20.9c6.9-4.9,21.9-16.1,23-23.8C275.9,442.8,275.3,442.3,274.6,441.9L274.6,441.9z
	 M144.8,592.2c0,0,1.3-2.8,2.6-3.3c1.2-0.5,2.6-0.1,3.7,0.4c2.1,1.1,3.4,3.2,4.6,5.2c1.9,3.2,2.9,6.8,3.8,10.4c1,4,1,8.2,1.5,12.2
	c0.2,1.6,0.7,4.8,0.7,4.8c-5.4,2.9-10.8,5.7-17.1,7.4C142,617.9,143.9,604.9,144.8,592.2L144.8,592.2z"/>
<path style="fill:none;stroke:#000000;stroke-width:1.0001;stroke-linecap:round;" d="M181,453.1c0,0,5.5-4.8,7.2-7.2
	c1.9-2.7,3.2-8.5,3.4-9.5c0.1-1,1.8-7.7,2.2-9.2c0.4-1.5,4.4-11.2,4.4-11.2l0.4-1.1 M183.5,437.2c0,0,2.5-4.6,4.1-6.7
	c0.8-1.1,2.8-2.9,2.8-2.9l1.9-2.9 M185.2,423.2c0,0,4.9-3.6,7.5-5.2c1.9-1.2,5.5-5,5.5-5c0.9-0.7,3.1-4.1,4.7-6.6
	c0.2-0.3-0.2,0.3,0,0 M150.2,551.3c-0.6-0.2-3.5-3-7.3-2c-3.8,1.1-3.8,1.3-3.8,1.3"/>
<path style="fill:none;stroke:#000000;stroke-width:1.9998;stroke-linecap:round;" d="M130.5,376.2c0,0,11.6-1.8,17.4-2.4
	c3.7-0.4,7.6-1.4,11.2-0.6c3,0.6,8.3,4.1,8.3,4.1"/>
<path style="fill:none;stroke:#000000;stroke-width:1.0001;stroke-linecap:round;" d="M338.6,349.6c0,0,5.6,4.4,8.8,5.8
	c1.9,0.8,6.2,1.4,6.2,1.4"/>
</svg>
