<?xml version="1.0" encoding="utf-8"?>
<!-- Generator: Adobe Illustrator 19.0.0, SVG Export Plug-In . SVG Version: 6.00 Build 0)  -->
<svg version="1.1" id="Ebene_2" xmlns="http://www.w3.org/2000/svg" xmlns:xlink="http://www.w3.org/1999/xlink" x="0px" y="0px"
	 viewBox="0 0 246 181.5" style="enable-background:new 0 0 246 181.5;" xml:space="preserve">
<path id="XMLID_37_" style="fill:#C54E4E;" d="M214.9,12.6l-6.8,16.2c-0.8,1.9,0.6,3.9,2.6,3.9h23.8c1.6,0,2.8-1.3,2.8-2.8V13.7
	c0-1.6-1.3-2.8-2.8-2.8h-17.1C216.3,10.9,215.3,11.6,214.9,12.6z"/>
<path id="XMLID_21_" style="fill:#C54E4E;" d="M166.8,32.8h14.7c1.1,0,2.2-0.7,2.6-1.7l6.8-16.2c0.8-1.9-0.6-3.9-2.6-3.9h-14.7
	c-1.1,0-2.2,0.7-2.6,1.7l-6.8,16.2C163.4,30.7,164.7,32.8,166.8,32.8z"/>
<path id="XMLID_22_" style="fill:#C54E4E;" d="M122.8,32.8h14.7c1.1,0,2.2-0.7,2.6-1.7l6.8-16.2c0.8-1.9-0.6-3.9-2.6-3.9h-14.7
	c-1.1,0-2.2,0.7-2.6,1.7l-6.8,16.2C119.4,30.7,120.8,32.8,122.8,32.8z"/>
<path id="XMLID_74_" style="fill:#C54E4E;" d="M68.1,24.3c-0.2,0.2-0.3,0.5-0.3,0.8c0,0.4,0.1,0.7,0.4,0.9c0.3,0.2,0.7,0.3,1.2,0.3
	c0.6,0,1.1-0.1,1.4-0.2c0.3-0.1,0.4-0.3,0.4-0.6V24H69C68.6,24,68.3,24.1,68.1,24.3z"/>
<path id="XMLID_77_" style="fill:#C54E4E;" d="M100.3,10.9H13.4c-1.6,0-2.8,1.3-2.8,2.8v16.2c0,1.6,1.3,2.8,2.8,2.8h80.1
	c1.1,0,2.2-0.7,2.6-1.7l6.8-16.2C103.7,13,102.3,10.9,100.3,10.9z M32,28.7c-0.1,0.1-0.2,0.1-0.3,0.1c-0.1,0-0.1,0-0.2,0
	c-0.2-0.1-0.3-0.2-0.4-0.3l-2.3-4.2c-0.2-0.3-0.1-0.8,0.3-1c0.1-0.1,0.2-0.1,0.3-0.1c0.3,0,0.5,0.1,0.6,0.4l2.3,4.2
	C32.5,28,32.4,28.5,32,28.7z M32.3,16L30,20.2c-0.1,0.2-0.4,0.4-0.6,0.4c-0.1,0-0.2,0-0.3-0.1c-0.3-0.2-0.5-0.6-0.3-1l2.3-4.2
	c0.1-0.2,0.2-0.3,0.4-0.3c0.2-0.1,0.4,0,0.5,0.1C32.4,15.2,32.5,15.6,32.3,16z M40.3,27.5h-1.5l-3.7-11.3h1.7l2.7,8.9l2.7-8.9H44
	L40.3,27.5z M47.1,27.5h-1.6v-8.1h1.6V27.5z M46.3,18c-0.5,0-0.9-0.4-0.9-0.9s0.4-0.9,0.9-0.9s0.9,0.4,0.9,0.9S46.8,18,46.3,18z
	 M55.4,26.5c-0.2,0.4-0.6,0.7-1.1,0.9c-0.5,0.2-1.1,0.3-1.9,0.3c-0.5,0-0.7,0-0.7,0s-0.2,0-0.6-0.1c-0.4-0.1-0.8-0.2-1.2-0.4
	c-0.4-0.2-0.7-0.4-1-0.7l0.9-1.2c0.4,0.3,0.9,0.6,1.3,0.7c0.4,0.2,0.9,0.2,1.3,0.2c0.6,0,1.1-0.1,1.4-0.3c0.3-0.2,0.5-0.5,0.5-0.9
	c0-0.3-0.1-0.5-0.3-0.6c-0.2-0.1-0.4-0.2-0.6-0.3c-0.3,0-0.6-0.1-1.1-0.1c0,0-0.1,0-0.1,0c0,0-0.1,0-0.1,0c0,0,0,0-0.1,0
	c0,0,0,0-0.1,0c-0.5,0-1-0.1-1.3-0.2c-0.4-0.1-0.7-0.3-0.9-0.6c-0.2-0.3-0.4-0.7-0.4-1.3c0-0.6,0.1-1,0.4-1.4c0.2-0.4,0.6-0.7,1-0.9
	c0.5-0.2,1-0.3,1.7-0.3c0.4,0,0.8,0,1.2,0.1c0.4,0.1,0.7,0.2,1.1,0.3c0.3,0.2,0.7,0.3,1,0.6l-1,1.2c-0.4-0.3-0.8-0.5-1.2-0.6
	s-0.8-0.2-1.1-0.2c-0.5,0-0.9,0.1-1.2,0.3c-0.3,0.2-0.4,0.5-0.4,0.8c0,0.2,0.1,0.4,0.2,0.5c0.2,0.1,0.3,0.2,0.6,0.2
	c0.2,0,0.6,0.1,1,0.1c0,0,0.1,0,0.1,0c0,0,0.1,0,0.1,0c0,0,0,0,0,0c0,0,0,0,0,0c0.6,0,1,0.1,1.4,0.2c0.4,0.1,0.7,0.3,1,0.7
	c0.3,0.3,0.4,0.8,0.4,1.5C55.7,25.6,55.6,26.1,55.4,26.5z M64.2,27.5h-1.6v-1.1c-0.2,0.3-0.4,0.6-0.7,0.8c-0.4,0.3-0.8,0.4-1.4,0.4
	c-0.9,0-1.6-0.3-2.1-0.9c-0.5-0.6-0.7-1.4-0.7-2.4v-4.9h1.6v4.9c0,0.6,0.1,1,0.4,1.3c0.3,0.3,0.7,0.5,1.2,0.5c0.5,0,0.9-0.1,1.2-0.4
	c0.3-0.3,0.4-0.7,0.4-1.2v-5.1h1.6V27.5z M72.7,27.5h-1.5v-0.6c-0.1,0.1-0.2,0.2-0.4,0.3c-0.2,0.1-0.4,0.2-0.7,0.3
	c-0.3,0.1-0.6,0.1-0.9,0.1c-1,0-1.7-0.2-2.2-0.6c-0.5-0.4-0.7-1-0.7-1.9c0-0.8,0.2-1.4,0.7-1.8c0.5-0.4,1.1-0.6,2-0.6h2.2v-0.3
	c0-0.5-0.1-0.9-0.4-1.2c-0.3-0.3-0.7-0.4-1.2-0.4c-0.3,0-0.6,0-0.9,0.1c-0.3,0.1-0.6,0.2-0.8,0.4l-1.2-0.8c0.3-0.4,0.7-0.7,1.2-0.9
	c0.5-0.2,1.1-0.3,1.7-0.3c0.7,0,1.2,0.1,1.7,0.4c0.5,0.2,0.8,0.6,1.1,1c0.2,0.4,0.4,1,0.4,1.6V27.5z M78,27.5H77
	c-0.6,0-1.1-0.2-1.4-0.6c-0.3-0.4-0.5-0.9-0.5-1.6v-9.2h1.6v9.2c0,0.2,0,0.3,0.1,0.5c0.1,0.1,0.2,0.2,0.4,0.2H78V27.5z M85,24.2
	l-2.3,4.2c-0.1,0.2-0.2,0.3-0.4,0.3c-0.1,0-0.1,0-0.2,0c-0.1,0-0.2,0-0.3-0.1c-0.2-0.1-0.3-0.2-0.3-0.4c-0.1-0.2,0-0.4,0.1-0.5
	l2.3-4.2c0.1-0.2,0.4-0.4,0.6-0.4c0.1,0,0.2,0,0.3,0.1c0.2,0.1,0.3,0.2,0.3,0.4C85.1,23.8,85.1,24,85,24.2z M85.1,20
	c-0.1,0.2-0.2,0.3-0.3,0.4c-0.1,0.1-0.2,0.1-0.3,0.1c-0.3,0-0.5-0.1-0.6-0.4L81.4,16c-0.1-0.2-0.1-0.4-0.1-0.5
	c0.1-0.2,0.2-0.3,0.3-0.4c0.2-0.1,0.4-0.1,0.5-0.1c0.2,0.1,0.3,0.2,0.4,0.3l2.3,4.2C85.1,19.6,85.1,19.8,85.1,20z"/>
<path id="XMLID_12_" style="fill:#C54E4E;" d="M10.6,49.8v121.9c0,1.6,1.3,2.8,2.8,2.8h221.1c1.6,0,2.8-1.3,2.8-2.8V49.8
	c0-1.6-1.3-2.8-2.8-2.8H13.4C11.9,47,10.6,48.2,10.6,49.8z M225.2,169.3H22.8c-1.6,0-2.8-1.3-2.8-2.8V55.1c0-1.6,1.3-2.8,2.8-2.8
	h202.3c1.6,0,2.8,1.3,2.8,2.8v111.3C228,168,226.7,169.3,225.2,169.3z"/>
</svg>
