<?xml version="1.0" encoding="utf-8"?>
<!-- Generator: Adobe Illustrator 19.0.0, SVG Export Plug-In . SVG Version: 6.00 Build 0)  -->
<svg version="1.1" id="Ebene_1" xmlns="http://www.w3.org/2000/svg" xmlns:xlink="http://www.w3.org/1999/xlink" x="0px" y="0px"
	 viewBox="0 0 595.3 841.9" style="enable-background:new 0 0 595.3 841.9;" xml:space="preserve">
<path id="XMLID_106_" style="fill:#1B1B1B;" d="M485.7,233.3c-0.2-0.3-1.5-4-1.6-4c-0.1,0,1.4,5.9,1.6,6.5c0.8,2.3,1.8,4.4,2.9,6.5
	c2.2,4.4,5.1,8.6,8,12.5c2.8,3.8,6.5,7,10.4,9.5c3.5,2.2,7.5,2.9,11.4,4.2c-0.7-0.2-1.6-0.8-2.3-1.1c-0.8-0.3-1.6-0.7-2.4-1.1
	c-1.7-0.9-3.4-1.6-4.9-2.7c-3.1-2.1-6.2-4.7-8.7-7.5c-2.6-2.9-4.8-6.3-6.9-9.6c-2-3.1-4.2-6.4-5.8-9.5
	C486.9,235.9,486.3,234.6,485.7,233.3z"/>
<path id="XMLID_105_" style="fill:#1B1B1B;" d="M540.5,240.5c1.4-1.8,2.8-3.6,4.1-5.6c1.2-1.9,1.5-4,1.7-6.1c0.2-2.1,1.2-4,2.9-5.3
	c0.8-0.6,1.7-1.1,2.4-1.8c0.1-0.1,1.4-2.2,1.1-2.2c0.1,0-0.8,1.3-1,1.4c-0.7,0.6-1.4,1-2.3,1.4c-1.9,0.9-3.2,2-4.2,3.9
	c-0.9,1.6-0.9,3.5-1.4,5.3c-0.6,1.8-1.7,3.2-2.8,4.7c-2.3,3.2-4.7,6.4-6.9,9.7c-2.3,3.4-4.3,6.8-6.5,10.3c-2.4,3.8-4.9,8-8.7,10.6
	c1-0.5,2.1-0.9,3-1.7c1-0.8,1.9-1.8,2.8-2.7c2-2.1,3.7-4.4,5.3-6.8c1.6-2.5,3.1-5,4.8-7.4C536.8,245.6,538.7,243,540.5,240.5z"/>
<path id="XMLID_104_" style="fill:#1B1B1B;" d="M554.3,220.1c-3.8-2.6-8.8-3.3-13.3-3.5c-5.1-0.2-10.2,0.2-15.3,0.2
	c-4.9,0-9.7-0.6-14.4-1.7c-2.4-0.5-4.6-1.3-7-1.8c-2.3-0.5-4.6-0.9-6.9-1.3c-2.6-0.4-5.1-1.1-7.7-1.5c-1.4-0.2-2.7-0.4-4.1-0.5
	c-0.5,0-0.9,0-1.4,0c-0.1,0-0.7,0.1-0.8,0c-0.1,0,0.1-0.6,0-0.6c-0.1,0,0,0.3-0.1,0.3c0,0.1,0,0.2-0.1,0.3c-0.2,0-0.4,0-0.6,0
	c-0.5,0.1-1.4,0.1-1.8,0c0.7,0.2,1.5,0.3,2.3,0.4c-0.6,2.6-1,5.3-0.7,8c0.2,1.4,0.5,2.7,1.1,4c0.2,0.5,0.5,1.2,1,1.6
	c0.5,0.4,1.1,0.2,1.6,0.3c-1.3-0.3-1.7-1.2-1.9-2.2c0,0,0-0.1,0-0.1c-0.1-0.2-0.1-0.5-0.2-0.7c-0.5-1.7-0.5-4.3-0.5-6.4
	c0,0.4,0-0.8,0-0.7c0-0.4,0-0.8,0-1.2c0-0.8,0-1.7-0.1-2.5c4.6,0.7,9,2.3,13.6,3.2c4.5,0.9,8.8,2,13.3,3.1c4.6,1.1,9.4,1.8,14.2,1.8
	c4.9,0,9.7-0.3,14.6-0.4c2.7-0.1,5.4-0.1,8,0.2C549.3,218.6,552.4,218.8,554.3,220.1z"/>
<path id="XMLID_103_" style="fill:#1B1B1B;" d="M484.1,222.1"/>
<path id="XMLID_102_" style="fill:#1B1B1B;" d="M479.7,228.5c-1.3-2.9-1.6-5.9-1.8-9.1c0-0.7-0.2-8.7-0.3-8.7c-0.5,0-1,8.8-1.1,9.7
	c0,3.5,0.2,6.5,1.8,9.7c1.5,3,3.6,5.6,5.6,8.3c1,1.4,1.9,2.8,3,4.1c1.1,1.3,2.3,2.5,3.3,3.9c-0.9-1.3-1.6-2.8-2.4-4.1
	c-0.9-1.4-1.6-2.8-2.5-4.3C483.5,234.8,481.4,231.8,479.7,228.5z"/>
<path id="XMLID_101_" style="fill:#1B1B1B;" d="M558.9,191.4C558.9,191.2,558.9,191.2,558.9,191.4c-0.1-5-0.5-10.1-1.3-15.1
	c-0.8-4.8-2.3-9-5.2-12.9c-2.9-3.9-6.1-7-10.2-9.7c-3.7-2.4-8.2-4.9-12.6-5.2c-1.2-0.1-2.3,0.1-3.5,0.1c-1.1,0-2.2-0.2-3.3-0.2
	c-1.4,0-2.8,0-4.1,0.2c-0.6,0.1-1.2,0.2-1.9,0.3c-0.3,0.1-0.6,0.1-0.9,0.2c-0.1,0-1.2,0.2-0.8,0.1c-2.6,0.5-5.2,1.2-7.8,1.8
	c-2.5,0.6-5.1,1.2-7.5,2.2c-5.1,2.1-8.8,5.9-12,10.4c-3,4.1-5,8.9-6.2,13.8c-1.2,5.1-2.6,10.3-3.1,15.5c-0.3,2.7-0.1,5.4,0.2,8.1
	c0.4,3.1,1.4,6,2,9.1c-0.2-1,0-2.4-0.1-3.4c-0.1-1.3-0.3-2.5-0.4-3.8c-0.2-2.4-0.3-4.9-0.2-7.3c0.3-4.8,1.6-9.5,2.6-14.2
	c1-4.6,2.3-8.9,4.5-13.2c2-4.1,5.2-7.7,8.7-10.6c2.8-2.4,7-3.6,10.6-4.5c4.2-1.1,8.5-2.2,12.8-3c1.8-0.4,4-0.6,5.9-0.7
	c1.9-0.1,4.2,0.6,6,1.2c-1.3-0.6-2.5-1.2-3.9-1.7c3.5,0.3,6.5,1.6,9.5,3.3c-0.5-0.3,0.2,0.1,0.3,0.2c0.3,0.2,0.6,0.3,0.9,0.5
	c0.6,0.3,1.1,0.7,1.7,1c1.1,0.7,2.2,1.4,3.2,2.2c1.9,1.3,3.7,2.7,5.2,4.5c3.2,3.5,6.2,7.8,7.4,12.4c2.8,10.4,2.1,21.3,1.5,31.9
	c-0.2,2.8-0.2,5.6-0.5,8.3c-0.3,2.8-0.5,6.5-2.5,8.6c0.7-0.7,1.5-1.3,2-2.3c0.5-1.1,0.9-2.4,1.2-3.6c0.7-2.6,1.2-5.2,1.4-7.9
	C558.8,202.5,558.9,196.8,558.9,191.4z"/>
<path id="XMLID_100_" style="fill:#1B1B1B;" d="M543.8,290c2.8-3.7,4.9-7.6,6.7-11.9c1.7-4.3,3.3-8.7,3.2-13.5
	c-0.1-4.6-0.2-9.7-2.5-13.7c-1.1-1.9-2.5-3.8-3.9-5.5c-0.7-0.8-1.4-1.6-2.1-2.3c-0.4-0.4-1.9-2.1-2.4-2.1c0.3,0,1.7,2.2,1.9,2.5
	c0.6,0.8,1.2,1.6,1.7,2.5c1.1,1.7,2.1,3.5,3.1,5.3c2,3.7,2.1,8,2.3,12.1c0.2,4.2-0.6,8-2.1,11.9c-1.5,4.1-3.4,8.2-5.6,12
	c0-0.1,0-0.1,0-0.2c0,0-1,1.9-1.1,2c-0.5,0.8-1,1.6-1.6,2.5c-0.6,0.8-1.2,1.6-1.8,2.3c-0.5,0.6-1.2,1.5-1.8,1.9
	c1.9-1.5,3.7-2.9,5.3-4.7c-0.2,0.7-0.4,1.7-0.9,2.3c-0.4,0.5-1.2,0.8-1.8,1.2c-1.5,0.9-3.1,1.7-4.7,2.5c-1.6,0.8-3.1,1.7-4.8,2.3
	c-0.8,0.3-1.6,0.5-2.4,0.7c-0.7,0.1-1.9,0.4-2.5,0.3c2.8,0.5,5.3,0.4,8-0.6c2.5-1,5-2.2,7.1-3.8c-2.6,6.4-4.8,12.8-6.3,19.6
	c-0.8,3.4-1.1,7-1.6,10.4c-0.2,1.6-0.6,3.1-1.2,4.6c-0.6,1.6-1.5,3.2-1.9,4.9c0.6-1.8,2.2-3.5,3-5.2c1-1.9,1.4-3.9,1.9-5.9
	c0.9-4.2,1.6-8.3,2.7-12.5c1-4.2,2.6-8.2,3.8-12.3c0.3-1.1,0.6-2.1,0.9-3.2c0.2-0.8,0.3-1.7,0.9-2.4c0.7-0.8,1.6-1.5,2.3-2.3
	c0.4-0.4,1.7-2.2,2.1-2.2c-0.4,0-1.5,1.1-1.9,1.3c-0.8,0.5-1.5,1.1-2.3,1.6C543.6,291.6,543.7,290.8,543.8,290z"/>
<path id="XMLID_214_" style="fill:#1B1B1B;" d="M472.7,436.7c4.8-5.5,8-13.2,10-20.2c1.1-4.1,2-8.2,2.9-12.3c0.5-2,1-4,1.4-6.1
	c0.3-1.6,0.2-4.1,1.5-5.3c0.7,0.8,1,2,1.5,2.9c0.5,1.2,1.1,2.3,1.7,3.4c1.2,2.1,3.1,4,5.3,5.1c2.2,1.1,4.9,1.7,7.3,2.3
	c2.3,0.5,4.7,1.6,7.1,1.1c-1,0.3-2.6-0.5-3.5-0.9c-1.3-0.6-2.7-1.1-4.1-1.6c-2.7-1-5.5-1.9-7.7-3.8c-2.1-1.9-3.3-4.1-4.4-6.7
	c-0.7-1.6-1.9-5.5-4.4-3.8c-2.1,1.4-2,5-2.4,7.3c-0.5,2.9-1.3,5.7-1.8,8.6c-1,5.8-2.8,11.4-5,16.8c-1.2,3.1-2.5,6.4-4.1,9.3
	c-1.3,2.4-3.6,4.8-4.2,7.5c-0.7-4.2-1.2-8.5-2.6-12.5c-1.3-4-2.8-7.9-4.4-11.8c-1.7-4-3.8-7.8-5.7-11.8c-1.9-3.9-3.2-8.1-4.7-12.1
	c-0.9-2.3-1.8-4.5-2.8-6.8c-0.5-1.1-1-2.2-1.5-3.2c-0.1-0.3-1.3-3.1-1.6-3.1c0.2,0,1.3,4.3,1.4,4.8c0.6,2,1.1,3.9,1.7,5.9
	c1.1,3.5,2.2,7,3.5,10.4c2.6,7,6.6,13.3,9.2,20.3c1.3,3.4,2.9,7,3.7,10.6c0.8,3.6,1.4,7.3,1.9,10.9c0.5,3.4,0.2,6.7-0.3,10
	c-0.6,3.6-2,6.9-3.1,10.3c-1.3,3.8-1.7,7.7-2.8,11.6c-0.5,1.7-0.9,3.4-1.5,5.1c-0.3,0.9-0.6,1.8-1,2.6c-0.3,0.8-0.6,2-1.1,2.7
	c0.6-0.8,1.1-1.7,1.6-2.6c0,3.5-2.2,6.9-3.7,10c-1.7,3.5-3.6,7-5.3,10.5c-1.7,3.5-3.5,6.9-5.5,10.3c-1.9,3.3-3.8,6.5-5.7,9.9
	c-3.9,6.9-6.6,14.4-10.7,21.3c-2,3.4-4.4,6.6-6.7,9.9c-2.2,3.2-4.5,6.4-7,9.4c-2.8,3.5-5.7,7-8,10.9c-1.1,1.8-2.1,3.7-3,5.6
	c-0.8,1.9-1.5,4.1-2.6,5.8c2.5-3,4.2-6.6,6.5-9.8c2.4-3.5,5-6.8,7.7-10.1c5.1-6.2,10-12.8,14.2-19.7c4.4-7.1,7.2-14.9,11.2-22.1
	c2-3.6,4-7.1,6.1-10.6c1.9-3.2,3.5-6.4,5.1-9.7c2.1-4.2,4.2-8.2,5.8-12.6c0.8-2.1,1.6-4.4,1.9-6.6c0.1-1-0.3-2.1,0.1-3
	c0.4-1,1.1-2,1.6-3c0.5,1.5,1.6,2.9,3,3.8c0.6,0.3,1.1,0.5,1.7,0.7c0.9,0.3,1.5,1.1,2.2,1.8c1.2,1.2,2.6,2,4.4,2
	c1.9,0,3.8-0.6,5.6-1.1c1.6-0.5,2.6-1.3,3.5-2.7c1-1.7,2-3,3.6-4.2c2.8-2,5.5-4,7.2-7.1c1.7-3,1.9-6.5,3.7-9.4c1.8-2.9,4-5.7,4.9-9
	c1-3.4,1.3-7.1,1.7-10.6c0.2-1.9,0.4-3.8,0.4-5.7c0-1.9-0.1-3.9,0.1-5.8c0.4-4,2.2-7.8,3.6-11.5c0.7-1.8,1.4-3.7,1.8-5.6
	c0.2-0.9,0.3-1.7,0.3-2.6c0-0.3,0-2.9-0.3-2.9c0.3,0-0.3,3.2-0.4,3.4c-0.4,1.4-0.9,2.7-1.5,4c-1.1,2.6-2.5,5.1-3.6,7.7
	c-1.1,2.6-2,5.5-2.1,8.4c-0.1,3,0.1,5.9-0.2,8.8c-0.6,5.8-1,11.8-4.3,16.8c-1.6,2.5-3.2,4.8-4.2,7.6c-0.9,2.8-1.6,5.4-3.5,7.7
	c-2.1,2.4-5.1,3.7-7.2,6c-1,1.1-1.5,2.5-2.4,3.6c-0.9,1.1-2.8,1.4-3.9,1.6c-2.4,0.6-4.1,0.7-5.9-1c-0.7-0.6-1.2-1.4-2-1.9
	c-0.8-0.5-1.8-0.5-2.6-1.1c-1.7-1.2-2.4-3.3-1.7-5.3c0.6-1.8,1.5-3.6,2.2-5.4c0.6-1.8,1-3.6,1.6-5.4c0.6-2,1.4-4,2-6.1
	c0.6-2.1,1.1-4.3,1.8-6.3c0.6-1.6,1.2-4.3,2.3-5.6c0,0,0,0,0-0.1c0.4-0.8,1.6-1.7,2.3-2.3c-1.6,0.9-2.8,1.7-3.7,3.3
	c-0.8,1.4-1.6,2.9-2.3,4.4c0.4-2.5,0.2-4.9,1-7.3c0.4-1,0.9-2,1.3-2.9c0.1-0.3,1.1-3,1.1-3c-0.3,0-1.4,2-1.6,2.3
	c-0.6,0.8-1.2,1.6-1.6,2.5c-0.1-0.9-0.4-1.9-0.1-2.7c0.3-1,1.5-2.1,2.2-2.9C472.2,437.2,472.7,436.7,472.7,436.7z M488.4,392.7"/>
<path id="XMLID_97_" style="fill:#1B1B1B;" d="M472.7,436.7"/>
<path id="XMLID_96_" style="fill:#1B1B1B;" d="M473.5,445.8"/>
<path id="XMLID_95_" style="fill:#1B1B1B;" d="M514.6,390.2c1.6-4.3,2.9-8.7,4.8-12.9c1.9-4.4,4-8.8,5.7-13.3
	c1.6-4.4,3-8.9,3.7-13.5c0.2-1.2,1.6-13.7,1.6-13.7c-0.1,0-1,3.4-1.1,3.7c-0.4,1.4-0.7,2.8-1,4.2c-0.3,1.4-0.6,2.7-0.9,4.1
	c-0.1,0.6-0.3,1.3-0.4,1.9c-0.1,0.4-0.2,0.8-0.3,1.2c0,0.1-0.3,1.1-0.1,0.5c-1.2,4.5-2.5,8.9-4.1,13.3c-1.7,4.4-3.8,8.6-5.6,12.9
	c-1.8,4.3-3.1,8.8-4.7,13.2c-1.6,4.3-3.3,8.7-4.3,13.2c0.8-2.5,2.4-4.9,3.5-7.4C512.5,395.3,513.7,392.8,514.6,390.2z"/>
<path id="XMLID_94_" style="fill:#1B1B1B;" d="M484.1,329.3c-1.6,1.2-3.2,2.5-4.7,3.8c-1.5,1.3-3,2.4-4.2,3.9c1.2-1.2,3.1-2.1,4.5-3
	c1.8-1.2,3.6-2.4,5.4-3.5c3.6-2.3,7-4.8,10.6-7c-2.1,4.1-3.4,8.5-4.4,13c-0.9,4.4-1.8,8.8-2.5,13.3c-1.2,8.5-2.4,17-2.5,25.6
	c0,2.5-0.1,4.9,0,7.4c0.1,1.2,0.2,2.4,0.3,3.6c0.1,1.1,0.6,2.3,0.6,3.4c0.2-3.9,0.2-7.8,0.6-11.7c0.4-4.2,0.6-8.5,1.1-12.7
	c0.9-8.2,1.8-16.3,3.4-24.4c0.8-4.1,1.4-8.3,2.3-12.4c0.3-1.5,0.5-4.8,1.9-5.5c1.8-1,3.5-2,5.2-3.1c6.9-4.3,13.9-9.5,18.7-16.2
	c1.3-1.8,2.5-3.7,3.5-5.6c0.2-0.4,0.4-0.9,0.6-1.3c0.1-0.2,0.2-0.4,0.2-0.6c0.2-0.6,0-0.5,0.6-0.7c1-0.2,2-0.2,2.9-0.5
	c4.4-1.5,5.1-7.1,5.4-11.1c0,0.6-0.5,1.5-0.7,2.2c-0.3,1-0.6,2-1,2.9c-0.7,1.5-1.8,3.1-3.3,4c-3.1,1.8-6.9,0.4-7.9-3
	c-1-3.5-1.2-7.1-1.5-10.8c-0.1-2-0.2-4-0.5-5.9c-0.1-0.8-0.3-1.7-0.7-2.5c-0.1-0.3-0.9-1.8-1.2-1.8c0.4,0,0.9,2.5,1,2.8
	c0.2,1.4,0.1,2.8,0.1,4.2c-0.1,2.7-0.2,5.4-0.1,8.1c0.2,4.2,1.2,11,6.6,11.3c-0.9,2-2.4,3.7-3.8,5.4c-1.3,1.6-2.7,3.3-4.2,4.7
	c-3.2,3.1-6.5,6.1-10,8.9c-3.5,2.7-7.6,4.9-11.4,7.1C491.3,323.8,487.8,326.5,484.1,329.3z"/>
<path id="XMLID_93_" style="fill:#1B1B1B;" d="M475.5,336.2c-0.5,0-1.6,1.3-2,1.7c-0.6,0.5-1.2,1-1.8,1.4c-1.4,1.1-2.9,2.1-4.3,3.1
	c-3.1,2.1-6.2,4.3-8.9,6.9c0.9-0.9,2.6-1.4,3.7-2c1.8-1,3.6-2,5.3-3.2c1.7-1.1,3.2-2.4,4.6-3.8c0.6-0.6,1.2-1.2,1.7-1.9
	C474.1,338.2,475.3,336.2,475.5,336.2z"/>
<path id="XMLID_92_" style="fill:#1B1B1B;" d="M468.2,349.7"/>
<path id="XMLID_91_" style="fill:#1B1B1B;" d="M468.1,349.9c0,0,0.1-0.1,0.1-0.1c-5.8,9.5-14,17.4-19.3,27.2
	c2.1-3.2,5.2-5.8,7.8-8.7c2.8-3.2,5.2-6.6,7.8-9.9c2.4-3.1,4.4-6.2,6.2-9.7c0.9-1.7,1.5-3.4,2.1-5.2c0.1-0.5,1.4-5.4,1.6-5.4
	c-0.2,0-1.4,2.8-1.6,3.1c-0.5,1-0.9,2-1.4,3C470.4,346.2,469.2,348,468.1,349.9z"/>
<path id="XMLID_90_" style="fill:#1B1B1B;" d="M468.2,349.7"/>
<path id="XMLID_89_" style="fill:#1B1B1B;" d="M395.3,277.2c-4.7,1.5-9.4,2.6-14.1,3.8c-4.7,1.2-9.3,2.7-13.9,4.3
	c-4.7,1.7-9.3,2.9-14.1,4.1c-2.3,0.6-4.7,1.2-7,1.9c-2.2,0.6-4.5,1.2-6.6,2.2c-2.4,1.2-4.7,2.7-6.8,4.4c-1,0.9-2.1,1.8-2.9,2.8
	c-0.4,0.4-0.7,0.9-1,1.4c-0.3,0.4-0.4,1.1-0.6,1.5c0.2-0.4,0.5-0.9,0.7-1.2c0,0,0,0,0,0c1.5-2,4.2-3.4,6.3-4.7
	c2.7-1.5,5.4-2.8,8.3-3.7c5.9-1.8,11.9-3.1,17.8-4.7c5.6-1.5,11-4,16.6-5.5c5.6-1.5,11.3-2.7,16.9-4.5c3.1-1,6.1-2.3,8.9-3.9
	c1.5-0.8,2.9-1.6,4.3-2.5c0.7-0.4,1.4-0.9,2.2-1.3c0.4-0.2,1.6-1.2,2-1.2c-0.8,0-1.9,0.7-2.6,1c-1.1,0.5-2.3,0.9-3.4,1.4
	c-1.1,0.4-2.1,0.9-3.1,1.3c-0.5,0.2-1,0.4-1.6,0.6c-0.2,0.1-1.7,0.7-1.1,0.5C398.7,276,397,276.6,395.3,277.2z"/>
<path id="XMLID_88_" style="fill:#1B1B1B;" d="M329,302.5"/>
<path id="XMLID_87_" style="fill:#1B1B1B;" d="M301.8,275.4"/>
<path id="XMLID_86_" style="fill:#1B1B1B;" d="M300.6,277.2c0.3-0.6,0.7-1.3,1.2-1.8c0,0,0,0,0.1-0.1c1.3-1.8,3.5-3.6,5.2-5.3
	c2.1-2,4.4-3.7,6.8-5.3c1.6,2.6,1.6,6.2,1.9,9.2c0.3,3.2,0.4,6.8,1.4,9.9c1,2.9,3.2,4.9,6,6c3.1,1.2,6.1,2.3,9.1,3.8
	c-2.4-1.6-4.8-3.3-7.4-4.6c-2.8-1.4-5.1-3.2-5.9-6.4c-0.8-2.9-0.9-6-1.4-9c-0.5-3-1-6.8-3.1-9.2c6.3-4.3,12.9-7.9,19.6-11.5
	c6.8-3.6,13.4-7.5,20.4-10.7c6.8-3.1,13.6-6.1,20.2-9.4c6.4-3.2,13.2-6.4,19-10.7c1.6-1.1,2.9-2.1,4.2-3.1c1.6-1.2,3.6-1.6,5.4-2.4
	c3.7-1.6,6.9-4.2,10.6-5.9c-0.3,0.1,0.6-0.3,0.8-0.4c0.9-0.4,1.8-0.7,2.7-1.1c0.9-0.4,1.8-0.8,2.7-1.2c1.1-0.5,1.7-0.7,2.9-0.6
	c3.6,0.1,7.7,0.9,11.1,2.3c3.2,1.4,6.5,3.9,8.6,6.7c2,2.6,2.8,6,3.3,9.2c0.1,0.4-0.5,1.2-0.6,1.5c-0.3,0.7-0.6,1.4-0.9,2.1
	c-0.6,1.3-1.1,2.7-1.7,4c-1.2,2.8-2.5,5.6-3.8,8.3c-1.3,2.5-2.8,4.9-4.5,7.1c-0.9,1.1-1.8,2.2-2.8,3.3c-0.5,0.5-1,1.1-1.5,1.6
	c-0.3,0.3-0.6,0.6-0.8,0.9c-0.1,0.1-0.8,0.8-0.4,0.3c-2.7,2.5-5.3,5-8.2,7.3c-1.3,1.1-2.6,2.1-4,3.1c-0.7,0.5-1.3,1-2,1.5
	c-0.4,0.3-0.8,0.6-1.2,0.8c-0.1,0.1-1.2,0.7-0.7,0.5c-0.4,0.2-0.8,0.5-1.1,0.6c0,0-0.1,0-0.1,0.1c0,0-1,0.5-1.3,0.7
	c-0.6,0.3-1.2,0.7-1.8,1.1c-1,0.7-1.8,1.6-2.7,2.4c2.7-1.9,5.8-2.7,8.7-4.2c2.8-1.5,5.5-3.4,7.9-5.4c5.1-4.2,9.9-9,14-14.2
	c4.1-5.3,6.6-11.8,9.2-17.9c2.7-6.2,5.1-12.5,7.2-19c1.1-3.4,2.3-6.9,3.4-10.3c0.6-1.8,1.1-3.7,1.5-5.5c0.1-0.5,0.9-5.5,0.9-5.5
	c-0.2,0-0.9,3-1.1,3.4c-0.5,1.5-1.1,3-1.7,4.5c-1.1,2.8-2.4,5.5-3.4,8.3c-2,5.8-3.7,11.7-6,17.4c-0.1-3.4-0.7-6.8-2.8-9.5
	c-2-2.5-4.7-4.8-7.6-6.2c-2.9-1.5-6.4-2.3-9.6-2.8c-3.1-0.5-6.3-0.5-9.4-0.2c2.4-0.7,4.8-1.1,7.2-1.5c-0.4,0.1,0.9-0.1,1.1-0.1
	c0.5-0.1,1-0.1,1.6-0.2c1.1-0.2,2.2-0.4,3.3-0.6c1-0.2,2-0.4,3.1-0.6c0.5-0.1,1-0.2,1.6-0.3c0.2,0,2-0.3,1.3-0.3
	c2.9-0.4,5.8-0.8,8.7-1.4c1.3-0.3,2.6-0.5,3.9-1.1c0.6-0.3,1.1-0.6,1.7-0.9c0.3-0.2,1.2-1.2,1.5-1.2c-0.6,0-1.8,1-2.4,1.2
	c-1.1,0.4-2.2,0.6-3.4,0.7c-2.3,0.3-4.7,0.3-7,0.5c-4.7,0.3-9.2,1.6-13.9,2.2c-4.5,0.6-8.6,1.7-12.7,3.5c-1.7,0.8-3.8,0.6-5.7,1
	c-2.1,0.5-4.1,1.2-6.1,2.2c-1.9,1-3.8,2.2-5.2,3.8c-1.7,1.9-2.7,4.1-3.4,6.5c0.1-0.6,0.9-1.4,1.2-1.9c0.5-0.8,1.1-1.6,1.7-2.3
	c1.2-1.3,2.8-2.6,4.3-3.4c2.9-1.6,5.9-2.9,9.1-3.7c-1.3,0.9-2.8,1.5-4.2,2.3c-1.1,0.7-2.5,1.9-3.7,2.3c3.3-1.1,6.4-2.7,9.8-3.4
	c3.1-0.7,6.4-1.4,9.6-1.5c-4.7,1.1-9.1,2.2-13.1,4.9c-2,1.3-3.8,2.7-5.9,3.9c-2,1-4,1.9-5.9,2.8c0.7-0.2,1.4-0.3,2.1-0.4
	c-11.2,6.1-22.2,12.3-33.8,17.6c-5.9,2.7-11.8,5.3-17.5,8.3c-5.8,3-11.6,6.2-17.4,9.2c-3.1,1.6-6.1,3.3-9.1,5.1
	c-1.5,0.9-3,1.9-4.4,2.8c-0.6,0.4-1.3,1.1-2,1.4c-0.4,0.2-1.5,0.2-2,0.1c0.5,0.1,1,0.2,1.4,0.4c-2.9,2-5.4,4.2-7.7,6.9
	c-2.1,2.4-4.3,5-4.6,8.3C300.1,278.3,300.4,277.6,300.6,277.2z"/>
<path id="XMLID_85_" style="fill:#1B1B1B;" d="M454.5,248.7c-3,3.7-5.9,7.7-9.3,11.1c-1.8,1.8-3.6,3.5-5.4,5.3
	c-1.7,1.8-3.5,3.6-5.4,5.2c-3.6,2.9-7.9,5.1-12.1,7.1c-4.4,2.1-8.8,3.1-13.5,3.9c-2.5,0.4-5,0.5-7.5,0.7c-2.3,0.2-5,0.9-7,0.9
	c-1.1,0-2.1-0.2-3.2-0.5c-0.9-0.2-1.9-0.2-2.8-0.4c0.3,0.1,0.6,0.2,0.9,0.2c1.9,0.4,3.6,1.6,5.7,1.7c2.1,0.2,4.3-0.2,6.4-0.2
	c4.5-0.2,8.8-0.6,13.2-1.7c4.2-1,8.1-2.8,11.9-4.7c3.7-1.9,7.4-4.1,10.5-6.9c6.6-6,12.6-12.5,18.2-19.4c2.8-3.4,5.2-6.9,7.4-10.7
	c2.3-3.9,4-8,6-12.1c2.3-4.7,4.5-9.3,6.4-14.2c0.9-2.2,1.4-4.4,1.6-6.7c0-0.6,0.3-6.8,0.4-6.8c-0.3,0-1.2,5.5-1.3,6
	c-0.4,2.2-1,4.2-2,6.2c-1.9,4.1-3.8,8.2-5.7,12.2c-1.9,4.1-3.6,8.3-5.7,12.3C460,241.3,457.4,245.1,454.5,248.7z"/>
<path id="XMLID_84_" style="fill:#1B1B1B;" d="M394.4,282.9C394.4,282.9,394.4,282.9,394.4,282.9
	C394.4,282.9,394.4,282.9,394.4,282.9z"/>
<path id="XMLID_83_" style="fill:#1B1B1B;" d="M411.8,268.5"/>
<path id="XMLID_82_" style="fill:#1B1B1B;" d="M457.2,198.9c0,0.1,0,0.1,0,0.2C457.2,199,457.2,198.9,457.2,198.9z"/>
<path id="XMLID_81_" style="fill:#1B1B1B;" d="M468.8,194.5c1.5,0.3,3.1,0.6,4.5,1.2c1,0.4,3,1.1,3.4,2.2c-1.2-2.8-4.4-4.1-7.3-4.5
	c-1.4-0.2-2.8-0.4-4.2-0.3c-1.6,0.1-2.5,1.1-3.8,1.7c1-0.3,2.1-0.8,3.2-0.9c0.8,0,1.7,0.2,2.5,0.3
	C467.4,194.2,468.3,194.4,468.8,194.5z"/>
<path id="XMLID_80_" style="fill:#1B1B1B;" d="M457.4,191.4c1.1-2.2,4-1.7,6.1-1.4c2.3,0.3,4.6,0.8,6.8,1.2c-0.4-0.1,0.2,0,0.3,0.1
	c0.4,0.1,0.8,0.2,1.1,0.2c0.7,0.2,1.4,0.3,2,0.6c1.2,0.6,2,1.4,2.5,2.6c-0.2-0.3-0.1-1-0.3-1.4c-0.2-0.4-0.5-0.8-0.8-1.2
	c-0.7-0.8-1.7-1.4-2.7-1.7c-2-0.8-4.2-1.3-6.4-1.6c-2.1-0.3-4.6-0.8-6.7-0.1c-2.4,0.7-2.8,2.7-2.9,4.9
	C456.8,192.9,457.1,192.1,457.4,191.4z"/>
<path id="XMLID_79_" style="fill:#1B1B1B;" d="M485.3,155.4"/>
<path id="XMLID_78_" style="fill:#1B1B1B;" d="M458,180.2c2.4-2.1,4.5-4.5,6.6-6.7c2.2-2.3,4.3-4.6,6.1-7.1c1.8-2.4,3.6-4.8,5.4-7.3
	c1-1.3,1.9-2.7,2.8-4.1c0.5-0.7,1-1.4,1.5-2c0.2-0.3,1-1.4,1.2-1.4c-0.8,0-2.4,1.8-2.9,2.4c-1.1,1.1-2.2,2.4-3.2,3.6
	c-2.1,2.4-4.2,4.9-6,7.5c-1.8,2.6-3.8,5-5.7,7.5c-1,1.3-2.1,2.6-3.1,4C459.8,177.8,459,179.2,458,180.2z"/>
<path id="XMLID_77_" style="fill:#1B1B1B;" d="M454.6,178.7c-3.6,2.4-6,6.6-8.5,10c-1.3,1.8-2.4,3.6-3.5,5.5c-0.6,1-1.1,1.9-1.7,2.9
	c-0.4,0.7-0.9,1.9-1.4,2.4c2.9-3.4,5.7-6.9,8.4-10.5c1.4-1.9,2.6-3.9,3.8-5.8c0.6-1,1.2-2,1.9-2.9c0.3-0.4,1.4-2.2,1.8-2.2
	C455.3,178.2,454.7,178.7,454.6,178.7z"/>
<path id="XMLID_76_" style="fill:#1B1B1B;" d="M457.7,174.1c0.2-0.3,1.6-2,1-2c-0.1,0-0.1,0.2-0.2,0.3c-0.8,0.5-1.6,1.5-2.4,2.2
	c-0.8,0.7-1.7,1.4-2.6,2c-3.9,3.1-8.1,5.8-11.9,8.9c-3.7,3-7.3,5.9-11.3,8.6c-2,1.3-3.9,2.6-5.9,4c-1.9,1.4-3.5,3-5.2,4.5
	c6.5-4.4,13.8-7.6,19.9-12.7C445.4,184.7,452.4,180.3,457.7,174.1z"/>
<path id="XMLID_75_" style="fill:#1B1B1B;" d="M417.6,200.7c3-3,6.3-5.8,9.1-9.1c-0.3,0.4,0.8-0.8,0.9-1c0.5-0.5,0.9-1,1.4-1.5
	c0.9-1,1.8-2.1,2.7-3.1c1.6-1.8,3.3-3.4,5-5.1c3.5-3.3,6.9-6.8,10-10.5c-0.4,0.5,0.2-0.2,0.3-0.4c0.3-0.3,0.5-0.6,0.8-0.9
	c-0.4,0.6,0.6-0.6,0.6-0.6c0.2-0.3,0.5-0.5,0.7-0.8c0.6-0.7,1.3-1.4,1.9-2.1c1.1-1.3,2.2-2.5,3.3-3.8c1-1.1,2-2.2,3-3.4
	c0.6-0.7,1.1-1.4,1.5-2.1c0.1-0.2,0.8-1.6,0.9-1.6c-0.3,0-1.5,1.7-1.8,1.9c-0.7,0.7-1.5,1.4-2.3,2.1c-1.6,1.5-3.2,3-4.7,4.6
	c-3.1,3.1-5.8,6.5-8.8,9.7c-2.6,2.8-5.3,5.3-8,7.9c-3.1,3-5.8,6.1-8.4,9.5c-2.8,3.7-6.1,7.2-8.6,11
	C417.2,201.2,417.4,200.9,417.6,200.7z"/>
<path id="XMLID_74_" style="fill:#1B1B1B;" d="M460.4,157.6c0.4,2.1,1.1,4.1,2.2,5.9c0.5,0.9,1,1.7,1.7,2.5c0.5,0.6,1.3,1.2,1.7,1.8
	c-1.3-2.4-2.5-4.8-3.5-7.4c-0.8-2-1.6-3.9-1.8-6c0-0.1-0.1-2.1,0.1-2.1c-0.3,0-0.6,2.2-0.6,2.4C460.2,155.7,460.2,156.6,460.4,157.6
	z"/>
<path id="XMLID_73_" style="fill:#1B1B1B;" d="M460.8,154.5"/>
<path id="XMLID_72_" style="fill:#1B1B1B;" d="M465,157.5c1.1,2.9,2.2,6,2.1,9.1c0-0.4,0.4-1,0.4-1.4c0.1-0.6,0.1-1.2,0.1-1.9
	c0-1.1-0.2-2.2-0.6-3.2c-0.3-1-0.8-2-1.4-2.9c-0.3-0.4-1.5-2.5-2.1-2.5C463.9,154.7,464.9,157.2,465,157.5z"/>
<path id="XMLID_71_" style="fill:#1B1B1B;" d="M467.8,153c1.6,0.8,1.9,2.4,2.4,4c0.5,1.6,1.1,3.2,1.8,4.7c-0.2-0.3-0.1-1.1-0.2-1.5
	c-0.1-0.6-0.2-1.3-0.3-1.9c-0.2-1.2-0.4-2.4-0.9-3.5c-0.4-1-1.1-1.8-2.2-2.2c-1.1-0.4-1.9,0.1-2.9,0.1
	C466.3,152.7,467,152.7,467.8,153z"/>
<path id="XMLID_184_" style="fill:#1B1B1B;" d="M483.6,150.1c0.8,1.5,0.9,3.5,1.8,4.8c-3,1.6-5.1,4.7-7.3,7.2
	c-2.2,2.6-4.1,5.5-6.2,8.2c-2.2,2.9-4,5.7-6.2,8.7c-2.1,2.8-4.4,5.6-6,8.7c1.8-2.7,4.4-5,6.5-7.4c2.4-2.7,4.5-5.7,6.7-8.5
	c2.2-2.8,4.2-5.8,6.3-8.7c1.9-2.5,3.6-5.7,6-7.7c0,0,0,0,0,0c0.4-0.4,1.7-0.1,2.4-0.1c0.9-0.1,1.9-0.1,2.8-0.2
	c0.9-0.1,1.9-0.3,2.8-0.6c0.4-0.1,0.9-0.3,1.3-0.5c0.3-0.2,1.1-1,0.9,0c0.1-0.4,0.1-0.6,0.5-0.8c-0.6,0.2-0.2-0.4-0.2-0.8
	c0-0.5,0.1-1,0-1.5c-0.2-0.9-0.6-1.2-1.5-1.2c-2-0.2-3.8-0.8-5.7-1.4c-1.4-0.5-3.3-1.5-4.7-1.4C481.6,146.9,483.1,149,483.6,150.1z
	 M486.8,149.5c1.9,0.5,3.9,0.9,5.9,1c0.5,0,1.6-0.2,2.1,0c0.4,0.2,0.6,1.4,0.6,1.8c0,0.4,0.1,0.8-0.1,1c-0.1,0.1-0.8,0.3-0.9,0.3
	c-0.5,0.1-1.3,0.3-1.7,0.3c-0.9,0.1-1.9,0.1-2.8,0c-0.7,0-2.4,0.3-3-0.2c-0.3-0.2-0.4-1.6-0.5-2.1c-0.2-0.9-0.5-1.8-1-2.6
	C485.9,149.3,486.4,149.4,486.8,149.5z"/>
<path id="XMLID_68_" style="fill:#1B1B1B;" d="M548,99.6c0.6-1,1.3-2,1.9-3c0.2-0.3,1.2-2.5,1.4-2.5c-0.3,0-1.7,2-1.9,2.3
	c-0.8,0.9-1.6,1.8-2.3,2.7c-1.5,1.8-2.9,3.7-4.1,5.8c-2.4,4-5,7.9-7.8,11.7c-2.7,3.6-5.3,7.3-8.2,10.7c-3,3.6-6,7.3-8.9,11.1
	c-2.8,3.8-5.4,7.9-8,11.8c2.9-3.5,6.1-6.8,8.9-10.3c2.9-3.7,5.9-7.4,8.9-11c2.9-3.6,5.6-7.3,8.4-11c2.5-3.2,5-6.8,6.9-10.2
	C544.7,105,546.3,102.3,548,99.6z"/>
<path id="XMLID_67_" style="fill:#1B1B1B;" d="M499.5,151.5c6.6-7.4,12.9-15.2,18.2-23.6c2.5-4,5.2-7.8,7.9-11.6
	c2.8-4,5.7-7.9,8.5-11.8c1.4-2.1,2.8-4.2,4.2-6.3c0.8-1.1,1.6-2.3,2.3-3.4c0.2-0.4,1.7-3.5,2-3.5c-0.4,0-1.9,2.2-2.2,2.6
	c-0.8,1-1.7,2-2.5,2.9c-1.7,1.9-3.2,3.9-4.8,5.9c-3.1,3.9-5.9,8-8.8,12.2c-2.8,4.1-5.7,8.1-8.3,12.2c-2.8,4.4-6.1,8.5-9.2,12.8
	c-3.4,4.7-6.4,9.5-9.7,14.2C497.7,153.2,498.7,152.3,499.5,151.5z"/>
<path id="XMLID_178_" style="fill:#1B1B1B;" d="M580.2,77.1c0,1.4-0.2,3.6-1,4.8c-1.2-0.7-2-1.8-3.3-2.4c-1.3-0.6-2.3-0.3-3.5,0.5
	c-1.2,0.7-1.8,1-2.9,0c-1.1-0.9-1.9-2-2.4-3.3c0.3,0.7-0.2-0.5-0.2-0.5c0-0.2-0.2-0.4-0.1-0.6c0.2-0.4,1-0.6,1.4-0.7
	c1.7-0.6,3,0.2,4.4,1.1c0.6,0.4,1.1,0.8,1.7,0.9c1,0.1,1.9-0.3,2.8-0.4c1.4-0.2,2.4,0.3,2.8,1.7c-0.2-1.1-0.6-1.9-1.7-2.3
	c-1.3-0.4-2.8,0.3-4-0.2c-0.9-0.4-1.5-1.4-2.3-1.9c-1-0.7-2-1-3.2-0.9c-0.6,0-1.2,0.2-1.8,0.4c-0.4,0.1-1.2,0.8-1.5,0.8
	c-0.6,0.1-2.2-1.5-2.9-1.9c-2.1-1-4.2-1.4-6.4-1.1c-1.1,0.2-2.1,0.5-3.1,1.1c-0.3,0.2-1,0.9-1.3,0.9c-0.5,0-1.2-0.8-1.8-0.9
	c-2.1-0.4-2.6,2.8-3.4,4.2c-1.3,2.2-2.5,4.7-4,6.7c-1.1,1.6-4,3.2-2.5,5.5c0.9,1.5,2.4,0.6,3.7,0.4c1.6-0.3,2.3,0.2,3.6,1.1
	c1,0.7,2,1.2,3.2,1c1.3-0.2,2.7-0.9,4-0.9c-1.4,0-2.9,0.3-4.2,0.2c-1.2-0.1-1.9-0.9-2.7-1.6c-0.8-0.8-1.5-1.4-2.7-1.4
	c-0.7,0-1.4,0-2.1,0.1c-0.4,0.1-1,0.4-1.1-0.1c-0.1-0.6,1.8-1.9,2.1-2.3c0.8-1,1.4-2.1,2-3.2c1.3-2.5,3.1-4.8,4.1-7.4
	c1.3,0.5,2.4,1.5,3.7,2c1.4,0.6,2.6,1.3,4,1.9c2.3,1,5.7,0.3,7.4-1.4c0.6,2.1,2.1,4,4,5.2c1,0.6,2,0.8,3,0.3
	c0.9-0.4,1.6-1.4,2.5-1.6c1-0.2,2,0.5,2.8,1c0.6,0.4,1.5,1.3,2.2,1C581,82.4,580.3,78.3,580.2,77.1z M541.7,87.6 M564.6,76.9
	c-2,1.1-5,1.3-6.9-0.1c-1.9-1.3-4-2.2-5.9-3.7c2.4-0.8,4.3-1.2,6.9-0.9c2.3,0.3,4.2,1.2,6.3,2.2C564.7,75.1,564.9,76.7,564.6,76.9z"
	/>
<path id="XMLID_175_" style="fill:#1B1B1B;" d="M572.8,83.1c-1.8,1-3.1,2.7-4.5,4.2c-1.4,1.6-2.7,3.2-3.9,4.8
	c-0.6,0.9-1.3,1.7-1.9,2.6c-0.5,0.7-0.5,0.6-1.2,0.2c-0.4-0.2-0.9-0.4-1.4-0.6c-1-0.4-2-0.9-3-1.4c-0.3-0.2-1.4-1.2-1.7-1.2
	c0,0,0.8,1.1,0.9,1.2c0.5,0.5,1.1,1,1.7,1.4c1.2,0.7,2.6,1.1,4,1.3c-0.4,0.6-0.9,1.2-1.3,1.8c-0.6,0.9-0.7,0.9-1.8,0.5
	c-1.3-0.4-2.7-1.3-3.6-2.1c0,0,0,0-0.1,0c-0.3-0.2-1.3-1.6-1.5-1.6c0,0,0.6,1.2,0.7,1.4c0.4,0.6,1,1.1,1.6,1.6
	c1.1,0.8,2.6,1.4,4,1.2c-0.7,1-1.4,1.9-2.2,2.7c-0.6,0.5-0.7,0.8-1.4,0.6c-0.5-0.2-1-0.8-1.4-1.1c-1.3-0.9-4.5-2.2-3.8-4.2
	c0-0.1,0.1-0.8,0.2-0.9c-1.5,3.4,1.8,5,3.9,7.1c1,1,1.8,1.3,3,0.4c1.3-0.9,2.3-2.1,3.2-3.4c2.1-2.9,4-5.9,6-8.9c1-1.5,2-3,3-4.4
	C570.9,85.4,571.7,83.8,572.8,83.1z M556.7,102.1"/>
<path id="XMLID_61_" style="fill:#1B1B1B;" d="M555.2,96"/>
<path id="XMLID_60_" style="fill:#1B1B1B;" d="M307.5,367.7c0.1-0.5,0.7-1.2,0.9-1.7c0.3-0.7,0.5-1.5,0.7-2.2
	c0.5-1.7,1.2-3.3,1.8-4.9c-0.1,0.3-0.1,0.2,0.1-0.3c0.1-0.3,0.3-0.6,0.4-0.9c0.3-0.6,0.5-1.1,0.8-1.7c0.6-1.2,1.2-2.4,1.7-3.6
	c1-2.3,1.8-4.7,2.7-7.1c1.8-4.8,3-9.8,4.5-14.6c1.4-4.5,2.3-9.1,3.3-13.8c0.6-2.7,1.2-5.4,1.9-8.1c0.2-0.6,1.3-6.8,1.4-6.8
	c-0.5,0-1.8,4.8-2,5.3c-0.8,2.2-1.6,4.3-2.2,6.6c-1.2,4.4-1.8,9-3,13.4c-2.5,8.8-5.1,17.6-8.7,26c-1,2.4-2,4.8-2.6,7.3
	C308.5,362.9,308.5,365.5,307.5,367.7z"/>
<path id="XMLID_59_" style="fill:#1B1B1B;" d="M287.7,363.9c-1.4-0.4-2.9-0.7-4.3-1.1c-0.7-0.2-1.3-0.4-2-0.6
	c-0.5-0.2-1.3-0.7-1.9-0.7c0.2,0,0.9,0.7,1.1,0.8c0.5,0.3,0.9,0.5,1.4,0.8c1.1,0.5,2.2,1,3.3,1.4c2.1,0.8,4.2,1.5,6.3,2.4
	c4.1,1.8,8.5,3,12.9,3.2c0.7,0,1-0.1,1.5,0.4c0.4,0.4,0.7,1.1,1,1.6c0.4,0.9,0.6,1.8,0.5,2.9c-0.1,2.1-0.2,4.2-0.5,6.3
	c-0.2,1.7-0.7,3.8-0.8,5.7c-0.1,1.1,0,2.1,0.1,3.2c0.1,0.6,0.1,1.1,0.2,1.6c0.1,0.4,0.4,1,0.4,1.4c-0.1-1.4,0-3.1,0.2-4.4
	c0.5-3.3,1.6-6.5,1.6-9.9c0-1.7,0-3.5-0.3-5.2c-0.4-1.5-1.5-2.6-2.6-3.7c0.1,0,0.6-0.1,0.7,0c-2.4-0.4-4.7-1.2-7-1.9
	c-2-0.7-4.1-1.2-6-2.1C291.7,365.2,289.7,364.4,287.7,363.9z"/>
<path id="XMLID_58_" style="fill:#1B1B1B;" d="M275.4,382.2c0.8-3.3,2-6.5,2.8-9.8c0.4-1.6,0.5-3.2,0.5-4.9c0-0.4-0.2-5-0.2-5
	c-0.2,0-0.8,5.2-0.9,5.7c-0.3,1.9-0.9,3.8-1.4,5.7c-0.5,2-1.1,3.9-1.4,5.9c-0.1,1-0.2,2.1-0.3,3.1c0,0.9,0.2,2,0,2.7
	C274.8,384.6,275.1,383.4,275.4,382.2z"/>
<path id="XMLID_57_" style="fill:#1B1B1B;" d="M280.1,359.6c-0.3-2.9,0.6-5.2,1.5-7.8c0.8-2.5,1.3-5.1,1.7-7.7
	c0.4-2.7,1.1-5.3,1.7-8c0.6-2.5,1.1-5.1,1.8-7.6c1.4-5,2.4-10.2,4.4-15c0.9-2.3,1.9-4.5,2.5-6.9c0.6-2.6,0.8-5.3,1.4-7.9
	c0.6-2.9,1.3-5.7,2-8.5c0.7-2.8,0.9-5.6,1.3-8.5c0,0,0.4-2.1,0.5-2.1c-0.5,0-1.1,2.9-1.2,3.2c-0.4,1.3-0.7,2.6-1.1,4
	c-0.7,2.5-1.7,5-2.4,7.5c-1.4,5.4-1.6,11.1-3.7,16.3c-1,2.4-2,4.9-2.6,7.4c-0.7,2.7-1.3,5.5-2.1,8.2c-0.8,2.7-1.4,5.4-2,8.2
	c-0.6,2.5-1.3,5-1.7,7.5c-0.5,2.9-0.7,5.9-1.3,8.8c-0.3,1.5-0.8,3.1-1,4.6c-0.1,0.8-0.1,1.6,0.1,2.4
	C279.7,358.3,280.1,359,280.1,359.6z"/>
<path id="XMLID_56_" style="fill:#1B1B1B;" d="M277.7,387.3c1.1,0.4,2.3,1.1,3.4,1.6c1.4,0.6,2.7,1.1,4.1,1.8
	c2.6,1.3,4.9,2.9,7.7,3.8c2.9,1,5.8,1.9,8.8,2.6c1.6,0.4,3.2,0.7,4.8,0.7c0.8,0,1.5,0,2.2-0.2c0.7-0.2,1.3-0.8,2-1
	c-1.6,0.5-3,0.6-4.6,0.3c-2.1-0.4-4.2-1.3-6.3-2c-2.5-0.9-5.1-1.5-7.6-2.5c-2.3-0.9-4.5-2.1-6.9-2.9
	C282.8,388.6,280.2,388.1,277.7,387.3z"/>
<path id="XMLID_55_" style="fill:#1B1B1B;" d="M306,396.8"/>
<path id="XMLID_54_" style="fill:#1B1B1B;" d="M279.9,399.1c3,1.2,5.9,2.4,8.7,3.8c3.3,1.7,6.5,2.9,10,4.1c2.9,1,7.1,2.6,9.3-0.7
	c0.8-1.2,1.1-2.9,1.1-4.4c0-0.3,0.1-2.1-0.4-2.1c-0.5-0.1-0.7,1.2-0.9,1.6c0.1-0.3,0.6-0.8,0.7-1.1c0.3,2.7-1.2,6.4-4.3,6.4
	c-1.7,0-3.5-1-5.1-1.6c-1.7-0.6-3.4-1.1-5.1-1.7c-3.3-1.3-6.4-3-9.8-4c-1.7-0.5-3.4-1-5-1.5c-0.9-0.3-1.7-0.5-2.6-0.8
	c-0.7-0.2-1.7-0.8-2.4-0.8c0.6,0,2,1,2.5,1.3C277.7,398.1,278.8,398.6,279.9,399.1z"/>
<path id="XMLID_53_" style="fill:#1B1B1B;" d="M269.8,396.9c1.7-1.2,2.8-3,3.4-5.1c0.3-1,0.4-2.1,0.4-3.2c0-0.3-0.2-3.4-0.4-3.4
	c0.2,0-0.9,5.7-1,6.2c-0.3,0.9-0.5,1.9-0.9,2.7C271,394.9,270.5,396.4,269.8,396.9z"/>
<path id="XMLID_52_" style="fill:#1B1B1B;" d="M261,435.3c0.5,1.4,1.7,2.6,3.3,2.2c1.6-0.4,3-1.7,4.5-2.1c-1,0.2-1.9,0.4-2.9,0.7
	c-0.6,0.2-1.6,0.5-2.3,0.4c-1.4-0.4-1.8-3.1-1.9-4.3c-0.1-0.7,0.8-9.8,0.4-9.8c-0.1,0-0.3,1.8-0.4,1.9
	C261,427.8,259.5,431.5,261,435.3z"/>
<path id="XMLID_51_" style="fill:#1B1B1B;" d="M261.8,423.6c-0.5-2,0.7-4.7,1.2-6.6c0.8-2.6,1.6-5.1,2.4-7.7
	c0.8-2.3,1.7-4.6,2.6-6.9c0.5-1.1,0.9-2.2,1.4-3.3c0.2-0.4,1.1-3.1,1.5-3.1c-0.5,0-1.6,2-1.9,2.4c-0.7,1-1.3,2.1-2,3.1
	c-1.3,2.2-2.5,4.4-3.3,6.8C262.3,413.2,260.6,418.8,261.8,423.6z"/>
<path id="XMLID_159_" style="fill:#1B1B1B;" d="M297,431.2c0.7-0.1,1.2-0.2,1.9-0.2c0.5,0,1,0.2,1.3-0.3c-0.1,0.9-0.2,1.9-0.3,2.8
	c0-1,0.8-2.3,1-3.3c0.2-1,0.2-2.1,0-3.1c-0.1-0.5-0.2-1.1-0.4-1.6c-0.2-0.8-0.3-0.7,0.1-1.4c0.6-0.9,0.9-1.9,1.4-2.8
	c1-2.1,2.1-4,2.6-6.3c0.2-1,0.3-2,0.3-3.1c0-0.4-0.3-3.2-0.8-3.2c0.5,0,0,3.5-0.1,3.8c-0.3,1.4-0.7,2.7-1.2,3.9
	c-0.5,1.2-1.3,2.3-1.9,3.5c-0.6,1.1-0.9,2.4-1.4,3.5c-1.8-1.7-4.7-0.5-5.9,1.3c-1.3,2.1-1.2,4.8-1.4,7.2c-0.1,1.1-1.2,6,0.9,5.8
	c2.1-0.2,1.4-5.4,1.4-6.7C295.3,431.1,296.2,431.2,297,431.2z M300.3,429.4c0,0.2,0,0.4,0,0.5c-0.4-0.9-2.8-0.8-3.5-0.8
	c0.7-1,1.3-1.9,2-2.8C299.6,427.2,300.2,428.2,300.3,429.4z M295.1,426 M294.6,428.8c0.1-1.5,0.8-5.4,3.1-3.5c0.5,0.4,0.3,0.5,0,1.1
	c-0.3,0.5-0.5,1.1-0.7,1.6c-0.2,0.6-0.2,0.9-0.8,1C295.6,429.2,295,428.9,294.6,428.8z"/>
<path id="XMLID_156_" style="fill:#1B1B1B;" d="M265.3,451.5c-4.3,3-8.2,6.5-12.5,9.5c-4.4,3.1-8.6,6.4-12.7,9.7
	c-4,3.3-8.2,6.3-12.4,9.3c-2.1,1.5-4.1,3.3-6.1,5c-0.8,0.7-1.5,1.4-2.4,1.9c-1.1,0.7-2.1,1.3-3.2,1.9c-4.6,2.9-9.3,6.6-13.3,9.8
	c-4.7,3.7-10.1,6.1-14.4,10.3c-1.9,1.8-3.9,3.5-5.9,5.1c-1.1,0.9-2.2,1.9-3.3,2.8c-1,0.8-1.9,2-3,2.7c-0.6,0.4-1.1,0.8-1.7,1.3
	c0.5-0.5,1.7-0.8,2.4-1.2c0.8-0.5,1.5-1.1,2.3-1.6c1.6-1,3.2-2.1,4.8-3.2c3.7-2.4,6.6-5.6,10-8.2c3.3-2.5,7.1-4.2,10.3-6.8
	c1.6-1.3,3.3-2.5,5-3.8c1.6-1.3,3.2-2.7,4.8-4c1.8-1.4,3.7-2.9,5.5-4.4c1.6-1.3,3.5-3.1,4.9-3.9c3.2-1.9,6.7-4.1,9.8-6.4
	c1.9-1.4,3.8-2.7,5.6-4.2c1.9-1.5,3.7-3.1,5.6-4.6c3.8-2.8,7.7-5.6,11.3-8.6c1.8-1.5,3.4-3.2,5.2-4.8c1.6-1.5,3.2-3.5,5.1-4.7
	c0.5,1.4,1.3,3,2.9,3.3c1.7,0.3,3.8-0.9,5-1.9c2.9-2.2,4.1-6.1,5.4-9.4c-0.4,1.6-1.1,3.1-1.4,4.8c-0.2,1.4,0.1,4,1.6,4.7
	c0.6,0.3,0.6,0.3,1.1-0.1c0.4-0.3,0.8-0.6,1.2-0.8c0.8-0.5,1.7-1.1,2.5-1.6c1.3-0.8,1.8-2.7,2.2-4.1c1.5,3.8,5.1-1.3,5.9-2.9
	c0.8-1.6,1.4-3.3,2-5c0.1-0.3,1.5-4.7,1.1-4.7c0,0-1.6,3.5-1.7,3.7c-0.9,1.5-1.6,3.1-2.4,4.7c0.3-0.5-0.4,0.7-0.4,0.6
	c-0.2,0.4-0.5,0.8-0.7,1.2c-0.5,0.7-1,1.3-1.6,1.9c-0.6,0.5-0.6,0.5-1-0.3c-0.5-0.8-0.6-1.6-0.4-2.5c-0.2-0.1-0.2,0.1-0.2,0.4
	c-0.3-1.5-0.1-3,0.1-4.5c0,0.3-0.4,1-0.5,1.3c-0.2,0.7-0.4,1.4-0.5,2.1c-0.1,0.8,0.2,2.6,0,3c-0.7,1.3-4.3,8.3-6.2,5.5
	c-1.1-1.6-0.5-3.5-0.2-5.2c0.1-1,0.2-1.9,0.2-2.9c0-0.4,0.1-0.9,0.1-1.3c0-0.2,0.3-0.7,0-0.1c0.1-0.2,0.1-0.3,0-0.4
	c0.1,0-0.7,1.7-0.8,1.8c-0.4,0.7-0.9,1.5-1.4,2.2c-0.9,1.4-1.6,3-2.6,4.4c-0.9,1.3-2.2,2.3-3.7,2.9c-1.8,0.7-2.7,0.8-3.5-1.1
	c-1.4-3.3-0.8-6.4-0.2-9.8c0.2-0.8,1.7-10.3,2-10.3c-0.2,0-1.1,3.1-1.2,3.4c-0.4,1.3-0.9,2.5-1.3,3.8c-0.4,1.1-0.7,2.2-1,3.2
	c-0.3,1.2-0.5,2.6-0.9,3.8c-0.3,0.8-1.4,1.2-2.2,1.7c-0.9,0.6-1.8,1.3-2.7,1.9c-1.9,1.4-3.7,2.8-5.6,4.1c-8,5.4-15.8,11-22.8,17.6
	c0.9-0.9,2.5-1.7,3.7-2.4c1.5-0.9,2.9-1.9,4.3-2.9c3-2,6-4,8.9-6.1c2.7-2,5.5-3.9,8.1-6c2.8-2.4,5.3-5.1,8.1-7.5
	c-0.2,1.4-0.1,2.7,0.2,4.1c0.1,0.3,0.5,1.2,0.4,1.4C267,450.7,265.6,451.4,265.3,451.5z M289.3,445.4"/>
<path id="XMLID_44_" style="fill:#1B1B1B;" d="M225.1,483.5"/>
<path id="XMLID_43_" style="fill:#1B1B1B;" d="M179.2,509.3"/>
<path id="XMLID_147_" style="fill:#1B1B1B;" d="M168.5,528.4c1.9-1.6,3.6-3.3,5.4-5c0.8-0.8,1.6-1.5,2.4-2.2c0.6-0.6,1.7-2,2.5-2
	c-0.9,0-1.8,0.7-2.5,1.2c-1,0.7-2.1,1.5-3.1,2.3c-1.9,1.5-3.8,3.1-5.8,4.5c-2.1,1.5-4.1,3.2-6,4.9c-0.9,0.8-1.9,1.6-2.9,2.4
	c-0.5,0.4-1,0.8-1.5,1.2c-0.1,0.1-1.6,1.1-1,0.7c-0.2,0.2-0.5,0.3-0.7,0.5c0.5-0.4-0.6,0.4-0.7,0.5c-0.4,0.3-0.9,0.6-1.3,0.8
	c-0.8,0.5-1.7,1-2.5,1.4c-1.6,1-3.3,2.1-4.8,3.3c-3.1,2.6-6.4,5-9.5,7.5c1.7-1.2,3.8-2.1,5.7-3.1c-2.8,1.9-5.8,3.4-8.5,5.3
	c-2.7,1.8-5.1,4.1-7.8,5.9c-2.6,1.7-5.4,3-8,4.8c-2.7,1.8-5.2,3.9-7.7,5.9c-4.9,4-10.3,7.2-15.1,11.4c-5,4.5-10.4,8.7-15.9,12.6
	c-6.2,4.5-12.5,8.8-18.3,13.8c0.7-0.6-0.6,0.5,0.1-0.1c-4.2,3.6-8.2,7.7-12.4,11.3c-2.1,1.9-5,3.8-7.2,5.9c-2.3,2.2-4.6,4.5-7.1,6.4
	c-2.5,1.9-5.3,3.4-7.7,5.4c-1.2,1-2.4,2-3.5,3.2c-0.1,0.1-0.5,0.7-0.7,0.7c-0.1,0-0.6-0.5-0.7-0.6c-0.6-0.5-1.2-1-1.9-1.5
	c5.7-3.7,10.2-8.9,15.8-12.8c2.7-1.9,5-4.3,7.3-6.6c2.4-2.4,5-4.8,7.7-6.9c5.4-4.3,11.2-8.2,16.5-12.6c2.6-2.2,5.2-4.4,7.9-6.3
	c2.8-2,5.6-3.9,8.1-6.2c2.4-2.2,4.7-4.4,7.3-6.4c2.7-2.1,5.3-4.4,7.8-6.7c5.2-4.6,11.1-8.1,16.3-12.7c5.1-4.5,10.2-9,15.9-12.7
	c2.8-1.8,5.6-3.8,8.5-5.6c2.8-1.7,5.5-2.9,7.9-5.3c0.7-0.6,1.1-1.5,1.8-2.1c0.6-0.6,1.5-1.1,2.2-1.6c1.5-1.1,2.9-2.4,4.4-3.5
	c2.9-2.3,5.9-4.5,8.7-6.9c2.7-2.3,5.3-4.6,7.9-6.9c1.3-1.2,2.7-2.3,4-3.5c0.7-0.7,2.4-2.7,3.5-2.7c-0.1,0-0.2,0-0.3,0.1
	c3.5-1.9,6.8-4.2,10.2-6.4c3.6-2.4,7.2-4.8,10.7-7.3c3.8-2.8,7.4-6,11.3-8.8c3.7-2.6,7.2-5.4,10.6-8.4c2-1.7,4.1-3.2,6.1-4.8
	c0.9-0.7,1.8-1.5,2.7-2.2c0.4-0.3,1.9-1.9,2.3-1.9c-0.5,0-1.5,0.8-1.9,1c-0.7,0.4-1.4,0.8-2.1,1.2c-1.4,0.9-2.9,1.8-4.4,2.6
	c-3.1,1.8-5.7,4.2-8.6,6.4c-5.6,4.2-11,8.4-16.5,12.7c0.5-0.4-0.8,0.6-1,0.7c-0.4,0.3-0.8,0.6-1.2,0.8c-0.9,0.6-1.7,1.3-2.6,1.9
	c-1.8,1.3-3.8,2.5-5.6,3.8c-3.4,2.5-6.7,5.4-9.9,7.9c-2.2,1.7-4.6,3.1-6.9,4.7c-2.9,2-5.6,4.3-8.3,6.5c-2.8,2.2-5.5,4.5-8.3,6.7
	c-1.4,1.1-2.8,2.1-4.1,3.2c-0.7,0.6-1.4,1.1-2.1,1.6c-0.4,0.3-0.7,0.6-1.1,0.8c-0.1,0.1-1.1,0.8-0.5,0.4c-2.4,1.6-4.6,3.4-6.8,5.3
	c-0.9,0.7-1.8,1.5-2.8,2.1c-1.2,0.7-2.4,1.3-3.6,2.1c-4.9,3-9.5,6.3-13.9,9.8c-4.4,3.5-8.3,7.6-12.9,10.8c-2.2,1.5-4.4,2.9-6.5,4.6
	c-2.3,1.8-4.5,3.8-6.6,5.7c-2.2,2-4.5,3.8-6.7,5.6c-2.1,1.7-4,3.6-6,5.4c-4.1,3.7-8.9,6.6-13.2,10.1c-4.4,3.7-8.8,7.2-13.4,10.5
	c-4.6,3.3-8.8,6.8-12.9,10.7c-2.2,2.1-4.3,4.4-6.8,6.3c-2.4,1.9-4.9,3.5-7.2,5.6c-2.3,2.1-4.3,4.4-6.5,6.5c-0.6,0.6-1.2,1.1-1.8,1.7
	c-0.2,0.2-0.4,0.4-0.6,0.5c-0.5,0.5-0.4,0.5-1,0.2c-1.2-0.6-2.3-1.6-3.3-2.3c0.3,0.2,0.7,0.7,1,1c-0.6-0.5-5.4-4.7-5.2-1.7
	c0.1,1.1,1.2,2,1.9,2.8c1,1.1,2,2.2,3.1,3.3c-0.2,0.1-0.3,0.3-0.5,0.4c-0.1,0.1-0.5,0.3-0.6,0.4c0.1-0.1,0.7-0.3,0.9-0.3
	c0.1-0.1,0.3-0.2,0.4-0.2c0.2,0.2,0.4,0.4,0.6,0.6c0.8,0.8,1.5,1.6,2.3,2.3c-0.4,0.4-0.8,0.8-1.2,1.2c0.5-0.4,1.1-1,1.6-0.8
	c0.7,0.2,1.6,1.5,2.2,2c0.8,0.7,1.7,1.3,2.6,1.9c0.7,0.5,1.4,1.2,2.3,1.2c1.9,0,1.5-2,0.9-3.1c-1.1-1.8-2.7-3.4-4.2-4.9
	c3.7-2.9,7.9-5.1,11.7-7.8c3.7-2.7,6.7-6,10.1-9c1.8-1.6,4-3,5.8-4.6c2.1-1.8,3.9-3.8,5.9-5.7c4-3.7,8.2-7.4,12.6-10.6
	c4.2-3.1,8.6-6,12.7-9.2c4.2-3.2,8.7-6.4,12.6-10c3.6-3.3,7.3-6.1,11.4-8.8c4.1-2.7,7.7-6.2,11.7-9.1c4-2.8,8.4-4.9,12.2-7.9
	c3.9-3.1,8-6,11.8-9.2c1.1-0.9,2-2.2,3.2-3.1c1-0.8,2.1-1.5,3.2-2.2c2.4-1.5,4.9-2.8,7.2-4.3C160,536,164.2,532,168.5,528.4z
	 M145.8,536.8c0.6-0.4,1.3-0.9,1.9-1.3c-1.2,1-2.6,1.9-4,2.6C144.4,537.7,145.1,537.3,145.8,536.8z M21.1,640.4
	c0.4,0.2,0.4,0.4,0.1,0.6c-0.7-0.9-1.4-1.9-2.2-2.8c0,0,0,0,0,0C19.7,638.9,20.4,639.7,21.1,640.4z M20,641.2
	c-0.7-0.7-1.4-1.5-2.1-2.3c0.5-0.3,2.5,1.9,3,2.3C20.4,641.7,20.5,641.6,20,641.2z M17.5,638.2c0.1,0,0.1,0.1,0.2,0.1
	c-0.3,0.2-0.8-0.6-1-0.8C16.9,637.7,17.2,638,17.5,638.2z M22.1,641.6c1,1.2,2,2.5,2.9,3.9c-1.4-1-2.7-2.1-4-3.4
	c0.6-0.4,0.8-0.2,1.3,0.3c-0.2-0.3-0.4-0.5-0.6-0.8C21.8,641.3,22,641.3,22.1,641.6z"/>
<path id="XMLID_36_" style="fill:#1B1B1B;" d="M48.7,618.1c0,0-0.1,0.1-0.1,0.1C48.6,618.2,48.7,618.1,48.7,618.1z"/>
<path id="XMLID_35_" style="fill:#1B1B1B;" d="M325.5,450.4"/>
<path id="XMLID_34_" style="fill:#1B1B1B;" d="M325.5,451.6"/>
<path id="XMLID_33_" style="fill:#1B1B1B;" d="M325.5,451.9C325.5,451.9,325.5,451.9,325.5,451.9
	C325.5,451.9,325.5,451.9,325.5,451.9z"/>
<path id="XMLID_32_" style="fill:#1B1B1B;" d="M325.5,451.9"/>
<path id="XMLID_31_" style="fill:#1B1B1B;" d="M325.5,451"/>
<path id="XMLID_30_" style="fill:#1B1B1B;" d="M325.5,451.7"/>
<path id="XMLID_29_" style="fill:#1B1B1B;" d="M325.5,451.7"/>
<path id="XMLID_28_" style="fill:#1B1B1B;" d="M325.5,451.8"/>
<path id="XMLID_27_" style="fill:#1B1B1B;" d="M300.9,600.5c-0.8-1.2-1.3-1.9-2.7-2.4c-1.5-0.5-3-0.8-4.4-1.4
	c-2.7-1.1-5.6-2.4-8.1-3.9c-2.7-1.6-5-3.7-7.6-5.3c-2.4-1.5-4.6-3.1-6.9-4.8c-1.2-0.9-2.4-1.9-3.5-3c-0.5-0.4-0.8-0.7-1.2-1.2
	c-0.1-0.1-0.7-0.6-0.7-0.8c0-0.4,0.4-0.7,0.7-1.1c2.1-2.5,4.2-5,6.1-7.7c3.9-5.3,6.9-11.2,10-17c6.1-11.4,15.1-21,23.6-30.5
	c0.8-0.9,1.5-2.1,2.6-2.8c1.3-0.8,2.6-1.7,4-2.5c2.6-1.6,5.1-3.5,7.4-5.4c2.3-2,4.1-4,5-7c0.9-3.1,1.5-6.4,1.9-9.6
	c0.5-3.4,1-7,1-10.4c0-3.7-0.3-7.4-0.6-11c-0.4-6.8-1.7-13.9-1.7-20.6c0-0.2,0-0.3,0-0.6c0,0.6,0-0.8,0-0.4c0-0.1,0-0.6,0-0.7
	c0-2.9-0.3-6.2-0.3-9.3c0-3.4-0.3-6.8-0.4-10.2c0,0.1,0-1.7,0.1-1.7c-0.5,0-0.7,4.1-0.8,4.5c-0.1,0.8-0.1,1.7-0.2,2.5
	c0,0.2,0,0.7,0,0.8c-0.3,0.5-0.6-0.1-0.5,0.8c0.2-0.1,0.3-0.3,0.5-0.4c-0.1,0.8-0.1,1.6-0.2,2.4c0,0.3,0,0.6-0.1,0.9
	c-0.1,0.3-0.3,0.5-0.3,0.8c0.6-0.7,0.3,0,0.2,0.4c0,0.4,0,0.8,0,1.2c0,0.7,0,1.4,0,2c0,1.7,0.1,3.5,0.1,5.2c0.1,3.4,0.3,6.7,0.5,10
	c0.5,6.3,1.2,12.5,1.5,18.7c0.3,6.2-0.4,12.3-1.6,18.4c-0.6,2.7-0.9,6.1-2.6,8.4c-1.7,2.3-4.2,4-6.4,5.8c-2.7,2.1-5.4,4.1-8.1,6.2
	c-2.4,1.9-4.8,3.8-6.5,6.4c2-2,4.2-3.5,6.6-4.9c-3.2,3.2-6.9,5.8-10,9.1c-3.5,3.7-6.7,7.8-9.7,11.9c-2.8,3.9-5.4,7.8-7.6,12.1
	c-1.1,2.2-2.3,4.4-3.5,6.5c-0.6,1.1-1.3,2.2-2,3.3c-0.3,0.6-0.7,1.1-1,1.7c-0.1,0.2-1,1.6-0.6,1.1c-0.9,1.4-1.8,2.9-2.7,4.3
	c-0.8,1.3-2,3.2-2.5,4.1c-0.7,1.2-1.5,2.5-2.2,3.7c0,0-0.4-0.5-0.4-0.5c0.7,0-0.1,1.5-0.2,1.6c0.2-0.2,0.4-0.5,0.6-0.7
	c3.2,5.7,8.9,9.3,14,13c2.7,2,5.2,3.8,8.4,5.1c1.7,0.7,3.4,1.4,5.2,2c1.8,0.5,3.5,0.7,5.3,1c-2.5,4.9-8.8,6.7-11.5,11.5
	c-1.5,2.6-1.5,5.8-1.7,8.7c-0.1,1.2,0.3,2.8-0.7,3.6c-1.1,0.9-2.6,1-3.6,2c-2,2-0.9,5.4-2,7.9c-1.1,2.5-4.2,2.6-5.8,4.7
	c-0.8,1-1.6,1.9-2.3,2.9c-0.8,1.2-1.1,2.7-1.8,3.9c-0.7,1.2-2,1.6-3.1,2.1c-1.2,0.5-2.2,1.1-3,2.2c-1.7,2.5-2.2,5.8-2.6,8.7
	c-0.2,1.6-0.4,3.2-0.7,4.8c-0.2,1.5-0.2,3.2-0.6,4.7c0.8-2.9,1.8-5.8,2.6-8.7c0.7-2.6,1.3-5.4,2.8-7.8c1.4-2.2,4.3-2.1,6-4
	c0.9-1,1.1-2.2,1.7-3.4c0.6-1.3,1.5-2.3,2.4-3.5c0.8-1,1.3-1.6,2.5-2.2c1.4-0.6,2.7-1.5,3.5-2.8c0.7-1,1-2.3,1.2-3.5
	c0.2-1.3,0.1-2.9,0.6-4.1c0.5-1.2,2.1-1.4,3.1-2c1-0.6,1.7-1.4,1.9-2.6c0.2-1.2,0.1-2.4,0.1-3.6c0.1-1.6,0.2-3.3,0.5-4.8
	c1.4-6.4,8.9-8.8,10.6-14.9C299.4,599.1,300.3,599.7,300.9,600.5z"/>
<path id="XMLID_26_" style="fill:#1B1B1B;" d="M245.1,603.9"/>
<path id="XMLID_25_" style="fill:#1B1B1B;" d="M256,590.8c0.9-1.1,2-2,3-3c1-1.1,1.7-2.4,2.2-3.8c0.6-1.5,1.2-2.9,1.8-4.4
	c0.2-0.4,1.2-2.8,1.6-2.8c-0.5,0-1.7,1.7-2,2.1c-0.7,1-1.3,2.1-2,3.1c-0.6,1-1.2,2.2-1.9,3.2c-0.6,0.9-1.5,1.6-2.3,2.3
	c-1.7,1.7-2.9,3.6-4,5.7c-1.2,2.2-1.9,4-2.1,6.5c0-1.1,1-2.7,1.6-3.6c0.6-1,1.4-1.9,2-2.8c0.4-0.5,0.5-0.8,0.9-1.3
	c-0.3,0.4,0.2-0.2,0.3-0.4C255.5,591.4,255.8,591.1,256,590.8z"/>
<path id="XMLID_24_" style="fill:#1B1B1B;" d="M254.1,593.5"/>
<path id="XMLID_23_" style="fill:#1B1B1B;" d="M254,593.5"/>
<path id="XMLID_22_" style="fill:#1B1B1B;" d="M379.8,456.4c0.1-2.6,0.4-5.1,0.6-7.7c1.8,6.3,6,10.9,10.4,15.6
	c2.1,2.3,4.3,4.5,6.7,6.5c1.2,1,2.5,2,3.9,2.9c0.7,0.4,1.3,0.8,2,1.2c0.5,0.3,1.5,0.7,1.9,1c-3.7-3-7.1-6.2-10.2-9.8
	c-3-3.5-6.2-6.9-9-10.6c-1.4-1.8-2.7-3.7-3.7-5.8c-0.5-1.1-0.9-2.1-1.4-3.2c-0.5-1.1-0.1-2.3,0-3.5c0.2-2.4,0.5-4.8,0.9-7.2
	c0.4-2.4,1.1-4.8,1.5-7.3c0.5-2.8,0.9-5.6,1.3-8.4c0.2-1.4,0.4-2.7,0.3-4.1c0-0.4-0.3-3.8-0.5-3.8c0.3,0-0.7,6.2-0.9,6.9
	c-0.7,2.6-1.3,5.1-1.9,7.7c-1.1,5.1-2.1,10-2.6,15.2c0,0-0.3-0.9-0.4-0.9c0.6,0-0.1,5.9-0.1,6.5c-0.2,2.4-0.4,4.9-0.6,7.3
	c-0.4,4.7-0.3,9.4,0,14.1c0.3,4.7,0.7,9.3,1.1,14c0.4,4.6,0.6,9.3,0.9,13.9c0.4,5.2,0.3,10.2-2.3,15c-0.1,0.2-0.5,1-0.7,1.2
	c3.1-3.3,4.9-7.8,5.1-12.3c0.1-2.5-0.1-5.1-0.2-7.6c-0.2-2.4-0.2-4.9-0.4-7.3C380.4,476.1,379.4,466.2,379.8,456.4z"/>
<path id="XMLID_128_" style="fill:#1B1B1B;" d="M371.4,517.9c0.8-1,1.7-1.9,2.5-2.9c0.3-0.3,1.7-2.6,2-2.6c-0.4,0-1.9,1.7-2.2,2
	c-1,0.9-1.9,1.7-2.9,2.5c-1.7,1.5-3.4,3.1-5,4.8c-3.2,3.3-5.8,7.1-8.8,10.7c-3,3.6-6.2,7-9.9,10c-0.9,0.7-1.8,1.5-2.6,2.2
	c-0.8,0.7-1.6,1.6-2.5,2.1c-2.1,1-3.9,2.1-5.4,3.9c-1.6,1.9-2.9,4.2-4.4,6.2c-1.5,2-2.8,4-4,6.2c0.1-0.1,0.1-0.2,0.1-0.1
	c0,0-0.6,1.1-0.3,0.5c-1.7,3.1-3.9,5.9-6.2,8.7c-1.1,1.4-2.2,2.9-3.4,4.2c-1.2,1.4-2.6,2.6-3.9,4c-2.4,2.6-4.9,5-7.5,7.5
	c-2.7,2.6-5.1,5.4-7.6,8.2c0.3-0.4,1.2-0.9,1.7-1.3c0.7-0.5,1.3-1.1,2-1.6c1.3-1.1,2.7-2.3,4-3.3c2.8-2.2,5.6-4.4,8-7.1
	c2.4-2.6,4.9-5,7-7.7c2.2-2.8,4.6-5.5,6.5-8.6c0.9-1.4,1.6-2.8,2.4-4.2c0.9-1.4,1.9-2.8,2.9-4.2c1-1.5,1.8-3,2.7-4.6
	c0.3-0.5,0.5-1.1,0.9-1.5c0.6-0.7,1.7-1.2,2.5-1.8c2.8-2.1,5.7-4.3,8.6-6.3c2.9-2,5.4-4.5,7.7-7.1
	C361.4,530.5,366.1,524,371.4,517.9z M328.2,562.8 M339.3,549.6c-0.6,0.6-1.2,1.3-1.8,1.9c1-1.5,2.2-2.7,3.7-3.8
	C340.6,548.3,339.9,549,339.3,549.6z"/>
<path id="XMLID_18_" style="fill:#1B1B1B;" d="M379.5,394.3c1.6,3.1,3,6.3,4.2,9.6c0.7,1.9,1.3,3.9,1.9,5.8c0.3,0.9,0.6,1.8,0.9,2.7
	c0.2,0.7,0.8,1.9,0.8,2.5c-0.9-6.2-1.9-12.6-4.5-18.4c-1.4-3-3.1-5.8-4.9-8.5c-0.9-1.4-1.8-2.8-2.8-4.1c-0.5-0.7-1-1.4-1.4-2
	c-0.1-0.2-1.1-1.8-1.3-1.8c0.2,0,1.4,3,1.5,3.3c0.6,1.3,1.3,2.7,1.9,4C377,389.6,378.3,391.9,379.5,394.3z"/>
<path id="XMLID_17_" style="fill:#1B1B1B;" d="M407.3,404.7c2.5-1.4,5-2.9,7.6-4.1c1.3-0.6,2.6-1.2,4-1.8c0.8-0.3,1.6-0.7,2.4-1
	c0.5-0.2,1.4-0.8,1.9-0.8c-1.5,0-3.3,0.8-4.7,1.1c-1.5,0.4-3.1,0.9-4.6,1.4c-3,1-5.9,2.4-8.6,3.9c-6.3,3.4-12.4,7.3-18,11.7
	c1.4-0.9,3.1-1.5,4.6-2.3c1.8-0.9,3.5-1.8,5.3-2.7C400.7,408.5,404,406.6,407.3,404.7z"/>
<path id="XMLID_16_" style="fill:#1B1B1B;" d="M370.6,569.1c0.3-0.5,0.6-1.1,0.9-1.6c6.1,3.8,11.8,8.1,17,13c5.2,4.9,11,9,17.5,12
	c-1.3-0.7-2.7-2-3.9-2.9c-1.4-1.1-2.7-2.3-4.1-3.4c-2.9-2.3-5.5-4.7-8.2-7.2c-5.4-5-11-9.4-17.8-12.3c3.7-6,4-13.1,4.6-19.9
	c0.3-3.1,0.6-6.3,1.7-9.3c1.2-3.1,2.9-6.2,4.7-9c1.9-2.9,4-5.7,6-8.6c1.9-2.9,3.5-5.9,5.3-8.9c1.8-3,3.6-6,5.2-9.2
	c1.6-3.2,3-6.5,4.5-9.8c1.5-3.3,3.9-7.1,3.8-10.9c-0.1-1.8-0.7-3.7-1.5-5.3c-0.4-0.8-0.8-1.6-1.4-2.3c-0.2-0.3-1.1-1.5-1.4-1.5
	c0.2,0,0.8,1.2,0.9,1.4c0.4,0.7,0.7,1.4,1,2.2c0.6,1.7,1,3.5,1,5.3c-0.1,3.4-2.5,6.7-3.9,9.8c-2.9,6.4-5.9,12.7-9.5,18.7
	c-1.7,2.9-3.3,5.8-5.1,8.7c-1.8,2.8-3.8,5.4-5.6,8.1c-3.7,5.4-6.5,11.1-7.3,17.6c-0.9,7.5-0.4,15.5-3.3,22.6c-0.8-0.3-1.6-0.7-2.3-1
	c-0.5-0.2-1.4-0.8-2-0.8c0.2,0,1,0.7,1.3,0.9c0.6,0.4,1.1,0.8,1.7,1.2c0.2,0.2,0.5,0.3,0.7,0.5c0.4,0.1,0.4,0.3,0.1,0.6
	C371.1,568,370.8,568.9,370.6,569.1z"/>
<path id="XMLID_15_" style="fill:#1B1B1B;" d="M359.9,579.3c0.6-2.2,1.3-4.3,2.2-6.4c0.4-0.9,1-1.8,1.5-2.7c0.2-0.3,1.4-3,1.6-3
	c-0.3,0-1.1,1.4-1.3,1.6c-0.5,0.6-1,1.3-1.5,1.9c-0.8,1.1-1.6,2.2-2.2,3.4c-1.4,2.6-2.2,5.3-3,8.1c-1.8,5.9-4.4,11.4-8.5,15.9
	c-6.8,7.3-13.9,14.6-19.2,23c-2.5,4-4.5,7.9-6,12.4c-1.6,4.6-3.8,8.8-4.7,13.6c-0.5,2.6-0.9,5.4-0.7,8.1c0.1,2.7,0.9,5.3,1.5,7.9
	c-0.5-5-0.3-9.6,0.8-14.5c1-4.6,2.8-8.7,4.4-13.1c0.7-2,1.3-4.1,2.2-6c0.9-2,2-3.8,3.1-5.7c2.5-4,5.4-7.7,8.4-11.3
	c3.4-4,7.2-8.3,10.6-11.8c0.1-0.1,0.1-0.1,0.2-0.2c2.1-2.3,4.7-5.2,6.4-8.4c1.9-3.6,3.1-7.4,4.1-11.3c-0.1,0.6,0-0.2,0.1-0.4
	C359.8,580,359.9,579.6,359.9,579.3z"/>
<path id="XMLID_14_" style="fill:#1B1B1B;" d="M349,600.5"/>
<path id="XMLID_13_" style="fill:#1B1B1B;" d="M554.7,704.1"/>
<path id="XMLID_12_" style="fill:#1B1B1B;" d="M251.2,682.4"/>
<path id="XMLID_115_" style="fill:#1B1B1B;" d="M556.3,702.3c-2-2.7-6.1-3.2-9.2-3.7c-3.7-0.6-7.4-0.8-11.1-0.5
	c-3.8,0.3-7.6,0.9-11.4,1.2c-3.8,0.2-7.6,0.6-11.4,0.8c-3.9,0.2-7.7,0.4-11.6,0.2c-3.6-0.2-7.1-0.9-10.6-1.6
	c-7.6-1.6-15.2-3.5-22.8-5.2c-7.3-1.6-14.5-3.9-21.9-5.4c-1.6-0.3-3.2-0.4-4.7-1c-1.7-0.7-3.4-1.4-5.2-2.1c-3.6-1.4-7.1-2.8-10.8-4
	c-3.6-1.1-7.3-2-10.9-2.7c-1.8-0.4-3.5-0.7-5.3-1c-1.9-0.3-3.9-0.3-5.9-0.7c-1.6-0.3-3.3-1.4-4.8-2.1c-1.8-0.8-3.7-1.5-5.6-2.1
	c-3.5-1.2-7.3-2.3-11-2.7c-4.2-0.5-8.5-0.7-12.7-1.3c-4.3-0.5-8.6-0.9-13-1c-8.4-0.2-16.7,0.1-25.1,0.2c7.2-0.4,14.4-0.1,21.7-0.4
	c-0.8,0,0.9,0,1.1,0c-0.7,0,0.2,0,0.5,0c0.3,0,0.7,0,1,0c0.8,0,1.5-0.1,2.3-0.1c0.7-0.1,1.5-0.1,2.2-0.1c0.3,0,0.7,0,1,0
	c0,0,1.5-0.1,0.7,0c4.1-0.1,8.1-1.2,12.3-1.4c2-0.1,3.8,0.4,5.6,1.2c1.6,0.7,3.4,1.8,5.2,1.6c4.2-0.5,2.6-6.6,1.4-9
	c-1.8-3.4-4.3-6.3-6.4-9.5c-2.1-3.2-3.5-6.9-3.4-10.7c0.1-1.8,0.8-3.6,1.3-5.4c0.6-1.8,1.2-3.5,2.3-5.1c1-1.4,2.1-2.7,3.4-3.8
	c1.5-1.1,3.1-2.1,4.5-3.4c1.1-1.1,1.9-2.4,2.1-3.9c0.3-1.8-0.4-4.1,0.7-5.7c1.1-1.6,3.1-2.7,4.4-4.1c1.6-1.6,3.2-3.3,4.7-5
	c1.2-1.5,2.3-3,3.1-4.8c0.2-0.5,1.8-5.4,1.4-5.4c0,0-1.2,3.1-1.3,3.3c-0.5,1.1-1.2,2.1-1.9,3c-1.6,2.1-3.6,3.8-5.4,5.6
	c-2,1.9-4.2,3.6-6.1,5.5c-2.1,2.1-1.3,4.5-1.7,7.2c-0.4,2.6-3,4-4.9,5.4c-2.1,1.6-3.9,3.4-5.3,5.6c-1.4,2.2-2,4.6-2.7,7.1
	c-0.8,2.6-0.9,5.1-0.4,7.8c1,5.4,4.6,9.3,7.6,13.6c1.4,2.1,2.7,4.3,3.1,6.8c0.1,0.8,0.3,2.2-0.6,2.5c-1,0.3-2.6-0.7-3.4-1.1
	c-2.5-1.1-4.7-1.8-7.5-1.6c-2.7,0.2-5.4,0.8-8.1,1.2c-2.7,0.4-5.4,0.3-8.1,0.5c-2.8,0.2-5.5,0.2-8.3,0.2c-6.7,0.1-13.4-0.1-20.1,0.6
	c-1.6,0.2-3.2,0.4-4.8,0.6c-1.1,0.1-2.8,0.8-3.7-0.1c-0.9-0.9-1.2-2.8-1.5-4c-0.4-1.7-0.8-3.3-1.2-5c0.8,3.1-0.6,7.3,1.6,10.1
	c-4.3-0.1-8.5-0.1-12.8,0c-4.3,0.1-8.5,0.5-12.7,0.9c-8.4,0.6-16.7,1.8-25,2.8c-4.6,0.5-9.1,1.9-13.7,2.8c4.6,0,9.1-0.7,13.6-1
	c4.7-0.3,9.3-1,14-1.6c9.5-1.3,19.1-2.2,28.7-2.1c9.6,0.1,19.2,0.6,28.8,0.2c8.9-0.4,18.1-0.3,27,0.8c2.5,0.3,5.1,0.6,7.6,0.9
	c2.6,0.3,5.2,0.3,7.8,0.7c5.1,0.8,10.1,2.5,15,4.2c-1.5-0.2-3.1-1-4.6-1c0.4,0,1.2,0.6,1.7,0.7c0.6,0.3,1.3,0.5,1.9,0.8
	c1.4,0.5,2.8,0.9,4.2,1.2c1.4,0.3,2.9,0.4,4.2,0.8c1.3,0.4,2.6,1.1,3.9,1.4c-0.6-0.2-1.4-0.7-2-1.1c5,1,10,1.8,14.9,3.2
	c4.5,1.2,8.8,2.9,13.2,4.5c-6.1-0.6-12.2-1.1-18.2-1.9c-5.6-0.8-11.3-1.5-16.9-2.2c-5.6-0.7-11.3-0.8-16.9-1.5
	c-5.8-0.7-11.6-1.1-17.4-1.7c-11.2-1.1-22.5-2-33.7-3.3c-5.7-0.7-11.3-1.5-17-1.7c-5.9-0.2-11.8,0.3-17.6,0.7
	c-6.6,0.4-13.2,0.5-19.9,0.9c-3.2,0.2-6.4,0.4-9.6,0.8c-1.5,0.2-3,0.4-4.5,0.7c-1.4,0.2-3,0.8-4.3,0.8c13.5,0.1,27-0.5,40.5-1.4
	c6.4-0.4,12.6-0.9,19-0.4c6.3,0.4,12.5,1.5,18.8,2.1c12.9,1.1,25.8,2.5,38.7,3.7c12.9,1.2,25.8,2.5,38.7,4.2c7.5,1,15,1.7,22.5,2.4
	c1.8,0.2,3.8,0.2,5.5,0.7c1.8,0.6,3.6,1.4,5.4,2c3.6,1.2,7.2,2.3,10.9,3c-2.7-0.9-5.5-2.3-8.2-3.5c8.3,2,16.5,4.3,24.8,6.2
	c8.5,1.9,17.1,4.3,25.8,4.9c8.5,0.6,17.3-0.4,25.8-1.1c4.2-0.4,8.4-1.2,12.6-1c4.1,0.2,8.8,0.3,12.6,2c0.8,0.3,1.9,1,2.2,1.8
	c0.3,0.9-0.5,1.8-1.1,2.3c-1.6,1.5-3.6,2.5-5.6,3.2c-4.3,1.5-8.9,1.6-13.4,1.6c0.1,0,0.2,0,0.3,0c-5.1-0.1-10.1-0.1-15.2-0.4
	c-5.2-0.3-10.3-0.7-15.5-1.1c-10.3-0.7-20.5-2.6-30.6-4.5c-10.2-1.9-20.2-4.6-30.4-6.4c-5-0.9-10-1.7-14.9-2.8c-5-1.1-10-2.3-15-3.2
	c-10.1-1.9-20.1-4.2-30.3-5.6c-10.3-1.4-20.5-3.3-30.9-4.6c-5-0.6-10.2-1-15.3-0.8c-5.2,0.2-10.4,1-15.7,1.2c-5,0.2-10-0.2-15-0.3
	c-5.1-0.1-10.3,0.1-15.4,0.5c-5.2,0.5-10.4,1.2-15.7,1.1c-5.3-0.1-10.5-1.7-15.8-2.1c-2.6-0.2-5.2-0.2-7.9-0.5
	c-1.2-0.1-1.9-0.1-2.9-0.8c-1-0.7-2.1-1.4-3.1-2c-4.3-2.7-9.2-4.3-13.9-6.1c-2.1-0.8-4.3-1.6-6.5-2.2c5.6,0.9,11.4,2,16.8,4.2
	c2.3,0.9,4.6,3.7,7,1.6c1.7-1.5,2.1-4,4-5.3c-1.6,0.6-2.4,2.2-3.5,3.4c-0.5,0.5-1.3,1.4-2.1,1.4c-0.7,0.1-1.3-0.6-1.9-1
	c-3.3-2.3-7.5-3.6-11.4-4.5c-4.2-1-8.4-1.6-12.6-2.3c-1.9-0.4-3.8-0.6-5.8-0.9c-1-0.1-2.1-0.3-3.1-0.5c-0.3-0.1-1-0.1-1.2-0.3
	c-0.4-0.4-0.2-0.5,0-1.1c0.1-0.3,0.6-1.6,1-2.3c0.5-1,1-0.8,2-0.8c2.2-0.1,4.4-0.2,6.6-0.3c4.3-0.2,8.7-0.8,13-0.5
	c4.1,0.3,7.7,2.2,11.2,4.2c1.8,1,3.5,2.1,5.4,3c1.8,0.9,3.2,1.2,5.1,1.2c-2-0.2-3.5-1.3-5.1-2.4c0,0-1-0.7-1.3-1
	c-0.6-0.4-1.2-0.9-1.8-1.3c0.6,0.4-0.7-0.5-0.7-0.5c-0.3-0.2-0.5-0.4-0.8-0.6c-0.7-0.5-1.4-0.9-2.1-1.3c-1.4-0.8-2.8-1.7-4.3-2.3
	c-2.9-1.2-6.2-1.2-9.3-1.1c-3.4,0.1-6.8,0.3-10.3,0.5c-1.5,0.1-2.9,0.2-4.4,0.2c-0.8,0-1.6,0.1-2.4,0.1c-0.9,0-0.9,0.2-1.3-0.5
	c-0.6-1.2-0.4-3-0.3-4.3c0.2-1.7,0.5-3.4,0.9-5c0.7-3.1,2-6.1,3.3-8.9c2.7-5.8,6.8-10.6,11.8-14.5c2.7-2.1,4.9-4.5,6.5-7.6
	c0.7-1.5,1.4-3,2.4-4.3c1.1-1.4,2.5-2.3,3.9-3.3c0.1,0.3,0.2,0.6,0.2,0.8c-0.3-1.4,1.6-1.9,2.5-2.6c0.4-0.4,0.8-0.8,1-1.3
	c0.1-0.1,0.7-1.8,0.7-1.8c-0.2,0-1.1,1.8-1.4,2.1c-0.8,0.7-1.8,1.1-2.7,1.5c0.3-2.6,2.9-4.9,4.8-6.4c0,0,0.1-0.1,0.1-0.1
	c0.6-0.5,2-1.5,3-2.1c0.5-0.3,1.1-0.6,1.6-1c0.2-0.2,1-1.1,1.1-1.1c-0.2,0-0.7,0.5-1,0.6c-2.5,1.1-5,1.8-7.1,3.7
	c-0.9,0.8-1.8,1.8-2.4,2.9c-0.3,0.4-0.5,0.9-0.6,1.4c-0.1,0.3-0.2,0.6-0.2,0.9c0,0.2,0.1,1.3,0,1.4c-0.1,0.2-1.2,0.6-1.5,0.7
	c-0.5,0.3-1.1,0.6-1.6,0.9c-1.1,0.7-2,1.7-2.7,2.7c-1.6,2.2-2.5,4.8-4.2,6.8c-1.9,2.2-4.2,3.7-6.3,5.5c-2,1.7-3.7,3.8-5.3,5.9
	c-3.3,4.2-5.5,9.4-7.3,14.4c-1,2.7-1.7,5.8-1.8,8.7c-0.1,2.1,0,5.6,2.7,5.8c-0.8,1-1.8,2.3-2.1,3.5c-0.4,1.3,0.8,1.7,1.8,2.1
	c-7.8-0.6-15.8,0.1-23.6,0.6c-4.1,0.2-8.3,0.3-12.4-0.4c-2-0.3-4-0.7-6-1.1c-0.9-0.2-1.8-0.4-2.7-0.8c-0.4-0.2-1.7-1.4-2-1.4
	c0.1,0,1,1.2,1.1,1.4c0.5,0.5,1.2,0.9,1.8,1.2c-0.8-0.3-1.7-0.6-2.5-1c5.2,3.4,11,6.3,17,8.1c6.4,1.9,12.9,2.8,19.5,3.5
	c6.7,0.8,13.3,1.9,19.6,4.1c6.2,2.2,12.4,4.8,18.3,7.8c6.5,3.4,13.1,6.8,19.5,10.4c3.8,2.1,8.1,4.1,12,6.4c2.1,1.2,4.2,2.4,6.4,3.6
	c2.1,1.1,4.3,2,6.3,3.3c3.9,2.4,7.8,4.8,11.7,7.2c1.8,1.1,3.9,2.2,5.9,2.7c2.1,0.6,4.3,0.1,6.3-0.4c4.6-1.3,6.1-7.2,2.1-10.2
	c-1.7-1.3-4.3-2.1-6.4-2.2c-2.4-0.1-4.7,0.6-7,0.5c-4.3-0.1-8.9,0.3-12.9-1.6c-3.9-1.8-8.1-3.6-11.5-6.2c-4-3.1-7.9-6.2-11.4-10
	c-1.8-1.9-3.5-3.8-5.2-5.8c-1.5-1.9-3-3.7-4.9-5.1c4.9,1.4,10.1,1.9,15.1,2.8c5.1,0.9,10.1,1.4,15.2,0.9c5-0.5,10.1-1.1,15.1-1.4
	c5.2-0.2,10.4-0.2,15.6,0c5.3,0.2,10.5,0.2,15.8-0.3c5.1-0.5,10.1-1,15.2-0.7c10.4,0.5,20.8,2.2,31.1,4c5,0.9,10.1,1.4,15.1,2.3
	c5.3,0.9,10.4,2.1,15.7,3.2c5.1,1,10.1,1.9,15.2,2.9c5.1,1.1,10.1,2.3,15.1,3.3c4.9,0.9,9.9,1.7,14.8,2.8c5.1,1.1,10.1,2.3,15.2,3.4
	c10.2,2.2,20.5,4,30.8,5.3c5.2,0.7,10.4,1,15.7,1.4c5,0.4,10,0.9,15,1c4.9,0.1,9.9,0.3,14.8-0.1c4.7-0.3,9.9-1.6,13.5-4.8
	C556.4,706.6,557.8,704.3,556.3,702.3z M290.5,713.1c2.1,0.2,4.2,0,6.3,0c2.1,0,4.1-0.6,6.2-0.6c2,0,4.6,0.8,6,2.2
	c1.6,1.6,1.5,3.9-0.2,5.4c-1.2,1.1-4,1.5-5.6,1.4c-2-0.2-4.1-1.3-5.8-2.3c-3.7-2.1-7.3-4.5-10.9-6.7
	C287.7,712.7,289.1,712.9,290.5,713.1z M251.1,685.3c2.9,2.9,5.3,6.3,8,9.3c1.3,1.4,2.6,2.8,4,4.1c1.4,1.3,3.1,2.4,4.6,3.7
	c-2.8-1.4-5.6-3-8.3-4.5c-1.3-0.7-2.6-1.5-4-2.2c-0.7-0.4-1.5-0.8-2.2-1.2c-0.3-0.2-0.6-0.3-0.9-0.5c0,0-1.4-0.8-0.7-0.3
	c-9.8-5.6-20.1-10.4-30.8-14.1c-4.9-1.7-10-2.8-15.2-3.5c-5.5-0.7-11-1-16.4-2.3c-6-1.4-11.9-3.1-17.6-5.4c2.7,0.8,5.4,1.5,8.2,1.8
	c3,0.3,6.1,0,9.2-0.1c5.7-0.3,11.4-0.5,17.1-0.6c-0.5,0,0.9,0,1,0c0,0,0.9,0,1.1,0c7.2-0.2,15.4,2.2,22.2,4.9
	C237.8,677.3,245.1,680,251.1,685.3z M554.6,704.8C554.6,705.1,554.6,704.9,554.6,704.8C554.7,704.7,554.6,704.8,554.6,704.8z
	 M554.7,704.1c0,0.2,0-0.1,0-0.1c0,0.1,0,0.2,0,0C554.7,703.9,554.8,704.2,554.7,704.1z"/>
<path id="XMLID_6_" style="fill:#1B1B1B;" d="M554.6,704.8"/>
<path id="XMLID_5_" style="fill:#1B1B1B;" d="M325.4,337.7c-1.7,2.1-3.2,4.4-4.4,6.8c-1.3,2.7-2.1,5.8-3,8.7
	c-1.6,5.4-3.2,11-3.8,16.6c-0.6,5.3-0.9,11.2,0.2,16.5c1.2,5.7,2.4,11.2,3.2,17c0.9,7,2.2,13.6,4.2,20.4c0.2,0.7,0.9,2.7,0.9,3.7
	c-0.1-7.2-2-14.4-2.9-21.5c-0.5-3.8-1-7.6-1.7-11.4c-0.7-3.4-1.7-6.9-2.1-10.3c-0.5-3.5-0.3-7.1-0.1-10.7c0.2-3.6,0.7-7.1,1.5-10.5
	c0.8-3.5,1.7-6.9,2.8-10.3c1.1-3.4,2.1-6.8,4-9.9c4.2-6.8,10.5-12.8,16.7-17.9c0.8,3.9,4.5,6.9,7.5,9.2c3.5,2.8,7.3,5.2,10.9,7.8
	c3.5,2.5,6.9,5,10.6,7.3c3.7,2.3,7.6,4,11.4,6.2c2.1,1.3,4.2,2.6,6.4,3.8c2,1,4.2,2.1,6,3.2c0.7,0.5,1.4,0.9,2.2,1.3
	c1.8,1.1,3.8,2.6,5.7,3.7c2,1.2,4.1,2.3,6.2,3.3c4.1,2,8.3,3.6,12.8,4.2c4.8,0.6,9.5,1.3,14.3,1.9c2.2,0.3,4.5,0.4,6.7,0.7
	c1.2,0.1,2.3,0.4,3.4,0.7c0.9,0.2,2.4,0.5,3.1,1c-4.6-2.8-9.6-3.6-14.8-4.4c-5-0.8-10.3-0.9-15.3-2c-5.2-1.1-10.1-3.7-14.7-6.3
	c-4.4-2.5-8.4-5.6-12.9-7.9c-4.7-2.4-9.2-5.4-13.9-7.9c-4.6-2.4-9-5.4-13.2-8.4c-4.4-3.1-8.8-6.1-13.1-9.3
	c-3.7-2.7-8.4-5.5-9.1-10.4c-0.1-0.8-0.2-1.3,0.1-2c0.3-0.7,0.5-1.4,0.8-2.1c0.5-1.3,1-2.7,1.5-4.1c0.8-2.7,1.8-5.3,2.6-8.1
	c0.7-2.6,1.2-5.3,2.7-7.6c0.7-1.2,1.7-2.2,2.7-3.1c0.5-0.4,1-0.8,1.5-1.2c0.3-0.2,1.3-1.3,1.6-1.3c-0.5,0-1.4,0.8-1.8,1
	c-0.6,0.3-1.2,0.6-1.8,1c-1.2,0.8-2.4,1.8-3.3,2.9c-1.8,2.3-2.6,5.2-3.5,8c-1,3.1-1.8,6.2-2.5,9.4c-0.7,3-1.5,5.8-1.5,8.9
	c0.2-1,0.4-1.9,0.8-2.9c-0.1,0.9,0.1,1.9,0,2.7c0.2,0.4,0.1,0.6-0.3,0.6c-0.1,0.1-0.3,0.2-0.4,0.2c-0.4,0.2-0.8,0.5-1.2,0.7
	c-1.7,1.1-3.3,2.3-4.9,3.5C330.8,331.9,328,334.6,325.4,337.7z"/>
<path id="XMLID_4_" style="fill:#1B1B1B;" d="M441.1,201.3c-0.1,0-0.1,0-0.2,0C441,201.4,441.1,201.3,441.1,201.3z"/>
<path id="XMLID_3_" style="fill:#1B1B1B;" d="M414,210.6"/>
<path id="XMLID_2_" style="fill:#1B1B1B;" d="M536,275.2c-0.1,3,0,5.9-0.2,8.9c-0.1,1.3-0.2,2.5-0.6,3.7c-0.3,0.9-0.6,2.4-1.1,3.2
	c1.6-2.8,2.6-5.3,3-8.5c0.4-3.3,0.7-6.6,0.8-9.9c0.1-3,0.1-6-0.3-9c-0.3-2.8-1.5-6.1-1.6-8.5c-0.1-0.5-0.4-5.4-0.5-5.4
	c-0.2,0-0.4,5.3-0.4,5.9c0.1,2.1,0.5,4.2,0.7,6.2C536.3,266.3,536.1,270.8,536,275.2z"/>
<path id="XMLID_1_" style="fill:#1B1B1B;" d="M532.4,326.9c-4.4,2.2-9,5.2-14.2,4.1c-5.6-1.2-11.1-2.3-16.8-2.7
	c0.5,0,1.2,0.4,1.7,0.5c0.7,0.2,1.5,0.4,2.2,0.6c1.4,0.4,2.8,0.8,4.1,1.2c2.8,0.8,5.6,1.8,8.5,2.3
	C523.6,334.1,528.3,330.3,532.4,326.9z"/>
</svg>
