<?xml version="1.0" encoding="utf-8"?>
<!-- Generator: Adobe Illustrator 19.0.0, SVG Export Plug-In . SVG Version: 6.00 Build 0)  -->
<svg version="1.1" id="Ebene_1" xmlns="http://www.w3.org/2000/svg" xmlns:xlink="http://www.w3.org/1999/xlink" x="0px" y="0px"
	 viewBox="0 0 595.3 841.9" style="enable-background:new 0 0 595.3 841.9;" xml:space="preserve">
<path id="XMLID_116_" style="fill:#1B1B1B;" d="M256.2,59.5C256.2,59.5,256.2,59.5,256.2,59.5C256.2,59.5,256.2,59.5,256.2,59.5
	C256.2,59.5,256.2,59.5,256.2,59.5z"/>
<path id="XMLID_115_" style="fill:#1B1B1B;" d="M170.3,59.2c0-0.1-0.1-0.1-0.1-0.2C170.3,59,170.3,59.1,170.3,59.2z"/>
<path id="XMLID_114_" style="fill:#1B1B1B;" d="M169.3,58.6c-2.9,2.3-7.2,3.7-10.3,6.3c-1.6,1.3-3,2.8-4.2,4.4
	c-0.1,0.1-0.2,0.2-0.2,0.3c-0.8-0.4-1.5-0.7-2.3-1.1c0.1,0-0.9-0.5-0.9-0.5c0.8,0.9,1.7,1.7,2.7,2.5c-0.7,1.2-1.1,2.3-1.6,3.7
	c0.6-1.2,1.4-2.2,2.3-3.1c1.5,1.1,3.1,2.1,4.6,3.1c0.2,0.1,0.3,0.2,0.5,0.3c-0.2,0.4-0.5,0.8-0.7,1c0.3-0.3,0.7-0.5,1-0.8
	c1,0.7,2,1.4,3.1,2.1c-0.3,0.3-0.5,0.5-0.8,0.8c-0.7,0.8-1.5,2.2-2.3,2.7c1.3-1,2.7-1.9,4.1-2.8c1.5,1,3,2,4.5,3.1
	c3,2.1,5.9,4.2,8.9,6.1c3,1.9,6.2,3.9,9.8,4.7c-1.3-0.3-2.9-1.6-4-2.4c-1.4-0.9-2.7-1.9-4-3c-2.9-2.3-5.7-4.7-8.6-7
	c-1.3-1.1-2.7-2-4.1-2.9c0.2-0.1,0.3-0.2,0.5-0.3c2.4-1.2,5.1-2.1,7.3-3.8c2.1-1.6,3.8-3.7,5-6c0.6-1.1,1.1-2.2,1.4-3.4
	c0.3-1,0-2.3,0.2-3.2c6.1,2,12.5,3.3,18.9,4c5.9,0.7,11.9,1.3,17.9,1.6c5.9,0.3,11.9-0.1,17.8-0.3c3.2-0.1,6.5-0.2,9.7-0.7
	c1.4-0.2,2.8-0.4,4.1-0.7c1.4-0.3,2.6-1.1,3.9-1.4c-5.1,1.1-10.7,0.6-15.9,0.3c-2.7-0.2-5.5-0.2-8.2-0.3c-1.4,0-2.8-0.1-4.2-0.1
	c-0.7,0-1.4,0-2.1,0c-0.2,0-2.6,0-1.4,0c-7.7-0.1-15.5-1-23.1-1.9c-3.7-0.5-7.5-0.9-11.2-1.5c-2-0.3-4-0.7-6-1.1
	c-0.9-0.2-1.8-0.4-2.7-0.6c-0.5-0.1-1-0.2-1.5-0.4c-0.1,0-1.3-0.3-1.1-0.3c-1.6-0.5-3.3-0.9-4.9-1.4c-1.2-0.4-2.9-0.6-4-1.2
	c4.5,2.5,9.2,4.4,14,6c-1.4,4.7-5.3,8.9-9.4,11.5c-2.1,1.4-4.3,2.6-6.3,4.1c-0.1,0.1-0.1,0.1-0.2,0.2c-1-0.6-2.1-1.2-3.1-1.8
	c2.4-1.8,4.8-3.6,6.8-5.8c1.3-1.3,2.5-2.9,3-4.7c0.3-0.8,0.4-1.7,0-2.5c-0.2-0.4-1-0.9-1.2-1.2c0.3,0.5,0.6,0.9,0.7,1.5
	c0-0.2,0,0.5,0,0.6c-0.7,2.8-4,5.1-5.9,7c-1.1,1.2-2.3,2.3-3.3,3.6c-0.3,0.3-0.6,0.7-0.9,1.1c-1.7-0.9-3.5-1.8-5.3-2.7
	c0.2-0.2,0.4-0.4,0.6-0.6c0.6-0.5,2.3-1.8,3.4-2.6c1.5-1,3-2.1,4.5-3.1c1.4-1,3-1.9,4.2-3.2c0.6-0.6,1.1-1.2,1.5-1.9
	c0.2-0.4,0.5-1.2,0.8-1.5C170.2,57.8,169.7,58.2,169.3,58.6z"/>
<path id="XMLID_237_" style="fill:#1B1B1B;" d="M153.6,60.5c-3.8,1.9-6.4,5.6-8.5,9.2c0.4-0.6,1.4-1.3,2-1.8
	c0.8-0.7,1.6-1.5,2.4-2.2c0.2-0.1,0.8-0.6,0.7-0.6c0.4-0.3,0.7-0.5,1.1-0.8c0.8-0.6,1.7-1.1,2.5-1.5c1.7-0.9,3.6-1.4,5.4-2.1
	c1.6-0.6,3.3-1.4,4.5-2.7c0.5-0.6,1-1.3,1.2-2c0.2-0.7-0.1-1.5,0-2.1c0.5,0.2,0.9,0.4,1.3,0.7c-1.1-0.7-2.7-1.6-3-3.1
	c-0.3-1.4,1.2-3,1.9-4c1.7-2.6,3.1-5.2,3.7-8.2c4.5,2.7,8.6,5.9,13.5,7.9c5.7,2.4,11.9,4.3,18,5c6.2,0.7,12.5,1.3,18.8,1.5
	c6.3,0.2,12.2-0.4,18.3-2.1c3.2-0.9,6.5-1.7,9.6-3c1.5-0.6,3-1.4,4.5-2.1c0.8-0.4,1.6-0.7,2.3-1.1c0.2-0.1,0.6-0.3,1-0.6
	c0,0.2,0.1,0.5,0.1,0.7c0.5,2.8,1,5.9,0.9,8.8c-0.1,3-0.5,6.3-0.9,9.3c0-0.7,0.6-1.8,0.8-2.5c0.1-0.5,0.3-1,0.4-1.6c0,0,0,0,0,0
	c0,0,0-0.1,0-0.1c0.5-2.4,1.5-5,1.6-7.7c0.1-3.2,0-6.4-0.3-9.6c-0.6-5.9-0.6-12.1-2.9-17.6c-2.1-5.1-5.9-9.4-10.1-13
	c-2.2-1.9-4.4-3.9-6.9-5.4c-2.3-1.4-4.7-2.4-7.1-3.3c-6.3-2.4-12.9-3-19.7-2.6c-5.6,0.3-11.6,0.6-17,2.4c-5.3,1.8-10.2,5.5-14.3,9.1
	c-4.2,3.6-8.8,7.6-11.2,12.7c-1.1,2.3-1.7,4.9-2,7.5c-0.3,2.9,0,5.8-0.6,8.7c-0.6,3.1-2.3,5.7-3.3,8.7c-0.4,1.2-0.4,2.3,0.4,3.4
	c0.3,0.4,0.7,0.7,1.1,0.9c-1.1,0-2.3,0-3.4,0.1c-3,0.3-5.8,1.5-8.1,3.5c-1,0.9-2,1.9-2.9,3c-0.9,1.1-1.7,2.5-2.7,3.5
	c1.9-1.5,3.8-3,5.8-4.4c0.9-0.7,1.8-1.3,2.8-1.9c0.5-0.3,0.9-0.6,1.4-0.9c0.3-0.2,0.7-0.4,1-0.5c0.3-0.1,0.4-0.2,0.5-0.2
	c1-0.4,2-0.8,3-1.1c0.7-0.2,1.9-0.9,2.6-0.9c0.3,0.2,0.6,0.3,1,0.4C163.9,59,157.4,58.6,153.6,60.5z M175.9,20.2
	c2.2-2.5,4.7-4.7,7.3-6.8c2.7-2.2,5.7-4.5,8.8-6.1c6.3-3.3,13.7-3.5,20.7-3.7c3.8-0.1,7.9,0.1,11.6,1c1.9,0.5,3.7,1.1,5.5,1.9
	c1,0.4,2,0.8,2.9,1.3c0.4,0.2,0.7,0.3,1,0.5c0.2,0.1,1.4,0.7,1.2,0.6c3.7,2.2,7.1,5.3,10.1,8.3c2.8,2.9,5.8,7.1,6.7,10.8
	c1.4,5.5,2,11.2,3,16.8c-4.1,1.1-8.2,2.6-12.4,3.3c-4.4,0.7-9.1,1.6-13.6,2c-9.6,0.7-19.3-0.4-28.8-1.4c1.4,0.1-0.9-0.1-1.1-0.2
	c-0.8-0.1-1.5-0.3-2.3-0.5c-1.5-0.4-3-0.7-4.6-1.1c-3-0.7-6-1.4-9-2.3c-3.1-0.9-6-2.2-9-3.4c-1.4-0.6-2.9-1.3-4.3-1.9
	c-0.3-0.1-0.6-0.2-0.9-0.3c0-0.2,0.1-0.3,0.1-0.5c0.3-1.7,0.4-3.5,0.7-5.2c1.3,0.9,2.5,1.9,3.8,2.8c1.6,1.1,3.2,2,4.8,3
	c3.3,1.9,6.8,3.5,10.4,4.8c6.5,2.2,13.2,3.6,20,4.4c-1.2-0.1,0.2,0,0.4,0.1c0.5,0.1,1,0.1,1.5,0.2c1,0.1,2,0.2,3,0.3
	c1.9,0.2,3.9,0.3,5.8,0.3c3.9,0.1,7.8-0.1,11.7-0.6c3.8-0.5,7.5-1.3,11.2-2.5c3.8-1.3,7.8-2.7,11.5-4.4c-3.5,0.9-7.2,1.4-10.8,2.3
	c-3.6,0.8-7.2,1.3-10.9,1.5c-7.9,0.5-15.7,0.2-23.5-0.6c-0.3,0-0.6-0.1-0.7-0.1c-0.4,0-0.8-0.1-1.2-0.1c-1.3-0.2-2.6-0.3-3.8-0.6
	c-2.5-0.5-5-1.2-7.5-1.8c-5-1.2-9.9-2.4-14.7-4.2c0,0-1.1-0.5-1.3-0.5c-0.5-0.2-1.1-0.5-1.6-0.7c-1.2-0.5-2.4-1-3.6-1.5
	c-0.9-0.4-1.8-1-2.8-1.4c-0.5-0.3-1.2-0.4-1.8-0.6c0.2-1.6,0.5-3.1,1-4.7C171.8,25.2,173.8,22.7,175.9,20.2z"/>
<path id="XMLID_234_" style="fill:#1B1B1B;" d="M193.1,76.8c0.7-0.7,1.4-1.9,2.2-2.4c-1,0.6-3.7,2.9-4.9,2.4
	c-1.1-0.5-2.1-3.5-2.6-4.5c-0.8-1.9-1.6-3.9-2.1-6c-0.2-0.9-0.3-1.9-0.2-2.8c0.1-0.5,0.2-1.8,0.5-2.1c-3,4-1.5,9.7,1,13.6
	c0.9,1.4,2,3.7,4,3.2C191.8,78,192.5,77.4,193.1,76.8z M190.3,76.8C190.3,76.8,190.5,77,190.3,76.8L190.3,76.8z"/>
<path id="XMLID_109_" style="fill:#1B1B1B;" d="M254.7,87.5c-1.4-0.1-2.8-0.2-4.1-0.3c-0.4,0-0.9-0.1-1.3-0.1c-0.5-2-1.1-4-1.7-6
	c-0.7-2.4-1.7-4.5-0.8-7c0.7-2.2,2.3-4,3.5-6c0.6-1.1,1.3-2.2,1.8-3.3c0.3-0.7,0.5-1.9,0.8-2.4c-1.4,2.2-3.3,4.1-4.9,6.2
	c-1.4,1.7-3,3.6-3.5,5.8c-0.9,4.8,3.1,8.7,4.9,12.8c-2.2-0.2-4.4-0.4-6.5-0.6c-5.3-0.4-10.7-0.3-16-0.2c-4.5,0.2-9.9,0.6-13.8,0.7
	c-7.5,0.2-15,0.8-22.4,1.8c1.6,0,3.4,0.3,5,0.4c2,0.1,3.9,0.2,5.9,0.2c3.9,0.1,7.8,0.1,11.7,0.1c3.8-0.1,7.6-0.3,11.4-0.5
	c1.9-0.1,3.9-0.2,5.8-0.3c1-0.1,2-0.1,3-0.2c0.4,0,0.8,0,1.2-0.1c0,0,1.8-0.1,0.9-0.1c1.1,0,2.2-0.1,3.3-0.1c-0.6,0,1.3,0,1.5,0
	c0.6,0,1.2,0,1.8,0c1.5,0,2.9,0,4.4,0c2.6,0,5.6-0.1,8-0.1c0.4,0,0.9,0,1.3,0c-0.9,1.4-1.8,2.8-2.7,4.3c-2.4,4-5,7.9-8.3,11.2
	c-1.8,1.9-3.4,3.9-5,5.9c-5.3-1.1-10.7-1.1-16-1.4c-5.7-0.2-11.4-0.1-17.1,0c-3,0-6,0.1-8.9,0.1c-3.1,0-6.1-0.4-9.2-0.4
	c-3,0-6,0.3-9.1,0.1c-2.9-0.1-5.8-0.2-8.7-0.1c-8.3,0.3-16.8-0.4-24.9,1.7c1.2-0.3,2.9,0,4.2,0c1.6,0,3.2,0.1,4.8,0.3
	c3.3,0.3,6.6,0.5,9.8,0.7c3.2,0.2,6.4,0.2,9.7,0.2c3.2,0.1,6.4,0.3,9.6,0.2c6.1-0.3,12.1,0.3,18.2,0.2c3.3,0,6.5,0,9.8-0.1
	c3-0.1,6-0.4,8.9-0.5c3.3-0.1,6.6-0.3,9.9-0.6c1.6-0.1,3.3-0.2,4.9-0.3c1.2,0,2.8-0.2,4,0c-1,1.3-2,2.7-3.1,4
	c-2.8,3.5-6.1,6.6-8.3,10.6c1.3-1.9,3.7-3.4,5.4-4.9c1.8-1.6,3.8-3.2,5.5-5c1.7-1.8,3.2-3.7,4.9-5.4c1.6-1.7,3.4-3.3,5-5.1
	c3.1-3.6,5.4-7.9,7.3-12.2c0.5-1.1,1.1-2.3,1.7-3.3c0,0,0.1,0,0.1,0c0,0-0.1,0-0.1,0c0.5-0.9,1-1.7,1.7-2.5c0.8-1,3.1-3.6,4.4-2.5
	c0.2,0.2,0.3,0.3,0.3,0.3c0.2,0.3,0.5,0.8,0.5,1c0.1,0.3,0.1,0.7,0.1,1c0-1,0.3-2.1-0.7-2.9c-0.9-0.8-2.1-0.5-3,0
	c-2.4,1.3-4.1,3.2-5.6,5.3C255.5,87.6,255.1,87.5,254.7,87.5z"/>
<path id="XMLID_108_" style="fill:#1B1B1B;" d="M190.3,88.8c-0.9,2.7-1.7,5-1.4,7.9c0.2,1.4,0.6,2.1,2,2.2c1.3,0.1,2.6,0,3.9-0.1
	c5.7-0.1,11.4,0.5,17.1,0.5c6.2,0,12.3-0.1,18.5-0.5c5.8-0.4,11.7-0.9,17.5-0.8c-1.3,0-2.8-0.4-4.1-0.5c-1.4-0.1-2.7-0.2-4.1-0.3
	c-2.8-0.2-5.7-0.2-8.5-0.3c-5.9-0.1-11.8-0.4-17.7-0.6c-5.5-0.2-11.2-0.5-16.8-0.1c-1.3,0.1-2.6,0.2-3.8,0.4
	c-0.5,0.1-1.5,0.4-2.1,0.3c-0.5-0.1-0.2,0-0.6-0.6c-0.6-1.1-0.5-2.8-0.5-3.9C190,91.3,190,89.7,190.3,88.8z"/>
<path id="XMLID_107_" style="fill:#1B1B1B;" d="M145.2,126c0.1,1,0.3,1.9,0.5,2.9c0.2,0.8,0.7,2,0.7,2.8c0-3.8,0.5-7.6,0-11.4
	c-0.2-1.7-0.5-3.3-0.8-4.9c-0.3-1.6-0.8-3.6-0.5-5.1c0-0.4,0.1-0.9,0.1-1.3c-1.8,3.6-1.3,7.7-0.7,11.5
	C144.7,122.2,144.9,124.1,145.2,126z"/>
<path id="XMLID_106_" style="fill:#1B1B1B;" d="M154.6,121.7c-0.2,3.6,0.1,7.4,0.7,10.9c0-2.9,0.7-6.1,1-9.2
	c0.3-2.4,0.4-4.7,0.4-7.1c0-1.2-0.1-2.4-0.2-3.6c0-0.6-0.4-1.9-0.2-2.4C155.1,113.9,154.7,118,154.6,121.7z"/>
<path id="XMLID_105_" style="fill:#1B1B1B;" d="M162.3,118c0-0.1,0-0.2,0-0.3C162.3,117.7,162.3,117.9,162.3,118z"/>
<path id="XMLID_104_" style="fill:#1B1B1B;" d="M139.3,76.5c0.5-1.6,1.3-2.2,2.8-2.9c1.4-0.7,2.7-1.4,4-2.2c0.6-0.4,1.4-0.8,1.8-1.3
	c0.1-0.1,0.7-0.9,0.2-0.9c-0.4,0-0.9,0.4-1.2,0.4c0.2,0,0.5,0,0.7,0c-2.3,1-4.7,1.7-6.8,3c-1,0.6-1.8,1.4-2.1,2.5
	c-0.4,1.4-0.1,2.5-1.1,3.7c0.1-0.2,0,0-0.4,0.4c0.4-0.4,1.1-0.5,1.5-1.1C139,77.7,139.1,77.1,139.3,76.5z"/>
<path id="XMLID_103_" style="fill:#1B1B1B;" d="M139.3,79.8c5.5,5.5,12.2,9.9,18.5,14.4c6.3,4.5,12.2,10.1,19.2,13.4
	c-1.5-0.7-2.9-2.5-4.2-3.6c-0.5-0.5-1-0.9-1.5-1.3c0,0-0.1,0-0.1-0.1c-0.4-0.4-0.9-0.8-1.4-1.2c-2.9-2.7-5.7-5.4-8.7-7.9
	c-5.9-4.9-12.5-9-19.2-12.3C141.5,81,140,80.2,139.3,79.8z"/>
<path id="XMLID_102_" style="fill:#1B1B1B;" d="M77.4,104.6c0.5-4.9,2.4-9.1,4-13.7c1.4-4,4.9-7.8,8.7-9.7c4.5-2.3,9-2.1,14-2.2
	c5.3-0.1,10.6,1.3,15.8,1.5c0.3,1.7,1.4,3.6,2.2,4.8c1.5,2.6,3.1,5.2,4.7,7.8c2.8,4.7,5.2,9.9,5.2,15.4c0,0.2,0,0.4,0,0.6
	c-2.1-2.4-4.4-4.5-6.7-6.7c-1.5-1.4-3.1-2.8-4.7-4.1c-0.6-0.5-1.3-1-2-1.4c-0.4-0.2-1.5-0.5-1.8-0.8c2.8,2.2,4.9,5.3,7.3,8
	c2.6,3,5.3,5.8,7.7,9c4.9,6.5,9.6,13.1,15,19.2c-1.1-1.6-1.9-3.6-2.9-5.3c-1-1.8-1.9-3.6-3-5.3c-2.3-3.6-4.5-7.1-7.1-10.5
	c-0.5-0.6-1-1.3-1.6-1.9c2-10.7-4.5-19.6-8.7-29c5.2-0.3,10.9,1.1,15.8-0.8c-0.4,0.1-1,0.1-1.4,0.1c-2.9,0-6.1-0.9-9.1-1.3
	c-1.6-0.2-3.1-0.3-4.7-0.4c-1-0.1-3.2-0.7-3.8,0.5c-0.3,0.6-0.4,1.2-0.3,1.9c-3.8-0.9-7.7-2.4-11.6-3.2c-2.5-0.5-5.1-0.5-7.7-0.5
	c-2.5-0.1-5.1-0.3-7.6,0.3c-4.1,0.9-7.6,3.2-10.3,6.2c-1.2,1.4-2.5,2.8-3.3,4.4c-1,2-1.5,4.2-2.2,6.2c-0.7,2.1-1.4,4.1-1.7,6.3
	c-0.3,2.1-0.2,4.3-0.2,6.4c0,4.2-0.4,8.4-0.4,12.5C75.9,114.2,76.9,109.4,77.4,104.6z"/>
<path id="XMLID_101_" style="fill:#1B1B1B;" d="M149.4,133.8c2.3,0.5,4.6,1.1,7,1.4c2.5,0.2,5,0.4,7.6,0.7
	c5.2,0.7,10.6,1.1,15.8,0.8c5.2-0.3,10.6-0.9,15.7-1.9c5-0.9,10.1-1.5,15.1-2.5c2.8-0.6,5.7-1.3,8.4-2.3c1.3-0.5,2.7-1,3.9-1.7
	c0.9-0.4,2.2-1.5,3.1-1.6c0.5,0,0.6-0.1,0.4-0.1c0.1,0,0.7,0,0.8,0c-0.5-0.1-1.1-0.3-1.6-0.1c-1.2,0.4-2.5,0.9-3.7,1.3
	c-4.2,1.6-9.4,2.1-13.9,2.5c-5,0.4-9.9,0.9-14.8,1.7c-4.9,0.8-10.1,1.6-15,1.8c-5,0.1-10-0.2-14.9-0.4c0,0,0,0,0,0
	c0.1-0.4,0.1-0.8,0.1-1.1c0.1-0.8,0.1-1.6,0.1-2.4c0.1-1.5,0.1-3,0.1-4.5c-0.1-1.4-0.2-2.9-0.5-4.3c-0.1-0.4-0.3-1.1-0.5-1.7
	c2.5,0.5,5.1,0.4,7.7,0.5c2.8,0.1,5.5,0.3,8.3,0.3c5.2-0.1,10.4,0.3,15.6,0.2c2.5-0.1,4.9-0.3,7.4-0.5c2.6-0.1,5.2,0,7.9-0.1
	c5.3-0.3,10.6-0.6,15.9-1c-0.5,2.7-0.9,5.1-0.9,7.7c0.1-1.1,0.4-2.6,0.8-3.4c0,0,0-0.1,0-0.1c0.3-1.1,3-5.1,1-5.8
	c-0.7-0.3-2.1,0.1-2.8,0.1c-1.3,0-2.7,0-4-0.1c-5.5-0.3-11.2-0.6-16.7-0.4c-3.2,0.1-6.4,0.4-9.6,0.5c-3.1,0.1-6.2,0-9.3,0.1
	c-3.1,0.1-6.3,0.5-9.4,0.7c-1.6,0.1-3.2,0.1-4.8,0.3c-1.4,0.2-3.2,0.7-4.4,0.7c-0.8,0.1-1.6,0.2-2.4,0.2c-0.1-0.5-0.2-0.9-0.2-1.2
	c-0.1,0.4-0.1,0.8-0.1,1.3c0,0-0.1,0-0.1,0c0,0,0.1,0,0.1,0c-0.4,4.7-0.1,9.4,0.9,14.1c-5.7-0.2-11.3,0.1-17-0.4
	C147,133.3,148.7,133.6,149.4,133.8z"/>
<path id="XMLID_100_" style="fill:#1B1B1B;" d="M221.9,127.8C221.9,127.8,222,127.7,221.9,127.8L221.9,127.8z"/>
<path id="XMLID_99_" style="fill:#1B1B1B;" d="M225.2,127.1c1,0,2.5,0.7,3.4,1.1c1.2,0.6,2.4,1.4,3.3,2.4c1.9,2.1,3,4.9,4.2,7.4
	c2.3,4.9,4.1,11.1,2.8,16.4c-0.1,0.4-0.2,1.1-0.4,1.4c3.4-5.4,2.7-12.8,0.2-18.3c-1.2-2.7-2.7-5.4-4.8-7.5
	C231.6,127.5,228.5,126.9,225.2,127.1z"/>
<path id="XMLID_98_" style="fill:#1B1B1B;" d="M224.4,160c2.4-0.6,4.8-1.1,7.2-1.5c2.2-0.3,4.9-0.1,6.8-1.2
	c-0.6,0.4-1.8,0.3-2.6,0.2c-1.3-0.1-2.6-0.3-4-0.3c-2.8,0-5.8,0.2-8.6,0.6c-3.1,0.5-5.9,1.7-8.7,2.9c-5.9,2.6-11.6,5.5-17.6,7.8
	c-6.1,2.4-12.2,4.4-18.4,6.4c-3.1,1-6.1,2.3-9.3,3.1c-3.2,0.8-6.3,1.4-9.5,2c-3.4,0.7-6.8,1.1-10.2,1.7c-3.4,0.6-7.3,1.5-10.6,1.5
	c0,0-0.1,0-0.1,0c0,0,0.1,0,0,0c-0.6,0-1.2,0-1.8,0c-1,0-2.5,0.3-3.4,0c4,1.1,8.4,1.2,12.3,1c-0.7,0,1.2,0,1.4,0
	c0.7,0,1.5-0.1,2.2-0.1c1.4-0.1,2.8-0.2,4.2-0.3c3-0.2,6-0.5,9-1c2.7-0.4,5.4-1,8.1-1.7c1.4-0.4,2.8-0.9,4.2-1.4
	c0.7-0.3,1.5-0.5,2.2-0.8c0.2-0.1,2.5-0.8,1.2-0.4c1.2-0.4,2.4-0.8,3.7-1.2c0.5-0.2,1.1-0.3,1.6-0.5c0.2-0.1,2.1-0.7,0.9-0.3
	c9.3-3,18.4-6.7,27.2-11.1C215.9,163.6,219.9,161.1,224.4,160z"/>
<path id="XMLID_97_" style="fill:#1B1B1B;" d="M110.2,161.1c-3.8-4-7.4-8.2-11.1-12.2c-3.8-4.1-7.7-8.1-11.2-12.3
	c-2-2.4-3.9-4.8-5.8-7.3c-1.6-2.1-3.7-4.5-4.9-6.8c3.8,10.1,10.3,18.9,17.4,26.9c7.3,8.3,14.8,16.4,23.4,23.4
	c2.3,1.8,4.6,3.7,7.1,5.2c2.7,1.7,5.6,2.9,8.3,4.5C124.7,176.6,117.4,168.6,110.2,161.1z"/>
<path id="XMLID_218_" style="fill:#1B1B1B;" d="M73.6,163c1,4.9,1.8,9.7,3.1,14.5c1.3,5,2.9,9.9,4.4,14.8c0.7,2.5,1.6,4.9,2.2,7.4
	c0.6,2.4,0.9,4.9,1.4,7.3c1.8,9.6,3.1,19.2,3.7,29c0.4,5.6,1,11.2,1.2,16.8c0.1,2.7,0.4,5.3,0.7,8c0.1,1.3,0.2,2.7,0.1,4
	c0,1,0.1,2.6-0.1,3.7c-0.4,0.5-0.8,1.1-1.1,1.8c-2.6,6.8,11,5.9,14.5,6.1c0.9,0,3.3,0.2,4.5,0.6c0.2,0.1,0.4,0.1,0.6,0.2
	c0.1,0.4,0.2,0.9,0.3,1.3c0.1,0.5,0.2,1,0.4,1.4c-0.2-0.8,0,0.1,0.1,0.2c0.1,0.5,0.2,0.9,0.3,1.4c0.2,0.8,0.4,1.6,0.6,2.4
	c0.5,1.7,1,3.3,1.5,4.9c1.1,3.2,2.2,6.5,3.2,9.7c2.1,6.6,2.2,13.6,1.6,20.5c-0.7,7-1.8,13.9-2.9,20.8c-1.1,6.9-3.3,13.5-5.1,20.2
	c-1.8,6.7-3.3,13.5-4.9,20.3c-1.6,6.9-3.2,13.9-4.5,20.8C97,415,94,428.7,92.9,442.5c-0.6,7.7-0.8,15.2-0.4,22.9
	c0.2,3.8,0.4,7.6,0.9,11.4c0.4,3.6,1.3,7.4,1.3,10.9c0.6-5.6,0.6-11.1,0.7-16.7c0.2-5.9,0.4-11.8,0.5-17.8
	c0.1-11.8,2.3-24.7,4.3-36.8c1-6.2,2.4-12.4,3.7-18.6c1.4-6.3,2.6-12.6,4.1-18.8c1.5-6.1,2.8-12.3,4.4-18.4c1.6-6,3.6-12,4.8-18.1
	c1.2-6.3,2-12.7,2.8-19.1c0.8-6.3,1.2-12.7,0.4-18.9c-0.9-7-4-13.5-6.6-20c-1.3-3.1-2.5-6.3-3.8-9.4c-0.7-1.6-1.4-3.3-2-5
	c-0.4-1.1-1.3-2.3-1.6-3.3c6.8-1.4,13.7-2.6,20.7-3c10.1-0.5,20.3-0.6,30.5-0.6c10,0.1,19.9,0,29.8,1c5.8,0.6,11.6,0.9,17.3,1.7
	c2.8,0.4,5.7,0.8,8.5,1.3c2.7,0.4,5.6,1.3,8.4,1.2c-1.4,0-3.4-1.1-4.9-1.5c-2.5-0.8-5.1-1.6-7.7-2.3c-5.4-1.4-10.9-2.4-16.4-3.1
	c-11-1.4-22.1-1.7-33.2-1.6c-6.2,0.1-12.5,0-18.7,0.1c-6.3,0.1-12.6,0.1-18.9,0.7c-3.3,0.3-6.6,0.6-9.9,1.2
	c-2.9,0.5-5.8,1.3-8.4,1.8c-4.1,0.8-10.5,1.1-13.5,4.7c0.6-2.2,1.3-4.4,1.4-6.7c0.2-2.5,0-5,0.1-7.6c0.2-5.1-0.1-10.1-0.3-15.2
	c-0.5-9.8-1.2-19.6-3-29.3c-0.9-4.9-1.8-9.9-3.3-14.7c-1.5-4.8-3-9.6-4.3-14.5c-2.6-9.6-4.4-19.5-6.2-29.3c-1.1-5.8-1.8-11.6-2-17.5
	c-0.1-2.8-0.2-5.7-0.1-8.5c0-1.5,0.1-3,0.2-4.4c0.1-1-0.1-2.4,0.2-3.3c-2.1,10-3.4,20-2.1,30.2C71.5,152.9,72.6,158,73.6,163z
	 M92.7,271.1c1.4-1.6,4.2-2.1,6.2-2.5c2.5-0.5,5-1.1,7.5-1.6c0.9,3.4,1.7,7,2.5,10.4c-0.7-0.3-1.5-0.9-2.2-1.2
	c-1.1-0.4-2.2-0.6-3.3-0.9c-2.4-0.5-5-0.6-7.4-1.4c-1-0.3-2-0.7-2.9-1.2C92.1,272.1,91.9,272,92.7,271.1z"/>
<path id="XMLID_94_" style="fill:#1B1B1B;" d="M188.2,192.1c-1.1-0.8-2.2-1.7-3.3-2.5c-0.7-0.5-2.4-1.3-2.9-2c3.8,4.8,8.1,9,12,13.7
	c3.9,4.5,7.2,10.1,12.1,13.4c0.1-0.1,0-0.2-0.3-0.3c-1.2-1.2-2.5-3-3.2-4.3c0,0,0-0.1,0-0.1c0,0,0,0,0,0c-2.3-4.3-4.7-8.8-8.1-12.4
	C192.6,195.6,190.4,193.8,188.2,192.1z"/>
<path id="XMLID_93_" style="fill:#1B1B1B;" d="M244.1,153.1c-1-0.7-2.2-1-3.1-1.6c9.2,6.1,8.7,17.2,9.8,26.9
	c0.6,5.1,0.9,10.1,0.9,15.2c0,5.1,0.6,10,1.6,14.9c1.2,5.9,1.9,12,3.4,17.9c-0.2-0.7-0.1-1.9-0.1-2.7c0-1.4,0-2.8-0.1-4.2
	c-0.1-2.8-0.2-5.5-0.4-8.3c-0.4-5.4-1-10.7-0.9-16.1c0.1-5.6-0.2-11.2-1-16.7c-0.8-5.3-1.2-10.9-3.1-16c-0.9-2.5-2.1-4.8-4-6.7
	C246.2,154.8,245.2,153.9,244.1,153.1z"/>
<path id="XMLID_92_" style="fill:#1B1B1B;" d="M298.9,180.2c0.1-0.1,0.2-0.3,0.3-0.4C299.1,179.9,299,180,298.9,180.2z"/>
<path id="XMLID_91_" style="fill:#1B1B1B;" d="M232.3,287.7c2.2,3.5,5.2,7.1,9.2,6.8c0.3,3.4,0,6.7-0.3,10.1
	c-0.4,3.9,0.2,7.7,0.9,11.5c1.3,7.1,3.9,14,6.1,20.9c4.5,14.4,9.4,28.6,13,43.3c1.9,7.7,3.6,16.2,4.3,23.7c0,0.2,0,0.3,0,0.5
	c0-0.4,0.1,1.3,0.1,1.6c0.1,0.7,0.1,1.4,0.2,2c0.1,0.7,0.1,1.4,0.2,2c0,0.2,0.2,2.3,0.2,1.5c0,0.2,0,0.3,0,0.5
	c0.5,4.5,0.4,10.4,0.3,15.5c-0.1,5.3-0.1,10.5-0.4,15.8c-0.3,5.5-0.8,10.9-1.4,16.4c-0.6,5.2-0.7,10.5-1,15.7c-0.2,3-0.3,6-0.3,9.1
	c0,1.5,0,3.1,0.1,4.6c0.1,1.3,0.7,2.9,0.7,4.1c0-3.8,0.6-7.4,1.2-11.1c-0.1,0.6,0.1-0.7,0.2-0.9c0.1-0.6,0.2-1.1,0.3-1.7
	c0.2-1.3,0.4-2.6,0.7-4c0.4-2.5,0.8-4.9,1.1-7.4c0.5-5,1.2-10,1.6-15c0.9-9.8,0.9-19.7,1-29.5c0-2.7,0-5.3-0.1-8
	c-0.1-1.4-0.2-2.8-0.3-4.2c-0.1-0.7-0.1-1.4-0.2-2.1c0-0.3-0.1-0.6-0.1-0.9c0-0.1-0.1-1.3-0.1-0.7c0-0.2,0-0.3,0-0.5
	c-0.3-3.1-0.7-7.5-1.3-11.1c-0.6-3.9-1.3-7.8-2.1-11.6c-1.7-7.7-3.8-15.3-6.1-22.9c-2.2-7.5-4.7-14.9-7.1-22.3
	c-2.3-7.3-4.9-14.6-7-22c-1.1-4-2.4-8-2.5-12.2c-0.1-2.1-0.1-4.3-0.4-6.5c-0.2-1.5-0.8-2.9-1.2-4.3c0.8-0.1,1.6-0.3,2.5-0.7
	c4.8-2.3,9.2-5.9,12.9-9.6c7.8-7.7,13.9-16.9,20.7-25.4c3.6-4.6,7.6-9,11.4-13.4c3.5-4,6.6-8.2,9.9-12.4c3.6-4.6,6.6-9.5,9.3-14.6
	c1.5-2.8,2.6-5.7,3.9-8.5c0.6-1.4,1.3-2.7,1.8-4.2c0.3-0.9,0.4-2.2,0.8-3.2c0.1,0.1,0.2,0.2,0.3,0.3c-0.1-0.2-0.2-0.3-0.2-0.5
	c0.1-0.2,0.1-0.3,0.2-0.5c-0.1,0.1-0.1,0.3-0.2,0.4c-1.9-3.6-6.2-6.4-9.7-8.2c-3.5-1.8-8.4-3.4-12.3-2.4c0.8-1.4,1.5-2.8,2.3-4.2
	c0.8-1.5,1.6-2.9,2.4-4.4c0.4-0.7,0.8-2.1,1.3-3c-3.2,4.5-6.9,8.7-9.7,13.5c-2.9,4.9-6.5,9.4-10.2,13.8c-3.6,4.4-7.4,8.6-11.8,12.1
	c-4.5,3.5-8.9,7.1-13.1,11c-2.4,2.2-4.7,4.5-6.8,7c-1,1.2-2,2.4-3,3.7c-0.9,1.2-1.4,2.7-2.1,3.9c1.7-2.4,3.9-4.2,6-6.2
	c2.1-1.9,4.2-3.7,6.4-5.4c4.8-3.6,9.5-7.2,14.2-10.9c4.5-3.6,8.3-7.8,12.1-12.3c3.7-4.4,7.3-9.1,9.9-14.3c0.6-1.3,1.3-2.6,2-3.8
	c6.1,0.6,11.6,4,17,6.7c-0.6-0.3,0.8,0.4,0.8,0.4c0.5,0.3,0.9,0.5,1.4,0.8c0.7,0.4,1.6,1.1,2.1,1.5c0.3,0.3,0.7,0.6,1,0.9
	c-0.3,0.8-0.7,1.7-1,2.2c-2,3.9-4.5,7.6-6.8,11.4c-2.2,3.6-4.6,7-7,10.5c-2.4,3.4-5.1,6.6-7.7,9.9c-2.6,3.5-5.5,6.6-8.4,9.9
	c-5.8,6.6-11.1,13.5-16.5,20.4c-5.2,6.7-10.9,13.6-17.7,18.8c-1.7,1.3-3.6,2.5-5.5,3.6c-2,1.1-3.7,2-5.7,0.6
	c-1.6-1.1-2.8-2.7-3.9-4.3c-0.6-1-1.3-2-1.9-2.9c-0.3-0.5-0.7-1-1-1.4c-0.1-0.2-1.2-1.8-0.9-1.2c-0.1-0.1-0.1-0.2-0.2-0.3
	c0.1,0.1,0,0,0,0c-0.3-0.4-0.6-0.8-0.9-1.4c0.6,0.9-0.4-0.6-0.4-0.7c-0.3-0.4-0.5-0.8-0.8-1.2c-0.6-0.9-1.1-1.8-1.6-2.8
	c-1.1-1.9-2-3.7-2.9-5.7c-0.8-1.9-1.6-3.8-2.4-5.7c-0.4-0.9-0.7-1.7-1-2.6c-0.3-0.6-0.7-1.2-1-1.9c0-1.3,0-2.6,0-3.9
	c0,0.8,0-0.1,0-0.2c0-0.4,0-0.7,0-1.1c0-0.8,0-1.7,0.1-2.5c0-1.6,0.2-3.3,0.3-4.9c0.2-3.5,0.3-6.7-0.1-10.2
	c-0.4-3.2-0.9-6.5-0.9-9.8c0-3.4,1-6.5,1.8-9.7c3.4-13,9.6-24.7,14.8-37c1.4-3.4,2.5-6.8,3.3-10.4c0.7-3.3,1.5-6.4,0.7-9.6
	c0,0.4,0,1.1,0,1.3c-0.2,3.4-2.1,6.9-3.2,10.1c-1.2,3.4-2.9,6.5-4.5,9.7c-3.3,6.6-6.7,13.2-9.5,20.1c-2.8,6.9-5.4,14-6.7,21.4
	c-1.3,7.3,0.9,14.5,1,21.8c0,4.3,0.2,8.6,0.8,12.8c0.3,2,0.6,4.1,1,6.1c0.2,1,0.4,2,0.6,2.9c0.2,0.9,0.6,2.1,0.6,2.9
	c0-3.1-0.1-6.3-0.1-9.4c1.4,5.1,2.2,10.3,4.3,15.3C226.3,278.3,229.3,283.1,232.3,287.7z"/>
<path id="XMLID_90_" style="fill:#1B1B1B;" d="M316.8,199.7c-0.1,0.1-0.2,0.2-0.3,0.2C316.7,199.9,316.7,199.8,316.8,199.7z"/>
<path id="XMLID_89_" style="fill:#1B1B1B;" d="M334.8,177c2.9-3.9,5.6-8,8.1-12.2c1.2-2,2.6-4.2,3.2-6.5c0.4-1.9,0.3-3.8,0.3-5.6
	c-0.1,1.9-0.9,4.2-1.8,5.9c-0.1,0.2-0.6,0.9-0.5,0.9c-0.3,0.5-0.7,0.9-1,1.4c-0.6,0.9-1.3,1.7-1.9,2.5c-1.4,1.7-2.8,3.4-4.1,5.1
	c-2.5,3.4-5.3,6.5-7.5,10.1c-2.2,3.5-4.4,7.1-6.4,10.8c-1,1.9-2.1,3.6-3.2,5.4c-0.6,1-1.2,1.9-1.8,2.9c-0.3,0.5-0.8,1.6-1.3,2.1
	c3.6-3.2,6.6-6.8,9.3-10.8C328.8,184.8,331.9,180.9,334.8,177z"/>
<path id="XMLID_88_" style="fill:#1B1B1B;" d="M331.1,142.4C331.1,142.4,331.2,142.5,331.1,142.4C330.9,142.3,331,142.4,331.1,142.4
	z"/>
<path id="XMLID_87_" style="fill:#1B1B1B;" d="M326.1,142.3c3.9,2.1,8.4,3.3,11.7,6.5c0.6,0.5,1.5,1.5,1.9,2.2
	c-0.9-2-2.1-3.7-3.6-5.2c-0.8-0.7-1.7-1.3-2.6-1.9c-0.5-0.3-0.9-0.6-1.4-0.8c-0.1-0.1-0.7-0.4-1-0.6c-2.5-1.4-5.2-2.5-7.6-4.2
	c-1.1-0.8-2.2-1.8-3.1-2.9c-0.6-0.7-1.7-1.9-2-2.8C319.8,136.9,322,140,326.1,142.3z"/>
<path id="XMLID_86_" style="fill:#1B1B1B;" d="M334.8,136.7c0,0,0.1,0.1,0.1,0.1C334.9,136.8,334.8,136.7,334.8,136.7z"/>
<path id="XMLID_85_" style="fill:#1B1B1B;" d="M318.9,128.7c-1.3,0.3-1.9,0.9-1.5,2.2c-0.2-0.3,0.1-0.9,0.3-1.1
	c0.8-0.4,2.6-0.1,3.8,0.3c1.6,0.5,3.1,1.3,4.6,2.1c1.6,0.9,3.2,1.7,4.8,2.6c0.6,0.3,1.3,0.7,1.9,1c0.3,0.2,1.5,0.6,1.9,1
	C330.8,132.8,324.9,127.5,318.9,128.7z"/>
<path id="XMLID_204_" style="fill:#1B1B1B;" d="M332.3,127.9c-0.7-0.7-1.6-1.3-2.4-1.9c-1.8-1.3-3.5-2.5-5.6-3.3
	c-1.6-0.6-3.5-1.1-5.3-1.1c0,0,0,0,0,0c0-0.5-0.7-1.1-0.9-1.5c-0.3-0.5-0.6-1.3-0.6-1.8c0-2.2,3.9-0.1,4.8,0.3
	c2.4,1.2,5.1,2.8,7.1,4.1c0.6,0.3,1.4,0.7,1.9,1.2c-1.9-2.1-4.1-4-6.3-5.8c-2-1.6-4.4-3.1-7.1-2.8c-3.1,0.3-2.1,3.7-1,5.4
	c0.1,0.2,0.6,0.7,1,1.1c-1,0.2-2,0.7-2.9,1.2c0-0.1-0.1-0.1-0.1-0.2c0,0.1,0,0.1,0,0.2c-0.5,0.3-1.1,0.7-1.6,1
	c-0.7-0.3-1.4-0.5-2-0.7c-2.1-0.7-4.5-0.9-6.7-0.6c-1,0.1-1.9,0.3-2.9,0.5c-0.7,0.2-1.6,0.6-2.3,0.6c3,0.3,6,0.3,8.9,0.6
	c2.3,0.2,4.9,0.6,7.2,1.5c0.6,1.5,1.5,2.7,3.3,2.7c-0.4,0-1.2-0.5-1.5-0.9c0.2,0.2-0.4-0.6-0.3-0.4c-0.1-0.3-0.3-0.6-0.4-0.9
	c0.1,0.1,0.2,0.1,0.3,0.1c-0.1,0,0.2,0.1,0.2,0.1c-0.2-0.3-0.5-0.5-0.7-0.8c-0.2-0.5-0.4-1-0.7-1.5c-0.1-0.2-0.3-0.5-0.5-0.8
	c0.9-0.2,1.8-0.4,2.6-0.4c1.7-0.1,3.4,0.6,5,1.1c3.1,1.1,6.1,2.6,9,4.1c0.8,0.4,1.5,1,2.1,1.5C333.4,129.5,332.9,128.5,332.3,127.9z
	 M317.7,117.5C317.7,117.5,317.7,117.5,317.7,117.5c0,0-0.1,0-0.1,0.1C317.6,117.6,317.7,117.5,317.7,117.5
	C317.7,117.5,317.7,117.5,317.7,117.5z M315.4,125.1c-0.6-0.4-1.2-0.7-1.8-0.9c0.5-0.2,1-0.3,1.5-0.5
	C315.1,124.1,315.2,124.6,315.4,125.1z"/>
<path id="XMLID_81_" style="fill:#1B1B1B;" d="M287.1,127.9c-0.1-0.1-0.1-0.2-0.2-0.4C286.9,127.7,287,127.8,287.1,127.9z"/>
<path id="XMLID_80_" style="fill:#1B1B1B;" d="M299.9,179.8c0-2.4,0.7-4.8,1.1-7.2c0.5-2.8,1.3-5.3,2.4-7.9c1.1-2.5,1.9-5.2,1.7-7.9
	c-0.2-2.6-1.3-5-2.3-7.4c-0.9-2.1-1.5-4.5-3-6.4c-0.8-0.9-2-1.4-2.8-2.3c-0.6-0.7-0.7-1.9-1.1-2.8c-0.7-1.6-1.6-3.2-2.7-4.6
	c0.4,0.2,0.7,0.4,1.1,0.6c0.5,0.3,1.4,0.6,1.9,1c-1.8-2-3.8-3.8-6.1-5.2c-0.7-0.4-1.4-0.7-2.1-1c-0.4-0.3-0.7-0.7-0.9-1
	c0.1,0.3,0.3,0.6,0.5,0.8c-0.4-0.1-0.8-0.3-1.2-0.4c-0.9-0.2-2.3-0.3-3.1-0.7c1.5,0.9,3.1,1.7,4.7,2.6c0.4,0.2,0.8,0.5,1.3,0.7
	c0.6,0.8,1.3,1.5,2,2.4c1.4,1.8,2.3,4.4,2.7,6.6c0.2,1.1,0.3,2.1,1,3c0.8,0.9,1.8,1.4,2.4,2.4c1.1,1.8,1.5,4.2,2.3,6.2
	c0.9,2.2,2.1,4.3,2.1,6.7c0.1,2.4-0.7,4.7-1.3,7C299.2,169.8,299.2,175,299.9,179.8z"/>
<path id="XMLID_79_" style="fill:#1B1B1B;" d="M302.7,179.3c-0.1,0-0.1-0.1-0.2-0.1C302.5,179.3,302.6,179.3,302.7,179.3z"/>
<path id="XMLID_78_" style="fill:#1B1B1B;" d="M317,186.3c0.8,0.7,1.5,1.5,2.1,2.3c0.5,0.6,1.3,1.5,1.6,2.1
	c-1.2-3.7-3.3-6.9-6.9-8.6c-1.8-0.8-3.6-1.5-5.5-1.8c-1.2-0.2-2.3-0.5-3.5-0.7c-0.5-0.1-1.6-0.1-2.2-0.3c3.3,1.6,6.7,2.8,10,4.2
	C314.3,184.3,315.7,185.2,317,186.3z"/>
<path id="XMLID_77_" style="fill:#1B1B1B;" d="M258.3,104.5c0.5-0.4,1.1-0.8,1.5-1.3c1-1,1.9-2.3,2.7-3.5c1.4-2.1,2.6-4.8,2.6-7.3
	c-0.1,0.2-0.1,0.5-0.2,0.7c0,0.5-0.8,1.5-1.1,1.9c-0.2,0.4-0.5,0.8-0.7,1.2c-0.1,0.1-0.8,1.3-0.5,0.9c-1.8,2.8-3.6,5.6-5.6,8.2
	C257.1,105.1,258,104.7,258.3,104.5z"/>
<path id="XMLID_76_" style="fill:#1B1B1B;" d="M269.5,106.5c4.4-0.5,8.8-0.7,13.1-1.6c4.1-0.9,8.2-2.1,12.2-3.5
	c2-0.7,4.1-1.5,6.1-2.3c1.5-0.6,3.7-1.9,5.2-1.9c0.2,0,0.5,0.1,0.7,0.1c0,0,0.4,0.2,0.5,0.2c-0.1,0,0.4,0.3,0.3,0.2
	c-0.8-1.3-2.1-1.2-3.5-0.9c-5.1,1-10.9,2.8-15.5,3.7c-0.1,0-0.2,0-0.3,0.1c-4.7,1.1-10.9,2-16.2,2.9c-2.8,0.5-5.6,1.1-8.3,1.8
	c-1.3,0.3-2.5,0.8-3.8,1.1c-0.7,0.2-2,0.7-2.9,0.8C261.3,107.7,265.5,106.9,269.5,106.5z"/>
<path id="XMLID_75_" style="fill:#1B1B1B;" d="M257.2,107.3c-0.1,0-0.3,0-0.4,0C256.9,107.3,257,107.3,257.2,107.3z"/>
<path id="XMLID_74_" style="fill:#1B1B1B;" d="M283.9,113.9C283.8,113.9,283.9,113.9,283.9,113.9L283.9,113.9z"/>
<path id="XMLID_73_" style="fill:#1B1B1B;" d="M267,67.8c0.1,0,0.2,0,0.3-0.1c-0.2,1.7-0.2,3.4-0.1,5.1c0.1,1.2,0.2,2.3,0.4,3.4
	c0.2,1,0.7,2.2,0.7,3.2c0.2-2.5,0.4-5.1,0.2-7.6c-0.1-1.1-0.3-2.3-0.5-3.4c0-0.2-0.1-0.5-0.2-0.8c1.8-0.2,3.6,0,5.4,0.1
	c2.5,0.2,4.9,0.4,7.3,0.3c1.1,0,2.2-0.2,3.2-0.1c1,0.1,0.9,0.2,1,1.2c0.3,2.4,0.1,5,0.3,7.4c0-1.2,0.6-2.8,0.9-4
	c0.3-1.4,0.7-2.8,0.7-4.2c-0.2-3.1-3.4-2.7-5.7-2.6c-2.8,0-5.6-0.1-8.4,0.2c-1.5,0.2-3.3,0.3-4.8,1c-0.1-0.5-0.1-1-0.1-1.2
	c-0.1,0.5-0.2,0.9-0.3,1.4c-0.6,0.3-1.1,0.7-1.5,1.3C266.1,68.2,266.9,67.8,267,67.8z"/>
<path id="XMLID_72_" style="fill:#1B1B1B;" d="M280,79.4c-2.5-0.1-4.8,0.2-7.2,0.5c-1.3,0.2-2.5,0.3-3.8,0.3c-0.7,0-1.9,0.2-2.6,0
	c4.6,1.4,9.6,1,14.3,1.7c4.8,0.7,9.7,0.8,14.5,0.8c5-0.1,10-0.3,15-0.5c4.7-0.2,9.8-0.2,14.4-1.2c-0.9,0.1-2.3-0.2-3-0.3
	c-1.2-0.1-2.4-0.2-3.6-0.3c-2.4-0.3-4.7-0.4-7.1-0.6c-4.8-0.4-9.5-0.8-14.3-0.7c-0.6,0-1.2,0-1.8,0c1.2,0-1.1,0-1.3,0
	c-0.6,0-1.2,0-1.8,0.1c-1.4,0-2.8,0.1-4.2,0.2C285,79.6,282.5,79.5,280,79.4z"/>
<path id="XMLID_71_" style="fill:#1B1B1B;" d="M324.7,81.1c0.1,0,0.3,0,0.4-0.1C325,81,324.9,81.1,324.7,81.1z"/>
<path id="XMLID_70_" style="fill:#1B1B1B;" d="M298.6,90.3c0.1,0,0.1,0,0.2,0C298.7,90.3,298.7,90.3,298.6,90.3z"/>
<path id="XMLID_69_" style="fill:#1B1B1B;" d="M295.2,90.8c0.6-0.1,1.2-0.2,1.8-0.2c0.3,0,1.2-0.3,1.6-0.3c-4-0.5-7.9-0.6-11.9-0.5
	c-6.2,0.3-12.5,1.5-18.7,1.2c0.9,0,2.2,0.8,3.1,1c1.3,0.3,2.7,0.4,4,0.5c2.5,0.2,5.1,0.1,7.6-0.1c2.8-0.2,5.6-0.6,8.4-1.1
	C292.5,91.2,293.9,91,295.2,90.8z"/>
<path id="XMLID_68_" style="fill:#1B1B1B;" d="M301,87.3c0,0,0-0.1,0-0.1C301,87.1,301,87.2,301,87.3z"/>
<path id="XMLID_67_" style="fill:#1B1B1B;" d="M301.2,91.7c0.1,0.7,0.3,1.4,0.4,2c0.1,0.4,0.6,1.3,0.6,1.7c0-1.4,0-2.8-0.2-4.3
	c-0.1-0.8-0.3-1.5-0.5-2.3c0.7,0,1.4,0,2.1-0.1c7.6,0,15.8,1.4,23.7,1.4c3.9,0,7.7-0.5,11.6-1.1c3.9-0.5,8.4-1.9,12.4-1.4
	c-2.5-0.8-5.4-0.9-8.1-0.9c-3.2,0-6.4,0-9.6,0.1c-5.6,0.1-11.3,0.1-16.9,0.1c-2.7,0-5.4,0-8.1,0.3c-1.3,0.1-2.5,0.3-3.8,0.6
	c-1,0.2-2.3,0.9-3.2,0.9c-0.1-0.3-0.5-1.2-0.5-1.5C300.9,88.7,300.9,90.2,301.2,91.7z"/>
<path id="XMLID_66_" style="fill:#1B1B1B;" d="M341.4,100.2C341.4,100.2,341.4,100.2,341.4,100.2
	C341.5,100.2,341.5,100.2,341.4,100.2z"/>
<path id="XMLID_65_" style="fill:#1B1B1B;" d="M351.1,100C351.1,100,351.1,100,351.1,100C351.2,99.9,351.1,100,351.1,100
	c-0.2,0.1-1.1,0.1-1.4,0.2c-0.9,0.1-1.7,0-2.6,0c-1.9,0-3.8,0-5.7,0c-0.1,0-1.4,0-1.6,0c-0.8,0-1.6,0.1-2.3,0.1
	c-1.6,0.1-3.1,0.3-4.7,0.4c-3.2,0.3-6.3,0.8-9.4,1.1c-5.6,0.6-11.3,1.2-16.9,2c1.1-1.5,1.8-3,2.5-4.8c-0.7,1-1.6,2.4-2.3,2.9
	c-0.2,0.2-0.4,0.3-0.6,0.5c-0.3,0.3-1.7,1.3-2.4,1.8c-0.9,0.7-1.9,1.3-2.8,1.9c-2.2,1.2-4.7,1.9-7,2.8c-4.4,1.7-9.2,3.1-13.1,5.8
	c0.9-0.4,2.2-0.8,3.1-0.9c0,0,0.1,0,0.1,0c5.2-1.3,10.7-1.8,15.6-4.1c2.5-1.2,4.4-3,6.2-4.9c0.2-0.2,0.4-0.5,0.6-0.7
	c0.6,0.1,1.3,0.2,1.7,0.2c1.3,0.1,2.6,0.1,3.9,0.2c2.3,0.1,4.6,0.2,7,0.2c4.8,0.1,9.7,0,14.5-0.4c4.7-0.4,9.4-0.7,14.2-1.1
	c1.6-0.1,4.3-0.2,5.4-1.5c0.7-0.8,0.4-1.7,0.2-2.6c-0.1-0.9-0.2-2.3-0.2-2.9c0-2.2-0.6-5.3,0-7.5c-1.1,3.2-1.6,6.8-1.8,10.2
	C351.2,99.1,351.3,99.8,351.1,100C351.2,99.9,351.1,99.9,351.1,100z"/>
<path id="XMLID_64_" style="fill:#1B1B1B;" d="M353.1,96C353.1,96.2,353.1,96,353.1,96L353.1,96z"/>
<path id="XMLID_63_" style="fill:#1B1B1B;" d="M351.1,100C351.1,100,351.1,100,351.1,100C351.1,100,351.1,100,351.1,100z"/>
<path id="XMLID_62_" style="fill:#1B1B1B;" d="M356.9,98.3c-0.1,1.5-0.1,3.1,0,4.6c0.1,1.5,0.6,3.2,0.6,4.6c0.2-1.3,0.4-2.7,0.5-4.1
	c0.2-1.9,0.8-5,0.6-7.4c-0.1-1.3-0.2-2.5-0.4-3.8c-0.1-0.9-0.5-2.7-0.3-3.5C357,92,357.1,95.1,356.9,98.3z"/>
<path id="XMLID_61_" style="fill:#1B1B1B;" d="M540.1,77.6c0.6-1.8,0.6-3.8,1.3-5.7c0.6-1.8,2.5-1.7,4.1-1.9
	c4.2-0.5,8.4-0.8,12.6-0.9c0.9,0,2.3,0.1,3.4,0.2c0.4,0.1,1.1,0.1,1.8,0.1c0.3,0.2,0.6,0.5,0.9,0.7c0.9,0.9,0.8,2.6,0.7,4.1
	c-0.2,2-0.1,3.2-2.4,3.3c-1.7,0-3.4-0.2-5.1-0.2c-2.1,0-4.2,0.2-6.3,0.3c0.7,0-0.3,0-0.5,0c-0.4,0-0.7,0-1.1,0c-1,0-2,0.1-3,0.1
	c-1.7,0.1-3.5,0.7-5.1,0.7c7,0.6,14,2.2,21,1.9c1.5-0.1,3-0.4,3.9-1.6c0.9-1.2,0.7-2.7,0.6-4.1c-0.1-1.4-0.2-3.1-1.1-4.3
	c-0.9-1.1-2.4-1.2-3.4-1.9c0.1,0.1,0.2,0.2,0.3,0.2c-3.4-1.4-6.7-1.9-10.6-1.8c-1.9,0-3.9,0.1-5.8,0.4c-1.6,0.3-3.7,0.6-5,1.6
	C538.4,71,540.8,75.1,540.1,77.6z"/>
<path id="XMLID_180_" style="fill:#1B1B1B;" d="M543.1,91.5c-1.5-0.6-3.6-0.3-5-0.3c-0.1,0-0.2,0-0.2,0c-4.5,0.2-10.3-0.2-15.2-0.5
	c-5.7-0.3-11.4-0.8-17.1-1c-11.2-0.4-22.4,0.1-33.6-0.2c-6.3-0.2-12.7-0.4-19-0.3c-8.4,0.2-16.7,0.1-25.1,0.2
	c-4.2,0.1-8.4,0.4-12.6,0.8c-2.2,0.2-4.5,0.4-6.7,0.8c-1.8,0.3-4,1-5.8,1c9.6,0.3,19.3,0.6,28.9,0.8c3.7,0.1,7.3,0,11-0.1
	c-0.6,1.4-1.1,2.8-1.9,4.1c-0.9,1.5-2.4,1.7-4.1,1.9c-3.7,0.3-7.3,0.3-11,0.8c-7.6,0.9-15.1,2.3-22.6,3.7c-1.6,0.3-3.1,0.6-4.7,0.9
	c0.5-3,1.5-5.9,1.9-9c0.4-2.7,0.4-5.1-2.7-5.8c-2.8-0.6-6.1-0.4-9-0.4c-3.2,0.1-6.4-0.2-9.7-0.1c-3.5,0.1-7,0.1-10.5,0.2
	c-1.8,0-3.5,0.1-5.3,0.4c-0.8,0.1-1.6,0.2-2.4,0.3c-0.5,0.1-1.6,0.3-2,0.2c1.6,0.3,3.2,0.5,4.8,0.6c0.7,0.1,1.5,0.1,2.2,0.2
	c0.4,0,0.9,0.1,1.3,0.1c0.1,0,1,0.1,0.7,0.1c3.5,0.4,7,0.8,10.5,0.9c3.7,0.2,7.5,0.6,11.2,0.3c1.7-0.1,3.4-0.2,5.2-0.2
	c0.8,0,1.7,0,2.5,0.2c1,0.2,0.9,0.5,1.1,1.6c0.2,1.8,0.1,3.6,0,5.5c-0.1,1.7,0.1,3.3,0.1,5c-4.3,0.8-8.5,1.6-12.7,2.5
	c-0.1,0-0.1,0-0.2,0c-5.5,0-11,0.5-16.4,1.3c0.7-0.1-0.4,0.1-0.6,0.1c-0.4,0.1-0.8,0.1-1.1,0.2c-0.9,0.2-1.9,0.4-2.8,0.5
	c-1.5,0.3-3.2,0.7-4.7,0.7c2.7,0.5,5.4,0.7,8.2,0.7c-2.4,0.4-4.8,0.8-7.2,1.2c-4,0.7-7.9,2.1-11.9,3.1c-1.3,0.4-4.3,0.5-4.8,2.1
	c-0.4,1.6,1.6,2.7,2.5,3.4c0.6,0.5,0.7,0.4,0.5,1c-0.2,0.4-0.7,0.6-1,0.8c-0.9,0.6-2.1,0.8-3.1,1.1c-1.1,0.3-2.1,0.5-3.1,0.9
	c-0.9,0.3-2.1,0.9-3,1c-0.4-0.2-0.8-0.4-1.1-0.6c0.1-0.4,0.3-1.1,0.3-1.3c0.1-0.7,0.2-1.4,0.3-2.1c0.2-1.3,0.4-2.6,0.5-3.9
	c0.1-1.6,0.2-3.1,0.2-4.7c0-1.2-0.2-1.4,1.1-1.7c2.6-0.6,5.2-0.7,7.7-1.3c1.3-0.3,2.5-0.7,3.7-1.2c0.9-0.4,1.8-1.2,2.7-1.5
	c-1,0.2-2.1,0.5-3,0.6c0,0-0.1,0-0.1,0c-2.5,0.5-5.5,0.5-8.1,0.7c-1.7,0.1-4.5,0-5.8,1.3c-1.6,1.5-0.5,4.8-0.4,6.7
	c0.3,2.8,0.5,5.6,0.8,8.5c-0.5-0.3-1-0.6-1.3-0.9c1.4,1.6,2.9,3.1,4.1,4.9c0,0.1,0.1,0.2,0.2,0.4c0.2,0.3,0.3,0.7,0.5,1
	c0.3,0.6,0.5,1.2,0.8,1.8c0.5,1.3,1,2.7,1.5,4.1c0.8,2.3,1.8,4.4,2.7,6.6c1.1,2.5,0.9,5.2,1.4,7.7c0.4,1.8,2.1,4.8,1.5,6.7
	c1-3,0.1-6.2,0.3-9.3c0.1-1.7,0.2-3.4-0.2-5c-0.4-1.7-1.2-3.4-1.9-5c-1.3-3-2.6-6.1-4.4-8.8c-0.8-1.2-1.9-2.3-3.1-3.2
	c-0.2-0.2-0.5-0.3-0.8-0.5c1.6-0.1,3.2-0.3,4.8-0.4c1.8-0.1,3.6-0.1,5.3-0.7c1.3-0.5,2.6-1.4,2.9-2.8c0.3-1.3-0.6-2.1-1.5-2.9
	c3.3-0.6,6.6-1.4,9.9-2.1c3.3-0.7,6.6-1.2,10-1.9c3.4-0.6,6.9-1.1,10.3-1.7c3.5-0.6,6.9-1.6,10.3-2.3c6.9-1.4,13.7-2.8,20.6-4.1
	c6.9-1.2,13.7-2.8,20.7-3.9c2.9-0.5,6.4-0.6,9.1-1.9c0.1-0.1,0.3-0.2,0.4-0.2c1.4,0.4,2.8,0.7,4.2,1.1c1.8,0.5,4.6,1.5,5.8-0.5
	c0.8-1.2,1.6-3.6-0.3-4.2c-2-0.7-4.4-0.4-6.3-1.1c1.8,1,3.7,1.9,5.6,2.6c-0.4,0.9-0.5,1.6-1.4,1.8c-1.1,0.2-2.5-0.3-3.6-0.4
	c-0.9-0.1-1.9-0.2-2.8-0.2c0.4-0.4,0.7-0.9,0.9-1.6c0.3-0.9,0.4-1.8,0.6-2.7c0.1-0.5,0.1-1.4,0.3-1.8c5.7-0.2,11.4-0.4,17.2-0.2
	c9.5,0.3,19,0.8,28.5,0.7c9.8,0,19.4,0.3,29.2,0.9c5.3,0.3,10.6,0.1,15.8-0.3c2.7-0.2,5.2-0.9,7.8-1.2c1.5-0.2,2.4,0,3.3,1.1
	c0.5,0.7,1.4,1.8,1.6,2.6C545.5,94.6,545,92.3,543.1,91.5z M347.3,120.5C347.3,120.5,347.3,120.8,347.3,120.5L347.3,120.5z"/>
<path id="XMLID_58_" style="fill:#1B1B1B;" d="M538,91.3C538,91.3,538.1,91.3,538,91.3L538,91.3z"/>
<path id="XMLID_175_" style="fill:#1B1B1B;" d="M369.4,84.9c7.5,0,15-0.7,22.5-0.7c7.5,0,15,0.4,22.4,0.4c8,0,15.9,0.3,23.9,0
	c2.6-0.1,5.8-0.4,8.7-0.5c0.8,0,1.8-0.1,2.5-0.1c0.1,0,0.5,0,0.3,0c0,0,0,0,0,0c0.7,0,1.5-0.1,2.2-0.1c0.2,0,2.5-0.1,1.2-0.1
	c1.1,0,2-0.1,2.8-0.1c0.5,0,0.9,0,1.4-0.1c0,0,0,0,0,0c6.1-0.1,12.1,0.3,18.2,0.6c6,0.2,12.1,0.4,18.1,0.6c6,0.2,12,0,18,0.3
	c6.2,0.4,12.4,0.8,18.6,0.6c3.4-0.1,6.8-0.7,10.1-1.4c3.3-0.7,6.5-1.8,10-2c-0.3,0.1-1.3-0.2-1.6-0.3c-0.6-0.1-1.2-0.1-1.8-0.1
	c-1.4,0-2.9,0.2-4.3,0.3c-3,0.2-6,0.5-9,0.5c-6.1,0.1-12.3-0.6-18.4-1.1c-6.1-0.4-12.2-0.1-18.4-0.3c-6.2-0.2-12.5-0.3-18.7-0.5
	c-7.1-0.2-14.1-0.9-21.2-0.7c-1.7-0.1-3.4,0.1-5.1,0.1c-2.4,0.1-4.8,0.1-7.2,0.2c-4.3,0.2-8.6,0.4-12.9,0.5
	c-4.4,0.1-8.7-0.2-13.1-0.3c-4.3-0.1-8.6-0.1-12.8-0.1c-4.3,0-8.6-0.3-12.9-0.3c-4.4,0-8.7,0.3-13,0.4c-9.1,0.3-18.2-0.1-27.2-0.1
	c-5,0-9.9,0.4-14.8,0.8c-2.3,0.2-4.6,0.3-6.9,0.6c-1.1,0.2-2.3,0.4-3.4,0.6c-1.1,0.2-2.4,0.7-3.4,0.7
	C339.3,83.7,354.4,84.9,369.4,84.9z M457.4,83.7c0.1,0,0.2,0,0.2,0C457.6,83.7,458,83.7,457.4,83.7z M457.7,83.7c-0.1,0-0.2,0-0.2,0
	c0,0,0,0-0.2,0C457.5,83.7,457.6,83.7,457.7,83.7z"/>
<path id="XMLID_54_" style="fill:#1B1B1B;" d="M565.4,84.1C565.4,84.1,565.4,84,565.4,84.1c-0.1-0.8-0.1-1.6-0.2-2.4
	c0-0.3-0.3-1.2-0.2-1.4c-0.2,1.1-0.4,2.2-0.5,3.4c-0.5-0.2-1-0.5-1.4-0.6c-1.3-0.3-2.6-0.5-4-0.6c-2.6-0.2-5.2-0.1-7.7,0.2
	c-1.8,0.2-3.5,0.8-5.2,1.3c0.5-0.2,1.5,0.1,2.1,0.1c0.9,0,1.8,0,2.6,0c1.7,0,3.4,0.1,5.1,0.2c2.8,0.1,5.6-0.1,8.4-0.1
	c-0.2,1.4-0.4,2.9-0.7,4.3c-3.2-0.8-6.6-1.9-9.9-1.6c-2,0.2-3.9,0.6-5.8,1.1c-0.8,0.2-1.7,0.4-2.5,0.7c-0.3,0.1-1.7,0.7-2.3,0.8
	c3.6,0,7.1-0.4,10.7-0.5c1.8-0.1,3.6,0,5.5,0c0.9,0,1.7,0,2.6-0.1c0.4,0,1.1-0.2,1.7-0.3c-0.1,0.8-0.3,1.6-0.5,2.4
	c0,0-0.1,0.5-0.2,0.7c-0.1,0.4-0.2,0.9-0.4,1.3c-0.2,0.4-0.3,0.9-0.7,1.1c-1.2,0.8-3.4,0.4-4.7,0.4c-1.7,0-3.3,0.2-5,0.4
	c-1.6,0.2-3.4,0.8-5,0.8c2.7,0.6,5.6,0.5,8.3,0.9c2.5,0.3,6,1.5,8.3-0.3c2-1.6,1.9-5.3,1.9-7.7c0-1.4-0.1-2.9-0.3-4.3
	c0.3,0,0.6,0,0.9,0C566,84.3,565.7,84.2,565.4,84.1z"/>
<path id="XMLID_53_" style="fill:#1B1B1B;" d="M543.2,89.4c-0.1,0-0.2,0-0.2,0C543,89.4,543.1,89.4,543.2,89.4z"/>
<path id="XMLID_52_" style="fill:#1B1B1B;" d="M360.3,126.7c0.7-0.1,1.3-0.2,2-0.3c1.2-0.2,2.5-0.3,3.7-0.5c2.6-0.3,5.2-0.6,7.7-1
	c5-0.8,10.1-1.8,15.1-2.7c4.9-0.9,9.8-1.8,14.6-3.2c4.9-1.4,9.5-3.4,14.2-5.3c1.5-0.6,2.9-1.2,4.4-1.9c1,0.6,3.2,0.3,4.3,0.3
	c1.8,0.1,3.6,0.1,5.4,0.1c2.8-0.1,6.6-0.5,8.6-2.8c1-1.1,1.2-2.5,1.2-4c0-0.8-0.1-1.6-0.3-2.4c-0.1-0.4-0.4-1.4-0.3-1.7
	c-0.2,1.8-0.2,4.2-1.2,5.8c-0.8,1.4-2.6,1.7-4.1,2c-3.2,0.5-6.5,0.6-9.7,0.8c1.1-0.6,2.2-1.2,3.2-1.9c0.9-0.6,1.9-1.6,2.8-2.1
	c-2.8,1.3-5.8,2.4-8.7,3.3c0.1-2,0.3-3.9,0.1-5.9c0,1.3-0.7,3.1-1.1,4.4c-0.2,0.6-0.6,1.4-0.8,2.1c-2,0.6-4,1.2-5.9,1.8
	c-5.5,1.7-11,3.5-16.7,4.9c-11.5,2.7-23.1,4.3-34.6,7c-3.2,0.7-6.4,1.7-9.6,2.6c-2.8,0.8-5.6,1.9-8.4,2.5c0.5-0.1,1.3-0.3,1.6-0.3
	c3.9-0.5,7.7-1,11.6-1.6C358.8,126.9,360.1,126.7,360.3,126.7z"/>
<path id="XMLID_51_" style="fill:#1B1B1B;" d="M349.1,106.8C349.1,106.8,349.2,106.8,349.1,106.8L349.1,106.8z"/>
<path id="XMLID_50_" style="fill:#1B1B1B;" d="M297.5,132.5C297.8,132.6,297.5,132.5,297.5,132.5L297.5,132.5z"/>
<path id="XMLID_49_" style="fill:#1B1B1B;" d="M280.8,118.4c0.9,0.4,1.7,0.8,2.5,1.2c0.4,0.2,0.7,0.4,1.1,0.5c0,0,1.4,0.7,0.9,0.5
	c3,1.8,6,3.6,8.8,5.7c1.3,1,2.5,2.2,3.7,3.3c1.3,1.1,2.6,2.2,3.7,3.6c-3.1,0-6.1-1.2-9.1-2c0.6,0.2,1.6,0.9,2.2,1.3
	c0.8,0.5,1.6,0.9,2.5,1.3c1.5,0.8,3.4,1.6,5.1,1.7c2.2,0.1,2.8-1.6,1.8-3.3c-0.9-1.5-2.3-2.8-3.5-4c-2.8-2.7-5.7-5-9.2-6.6
	c-1.7-0.8-3.6-1.6-5.4-2.2c-0.9-0.3-1.9-0.5-2.8-0.7C282.4,118.6,281.2,118.6,280.8,118.4z"/>
<path id="XMLID_48_" style="fill:#1B1B1B;" d="M296.2,135.1c0.1,0.1,0.1,0.1,0.2,0.2C296.3,135.2,296.3,135.1,296.2,135.1z"/>
<path id="XMLID_47_" style="fill:#1B1B1B;" d="M247.6,151.2c0.9,0,2,0.4,3,0.5c1.3,0.1,2.6,0.1,3.9,0.2c2.7,0.2,5.3,0.6,8,0.8
	c2.5,0.3,5.1,0.6,7.6,0.9c2.4,0.3,4.7,0.5,7-0.7c3.4-1.8,8.9-6.2,7.9-10.6c-0.3-1.2-1-2.3-1.1-3.6c0-1.2,0.4-2.4,0.8-3.4
	c0.4-1,1.2-2.1,0.9-3.3c-0.2-0.7-0.9-1.1-1.2-1.7c0.4,0.6,0.7,1.4,0.8,1.9c-0.2,1.5-1.9,3-2.5,4.5c-0.9,2.1-0.5,3.7-0.2,5.8
	c0.2,1.8-1.4,3.3-2.7,4.3c-1.6,1.3-3.6,3-5.6,3.6c-1.9,0.5-4.3,0.1-6.3,0c-2.5-0.1-4.9-0.2-7.4-0.2c-2.2,0-4.5,0-6.7,0.3
	C251.7,150.6,249.7,151.1,247.6,151.2z"/>
<path id="XMLID_46_" style="fill:#1B1B1B;" d="M300.3,122.2c1.7,0.1,3.4,0.1,5-0.1c1.6-0.2,3.1-0.7,4.4-1.5c0.7-0.4,1.3-0.9,1.8-1.5
	c0.3-0.4,0.4-1,0.6-1.3c-0.2,0.3-0.2,0.3-0.1,0.3c-1.5,1.9-4.4,2.2-6.5,2.4c-3.2,0.3-6.4,0.7-9.5,1
	C297.2,121.5,298.9,122.1,300.3,122.2z"/>
<path id="XMLID_45_" style="fill:#1B1B1B;" d="M304.4,119.1c0.2-0.2,1.2-0.1,1.5-0.2c0.7-0.2,1.4-0.5,2.1-0.9
	c1.1-0.8,1.8-1.9,2.1-3.3c0.3-1.4,0.2-2.8-0.4-4.2c-0.3-0.8-0.8-1.4-1.3-2c-0.1-0.1-0.5-0.4-0.7-0.7c2,1.3,3.9,3.3,4.7,5.6
	c0.9,2.7-0.3,5.7-1.2,8.2c0.1-0.4,0.8-1.1,1.1-1.5c0.4-0.7,0.8-1.3,1.1-2.1c0.7-1.6,1-3.4,0.5-5.1c-0.5-1.5-1.7-2.9-2.9-3.8
	c-0.6-0.5-1.3-0.9-2-1.2c-0.4-0.1-1-0.2-1.3-0.3c-0.1-0.1-0.1-0.1-0.1-0.2c0,0,0,0.1,0.1,0.1c0,0-0.1,0-0.1,0c0,0,0.1,0.1,0.1,0.1
	c0.4,0.8,0.9,1.9,1,2.5c0,0,0,0.1,0,0.1c0.9,2.6,0.1,6.6-2.5,7.9C305.6,118.6,305,118.8,304.4,119.1z"/>
<path id="XMLID_44_" style="fill:#1B1B1B;" d="M269.4,407.6C269.4,407.8,269.4,407.5,269.4,407.6L269.4,407.6z"/>
<path id="XMLID_43_" style="fill:#1B1B1B;" d="M191,402.2c-0.1-0.6-0.5-1.5-0.5-2.1c0,4.8-1.4,9.5-1.2,14.3
	c0.2,4.8,0.3,9.6,0.9,14.3c1.3,9.6,4.8,18.4,8,27.5c1.5,4.4,3,8.8,4.2,13.4c1.2,4.6,2.7,9.2,3.8,13.8c1.1,4.7,2.4,9.3,3.5,14
	c1,4.6,1.7,9.4,2.9,13.9c1.3,5.1,2.9,10.4,5.3,15c1.2,2.2,2.4,4.4,3.9,6.5c1.3,1.9,3.3,3.5,4.5,5.4c-1.2-2.6-2.9-4.9-4.1-7.5
	c-1.2-2.8-2.3-5.6-3.1-8.5c-1.6-5.8-2.9-11.7-4-17.6c-2.3-11.8-5.9-23.2-8.9-34.8c-1.7-6.5-3.9-12.9-6.2-19.3
	c0.5,1.2-0.1-0.4-0.2-0.7c-0.2-0.6-0.4-1.1-0.6-1.7c-0.4-1.1-0.8-2.3-1.2-3.4c-0.7-2-1.4-4-2-6c-1.3-4.6-2.1-9.2-2.7-13.9
	c-0.6-4.4-1.4-8.7-1.8-13.1c-0.2-2.1-0.1-4.3-0.1-6.4C191.3,404.2,191.2,403.2,191,402.2z"/>
<path id="XMLID_42_" style="fill:#1B1B1B;" d="M160.5,457c1.5-5.1,3.5-9.9,5.3-14.9c1.7-4.7,3.1-9.2,5.7-13.5
	c5.8-9.8,11.6-19.6,18-28.9c-0.5,0.6-1.2,1.4-1.6,1.8c-0.6,0.6-1.2,1.2-1.9,1.9c-0.4,0.4-0.8,0.8-1.2,1.2c-0.1,0.1-1.2,1.2-0.8,0.9
	c-3.3,3.3-6.1,7.3-8.9,11.1c-2.9,4-5.8,8.1-8.1,12.5c-2.3,4.4-3.6,9.2-5.4,13.8c-1.8,4.7-3.5,9.4-4.9,14.3
	c-2.8,9.7-5.8,19.4-8.4,29.1c-1.3,4.8-2.3,9.7-4,14.4c-0.8,2.3-2,4.4-2.9,6.7c-0.9,2.2-1.6,4.5-2.5,6.7c-1,2.6-2.3,5-3.5,7.5
	c-1.3,2.5-2.2,5.1-3.1,7.7c-1,2.5-2.1,5-3.1,7.5c-0.6,1.3-1.2,2.7-1.6,4.1c-0.3,1-0.4,2.2-0.7,3.2c0.4-1,0.9-2.2,1.4-3c0,0,0,0,0,0
	c0,0,0,0,0,0c2.3-3.8,5-7.6,7-11.6c2.1-4.4,5.1-8.5,7-13c1-2.3,1.7-4.7,2.7-7.1c0.9-2.3,2.1-4.5,3-6.8c1.8-4.8,2.8-10,4.2-14.9
	c1.4-5.1,3-10.1,4.4-15.2C157.5,467.1,159,462.1,160.5,457z"/>
<path id="XMLID_41_" style="fill:#1B1B1B;" d="M109.6,592.7C109.6,592.6,109.6,592.6,109.6,592.7L109.6,592.7
	C109.6,592.6,109.6,592.6,109.6,592.7z"/>
<path id="XMLID_40_" style="fill:#1B1B1B;" d="M109.6,592.6C109.6,592.2,109.6,592.3,109.6,592.6L109.6,592.6z"/>
<path id="XMLID_39_" style="fill:#1B1B1B;" d="M109.6,592.7C109.6,592.7,109.6,592.6,109.6,592.7L109.6,592.7z"/>
<path id="XMLID_38_" style="fill:#1B1B1B;" d="M275.7,633.4c0.3-2.3,0.6-4.6,0.6-6.9c0.1-2.2-0.1-4.5-0.1-6.7c0-2.3,0.2-4.7,0.1-7
	c0-2.3-0.3-4.5-0.5-6.8c-0.2-2.6-0.2-5.2-0.2-7.9c0-4.7-0.5-9.4-0.8-14.1c-0.2-4.8-0.7-9.5-1.4-14.2c-0.7-4.8-0.8-9.6-1-14.4
	c-0.4-9.5-1.2-18.9-2.4-28.3c-0.3-2.6-0.7-5.2-1.2-7.7c-0.5-2.7-1.5-5.2-2.2-7.8c-0.7-2.5-1.4-5.1-2-7.6c-0.3-1.3-0.7-2.6-1.3-3.8
	c-0.3-0.8-1.1-1.7-1.2-2.5c1.2,4.5,1.3,9.1,1.9,13.6c0.7,4.7,1.5,9.2,2,14c0.8,9.3,2.1,18.6,2.5,27.9c0.2,4.9,0.3,9.7,0.8,14.6
	c0.5,4.6,1.3,9.2,1.5,13.8c0.3,4.8,0.7,9.6,0.9,14.5c0.1,4.5,0,8.9,0.5,13.3c0.5,4.9,0.6,9.9,1.4,14.8c0.8,5.3,0.4,10.6,1.8,15.8
	c-0.2-0.7,0-2.1,0-3C275.5,635.7,275.6,634.5,275.7,633.4z"/>
<path id="XMLID_37_" style="fill:#1B1B1B;" d="M227.1,564.4c-0.2,3.5-0.7,7-0.9,10.4c-0.1,3.4-0.3,6.8-0.4,10.1
	c-0.4,6.5-0.7,13.4,0.3,19.9c0.5,3.1,1.5,6,2.4,9c0.9,3.1,1.8,6.1,2.7,9.2c1.1,3.5,2.4,6.8,4.3,9.9c1.7,2.8,3.8,6.1,4.9,8.9
	c0.3,0.8,0.6,1.6,1,2.3c-0.2-0.5-0.3-1.5-0.4-2.1c-0.2-0.8-0.4-1.7-0.6-2.5c-0.5-1.7-1.1-3.4-1.8-5.1c-1.4-3.5-2.8-6.8-3.6-10.5
	c-0.8-3.5-1.5-7-2.5-10.4c-1-3.4-2.2-6.7-2.8-10.2c0,0-0.1-1.4-0.1-1.6c0-0.6-0.1-1.1-0.1-1.7c-0.1-1.4-0.1-2.7-0.2-4.1
	c-0.1-2.8-0.1-5.6,0.1-8.3c0.3-5.4,0.4-10.8,0.8-16.2c0.4-5.4,0.3-10.8-0.2-16.2c-0.4-4.5-1.2-9.2-4.5-12.5c0.4,0.5,0.9,1.2,1.1,1.7
	c1.3,3,1.2,6.7,1.2,9.9C227.5,557.8,227.4,561.1,227.1,564.4z"/>
<path id="XMLID_36_" style="fill:#1B1B1B;" d="M244.6,674.9c0.1,0,0.1-0.1,0.1-0.1C244.7,674.8,244.7,674.9,244.6,674.9z"/>
<path id="XMLID_35_" style="fill:#1B1B1B;" d="M238,657.7C238,657.9,237.9,657.6,238,657.7L238,657.7z"/>
<path id="XMLID_34_" style="fill:#1B1B1B;" d="M236.3,689.9c0.2,7.1,0.2,14.4,0.9,21.5c0.3,3.4,1.2,6.6,2,9.9
	c0.8,3.5,1.2,7.1,1.6,10.7c0.4,3.7,0.7,7.5,2.1,11c1.5,3.6,3.7,7.2,6.3,10.1c-1.4-2-2.2-4.8-3.1-7.1c-1-2.8-1.7-5.6-1.8-8.6
	c-0.3-5.9,0-11.7-1.3-17.5c-0.7-2.8-1.4-5.5-1.7-8.4c-0.3-2.9-0.6-5.9-0.6-8.9c-0.1-5.7-0.6-11.4-0.3-17.1c0.2-3.3,1.1-6.5,0.8-9.8
	c-0.1-1.6-0.3-3.1-0.6-4.7c-0.1-0.9-0.3-1.7-0.5-2.6c-0.1-0.3-0.1-0.6-0.2-0.9c0,0,0-0.2-0.1-0.4c2.7,0.6,5.2,0.6,7.9,0.2
	c1.5-0.2,3.2-0.5,4.7-1c0.1,0.2,0.1,0.4,0.2,0.5c0.5,1,1.5,2,1.8,3c-0.4-1.2-0.9-2.6-1.1-3.9c0.4-0.2,0.8-0.4,1.2-0.7
	c1.7-1.3,2.1-3.2,2.2-5.2c0,0,0.1,0,0.1-0.1c1.6-0.4,3.8,1,5,1.8c1.6,1.1,3,2,5,1.4c1.8-0.5,3.1-2,5-2.2c1.9-0.2,3.6,0.6,5.2,1.6
	c1.8,1.1,2.6,2.4,2.8,4.5c0.1,1,0.1,2,0.1,2.9c0,0.6,0.1,1.3,0,2c-0.8,0-1.6,0-2.4-0.1c-7.5-0.5-14.8-1.4-22.3-1
	c-2.9,0.1-5.8,1-8.6,1.7c1-0.3,2.5-0.1,3.6-0.1c1.5,0,2.9,0,4.4,0.1c3.1,0.2,6.2,0.6,9.2,1c5.9,0.7,11.7,2,17.7,2.3
	c0.6,0,1.3-0.1,1.8,0.1c0.6,0.2,0.4-0.2,0.5,0.5c0.1,0.2-0.1,0.7-0.1,0.9c-0.1,0.3-0.2,1.7-0.5,2c-0.3,0.3-1.5,0-1.8-0.1
	c-2.8-0.4-5.6-0.7-8.4-0.5c-5.9,0.3-11.9,1-17.8,1.7c-3.1,0.4-6.3,0.9-9.5,1c-2.7,0.1-2.5-3.3-1.9-5.2c0,0,0,0,0,0c0,0,0,0,0,0
	c0.1-0.3,0.4-1.1,0.7-1.4c-1.8,1.6-2.8,5.1-1.4,7.2c0.8,1.2,2,1.2,3.4,1.3c1.8,0.1,3.5,0.1,5.3,0.1c6.5,0,13.2-0.1,19.7-0.8
	c3-0.3,5.8-0.1,8.7,0.4c0.5,0.1,0.9,0.2,1.4,0.2c-1.1,2.4-1.9,4.8-2.1,7.4c-0.2,1.6,0.1,3,0.5,4.5c-0.9-0.6-1.8-1.3-2.7-1.8
	c-1.5-0.9-3.1-1.8-4.6-2.6c-0.8-0.5-1.6-0.9-2.4-1.4c-0.3-0.2-1.3-0.6-1.4-0.9c3.3,4.1,7.5,7,12.1,9.2c0.1,0.2,0.2,0.4,0.3,0.6
	c1.3,2.6,2.7,5.2,4.2,7.8c-0.7-0.6-1.4-1.1-2.1-1.7c-1-0.7-1.9-1.4-2.9-2.1c-0.4-0.3-1.8-1-2-1.4c1.2,1.7,2.6,3.4,4.4,4.6
	c0.9,0.6,1.8,1.1,2.8,1.6c0.2,0.1,0.4,0.2,0.7,0.3c0.9,1.6,1.9,3.2,2.8,4.8c0.7,1.2,1.4,2.3,2.1,3.5c-0.8-0.5-1.7-0.9-2.5-1.3
	c-1.6-0.8-3.2-1.6-4.9-2.1c-0.9-0.3-1.9-0.6-2.9-0.7c-0.5-0.1-1.5,0-1.8-0.2c3.3,1.4,6.1,3.6,9.3,5.2c1.5,0.8,3.1,1.5,4.7,2.1
	c1.6,2.4,3.3,4.6,5,6.8c1.6,2,3.3,3.9,5.4,5.5c2.2,1.7,4.6,2.7,7,3.7c0,0,0.1,0,0.1,0c1.3,0.4,3.1,1.2,4.5,1.8
	c-1.2-0.6-2.4-1.6-3.5-2.4c-1.1-0.7-2.3-1.3-3.4-2.1c-2.2-1.6-4.1-3.7-5.8-5.9c-1.3-1.8-2.6-3.7-3.8-5.6c0.1,0,0.1,0,0.2,0.1
	c-0.1-0.1-0.2-0.1-0.3-0.2c-1.8-2.9-3.5-5.8-5.2-8.6c-2.7-4.3-5.4-8.5-8.3-12.6c0.4,0.1,0.7,0.3,1.1,0.4c-0.5-0.1-1.1-0.8-1.6-1.2
	c0-0.1-0.1-0.1-0.1-0.2c-1.6-2.3-3.2-4.5-3.4-7.4c-0.1-1.4-0.1-2.9,0.1-4.3c0.1-0.9,0.2-2.5,0.6-3.3c2.3,0.2,4.7,0,5.6-2.6
	c0.8-2.3,1.8-6.5-0.5-8.1c-1.1-0.7-2.6-0.6-3.8-0.7c-0.9,0-1.8,0-2.7,0c0.9-2.9,2.1-6.4,0.6-9.1c-1.4-2.5-4.6-4.8-7.4-5.3
	c-1.5-0.3-3.2-0.1-4.6,0.5c-1,0.5-2.4,1.7-3.6,1.5c-0.7-0.1-1.4-0.8-2-1.1c-0.7-0.4-1.5-0.7-2.3-1c-1.3-0.4-2.8-0.6-4.1-0.4
	c0-0.9,0-1.9,0-2.8c0-0.5-0.1-1.2-0.2-1.9c1,1.6,2,3.4,3.7,4.2c2.1,1,4.7,0.7,6.9,0.1c2.2-0.6,4-1.5,4.8-3.7c0.6-1.5,0.3-5.5,2-6
	c1-0.3,2.5,0,3.5,0.5c1.2,0.6,1.2,1.7,1.2,3c-0.1,2.8-0.4,5.5-0.3,8.3c0-1.9,0.9-4.2,1.4-6c0.5-1.7,1.3-3.8,0.5-5.6
	c-1.3-2.9-7.4-4.6-9.5-1.8c-1.2,1.7-1.2,3.9-2,5.8c-0.6,1.6-2.4,1.8-4,2c-2,0.2-2.8,0.1-4-1.5c-1.2-1.6-2.3-3.2-3.7-4.5
	c-6-5.6-15.3-1.9-21.3,1.6c0.5-0.4,1.8-0.5,2.4-0.7c1-0.3,2-0.6,3-0.8c0.7-0.1,2.8-0.4,4-0.6c1.4-0.1,2.8-0.2,4.1,0
	c2.8,0.4,4.8,1.7,6.4,4c0.3,0.4,0.6,0.9,0.9,1.4c-0.5,1.9-0.9,3.9-1.3,5.8c-1.6,1.2-2.8,3.8-3.1,5.6c0,0.2,0,0.4,0,0.6
	c-1.8,0.9-4,1.3-5.9,1.8c-1,0.3-2,0.6-3,0.8c-0.8,0.2-2.4,0.6-3.2,0.5c-0.1-0.4-0.2-1.1-0.1-0.5c-0.5-2.8-1.4-6.3-1.8-8.9
	c-0.3-1.5-0.6-3.5-1.1-5.1c-0.3-1-0.8-1.9-1.4-2.7c-0.4-0.5-1.2-1-1.6-1.6c0.8,1.2,1.6,2.4,1.8,3.9c0.3,1.7,0.3,3.4,0.3,5.1
	c0.1,3.7,0.5,7.4,0.8,11.1c0.2,3.5,0.6,7.1,0.2,10.6C236.6,682.7,236.2,686.3,236.3,689.9z"/>
<path id="XMLID_33_" style="fill:#1B1B1B;" d="M239.7,666.4C239.7,666.4,239.7,666.6,239.7,666.4L239.7,666.4z"/>
<path id="XMLID_32_" style="fill:#1B1B1B;" d="M256.6,740.2c3.7,3.5,7.8,6.8,12.1,9.6c4.5,2.9,9.9,3,15.1,3.4
	c4.7,0.3,10.5,0.4,15.7,0.4c6,0,12.4,0.5,18.3-0.7c-0.3,0.1-1.1,0-1.4-0.1c-5-0.5-10-1.4-15-1.9c-2.3-0.2-5.2-0.5-7.2-0.7
	c-1.1-0.1-2.3-0.2-3.4-0.3c-0.6,0-1.1-0.1-1.7-0.1c-0.2,0-2.3-0.2-1.4-0.1c-3.5-0.3-7-0.4-10.5-0.9c-1.6-0.2-3.1-0.6-4.6-1.2
	c-0.8-0.3-1.5-0.7-2.2-1.1c-0.3-0.2-0.7-0.4-1-0.6c-0.1,0-1.7-1.1-0.6-0.4c-0.5-0.3-1.2-0.8-1.6-1.1c-6.7-4.6-13.2-9.6-20-14.1
	c-0.1-0.1-1.4-0.9-1.6-1.1C249,733.1,252.9,736.7,256.6,740.2z"/>
<path id="XMLID_31_" style="fill:#1B1B1B;" d="M323.3,742c-0.8-1.6-1.9-3.2-3.1-4.5c-0.6-0.7-1.4-1.3-2.3-1.7
	c-0.5-0.3-1.4-0.3-1.9-0.6c0.1,0.1,0.3,0.2,0.4,0.3c2.7,1.4,4.3,5.7,5.4,8.4c0.7,1.6,1.1,3.4,1.3,5.1c0.1,0.9,0.1,1.9,0,2.9
	c0,0.6,0.1,1.9-0.1,2.4C324.9,750.2,325.4,746,323.3,742z"/>
<path id="XMLID_30_" style="fill:#1B1B1B;" d="M309,734.7c0.1,0,0.2,0,0.3,0C309.2,734.7,309.1,734.7,309,734.7z"/>
<path id="XMLID_29_" style="fill:#1B1B1B;" d="M309,734.7c-0.7-0.2-1.7-1-2.3-1.2c-1.1-0.4-2.3-0.7-3.5-0.9
	c-2.2-0.3-4.5-0.3-6.7-0.2c-3.1,0.1-6.4,0.6-9.1,2.1c-1.2,0.7-2.3,1.5-3.3,2.5c-0.6,0.6-1.1,1.2-1.6,1.8c-0.3,0.4-0.8,1.3-1.1,1.6
	c1.9-1.4,3.9-2.8,6-3.7c2.2-0.9,4.7-1.3,7-1.6C299.4,734.4,304.1,733.6,309,734.7z"/>
<path id="XMLID_145_" style="fill:#1B1B1B;" d="M551.4,788.3c-0.9,1.1-1.6,2.2-2.8,3c-1.2,0.8-2.7,1.2-4.1,1.6
	c-3.1,1-6.2,1.6-9.4,2.2c-3.1,0.6-6.2,1.4-9.3,1.9c-3.2,0.5-6.5,0.6-9.7,0.9c0.8,0,1.9,0.3,2.6,0.4c0.4,0,0.8,0.1,1.3,0.1
	c-3.7,0-7.5-0.4-11.2-0.9c-0.9-0.1-1.8-0.2-2.7-0.3c1.2,0,2.3-0.1,3.5-0.1c-0.6,0.1-1.7-0.3-2.4-0.3c-1.2-0.2-2.4-0.3-3.6-0.5
	c-2.5-0.4-4.8-1.2-7.2-1.8c-4.5-1.3-9-2.6-13.6-3.3c-4.6-0.7-9.2-1.3-13.7-2.3c-4.9-1-9.7-1.9-14.7-2.5c-9.1-1.1-18.2-2.9-27.1-5
	c-4.8-1.1-9.7-2-14.4-3.2c-4.7-1.2-9.2-2.9-13.8-4.2c-5.1-1.4-10.1-2.7-15.3-3.7c-2.8-0.5-5.5-1-8.3-1.5c-0.1,0-0.3,0-0.4-0.1
	c-2-0.6-4-1.2-6.1-1.7c-2.5-0.6-4.9-1.2-7.4-1.7c-1.1-0.2-2.2-0.4-3.3-0.6c-0.5-0.1-1.1-0.2-1.6-0.3c-0.2,0-1.3-0.2-1.4-0.3
	c-1-0.2-2-0.4-3.1-0.6c-0.6-0.1-1.1-0.2-1.7-0.3c-0.3-0.1-1.9-0.4-0.6-0.1c-3.7-0.7-7.4-1-11.1-1.2c0.3-1.8,0.6-3.8,0-5.3
	c-0.8-2.1-4.3-1.3-5.9-1.1c-4.9,0.6-9.8,0.8-14.7,0.6c-10.5-0.5-20.9-0.6-31.4-1.4c-5.7-0.4-11.5-0.7-17.2-0.7
	c-6.8,0-13.7,0-20.4,0.5c0.4-0.1,1.3,0.2,1.8,0.3c0.8,0.1,1.6,0.2,2.4,0.3c1.6,0.2,3.2,0.4,4.9,0.6c3.3,0.4,6.6,0.8,9.9,1
	c6.5,0.6,13,0.8,19.4,1.4c6.4,0.5,12.8,0.8,19.2,1.1c6.5,0.3,13.1,0.6,19.6-0.3c1.7-0.2,3.5-0.5,5.2-0.9c1.6-0.3,3.2-1,4.9-1
	c1.4,0,1.2,1,1.4,2.3c0.1,0.8,0.3,1.7,0.4,2.6c-3.3-0.2-6.6-0.3-9.8-0.5c-7.2-0.5-14.3-1-21.5-0.8c-5,0.1-10.1,0.5-15.1,0.8
	c1.1,0,2.5,0.4,3.7,0.6c1.5,0.2,3.1,0.4,4.6,0.6c3,0.3,6,0.3,9,0.6c6.3,0.6,12.5,1.2,18.8,1.7c6.2,0.4,12.4,0.5,18.6,1.5
	c2.7,0.4,5.4,1,8.1,1.4c3,0.4,6,0.6,9,1c3.4,0.4,6.8,0.8,10.3,1.3c0.8,0.1,1.6,0.2,2.4,0.3c2.5,0.8,5,1.6,7.5,2.4
	c5,1.6,10,3.3,15,4.8c5,1.5,9.9,3.2,15,4.4c5,1.2,10,2.1,14.9,3.4c1.5,0.4,3,0.8,4.5,1.1c-0.4-0.1-0.8-0.1-1.2-0.2
	c-4.2-0.5-8.5-1-12.7-1.7c-4.4-0.7-8.7-2-13.1-2.9c-4.5-0.9-9-1.6-13.6-2.4c-4.5-0.8-8.9-2-13.3-3.3c-8.4-2.5-17.3-3.8-25.9-5.5
	c-2.5-0.5-5.1-1-7.6-1.3c-2.5-0.3-5-0.3-7.4-0.5c-5-0.4-9.9-0.6-14.9-0.2c-2.4,0.2-4.7,0.1-7,0c0.8,0,2,0.5,3,0.8
	c-1,0-2-0.1-2.9-0.3c-2.7-0.5-5.3-1.4-8-1.7c-2.7-0.3-5.2-0.3-7.8-0.8c-2.7-0.5-5.4-0.6-8.2-0.8c-2.8-0.2-5.5-0.8-8.3-0.9
	c-2.7-0.2-5.4-0.1-8.1-0.3c-5.4-0.5-10.8-0.9-16.2-1.5c-2.8-0.3-5.7-0.2-8.5-0.3c-3-0.2-5.9-0.3-8.9-0.3c-5.4,0-10.8-0.1-16.2-0.7
	c-11.2-1.2-22.4-2.6-33.6-3.5c-1-0.1-1.9-0.2-2.9-0.3c1.9-0.1,3.7-0.1,5.6-0.2c6.3-0.3,12.6-0.6,18.9-0.7c2.9,0,5.8,0,8.7-0.1
	c3.1-0.2,6.1-0.5,9.2-0.5c6.8,0,13.6,0.5,20.4-0.2c-0.8,0-1.9-0.3-2.6-0.4c-1.2-0.2-2.4-0.3-3.6-0.5c-2.4-0.4-4.7-0.8-7.1-1.2
	c-4.7-0.7-9.6-1.2-14.3-1c-9.9,0.5-19.9,0.5-29.8,1c-5,0.2-10,0.5-15,0.9c-5.1,0.4-10.3,0.5-15.5,0.8c-1.5,0.1-3.2,0-4.8-0.1
	c0.5,0.1,1.2,0.3,1.8,0.5c-0.4,0-0.8,0-1.2,0c-1.4-0.1-3.2,0.2-4.5-0.2c10.9,2.6,22,4.2,33.1,5.4c11,1.2,22.1,1.9,33.1,3.3
	c5.4,0.7,10.8,1.2,16.2,1.2c5.8,0.1,11.5,0.4,17.3,0.5c2.7,0.1,5.3,0.4,7.9,0.7c2.6,0.3,5.3,0.3,7.9,0.5c2.5,0.2,5,0.6,7.5,0.7
	c2.9,0.1,5.6,0.2,8.5,0.6c3.1,0.4,6.1,0.5,9.2,0.5c3,0.1,5.8,0.7,8.8,0.6c3.2-0.2,6.2,0,9.5,0.3c1.6,0.1,3.1,0,4.6-0.2
	c0.7-0.1,1.5-0.2,2.2-0.4c0,0,0.1,0,0.2,0c0.5,0.1,1,0.1,1.5,0.2c2.7,0.3,5.4,0.5,8.1,1c5.4,0.9,10.9,1.4,16.3,2.4
	c11,1.9,22,3.9,32.8,6.9c5.4,1.5,10.7,2.6,16.2,3.5c5.5,0.9,11,2.2,16.4,3.5c5.3,1.2,10.7,1.9,16.1,2.6c5.5,0.7,10.9,1.8,16.4,2.8
	c5.8,1,11.7,1.6,17.5,2.7c5.9,1.2,11.9,2.1,17.9,2.9c-0.9-0.1-0.1,0,0.4,0.1c0.5,0.1,1,0.1,1.5,0.2c0.9,0.1,1.8,0.3,2.7,0.4
	c1.9,0.2,3.8,0.4,5.7,0.6c3.4,0.4,7,0.9,10.5,0.9c3.6,0,7.3,0,10.9-0.3c1.8-0.1,3.5-0.3,5.3-0.5c0.9-0.1,1.8-0.2,2.7-0.4
	c0.3-0.1,0.7-0.2,1-0.3c0.3,0,0.5,0,0.8,0.1c2.3,0.2,4.6,0.2,6.9,0c-2.8,0.5-5.6,1-8.3,1.7c4.2,0,8.5-0.3,12.7-0.5
	c4.4-0.2,8.8-0.2,13.1-0.9c3.7-0.5,8.5-2,10.3-5.6C559.1,790,554.4,784.7,551.4,788.3z M553.6,791.3
	C553.6,791.3,553.5,791.3,553.6,791.3L553.6,791.3z M553.4,792.1c0.1-0.1,0.2-0.2,0.3-0.3C553.6,791.9,553.1,792.5,553.4,792.1z"/>
<path id="XMLID_25_" style="fill:#1B1B1B;" d="M515.8,798c0.1,0,0.3,0,0.4,0C516,798,515.9,798,515.8,798z"/>
<path id="XMLID_24_" style="fill:#1B1B1B;" d="M253.2,756c-0.1,0-0.3,0-0.4,0C253,756,253.1,756,253.2,756z"/>
<path id="XMLID_23_" style="fill:#1B1B1B;" d="M160.1,755.6c-0.2,0-0.3,0-0.5,0C159.8,755.6,160,755.6,160.1,755.6z"/>
<path id="XMLID_22_" style="fill:#1B1B1B;" d="M87.5,750c-0.3-1-0.2-2.5-0.3-3.6c-0.1-1-0.2-2.1-0.6-3.1c-0.7-2.2-2.2-3.7-4.4-4.6
	c-4.5-1.9-9.6-2.2-14.3-1.4c-9.3,1.6-18.3,5.7-25,12.4c1.7-0.8,3.4-1.6,5-2.4c-0.4,0.2,1.4-0.7,1.6-0.8c1-0.5,2-0.9,3-1.4
	c-0.7,0.3,0.4-0.1,0.6-0.2c0.4-0.2,0.7-0.3,1.1-0.5c0.7-0.3,1.4-0.6,2.2-0.8c1.8-0.6,3.5-1.1,5.3-1.6c3.5-0.9,7.1-1.9,10.7-2.1
	c3.3-0.2,7.5-0.2,10.5,1.3C85.9,742.7,86.8,747,87.5,750z"/>
<path id="XMLID_21_" style="fill:#1B1B1B;" d="M42.8,740c0.3-5.3,0.9-10.7,1-16.1c0.1-5.5-0.6-11-1-16.5c-0.4-5.2,0.1-10.3,0.2-15.5
	c0-2.9,0-5.9,0.1-8.8c0-1.5,0.1-3.1,0.2-4.6c0-0.8,0-2.1,0.2-3c-0.9,2.4-1.3,5.1-1.8,7.6c-0.5,2.9-0.9,5.8-1.3,8.7
	c-0.7,5.6-1.7,11.1-1.2,16.8c0.5,5.8,1.3,11.5,1,17.3c-0.4,5.6-0.4,11.1-0.2,16.7c0.1,2.9,0.1,5.9,1.1,8.7c1,2.8,3.3,4.9,5.3,7
	c-1-1-1.7-2.8-2.4-4C41.5,750.6,42.6,744.6,42.8,740z"/>
<path id="XMLID_20_" style="fill:#1B1B1B;" d="M43.4,675.5c0.1-0.1,0.1-0.3,0.1-0.4C43.5,675.2,43.4,675.4,43.4,675.5z"/>
<path id="XMLID_19_" style="fill:#1B1B1B;" d="M60.2,716.4c-0.9,0.9-1.8,1.8-2.7,2.8c-0.5,0.6-1,1.2-1.4,1.8c-0.3,0.3-0.7,1.2-1,1.4
	c2.5-1.7,5-3.4,7.1-5.5c1.1-1.1,2-2.2,3-3.4c0.7-0.8,1.3-2,2-2.7C64.7,712.5,62.3,714.4,60.2,716.4z"/>
<path id="XMLID_18_" style="fill:#1B1B1B;" d="M55.4,730.4c0.4-0.7,1.9-1.6,2.6-2.2c1-0.9,2-1.9,3-2.9c0.9-0.9,1.7-1.9,2.6-2.8
	c0.4-0.4,1.2-1.6,1.7-2.1C61.1,722.9,58,726.1,55.4,730.4z"/>
<path id="XMLID_17_" style="fill:#1B1B1B;" d="M65.3,720.4c0.1-0.1,0.2-0.1,0.3-0.2C65.5,720.2,65.4,720.3,65.3,720.4z"/>
<path id="XMLID_16_" style="fill:#1B1B1B;" d="M77.5,723.7c-1.3-2.4-2.8-4.7-4.5-6.8c-0.8-1-1.6-1.9-2.5-2.9
	c-0.6-0.6-1.5-1.3-1.9-1.9c1.1,2.3,2.3,4.5,3.8,6.4C73.9,720.4,75.8,722,77.5,723.7z"/>
<path id="XMLID_15_" style="fill:#1B1B1B;" d="M68,721.6c1.6,1.9,3.1,3.8,4.9,5.6c0.1,0.1,0.7,0.7,0.7,0.7c0.4,0.4,0.8,0.8,1.2,1.1
	c0.8,0.7,1.7,1.5,2.5,2.2c-0.6-0.4-1.3-2-1.8-2.7c-0.7-1-1.5-2-2.4-3c-0.9-0.9-1.9-1.8-2.9-2.6C69.6,722.6,68.3,722.1,68,721.6z"/>
<path id="XMLID_14_" style="fill:#1B1B1B;" d="M72.9,727.2C72.9,727.2,72.9,727.2,72.9,727.2C72.8,727.1,72.8,727.1,72.9,727.2z"/>
<path id="XMLID_13_" style="fill:#1B1B1B;" d="M52.2,661.5c0.6-5.4-1.6-15.5,6.4-16c1.7-0.1,3.4,0.2,5,0.6c1.3,0.4,2.7,0.5,2.7,2.1
	c-0.1,1.8-0.8,3.6-1.3,5.4c-0.5,1.8-0.9,3.7-1.4,5.6c0.4-1.1,1.2-2.2,1.7-3.3c0.6-1.2,1.3-2.4,1.9-3.7c0.9-1.8,2.5-4.6,1.2-6.6
	c-1.1-1.7-4.4-2.6-6.2-3c-1.8-0.4-3.7-0.5-5.5-0.2c0.9-4.3,1.9-8.6,2.3-12.9c0.5-5.3,0.5-10.7,1-16c0.9-10.9,1.4-21.6,3.8-32.4
	c1.1-5.1,2.8-10,4.2-15c1.5-5.1,4-9.7,6.6-14.3c4.9-8.9,8.6-18.4,12.3-27.9c2.2-5.5,3.3-11.2,4.6-16.9c0.7-2.8,1.5-5.7,1.6-8.6
	c0.1-2.6-0.7-4.8-2.1-6.9c0.4,1.1,1,2.3,1,3.4c0.4,4.9-2.6,9.8-4.1,14.4c-1.6,4.8-3.2,9.6-5.1,14.3c-1.9,4.6-3.4,9.4-5.6,13.9
	c-2.2,4.3-4.1,8.8-6.4,13.1c-2.4,4.4-4.7,8.9-6.3,13.7c-1.5,4.8-3,9.7-4.2,14.6c-2.5,10.2-3.4,20.5-3.9,31c-0.3,6-0.4,12-0.1,18
	c0.1,2.9,0,5.8-0.2,8.8c-0.1,1.4-0.1,2.8-0.1,4.2c0,0.5,0,1.1,0.1,1.7c-0.5,0.1-1,0.3-1.5,0.6c-3.1,1.5-4.5,5-4.5,8.2
	c0,1.8,0.4,3.6,0.8,5.3C51.5,658.1,52.2,660,52.2,661.5z"/>
<path id="XMLID_12_" style="fill:#1B1B1B;" d="M68.8,648.9c0.6-0.2,1.9,0.1,2.5,0.1c1.1,0,2.1,0,3.2,0c2.2,0,4.3-0.3,6.5-0.5
	c-0.9,0-2-0.5-3-0.6c-0.9-0.1-1.9-0.2-2.9-0.2C73,647.8,70.9,648.3,68.8,648.9z"/>
<path id="XMLID_126_" style="fill:#1B1B1B;" d="M56,688c-0.6,0.2-1.2,0.4-1.9,0.7c0.6-0.2,1.3-0.3,1.9-0.4c0,0.3,0.1,0.6,0.1,0.8
	c0,0,0.1,0,0.1,0c0.1-0.3,0.1-0.6,0.2-0.9c0.3,0,0.7-0.1,1-0.1c1.5,2.1,2.9,4.2,4.4,6.3c1.3,1.8,2.6,4.2,4.5,5.3
	c0.6,0.4,1.3,0.5,1.9,0.6c-1.9,1-3.8,2.1-5.6,3.3c-1.6,1.2-3.1,2.5-4.6,3.9c-1.3,1.2-2.7,3.1-4.1,4c3.7-1.9,7.3-4,10.6-6.6
	c1.7-1.3,3.5-2.6,5.2-4c2.1,3.7,4.7,6.8,7.8,9.8c-0.7-0.7-1.2-2.1-1.7-3c-0.7-1.1-1.4-2.2-2.3-3.3c-0.8-1-1.6-1.9-2.5-2.8
	c-0.2-0.2-0.7-0.5-1.1-0.9c0.4-0.3,0.9-0.8,1.3-1.2c2.4-1.2,4.6-3.6,6-5.2c1.7-1.9,3.3-3.9,4.9-5.9c0.5,0,1.1,0,1.6,0
	c1.8,0,3.6,0.2,5.4,0.3c-0.1,0.2-0.1,0.4-0.2,0.6C86.8,698,84.4,707,84,716c-0.2,4.5-0.4,9-0.3,13.5c0.1,4.6,0.5,8.9,3,12.9
	c0.2,0.3,0.9,1.6,1.1,2.1c-0.5-2.4-1.5-4.6-1.7-7c-0.3-2.4,0-4.9,0.2-7.3c0.5-5.2,1-10.3,1.3-15.5c0.3-5,0.8-10.1,1.3-15.1
	c0.3-3.7,0.9-7.3,1.1-11c0.4,0,0.9,0.1,1.3,0.1c1.8,0.1,4.1-0.3,4.5-2.4c0.2-0.8-0.1-1.7-0.1-2.5c0-1.2,0.3-2.4-0.2-3.5
	c-1-2-3.7-1.4-5.6-1.4c-1,0-2,0-3,0.1c0.9-1,1.7-2,2.1-3.3c0.6-1.9,0.8-4.1,0.7-6.1c0-2.1-0.3-4.1-0.6-6.1c-0.1-0.4-0.1-0.8-0.2-1.3
	c0.7-1.6,1.4-3.2,2.3-4.7c1-1.9,2.2-3.7,2.9-5.7c1-3.1-0.9-4.8-3.3-5.5c0.4-0.8,1.4-1.8,1.9-2.5c0.8-1.2,1.7-2.4,2.5-3.6
	c1.7-2.5,3.4-5.1,5-7.7c3.1-5.3,5.5-10.8,7.6-16.5c2-5.4,3.9-10.8,4.8-16.6c0.9-5.8,2-11.7,2.5-17.5c0.6-6.5,0.2-13.1,1.2-19.6
	c-0.1,0.9,0.2-0.8,0.3-1.1c0.2-0.8,0.5-1.5,0.9-2.3c0.7-1.5,1.6-3,2.4-4.4c0.7-1.3,1.4-2.6,1.9-3.9c0.3-0.8,0.5-1.5,0.7-2.3
	c0.1-0.3,0.1-1.1,0.3-1.3c-1.7,3.6-4.2,6.4-6.5,9.6c-2.4,3.4-3.4,6.9-4,11c-0.6,4.1-0.8,8.2-1.1,12.4c-0.1,1.8-0.3,3.6-0.6,5.4
	c-0.1,1-0.3,1.9-0.4,2.9c-0.1,0.6-0.2,1.2-0.3,1.8c0,0.2-0.1,0.9-0.2,1.1c-0.1,0.4-0.1,0.8-0.2,1.3c0,0.1,0,0.1,0,0.2
	c-0.1,0.5-0.1,1-0.2,1.4c-0.1,0.9-0.2,1.7-0.3,2.6c-0.2,1.6-0.5,3.2-0.8,4.8c-0.8,3.5-1.7,6.9-3,10.2c-2.4,6.5-4.7,13.6-7.4,19.5
	c0,0.1-0.1,0.2-0.1,0.3c0.2-0.5-0.5,1.2-0.6,1.4c-0.3,0.7-0.7,1.4-1,2.2c-0.6,1.3-1.2,2.5-1.8,3.8c-1.2,2.5-2.5,5-3.4,7.6
	c-1.4-0.4-3-0.5-4.4-0.4c-2.8,0.2-5.1,2.3-6,4.9c0,0.1-0.1,0.3-0.1,0.4c-0.2,0-0.4,0-0.5,0c-1.7,0-3.4,0-5.1,0.2
	c-0.9,0.1-1.7,0.2-2.6,0.4c-0.5,0.1-2.2,0.7-2.6,0.5c3.6,0.6,7.3,0.4,10.8-0.5c-0.2,1-0.3,2.1-0.3,3.1c0,0.8,0,1.5,0.2,2.3
	c0.1,0.6,0.6,1.5,0.6,2.1c-0.1-2.6,0.4-6,2-8.2c1.8-2.6,4.7-2.5,7.4-1.8c1.1,0.3,1.6,0.4,1.5,1.5c-0.1,1.4-0.8,2.9-1.2,4.2
	c-0.5,1.5-0.9,3-1.3,4.5c-0.1,0.5-0.2,1-0.2,1.6c0-0.1,0-0.2,0-0.4c-0.1-0.5-0.3-1.7-0.2-2.2c-0.9,3.3-1,6.6-0.8,10
	c0-0.8,0,0.7,0,0.9c0,0.6,0,1.1,0,1.7c0,1.2,0.1,2.4,0,3.6c-0.1,1.2-0.4,2.1-0.9,3.2c-0.1,0.3-0.3,0.7-0.5,1.1
	c-0.4,0-0.8,0.1-1.2,0.1c0.9-2,1.8-4.2,2-6.4c0.4-3.9-1-10-5.5-11.2c-2.1-0.5-4.1,0.6-6.1,1.5c-1.9,0.8-4.4,2.2-6.4,1.1
	c-3.6-1.9-6.6-7.2-11.4-5.2c-1.6,0.7-2.8,2.2-3.8,3.9c0-0.5,0-1-0.1-1.6c-0.1-0.5-0.5-1.7-0.4-2c-0.4,2.4-1,4.8-1.5,7.2
	c-0.2,1.2-0.3,2.4-0.4,3.6c0,0.3,0,0.8,0.1,1.3c0,0.6,0,1.2,0.1,1.7c0,0.1,0,0.2-0.1,0.3c0-0.1,0-0.2,0.1-0.3c0,0.1,0,0.2,0,0.2
	c0,0.6,0.4,1.8,0.3,2.3c0.2-1.8,0.4-3.7,0.9-5.5c0.1-0.7,0.9-2.6,1.4-3.7c0.7-1.3,1.5-2.6,2.6-3.6c1.1-1,2-1.7,3.5-1.1
	c0.6,0.3,1.2,0.7,1.8,1.1c0.3,0.3,0.7,0.5,1,0.8c0.1,0.1,0.7,0.7,0.5,0.4c2.7,2.7,5,4.9,9.1,4c1.7-0.4,3.3-1.1,4.9-1.9
	c1.4-0.7,2.7-1.7,4.2-0.6c2.7,2.1,3.2,6.4,2.7,9.5c-0.2,1.4-0.6,2.8-1,4.2c-3.5,0.4-7,0.9-10.5,1.4c-5.5,0.7-11.1,0.9-16.6,2
	c0.8-0.2,2.9,0,3.5,0.1c5.8,0.4,11.6,0.6,17.5,0.2c1.8-0.1,3.6-0.3,5.3-0.4c-0.1,0.4-0.2,0.7-0.2,1.1c-0.1,0.2-0.1,0.6-0.1,1
	c-3.2,0.3-6.4,0.6-9.6,0.8c-4.2,0.3-8.6,0.4-12.8,1.3c-0.7-0.8-1.5-1.6-2.2-2.4c-0.5-0.6-1.1-1.1-1.6-1.6c-0.1-0.7-0.1-1.3,0-1.8
	c-0.2,0.5-0.3,1-0.3,1.4c-1-1-2-1.9-3.1-2.7c-1-0.8-2-1.5-3-2.3c-0.6-0.5-1.7-0.9-2.2-1.5c2.9,3.1,5.7,6.4,8.3,9.9
	C55.8,686.6,55.9,687.3,56,688z M86.1,682.5c1.3,0,2.6,0,4,0c0.3,0,1.5-0.1,1.7,0.2c0.2,0.2-0.1,1.7,0,2.1c-2.1,0.1-4.2-0.1-6.3-0.1
	c0.5-0.6,1.1-1.3,1.6-1.9c-0.9,0.6-1.7,1.2-2.6,1.9c-0.5,0-1.1,0-1.6,0.1c0.3-0.7,0.6-1.5,0.9-2.2C84.5,682.6,85.3,682.5,86.1,682.5
	z M68.3,688.1c4,0.2,7.9,0.2,11.8,0.3c-1.2,1.1-2.5,2.2-3.7,3.2c-1.7,1.4-3.4,3-5.4,4.1c-0.6,0.4-1.8,1.1-2.6,1
	c-0.7-0.1-1.3-1.2-1.7-1.7c-1.9-2.4-3.8-4.7-5.8-7C63.4,687.9,65.9,688,68.3,688.1z M56.4,687.8c0-0.3,0.1-0.6,0.1-0.9
	c0.2,0.2,0.4,0.5,0.5,0.7C56.8,687.7,56.6,687.8,56.4,687.8z"/>
<path id="XMLID_7_" style="fill:#1B1B1B;" d="M85.8,760.8c0.1,0.1,0.2,0.1,0.3,0.1C86,760.9,85.9,760.8,85.8,760.8z"/>
<path id="XMLID_6_" style="fill:#1B1B1B;" d="M78.4,758.6C78.4,758.6,78.2,758.5,78.4,758.6L78.4,758.6z"/>
<path id="XMLID_5_" style="fill:#1B1B1B;" d="M125,830.3c-0.6-0.4-1.2-0.9-1.8-1.4c-2.2-3.4-4-7-5.8-10.6
	c-2.6-5.3-5.4-10.5-8.4-15.5c-5.9-10.1-13.7-18.8-20.6-28.2c-1.8-2.5-3.7-5-5.8-7.4c-0.2-0.2-0.4-0.4-0.5-0.6c0.1-0.6,0.6-1.5,0.7-2
	c0.3-0.9,0.6-1.7,0.8-2.6c0.2-0.6,0.3-1.2,0.5-1.8c0.1,0.1,0.3,0.1,0.4,0.2c0.5,0.2,0.9,0.4,1.3,0.6c-0.5-0.3-1.2-0.9-1.5-1.2
	c0,0,0,0-0.1,0c0.2-0.9,0.5-1.8,0.6-2.7c0.6-3.4,0.7-7.6-1.4-10.5c-2-2.8-5.6-3.3-8.8-3.5c-3.6-0.3-7.1,0.3-10.5,1.7
	c-3.4,1.4-6.2,3.7-9.2,5.8c-3,2.2-5.8,4.5-8.6,7.1c0.8-0.8,2.6-1.4,3.6-2c1.4-0.8,2.8-1.5,4.2-2.2c1.4-0.7,2.7-1.4,4.1-2.1
	c0.7-0.4,1.3-0.7,2-1.1c0.1-0.1,1.5-0.8,1.4-0.8c5.4-2.5,10.9-3.5,16.7-2.2c4.8,1,4.6,7.9,4.3,11.8c-0.1-0.1-0.2-0.1-0.3-0.2
	c-1.6-0.7-3.2-1.3-4.9-1.7c-3.5-0.8-7.3-1.1-10.9-0.9c-6.4,0.5-12.8,2.8-18.8,5.1c1-0.3,2.6-0.2,3.7-0.3c1.4-0.1,2.9-0.3,4.3-0.5
	c2.6-0.3,5.2-0.8,7.7-1.2c4.7-0.8,9.9-1.5,14.6-0.7c0.1,0,0.1,0,0.2,0c1.2,0.1,2.8,0.5,4.3,1c-0.1,2-0.5,4.6-0.8,6.9
	c-0.8-0.9-1.6-1.7-2.5-2.4c-0.6-0.5-1.3-1-2-1.4c-0.2-0.2-1.1-0.6-1.2-0.7c0.9,0.9,2.2,2.1,2.8,3c0,0,0,0.1,0.1,0.1
	c0.2,0.2,0.4,0.5,0.6,0.7c-0.3,0.2-0.5,0.5-0.5,1c0.1,1,1.1,1.2,1.7,0.8c0.8,1.3,1.6,2.7,2.3,3.9c1.4,2.3,2.8,4.7,4.2,7.1
	c2.9,4.8,6.2,9.3,9.7,13.6c3.3,4,6.1,8.3,8.8,12.7c2.8,4.7,5.8,9.3,8.8,13.9c1.6,2.5,3.1,5,4.9,7.3c0.9,1.2,1.9,2.3,2.9,3.4
	c0.8,0.9,2.2,1.8,2.8,2.8c-0.2-0.2-0.3-0.4-0.5-0.7c1.1,1.2,1.5,2.5,1.2,4.3c-0.2,1.4-0.7,2.9-2.3,3c-1.6,0.1-3.3-0.7-4.7-1.5
	c-3.1-1.7-4.5-5.7-6.2-8.5c-2-3.4-4-6.9-6.4-10.1c-4.4-6.1-9.1-12-13.8-17.7c-2.5-3.1-5.2-6-7.4-9.3c-2.1-3-4.2-6-6.6-8.8
	c-2.8-3.3-5.9-6.3-8.8-9.5c-1.5-1.7-3-3.3-4.5-5c-1-1.1-2.8-2.7-3.2-4c1.2,3.2,3.4,6.1,5.2,8.8c2.1,3.1,4.3,6.1,6.6,9
	c1.9,2.4,3.6,4.8,5.4,7.3c-3.2-3.3-6.5-6.5-9.6-9.9c-1.7-1.7-3.4-3.5-5.1-5.1c-0.9-0.8-1.7-1.7-2.5-2.6c-0.4-0.4-1.4-1.2-1.9-1.9
	c4.5,8.2,10.4,15.7,17,22.3c3.5,3.4,7,6.8,10.4,10.3c1.7,1.7,3.3,3.5,5,5.1c0.9,0.9,1.8,1.7,2.7,2.5c0,0,0.1,0.1,0.1,0.1
	c0.5,0.6,1,1.3,1.5,1.9c3.3,4.3,6.5,8.6,9.3,13.3c1.4,2.3,2.7,4.6,4,6.9c1.2,2.1,2.4,4.5,4.2,6.2c2.7,2.5,9.4,5,12.2,1.6
	c1.5-1.8,1.6-5.3,0.7-7.3C127.1,831.6,126.1,831,125,830.3z"/>
<path id="XMLID_4_" style="fill:#1B1B1B;" d="M60.3,770.1c-0.1-0.1-0.1-0.2-0.2-0.3C60.2,769.8,60.3,769.9,60.3,770.1z"/>
<path id="XMLID_3_" style="fill:#1B1B1B;" d="M259.7,701.8c0.9-1.8,1.8-3.6,2.7-5.4c0.7-1.5,1.3-3.5,2.2-4.9c-2.7,3-5.4,6.1-7.2,9.8
	c-1.7,3.6-2.1,7.5-3.1,11.3C256.1,709,257.9,705.4,259.7,701.8z"/>
<path id="XMLID_2_" style="fill:#1B1B1B;" d="M267.5,711.1c-0.9,3.5-1.3,7-1.4,10.6c0-0.6,0.6-1.6,0.8-2.2c0.3-0.9,0.6-1.9,0.9-2.8
	c0.6-1.9,1.4-3.7,1.8-5.6c0.4-1.7,0.5-3.5,0.4-5.3c0-0.9-0.1-1.8-0.2-2.8c0-0.4-0.4-1.7-0.3-2.1
	C268.9,704.3,268.3,707.7,267.5,711.1z"/>
<path id="XMLID_1_" style="fill:#1B1B1B;" d="M277,724.8c0.3-1.7,0.6-3.4,1.1-5.1c0.2-0.9,0.5-1.7,0.8-2.6c0.1-0.4,0.3-1.5,0.6-1.7
	c-2.1,2.7-3.7,5.6-4.4,9c-0.3,1.7-0.5,3.5-0.6,5.2c-0.1,1-0.1,2-0.1,3.1c0,0.7,0.2,1.9,0,2.5C275.4,731.8,276.3,728.3,277,724.8z"/>
</svg>
