<?xml version="1.0" encoding="utf-8"?>
<!-- Generator: Adobe Illustrator 19.0.0, SVG Export Plug-In . SVG Version: 6.00 Build 0)  -->
<svg version="1.1" id="Layer_1" xmlns="http://www.w3.org/2000/svg" xmlns:xlink="http://www.w3.org/1999/xlink" x="0px" y="0px"
	 viewBox="0 0 1400 980" style="enable-background:new 0 0 1400 980;" xml:space="preserve">
<style type="text/css">
	.st0{fill:#F4C592;}
	.st1{fill:none;stroke:#564E49;stroke-width:4;stroke-linecap:round;stroke-miterlimit:10;}
	.st2{fill:none;stroke:#564E49;stroke-width:4;stroke-miterlimit:10;}
	.st3{fill:#FEE7AF;}
	.st4{fill:none;stroke:#FF0000;stroke-width:9;stroke-miterlimit:10;}
	.st5{fill:none;stroke:#FF0000;stroke-width:8;stroke-miterlimit:10;}
	.st6{fill:#9B9B9B;}
	.st7{fill:#F96262;}
</style>
<path id="_x30_" class="st0" d="M97.1,549.8l0.8-38.9c0.5-22.4,3-44.8,7.8-66.7c1.9-8.5,4.1-16.7,6.4-22.8
	c3.1-10.7,6.8-26.9,8.7-47.4c0.9-9.6,0.8-19.2,0-28.7c-4-44.2-17.3-206.5-13.6-345.3h190.1c0,0,1.5,60-23.4,222.3
	c0,0-21.9,106.8-8.8,155c0,0,8.8,32.2,26.3,61.4l33.7,49.4c6.6,9.7,10.2,21.2,10.2,33v83.3c0,3.5-1.4,6.7-3.7,9
	c-2.3,2.3-5.5,3.7-9,3.7c-6.6,0-12.8-2.9-17.1-7.8c-8.1-9.4-18.7-28.9-19.9-67.3c0.1,11.3-0.2,34.8-3,56.9c-1.9,15-3,30.1-3,45.2
	v94.8c0,5.7-2.3,10.9-6.1,14.6c-3.7,3.7-8.9,6.1-14.6,6.1c-11.3,0-20.4-9-20.7-20.3L236,616.9c0,0-1.8,100.8-2.6,145.2
	c-0.1,5.7-2.5,10.8-6.2,14.5c-3.8,3.7-8.9,6-14.6,6c-11.3,0-20.6-9.1-20.8-20.4l-2.5-132.4l-2.5,122.7c-0.1,5.7-2.5,10.8-6.3,14.5
	s-8.9,5.9-14.6,5.9c-11.4,0-20.7-9.1-20.9-20.5l-2.6-146.3l-2.5,102c-0.1,5.3-2.3,10-5.9,13.5c-3.5,3.4-8.3,5.5-13.6,5.5
	c-10.6,0-19.2-8.5-19.5-19l-2.3-109.6c0-1.9-0.1-3.9-0.3-5.8C97.5,578.3,96.8,564,97.1,549.8z"/>
<path id="_x31_" class="st1" d="M200.9,456.3c6.9,55.1,55.2,70.6,75.7,74.7c5.4,1.1,9.2,5.7,9.3,11.2"/>
<path id="_x32_" class="st1" d="M236,616.9c0,0,4.4-1.1,8.8-5.5"/>
<path id="_x33_" class="st1" d="M181.9,627.5c8.4,2.8,14.1,0.2,14.6,0"/>
<path id="_x34_" class="st1" d="M142.4,605.9c0,0-2.9-0.4-5.9-3.3"/>
<path id="_x35_" class="st2" d="M335.5,571.9v32.7c0,1.3-0.2,2.5-0.5,3.7c-0.1,0.2-0.1,0.4-0.2,0.6l-4.6-3.4
	c-1.2-0.9-1.9-2.3-1.9-3.8C328.2,595.8,329.1,580.9,335.5,571.9z"/>
<path id="_x36_" class="st1" d="M97.1,563.2c0,17.4,5.9,29.1,5.9,29.1"/>
<path id="_x37_" class="st1" d="M155.6,405.1c-33.7-2.8-46.7,27.9-47.7,30.3"/>
<path id="_x38_" class="st1" d="M282.8,422.5c0,0-27.7-29-65.8-20.3"/>
<path id="_x39_" class="st2" d="M97.1,549.8l0.8-38.9c0.5-22.4,3-44.8,7.8-66.7c1.9-8.5,4.1-16.7,6.4-22.8c3.3-11.3,7.3-28.8,9-50.9
	c0.6-7.8,0.5-15.5-0.2-23.3c-3.7-41.2-17.5-206.3-13.7-347.2h190.1c0,0,1.5,60-23.4,222.3c0,0-21.9,106.8-8.8,155
	c0,0,8.8,32.2,26.3,61.4l33.7,49.4c6.6,9.7,10.2,21.2,10.2,33v83.3c0,3.5-1.4,6.7-3.7,9c-2.3,2.3-5.5,3.7-9,3.7
	c-6.6,0-12.8-2.9-17.1-7.8c-8.1-9.4-18.7-28.9-19.9-67.3c0.1,11.3-0.2,34.8-3,56.9c-1.9,15-3,30.1-3,45.2v94.8
	c0,5.7-2.3,10.9-6.1,14.6c-3.7,3.7-8.9,6.1-14.6,6.1c-11.3,0-20.4-9-20.7-20.3L236,616.9c0,0-1.8,100.8-2.6,145.2
	c-0.1,5.7-2.5,10.8-6.2,14.5c-3.8,3.7-8.9,6-14.6,6c-11.3,0-20.6-9.1-20.8-20.4l-2.5-132.4l-2.5,122.7c-0.1,5.7-2.5,10.8-6.3,14.5
	s-8.9,5.9-14.6,5.9c-11.4,0-20.7-9.1-20.9-20.5l-2.6-146.3l-2.5,102c-0.1,5.3-2.3,10-5.9,13.5c-3.5,3.4-8.3,5.5-13.6,5.5
	c-10.6,0-19.2-8.5-19.5-19l-2.3-109.6c0-1.9-0.1-3.9-0.3-5.8C97.5,578.3,96.8,564,97.1,549.8z"/>
<path id="_x31_0" class="st3" d="M1302.9,430.2l-0.8,38.9c-0.5,22.4-3,44.8-7.8,66.7c-1.9,8.5-4.1,16.7-6.4,22.8
	c-3.1,10.7-6.8,26.9-8.7,47.4c-0.9,9.6-0.8,19.2,0,28.7c4,44.2,17.3,206.5,13.6,345.3h-190.1c0,0-1.5-60,23.4-222.3
	c0,0,21.9-106.8,8.8-155c0,0-8.8-32.2-26.3-61.4l-33.7-49.4c-6.6-9.7-10.2-21.2-10.2-33v-83.3c0-3.5,1.4-6.7,3.7-9
	c2.3-2.3,5.5-3.7,9-3.7c6.6,0,12.8,2.9,17.1,7.8c8.1,9.4,18.7,28.9,19.9,67.3c-0.1-11.3,0.2-34.8,3-56.9c1.9-15,3-30.1,3-45.2v-94.8
	c0-5.7,2.3-10.9,6.1-14.6c3.7-3.7,8.9-6.1,14.6-6.1c11.3,0,20.4,9,20.7,20.3l2.5,122.7c0,0,1.8-100.8,2.6-145.2
	c0.1-5.7,2.5-10.8,6.2-14.5c3.8-3.7,8.9-6,14.6-6c11.3,0,20.6,9.1,20.8,20.4l2.5,132.4l2.5-122.7c0.1-5.7,2.5-10.8,6.3-14.5
	c3.8-3.7,8.9-5.9,14.6-5.9c11.4,0,20.7,9.1,20.9,20.5l2.6,146.3l2.5-102c0.1-5.3,2.3-10,5.9-13.5c3.5-3.4,8.3-5.5,13.6-5.5
	c10.6,0,19.2,8.5,19.5,19l2.3,109.6c0,1.9,0.1,3.9,0.3,5.8C1302.5,401.7,1303.2,416,1302.9,430.2z"/>
<path id="_x31_1" class="st1" d="M1199.1,523.7c-6.9-55.1-55.2-70.6-75.7-74.7c-5.4-1.1-9.2-5.7-9.3-11.2"/>
<path id="_x31_2" class="st1" d="M1164,363.1c0,0-4.4,1.1-8.8,5.5"/>
<path id="_x31_3" class="st1" d="M1218.1,352.5c-8.4-2.8-14.1-0.2-14.6,0"/>
<path id="_x31_4" class="st1" d="M1257.6,374.1c0,0,2.9,0.4,5.9,3.3"/>
<path id="_x31_5" class="st2" d="M1064.5,408.1v-32.7c0-1.3,0.2-2.5,0.5-3.7c0.1-0.2,0.1-0.4,0.2-0.6l4.6,3.4
	c1.2,0.9,1.9,2.3,1.9,3.8C1071.8,384.2,1070.9,399.1,1064.5,408.1z"/>
<path id="_x31_6" class="st1" d="M1302.9,416.8c0-17.4-5.9-29.1-5.9-29.1"/>
<path id="_x31_7" class="st1" d="M1244.4,574.9c33.7,2.8,46.7-27.9,47.7-30.3"/>
<path id="_x31_8" class="st1" d="M1117.2,557.5c0,0,27.7,29,65.8,20.3"/>
<path id="_x31_9" class="st2" d="M1302.9,430.2l-0.8,38.9c-0.5,22.4-3,44.8-7.8,66.7c-1.9,8.5-4.1,16.7-6.4,22.8
	c-3.3,11.3-7.3,28.8-9,50.9c-0.6,7.8-0.5,15.5,0.2,23.3c3.7,41.2,17.5,206.3,13.7,347.2h-190.1c0,0-1.5-60,23.4-222.3
	c0,0,21.9-106.8,8.8-155c0,0-8.8-32.2-26.3-61.4l-33.7-49.4c-6.6-9.7-10.2-21.2-10.2-33v-83.3c0-3.5,1.4-6.7,3.7-9
	c2.3-2.3,5.5-3.7,9-3.7c6.6,0,12.8,2.9,17.1,7.8c8.1,9.4,18.7,28.9,19.9,67.3c-0.1-11.3,0.2-34.8,3-56.9c1.9-15,3-30.1,3-45.2v-94.8
	c0-5.7,2.3-10.9,6.1-14.6c3.7-3.7,8.9-6.1,14.6-6.1c11.3,0,20.4,9,20.7,20.3l2.5,122.7c0,0,1.8-100.8,2.6-145.2
	c0.1-5.7,2.5-10.8,6.2-14.5c3.8-3.7,8.9-6,14.6-6c11.3,0,20.6,9.1,20.8,20.4l2.5,132.4l2.5-122.7c0.1-5.7,2.5-10.8,6.3-14.5
	c3.8-3.7,8.9-5.9,14.6-5.9c11.4,0,20.7,9.1,20.9,20.5l2.6,146.3l2.5-102c0.1-5.3,2.3-10,5.9-13.5c3.5-3.4,8.3-5.5,13.6-5.5
	c10.6,0,19.2,8.5,19.5,19l2.3,109.6c0,1.9,0.1,3.9,0.3,5.8C1302.5,401.7,1303.2,416,1302.9,430.2z"/>
<path id="_x32_0_1_" class="st4" d="M202,189.5l0.9,97.5c0.1,8.1,6.7,14.7,14.8,14.7h166.9c5.6,0,8.6-6.7,4.8-10.8
	c-8.7-9.6-21.6-24.9-33.1-42.8c-19.8-30.5-8-52.5-5.3-56.5s10.9-22,40.9-22s51.3,46.3,51.3,51.1s0.6,17.6-14.7,17.6
	s-14.1-12.1-14.1-18.3s19.5-50.5,52.1-50.5s44.8,24.6,44.8,42.9c0,17.8-10.7,43.7-43.5,78.7c-1.6,1.7-2.5,3.9-2.5,6.3l1.1,366.4
	c0.1,22.8,18.6,41.2,41.3,41.2h117.9c24.5,0,44.2-20,43.9-44.5l-0.1-7.1"/>
<path id="_x32_1" class="st5" d="M1201.5,790.5v-53c0-10.2-8.3-18.5-18.5-18.5c-35.1,0-109.7,0.1-131.5,0.1l-34.7-0.1
	c-4.6,0-7-5.4-4-8.8c14.6-16.6,43.7-53.7,43.7-84.5c0-21.2-22.2-38.7-42.8-38.7s-37.2,14.8-45.3,30c-8.2,15.2-11.2,26-6.5,32.3
	c4.7,6.3,12.5,6.2,12.5,6.2s10.7,0.6,12.8-6.2c2.1-6.7,3.8-8-7-32.2c-10.9-24.2-36.5-30-41.3-30s-47,0.3-47,40.8
	c0,29.3,28.2,63.8,43.9,80.6c3.7,3.9,0.9,10.4-4.5,10.4H802.6c-24,0-43.4-19.4-43.4-43.4v-22.1"/>
<path id="_x32_2" class="st6" d="M1208.4,790.5h-13.3c-1,0-1.8,0.8-1.8,1.8v1.4c0,1,0.8,1.8,1.8,1.8h1.3v28.6c0,1.6,1.3,2.9,2.9,2.9
	h0.3v52.3l4.3-8.2v-44.1h0.3c1.6,0,2.9-1.3,2.9-2.9v-28.6h1.3c1,0,1.8-0.8,1.8-1.8v-1.4C1210.2,791.4,1209.4,790.5,1208.4,790.5z"/>
<path id="_x32_3" class="st6" d="M208.4,184.4h-1.3v-28.6c0-1.6-1.3-2.9-2.9-2.9h-0.3v-52.3l-4.3,8.2v44.1h-0.3
	c-1.6,0-2.9,1.3-2.9,2.9v28.6h-1.3c-1,0-1.8,0.8-1.8,1.8v1.4c0,1,0.8,1.8,1.8,1.8h13.3c1,0,1.8-0.8,1.8-1.8v-1.4
	C210.2,185.2,209.4,184.4,208.4,184.4z"/>
<path id="_x32_4" class="st2" d="M818.9,258.2l-47.6-28.7c-6.5-3.9-14-6-21.7-6h-70.6c-7.7,0-15.2,2.1-21.7,6l-47.6,28.7
	c-12.6,7.6-20.3,21.3-20.3,36V516c0,11.7,4.9,22.9,13.5,30.9l35.2,32.5c2.8,2.5,4.3,6.1,4.3,9.9v6.9c0,1.8,1.4,3.2,3.2,3.2h137.7
	c1.8,0,3.2-1.4,3.2-3.2v-6.9c0-3.8,1.6-7.3,4.3-9.9l35.2-32.5c8.6-8,13.5-19.2,13.5-30.9V294.2C839.2,279.4,831.5,265.8,818.9,258.2
	z"/>
<path id="_x32_5" class="st7" d="M610.8,521.2l39.8,36.5c6.8,6.2,10.6,14.9,10.6,24.1v22.6h3v49h10v-49h3v-26.7c0-3.7,3.3-6.5,7-5.9
	c2.2,0.4,4.4,0.7,6.6,0.9c2.8,0.3,5,2.7,5,5.6v34.2h3v11h7v-11h3v-32.9c0-3.1,2.4-5.6,5.5-5.6c0,0,0,0,0,0s14.4,0.4,30.1-2.2
	c3.6-0.6,6.9,2.2,6.9,5.9v26.7h3v49h10v-49h3v-22.6c0-9.2,3.8-17.9,10.6-24.1l39.8-36.5c6.8-6.2,10.6-14.9,10.6-24.1V321.4
	c0-25-14.6-47.8-37.5-58c-5.4-2.4-11.5-4.8-18.5-7c0,0-31-10-58-10s-58,10-58,10c-7,2.2-13.2,4.6-18.5,7c-22.8,10.2-37.5,33-37.5,58
	V497C600.2,506.2,604.1,515,610.8,521.2z"/>
</svg>
