<?xml version="1.0" encoding="utf-8"?>
<!-- Generator: Adobe Illustrator 19.0.0, SVG Export Plug-In . SVG Version: 6.00 Build 0)  -->
<svg version="1.1" xmlns="http://www.w3.org/2000/svg" xmlns:xlink="http://www.w3.org/1999/xlink" x="0px" y="0px"
	 viewBox="0 0 1400 1856" style="enable-background:new 0 0 1400 1856;" xml:space="preserve">
<g id="Gehirn">
	<path style="fill:#465662;" d="M681.9,588.6c-1.4-39.6-3.3-79.2-5.8-118.7c-1.2-19.4-2.5-38.9-4-58.3c-1.3-17.1-2.3-34.6-6.9-51.3
		c-4.1-14.9-11.5-30-23.4-40.2c-9.6-8.2-21.3-14-33.8-16.1c-25.4-4.4-53.5,2.2-71.7,21.2c-1.4,1.5-2.8,3.1-4.1,4.7
		c-24.1-5.2-50.9,10.6-58.8,34.1c-16.8,2.9-32.6,11.5-43.6,24.7c-7.1,8.5-11.4,17.7-15.1,28.1c-1.6,4.5-2.6,8.2-5.8,12.1
		c-1.9,2.4-6.4,4.8-10.2,6.5c-8.4,3.8-18,7.2-26.6,11.7c-8.3,4.3-16.2,9.3-23.8,14.7c-15.9,11.5-30.1,24.9-42.2,40.4
		c-24.8,31.7-40.3,68.8-44.4,108.9c-2.1,20.2-1.6,41.9-12.8,59.7c-10.5,16.6-28.4,29-37.6,47.4c-16.5,33-6.2,76.5,22.8,98.9
		c-15.4,27-4.7,63.7,20,81.2c-10.7,16.9-14.1,38.6-7.5,57.6c7.2,20.8,23.7,35.9,43.9,42.5c-1.8,25.6,2.3,51.8,11.8,75.6
		c5.5,13.9,12.4,27,21.3,39.1c7.9,10.7,19.5,20.3,24.5,32.7c5.6,13.7,2.2,29.8,3.4,44.2c1.3,14.9,5,29.1,11,42.8
		c11.3,25.8,31.4,48.1,56.4,61.4c26.5,14.1,57.6,18.8,87,13.2c11.7,21.7,34.1,35.9,58.9,38.6c28.4,3.1,55.9-14.4,68.2-39.6
		c7.2-14.7,9.7-30.8,6.5-46.9c16-24.7,21.2-54,24.2-83.3c4-38.3,6.9-76.8,9.6-115.2c5.5-78.7,9-157.6,10.4-236.4
		C685.3,745.7,684.7,667.1,681.9,588.6z M658.7,804.8c-0.5,35.3-1.4,70.5-2.7,105.8c-1.9-0.3-3.9,0-5.5,1.2
		c-6.3,4.6-13.4-1.4-18-5.8c-7.2-6.9-14.4-14.5-24.6-16.8c-9.4-2.1-19.2,0.6-24.5,8.9c-4.8,7.4-4.5,17,1.7,23.4
		c7.9,8.2,20.4-4.3,12.5-12.5c0.5,0.5-0.8,1.5,0-0.2c0.1-0.1,0.4-0.9,0.5-0.9c0.9-1.6,1.7-1.9,3.6-1.9c6.9,0,12.6,7,17.1,11.3
		c9.3,9.1,23.6,17.9,36.4,12.1c-1.4,33.7-3.1,67.5-5.3,101.1c-2.4,37.9-5.3,75.8-8.7,113.6c-2.7,30-3.5,62.6-16.5,89.7
		c-2.9,6.1-6.8,12.6-10.8,17.5c-4.4,5.3-5.2,12.9,0,18.1c0.4,0.4,0.9,0.8,1.4,1.2c0.2,3.8,0,7.9-0.6,10.6c-0.7,3.3-1.6,6.5-2.8,9.6
		c0,0-1,2.2-1,2.3c-0.8,1.6-1.6,3.1-2.5,4.7c-3.3,5.5-6.6,9.5-12.3,14c0.5-0.4-1.8,1.2-2,1.4c-1.5,1-3,1.9-4.5,2.7
		c-0.4,0.2-3.5,1.6-3.3,1.6c-1.5,0.6-3.1,1.1-4.7,1.5c-11,3-23.4,1-33.6-4.6c-10.9-6-19-14.9-22.5-25.7c-2.1-6.5-8.8-10.9-15.7-8.9
		c-24,6.8-50.5,5.1-73.2-5.6c-23.1-10.9-40.2-28.8-50.9-51.9c-3.4-7.4-6.3-17.3-7.8-26c11.4,6.7,25.6,8.5,38.3,3.3
		c4.4-1.8,7.6-5.9,6.2-10.9c-1.1-4.2-6.4-8-10.9-6.2c-11.9,4.9-26.2,1.5-33.4-9.6c-0.5-0.7-1-1.3-1.5-1.9c0-9-0.1-17.9-2.2-26.8
		c-3.5-15.1-13.5-26.3-23.3-37.8c-8.3-9.7-15.4-20.8-21-32.6c-12.7-26.5-17-56.2-13.2-85.6c1-7.4-6.7-12-12.8-12.8
		c1.6,0.2-1.2-0.3-1.5-0.4c-1.2-0.2-2.3-0.5-3.4-0.9c-1.1-0.3-2.3-0.7-3.4-1.1c-0.2-0.1-1.6-0.7-1.8-0.8c-1.8-0.9-3.6-1.8-5.3-2.9
		c-1-0.6-2-1.3-3-2c-1.3-0.9-0.6-0.4-1.4-1c-6.6-5.5-11.4-12.1-13.6-19.3c-5-15.8-0.2-33.1,12.4-44.7c7.2-6.6,3.3-18.8-5.6-21.3
		c-0.9-0.3-1.9-0.6-2.8-0.9c-0.1,0-0.6-0.2-1-0.4c-0.5-0.3-1.8-0.9-1.7-0.9c-0.7-0.4-1.3-0.7-2-1.1c-0.7-0.4-1.3-0.8-1.9-1.2
		c-0.2-0.1-0.3-0.2-0.4-0.3c0,0-0.1-0.1-0.2-0.2c-1.3-1.1-2.6-2.3-3.8-3.5c-0.5-0.6-1.1-1.1-1.6-1.7c-0.1-0.1-0.9-1-1.2-1.5
		c-0.3-0.4-0.6-0.9-0.7-1c-0.5-0.8-1.1-1.6-1.6-2.4c-0.9-1.5-1.7-3-2.5-4.6c0-0.1-0.3-0.6-0.5-1c-0.2-0.6-0.7-1.9-0.7-1.9
		c-0.5-1.5-0.9-3-1.3-4.5c-0.2-0.9-0.4-1.9-0.6-2.8c0-0.1-0.1-0.6-0.2-1.1c-0.1-0.6-0.2-1.7-0.2-1.9c-0.1-0.8-0.1-1.5-0.1-2.3
		c0-1.7,0-3.5,0.1-5.2c0-0.4,0.1-0.8,0.1-1.1c0.1-0.6,0.2-1.2,0.3-1.7c0.4-1.7,0.9-3.3,1.4-5c0.1-0.3,0.4-1.1,0.6-1.5
		c0.2-0.4,0.4-0.9,0.6-1.3c0.9-1.7,1.9-3.4,3.1-5c0.4-0.6,0.7-1.2,1-1.9c1.4-1,2.7-2.3,3.7-4c0.3-0.5,0.6-1.1,0.8-1.7l10.1-6.1
		c5.1-3.1,11-5.8,15.3-10c8.3-8.3,4.2-20.7,5-31.1c1.5-19.2,11.9-38.2,27.4-49.7c4.8-3.6,5.7-9.2,1.8-13.9
		c-13.6-16.1-7-43.6,11-53.3c10-5.4,1.1-20.7-8.9-15.3c-25.8,13.9-33.7,48.5-20,73.1c-13.5,12.3-23.2,28.3-27.1,46.4
		c-1.1,5.1-1.8,10.4-2,15.6c-0.1,2.7-0.1,5.4,0.1,8.2c0.1,1.9,1.2,5.6,0.4,7.4c0.1-0.1-2,1.3-2.8,1.8c-2.7,1.7-5.5,3.3-8.2,5
		c-3,1.8-5.9,3.6-8.9,5.4c-6.8-3.5-10.3-6.3-15.6-12.5c-1.8-2.1-3.1-3.9-5.2-7.7c-0.8-1.5-1.6-2.9-2.4-4.5c0.1,0.2-0.7-1.5-0.9-2.1
		c-0.2-0.7-0.8-2.1-0.9-2.4c-1.3-3.6-2.1-7.2-2.9-11c-0.1-0.3-0.2-1.3-0.3-1.7c-0.1-0.6-0.1-1.2-0.2-1.8c-0.2-2.1-0.3-4.2-0.2-6.3
		c0-2.1,0.2-4.2,0.3-6.3c0-0.1,0-0.4,0.1-0.6c0.1-0.7,0.2-1.5,0.4-2.2c0.4-2,0.9-4.1,1.5-6.1c0.2-0.8,0.5-1.6,0.8-2.4
		c0-0.1,0.8-2,0.9-2.2c8-16.7,23.5-28.4,34.6-43.4c13.3-18.1,16.6-39.8,18.4-61.6c1.6-18.9,3.5-35.3,9.9-54
		c5.4-15.8,13.2-31,23.2-45.6c18.9-27.5,47.5-51.5,78-64.1c11.1-4.6,23.1-8.3,31.1-17.9c7.5-8.9,9.8-20.7,14.5-30.1
		c4-8,9.7-14.3,16.5-18.8c8-5.2,16.1-7.9,24.9-8.1c7.2-0.2,12.4-5.7,12.8-12.8c0-0.4,0.1-0.9,0.1-1.3c0-0.2,0.1-0.5,0.2-1
		c0.4-1.1,0.6-2.3,1-3.5c0.3-0.6,0.6-1.2,1-1.9c0.2-0.4,2-2.9,1.7-2.7c1.3-1.6,2.8-3.1,4.4-4.4c0.1,0,1.5-1.1,1.9-1.3
		c1.3-0.8,2.7-1.5,4-2.3c0.6-0.3,1-0.4,1-0.5c0.2-0.1,0.5-0.2,0.7-0.3c1.3-0.4,2.6-0.9,3.9-1.2c0.5-0.1,4.1-0.7,3-0.6
		c0.9-0.1,1.7-0.1,2.6-0.1c0.5,0,3.6,0.3,3.2,0.1c0.2,0,0.3,0.1,0.5,0.1c1,1.3,2.2,2.5,3.7,3.4c2.3,1.4,5.1,1.9,7.9,1.6
		c5.2,1.2,11.2-1.5,13.9-6.1c1.7-2.9,2.1-6,1.4-8.9c0.8-0.9,1.6-1.8,2.5-2.6c0.9-0.9,1.9-1.7,2.9-2.6c0.1-0.1,0.4-0.4,0.7-0.6
		c0.2-0.2,0.5-0.4,0.7-0.5c2.3-1.6,4.7-3.1,7.2-4.4c1.1-0.6,2.3-1.1,3.4-1.6c0.1,0,0.1,0,0.2-0.1c0.5-0.2,1.1-0.4,1.6-0.6
		c2.7-1,5.4-1.7,8.2-2.4c1.3-0.3,2.6-0.5,3.9-0.8c0.1,0,0.2,0,0.3-0.1c0.5-0.1,0.9-0.1,1.4-0.1c2.8-0.2,5.7-0.4,8.5-0.3
		c1.5,0,3,0.1,4.5,0.3c0.6,0.1,1.7,0.2,2,0.3c2.7,0.5,5.3,1.1,7.9,1.8c1.1,0.3,2.1,0.7,3.2,1.1c0.6,0.2,1.2,0.4,1.7,0.7
		c0.1,0.1,0.2,0.1,0.4,0.2c2.5,1.3,4.9,2.6,7.3,4.1c0.5,0.3,2.8,2.1,1.9,1.4c0.7,0.6,1.4,1.2,2.1,1.8c1.1,1,2.2,2.1,3.2,3.2
		c0.4,0.4,0.8,0.9,1.1,1.3c0.1,0.1,0.2,0.2,0.2,0.3c0.2,0.2,0.4,0.6,0.7,1c4.2,6.1,6.9,11.9,9,18.6c4.6,14.8,5.5,29.1,6.6,44.6
		c0.8,10.6,1.6,21.2,2.3,31.8c-16.6-15.5-37.7-26-60.1-29.6c-4.7-0.8-9.5,1.2-10.9,6.2c-1.2,4.2,1.4,10.1,6.2,10.9
		c24.1,3.9,45.5,15.8,61.2,34.4c1.3,1.5,3.2,2.3,5.2,2.5c0,0.1,0,0.1,0,0.2c0.3,5.2,0.6,10.4,0.9,15.5c-16.6-11.5-38.7-13.3-57.5-5
		c-4.4,1.9-5.4,8.3-3.2,12.1c2.6,4.5,7.7,5.1,12.1,3.2c15.4-6.8,34.1-1.8,45.3,10.3c1.4,1.6,3,2.4,4.6,2.7
		c1.3,24.7,2.5,49.4,3.4,74.1C658.8,653.5,659.7,729.2,658.7,804.8z"/>
	<path style="fill:#465662;" d="M617.6,1053.8c-14-6.2-17.2-22.6-19.1-36.3c-1.3-9.4-2.1-18.9-5.1-28c-2.9-8.5-7.4-15.9-13-22.8
		c-9.8-12.1-23.4-21.5-30.8-35.4c-5.4-10.1-8.3-24.3,1.4-32.6c3.6-3.1,3.2-9.3,0-12.5c-3.6-3.6-8.9-3.1-12.5,0
		c-10.2,8.7-12.8,22.2-10.8,35c2.1,13.6,9.4,25.1,18.5,35.1c2.8,3.1,5.9,6.1,8.9,9.1c-1,1.3-1.7,2.9-1.8,4.9
		c-0.5,7.8-6.9,13.3-14.3,14.6c-4.7,0.8-7.4,6.6-6.2,10.9c1.4,5,6.2,7,10.9,6.2c11.8-2,21-10.7,25-21.4c1.7,2.2,3.2,4.5,4.5,7
		c7.5,13.6,6.6,30,9.8,44.9c3.2,14.8,11.1,30.3,25.5,36.8c4.4,1.9,9.5,1.3,12.1-3.2C623,1062.2,622,1055.8,617.6,1053.8z"/>
	<path style="fill:#465662;" d="M600.9,1083.3c-0.5-4.8-3.7-8.8-8.8-8.8c-4.4,0-9.3,4.1-8.8,8.8c0.7,7.3-4.2,14.8-12,15
		c-11.4,0.4-11.4,18.1,0,17.7C587.9,1115.4,602.6,1100.4,600.9,1083.3z"/>
	<path style="fill:#465662;" d="M596.6,814.3c5,1.4,9.1-1.7,10.9-6.2c9-22.7-7.3-47.2-30.9-49.7c-21.8-2.3-35.7,14.5-43.2,32.7
		c-6.1,14.9-9.5,33.9-24.4,42.6c-5.1,3-10.6,5.3-15.9,8c-0.8-0.6-1.7-1.1-2.9-1.4c-15-4.6-28.9-12.1-40.9-21.9
		c-0.3-0.3-0.7-0.6-1.1-0.9c-9.3-7.7-17.5-16.8-24.1-26.9c-6.2-9.5-21.5-0.6-15.3,8.9c6,9.2,13.1,17.6,21,25.1
		c-7.5,6.8-15,13.5-22.5,20.3c-8.5,7.6,4.1,20.1,12.5,12.5c7.9-7.1,15.8-14.2,23.6-21.3c10.2,7.5,21.3,13.6,33.2,18.2
		c-5.6,6.9-8.9,15.3-10.9,23.9c-0.3,0-0.6,0.1-0.9,0.2c-25.6,5.8-48.4,19.2-66,37.5c-0.3-0.1-0.5-0.1-0.8-0.2
		c-28.3-4.3-53.5-20.6-68.3-45.3c-5.8-9.8-21.1-0.9-15.3,8.9c15.6,26.1,41.9,45.3,71.5,52c-12,17-20.2,36.8-23.1,58.1
		c-2.2,16.2-1.5,32.4,2.1,48.3c2.5,11.1,19.6,6.4,17.1-4.7c-7-30.9-0.8-63.9,17-90.1c15-22.2,38-38.2,63.5-45.6
		c-2.3,17.4-3.3,35.3-3.4,52.6c-0.1,22.3,2.1,45.4,10.5,66.3c4.3,10.7,9.9,20.5,17.2,29.5c6.8,8.4,14.8,15.8,21.5,24.3
		c5.1,6.5,10.5,14.7,9.1,23.4c-1.6,10.4-10.8,18.2-15.6,27.1c-4.7,8.8-5.8,18.1-4.1,26.9c-1.6,0.7-3,1.9-3.8,3.5
		c-7.9,17.4-25.4,28.2-44.6,27.1c-11.4-0.6-11.3,17.1,0,17.7c2.3,0.1,4.6,0.1,6.9,0c-1.6,6.5-1.2,13.4,1.6,19.8
		c3.2,7.4,9.4,13,16.6,16.1c-3.6,14,2.4,30,14.7,38.2c9.5,6.3,18.4-9,8.9-15.3c-8.3-5.5-8.8-17.3-3.2-24.8
		c4.1-5.5-1.5-13.3-7.6-13.3c-11.8,0.1-19.1-13.5-10.8-22.8c1-1.2,1.7-2.4,2-3.6c11.2-5.1,20.9-13.5,27.3-24
		c4.5,6.2,10.4,11.6,17.3,15.4c25.5,14.1,56.3,4.1,79.4-10.1c9.7-5.9,0.8-21.2-8.9-15.3c-16.7,10.2-39.7,20.1-59.1,11.3
		c-14.8-6.7-25.5-24-16.7-39.3c5.1-8.8,12.2-16.1,15.5-25.9c3.3-9.7,1.9-19.8-2.2-28.9c-8.1-17.9-25.1-29.5-35.8-45.6
		c-22.5-34-20-78-16.3-116.7c1.6-16.7,1.5-40.8,17.4-51c9-5.7,19.3-8.6,27.7-15.2c6.4-5.1,11.2-12,14.7-19.4c4-8.3,6.7-17.1,10-25.6
		c2.8-7.2,6.2-15,12.3-19.7c6.3-4.9,15.6-5.4,22.6-0.9c8.3,5.3,10,15.8,6.6,24.4C588.7,807.9,592.4,813.2,596.6,814.3z"/>
	<path style="fill:#465662;" d="M626,653.3c-3.7-10.7-20.8-6.1-17.1,4.7c4.3,12.7-1.6,27.2-13.3,33.6c-8.2,4.4-18.3,2.6-27.2,2.4
		c-9.6-0.2-19.3,1.1-28.3,4.5c-8.8,3.3-16.8,8-23.9,14.1c-7.4,6.4-12.4,15.2-20.1,21.4c-11.5,9.4-29,9.6-41.7,2.5
		c-5.9-3.3-10.7-7.9-14.4-13.3c-0.5-1.8-1.5-3.4-2.8-4.7c-4.4-8.4-6.4-18.1-6.1-27.6c0.4-11.4-17.3-11.4-17.7,0
		c-0.3,9.5,1.3,19.2,4.8,28.3c-25.5,7.8-48,24.3-63.5,46.1c-19.2,27.2-25.5,62.2-18.6,94.6c2.4,11.1,19.4,6.4,17.1-4.7
		c-5.9-27.9,0.4-57.7,16.9-80.9c13.7-19.3,34.3-32.8,56.9-39.1c2.7,3.6,5.7,7,9.2,9.9c15.4,13.1,37.5,17.9,56.6,10.8
		c10.3-3.8,18-10.6,25-18.9c6.8-8.1,13.8-15.1,23.5-19.8c9.5-4.6,19.6-5.8,30-5.4c11.5,0.5,22.9,0.7,33.3-4.9
		C622.8,696.9,632.8,673.2,626,653.3z"/>
	<path style="fill:#465662;" d="M654.3,596.1c-10.2-10.8-21-21.5-35.2-26.9c-11.6-4.4-25.8-4.2-36.6,2.3
		c-11,6.5-16.3,18.3-14.2,30.8c2,12.1,11.2,21.3,23.4,22.3c4.8,0.4,8.8-4.4,8.8-8.8c0-5.1-4.1-8.4-8.8-8.8
		c-3.7-0.3-6.3-5.8-6.3-10.3c0-6,4.9-10.3,11.2-11.9c18.6-4.8,33.9,12,45.3,24C649.6,616.9,662.1,604.3,654.3,596.1z"/>
	<path style="fill:#465662;" d="M645.1,537.4c-36.2-23-81.6-33.7-121.9-14.6c-17.7,8.4-35.2,24.1-40.1,43.8
		c-5,20.1,3.3,43.2,13.4,60.5c5.6,9.5,12.5,18.2,20.4,25.8c-12.7,7.5-23,18.9-29,32.4c-5.3-6.6-11.2-12.8-18.1-17.9
		c-11.5-8.6-24.8-11.6-38.8-13.5c-11.2-1.5-23.7-1.6-34-6.7c-11-5.5-15.5-16.6-14.2-28.5c1.4-12.7,9.1-23.5,17.7-33
		c11.8,15.8,27.8,28.5,46.5,36.4c4.4,1.8,9.7-2,10.9-6.2c1.4-5.1-1.8-9-6.2-10.9c-32.7-13.7-55.2-48.2-55.8-83.5
		c-0.2-11.4-17.9-11.4-17.7,0c0.3,17.3,4.8,33.9,12.5,48.7c-9.7,10.4-18.6,21.9-23.1,35.6c-4.6,14.2-3.7,31.5,5.3,43.8
		c18.1,24.6,50.4,16.9,75.7,26.1c15.6,5.6,25.9,20.6,35,33.6c3.8,5.4,14.9,6.2,16.2-2.1c2.8-18.6,14.7-34.7,31.8-42.1
		c3.6,2.5,7.3,4.7,11.1,6.7c10.1,5.3,19-9.9,8.9-15.3c-2.9-1.6-5.8-3.3-8.6-5.1c-1.1-3.4-4.1-6.2-8.1-6c-7.3-5.9-13.7-12.7-19-20.5
		c-9.3-13.5-17.1-30.7-16.8-47.4c0.4-16.8,15-30,28.7-37.5c14.7-8,31.8-10.8,48.4-9.5c21.5,1.7,41.7,10.5,59.7,22
		C645.8,558.8,654.7,543.5,645.1,537.4z"/>
	<path style="fill:#465662;" d="M548.4,417.7c-1.7-11.8-12.2-20.3-23.3-22.9c-13.2-3-25.8,1.3-35.5,10.5
		c-10.1,9.5-15.8,22.7-20.5,35.5c-5.4,14.9-9.1,30.5-11.5,46.2c-2.8,18.4-4,36.8-4.3,55.4c-0.2,11.4,17.5,11.4,17.7,0
		c0.5-34.3,4.2-68.9,16.7-101.1c4.2-10.8,10.9-24.6,22.6-28.8c8.6-3.1,19.7,0.7,21,10c0.7,4.7,6.7,7.3,10.9,6.2
		C547.3,427.2,549.1,422.4,548.4,417.7z"/>
	<path style="fill:#465662;" d="M381,673.6c-17.6,1.6-33.6,14.7-36.1,32.7c-0.7,4.7,1.1,9.5,6.2,10.9c4.1,1.1,10.2-1.4,10.9-6.2
		c1.4-9.8,8.6-18.8,19-19.7c4.8-0.4,8.8-3.8,8.8-8.8C389.8,678,385.8,673.1,381,673.6z"/>
	<path style="fill:#465662;" d="M458.3,1036c-15.4,0.1-30.7-7.1-39.7-19.7c-2.8-3.9-7.7-5.7-12.1-3.2c-3.8,2.2-6,8.2-3.2,12.1
		c12.8,17.8,33,28.6,55,28.5C469.6,1053.6,469.7,1035.9,458.3,1036z"/>
	<path style="fill:#465662;" d="M470.6,1130.4c-8-8-9.8-20.6-4.1-30.5c5.7-9.9-9.6-18.8-15.3-8.9c-9.6,16.7-6.7,38.3,6.9,51.9
		C466.1,1151,478.6,1138.5,470.6,1130.4z"/>
	<path style="fill:#465662;" d="M418.2,1096.4c-16.3-8.4-36.4-5.7-49.4,7.4c-8,8.1,4.5,20.6,12.5,12.5c7.2-7.3,18.7-9.5,28-4.7
		C419.3,1116.9,428.3,1101.6,418.2,1096.4z"/>
	<path style="fill:#465662;" d="M548.4,1219.2c-9.9-5.6-18.8,9.6-8.9,15.3c17.9,10.2,27.5,32.1,22.3,52.1
		c-2.8,11,14.2,15.7,17.1,4.7C586,1263.8,573.3,1233.3,548.4,1219.2z"/>
	<path style="fill:#465662;" d="M713.1,824.3c1.4,78.9,4.8,157.7,10.4,236.4c2.7,38.4,5.6,76.9,9.6,115.2
		c3.1,29.3,8.2,58.6,24.2,83.3c-3.2,16.1-0.7,32.2,6.5,46.9c12.3,25.2,39.8,42.7,68.2,39.6c24.9-2.7,47.2-16.9,58.9-38.6
		c29.4,5.6,60.5,0.9,87-13.2c24.9-13.3,45.1-35.6,56.4-61.4c6-13.7,9.7-27.9,11-42.8c1.2-14.4-2.1-30.5,3.4-44.2
		c5-12.4,16.6-22,24.5-32.7c8.9-12,15.8-25.2,21.3-39.1c9.5-23.8,13.6-50,11.8-75.6c20.2-6.6,36.7-21.7,43.9-42.5
		c6.6-18.9,3.2-40.7-7.5-57.6c24.7-17.5,35.4-54.2,20-81.2c28.9-22.4,39.3-65.8,22.8-98.9c-9.2-18.3-27.1-30.7-37.6-47.4
		c-11.3-17.8-10.7-39.4-12.8-59.7c-4.1-40.1-19.5-77.2-44.4-108.9c-12.1-15.4-26.4-28.9-42.2-40.4c-7.6-5.5-15.5-10.4-23.8-14.7
		c-8.6-4.5-18.2-7.9-26.6-11.7c-3.7-1.7-8.2-4.1-10.2-6.5c-3.2-3.8-4.2-7.6-5.8-12.1c-3.7-10.4-8-19.5-15.1-28.1
		c-11-13.1-26.8-21.7-43.6-24.7c-7.9-23.5-34.6-39.2-58.8-34.1c-1.3-1.6-2.7-3.2-4.1-4.7c-18.2-19-46.3-25.7-71.7-21.2
		c-12.5,2.2-24.2,7.9-33.8,16.1c-11.9,10.2-19.3,25.3-23.4,40.2c-4.6,16.6-5.6,34.1-6.9,51.3c-1.5,19.4-2.8,38.9-4,58.3
		c-2.4,39.5-4.4,79.1-5.8,118.7C712.4,667.1,711.7,745.7,713.1,824.3z M741.1,577.9c0.9-24.7,2.1-49.4,3.4-74.1
		c1.6-0.3,3.2-1.1,4.6-2.7c11.1-12.1,29.9-17.1,45.3-10.3c4.4,1.9,9.5,1.3,12.1-3.2c2.2-3.8,1.2-10.2-3.2-12.1
		c-18.8-8.3-40.9-6.5-57.5,5c0.3-5.2,0.6-10.4,0.9-15.5c0-0.1,0-0.1,0-0.2c2-0.2,3.8-1,5.2-2.5c15.8-18.6,37.2-30.5,61.2-34.4
		c4.7-0.8,7.3-6.7,6.2-10.9c-1.4-5-6.2-6.9-10.9-6.2c-22.4,3.6-43.5,14.1-60.1,29.6c0.7-10.6,1.5-21.2,2.3-31.8
		c1.2-15.5,2.1-29.7,6.6-44.6c2.1-6.8,4.9-12.5,9-18.6c0.3-0.4,0.6-0.8,0.7-1c0.1-0.1,0.1-0.2,0.2-0.3c0.4-0.4,0.7-0.9,1.1-1.3
		c1-1.1,2.1-2.2,3.2-3.2c0.7-0.6,1.4-1.2,2.1-1.8c-0.9,0.8,1.4-1,1.9-1.4c2.3-1.6,4.8-2.8,7.3-4.1c0.1-0.1,0.3-0.1,0.4-0.2
		c0.6-0.2,1.2-0.5,1.7-0.7c1.1-0.4,2.1-0.7,3.2-1.1c2.6-0.8,5.2-1.4,7.9-1.8c0.3,0,1.4-0.2,2-0.3c1.5-0.1,3-0.2,4.5-0.3
		c2.9-0.1,5.7,0.1,8.5,0.3c0.5,0,0.9,0.1,1.4,0.1c0.1,0,0.2,0,0.3,0.1c1.3,0.3,2.6,0.5,3.9,0.8c2.8,0.6,5.5,1.4,8.2,2.4
		c0.5,0.2,1.1,0.4,1.6,0.6c0.1,0,0.1,0.1,0.2,0.1c1.2,0.5,2.3,1.1,3.4,1.6c2.5,1.3,4.8,2.8,7.2,4.4c0.2,0.2,0.5,0.3,0.7,0.5
		c0.2,0.2,0.5,0.4,0.7,0.6c1,0.9,1.9,1.7,2.9,2.6c0.9,0.8,1.7,1.7,2.5,2.6c-0.6,2.9-0.3,6,1.4,8.9c2.7,4.6,8.7,7.3,13.9,6.1
		c2.7,0.3,5.6-0.2,7.9-1.6c1.5-0.9,2.8-2,3.7-3.4c0.2,0,0.3-0.1,0.5-0.1c-0.3,0.1,2.7-0.1,3.2-0.1c0.9,0,1.7,0.1,2.6,0.1
		c-1.1,0,2.5,0.5,3,0.6c1.3,0.3,2.6,0.8,3.9,1.2c0.2,0.1,0.5,0.2,0.7,0.3c0.1,0,0.4,0.2,1,0.5c1.3,0.8,2.7,1.5,4,2.3
		c0.3,0.2,1.8,1.3,1.9,1.3c1.6,1.3,3.1,2.8,4.4,4.4c-0.2-0.2,1.5,2.3,1.7,2.7c0.3,0.6,0.7,1.2,1,1.9c0.4,1.1,0.7,2.3,1,3.5
		c0.1,0.5,0.2,0.8,0.2,1c0,0.4,0.1,0.9,0.1,1.3c0.4,7.1,5.6,12.6,12.8,12.8c8.8,0.3,16.9,2.9,24.9,8.1c6.9,4.5,12.5,10.8,16.5,18.8
		c4.7,9.4,7,21.2,14.5,30.1c8,9.5,20,13.3,31.1,17.9c30.5,12.6,59.1,36.6,78,64.1c10,14.6,17.8,29.8,23.2,45.6
		c6.3,18.7,8.3,35.1,9.9,54c1.9,21.8,5.1,43.5,18.4,61.6c11.1,15,26.6,26.7,34.6,43.4c0.1,0.2,0.9,2.1,0.9,2.2
		c0.3,0.8,0.5,1.6,0.8,2.4c0.6,2,1.1,4,1.5,6.1c0.1,0.7,0.3,1.4,0.4,2.2c0,0.2,0.1,0.5,0.1,0.6c0.2,2.1,0.3,4.2,0.3,6.3
		c0,2.1-0.1,4.2-0.2,6.3c0,0.6-0.1,1.2-0.2,1.8c-0.1,0.4-0.2,1.4-0.3,1.7c-0.8,3.7-1.6,7.4-2.9,11c-0.1,0.3-0.7,1.8-0.9,2.4
		c-0.3,0.6-1,2.3-0.9,2.1c-0.7,1.5-1.5,3-2.4,4.5c-2.1,3.7-3.4,5.6-5.2,7.7c-5.3,6.2-8.7,9-15.6,12.5c-3-1.8-5.9-3.6-8.9-5.4
		c-2.7-1.7-5.5-3.3-8.2-5c-0.8-0.5-2.9-2-2.8-1.8c-0.8-1.8,0.3-5.6,0.4-7.4c0.2-2.7,0.2-5.4,0.1-8.2c-0.2-5.2-0.9-10.5-2-15.6
		c-3.9-18-13.6-34.1-27.1-46.4c13.6-24.6,5.8-59.2-20-73.1c-10-5.4-19,9.9-8.9,15.3c18,9.7,24.6,37.2,11,53.3
		c-4,4.7-3,10.3,1.8,13.9c15.5,11.5,25.9,30.5,27.4,49.7c0.8,10.4-3.3,22.8,5,31.1c4.2,4.2,10.2,7,15.3,10l10.1,6.1
		c0.2,0.6,0.5,1.2,0.8,1.7c1,1.7,2.3,3,3.7,4c0.3,0.6,0.6,1.3,1,1.9c1.1,1.6,2.2,3.2,3.1,5c0.2,0.4,0.4,0.9,0.6,1.3
		c0.1,0.3,0.5,1.2,0.6,1.5c0.5,1.6,1,3.3,1.4,5c0.1,0.6,0.2,1.2,0.3,1.7c0,0.3,0.1,0.7,0.1,1.1c0.1,1.7,0.2,3.5,0.1,5.2
		c0,0.8-0.1,1.5-0.1,2.3c0,0.2-0.1,1.3-0.2,1.9c-0.1,0.4-0.2,1-0.2,1.1c-0.2,1-0.4,1.9-0.6,2.8c-0.4,1.5-0.8,3-1.3,4.5
		c0,0-0.5,1.3-0.7,1.9c-0.2,0.4-0.4,0.9-0.5,1c-0.8,1.6-1.6,3.1-2.5,4.6c-0.5,0.8-1,1.6-1.6,2.4c-0.1,0.1-0.4,0.6-0.7,1
		c-0.4,0.4-1.1,1.4-1.2,1.5c-0.5,0.6-1,1.1-1.6,1.7c-1.2,1.2-2.5,2.4-3.8,3.5c-0.1,0.1-0.1,0.1-0.2,0.2c-0.1,0.1-0.3,0.2-0.4,0.3
		c-0.7,0.4-1.3,0.8-1.9,1.2c-0.7,0.4-1.3,0.8-2,1.1c0,0-1.2,0.6-1.7,0.9c-0.4,0.2-0.9,0.4-1,0.4c-0.9,0.3-1.9,0.6-2.8,0.9
		c-8.9,2.5-12.9,14.7-5.6,21.3c12.6,11.6,17.4,28.9,12.4,44.7c-2.3,7.2-7.1,13.8-13.6,19.3c-0.7,0.6-0.1,0.1-1.4,1c-1,0.7-2,1.3-3,2
		c-1.7,1.1-3.5,2-5.3,2.9c-0.2,0.1-1.6,0.7-1.8,0.8c-1.1,0.4-2.2,0.8-3.4,1.1c-1.1,0.3-2.3,0.6-3.4,0.9c-0.3,0.1-3.1,0.6-1.5,0.4
		c-6.1,0.8-13.7,5.3-12.8,12.8c3.8,29.4-0.4,59.1-13.2,85.6c-5.6,11.7-12.7,22.9-21,32.6c-9.8,11.4-19.8,22.7-23.3,37.8
		c-2,8.8-2.2,17.8-2.2,26.8c-0.6,0.5-1.1,1.1-1.5,1.9c-7.1,11.1-21.5,14.5-33.4,9.6c-4.4-1.8-9.7,2-10.9,6.2
		c-1.4,5,1.8,9.1,6.2,10.9c12.6,5.2,26.8,3.4,38.3-3.3c-1.5,8.8-4.4,18.6-7.8,26c-10.7,23.2-27.8,41-50.9,51.9
		c-22.6,10.7-49.2,12.4-73.2,5.6c-6.9-2-13.6,2.4-15.7,8.9c-3.6,10.8-11.6,19.8-22.5,25.7c-10.2,5.6-22.6,7.6-33.6,4.6
		c-1.6-0.4-3.1-0.9-4.7-1.5c0.2,0-2.9-1.4-3.3-1.6c-1.5-0.8-3.1-1.7-4.5-2.7c-0.3-0.2-2.5-1.8-2-1.4c-5.7-4.5-9-8.5-12.3-14
		c-0.9-1.5-1.7-3.1-2.5-4.7c0-0.1-1-2.3-1-2.3c-1.2-3.1-2.1-6.3-2.8-9.6c-0.6-2.8-0.8-6.8-0.6-10.6c0.5-0.4,1-0.7,1.4-1.2
		c5.2-5.2,4.4-12.8,0-18.1c-4-4.8-7.9-11.3-10.8-17.5c-12.9-27-13.8-59.7-16.5-89.7c-3.4-37.8-6.3-75.7-8.7-113.6
		c-2.1-33.7-3.9-67.4-5.3-101.1c12.9,5.8,27.1-3.1,36.4-12.1c4.5-4.3,10.2-11.3,17.1-11.3c1.9,0,2.7,0.3,3.6,1.9
		c0,0.1,0.4,0.8,0.5,0.9c0.8,1.7-0.5,0.7,0,0.2c-7.9,8.2,4.6,20.7,12.5,12.5c6.3-6.4,6.5-16,1.7-23.4c-5.4-8.4-15.1-11-24.5-8.9
		c-10.1,2.3-17.3,9.9-24.6,16.8c-4.6,4.4-11.7,10.5-18,5.8c-1.6-1.2-3.6-1.5-5.5-1.2c-1.3-35.2-2.2-70.5-2.7-105.8
		C737.3,729.2,738.2,653.5,741.1,577.9z"/>
	<path style="fill:#465662;" d="M779.4,1053.8c14-6.2,17.2-22.6,19.1-36.3c1.3-9.4,2.1-18.9,5.1-28c2.9-8.5,7.4-15.9,13-22.8
		c9.8-12.1,23.4-21.5,30.8-35.4c5.4-10.1,8.3-24.3-1.4-32.6c-3.6-3.1-3.2-9.3,0-12.5c3.6-3.6,8.9-3.1,12.5,0
		c10.2,8.7,12.8,22.2,10.8,35c-2.1,13.6-9.4,25.1-18.5,35.1c-2.8,3.1-5.9,6.1-8.9,9.1c1,1.3,1.7,2.9,1.8,4.9
		c0.5,7.8,6.9,13.3,14.3,14.6c4.7,0.8,7.4,6.6,6.2,10.9c-1.4,5-6.2,7-10.9,6.2c-11.8-2-21-10.7-25-21.4c-1.7,2.2-3.2,4.5-4.5,7
		c-7.5,13.6-6.6,30-9.8,44.9c-3.2,14.8-11.1,30.3-25.5,36.8c-4.4,1.9-9.5,1.3-12.1-3.2C774,1062.2,775,1055.8,779.4,1053.8z"/>
	<path style="fill:#465662;" d="M796.1,1083.3c0.5-4.8,3.7-8.8,8.8-8.8c4.4,0,9.3,4.1,8.8,8.8c-0.7,7.3,4.2,14.8,12,15
		c11.4,0.4,11.4,18.1,0,17.7C809.1,1115.4,794.4,1100.4,796.1,1083.3z"/>
	<path style="fill:#465662;" d="M800.4,814.3c-5,1.4-9.1-1.7-10.9-6.2c-9-22.7,7.3-47.2,30.9-49.7c21.8-2.3,35.7,14.5,43.2,32.7
		c6.1,14.9,9.5,33.9,24.4,42.6c5.1,3,10.6,5.3,15.9,8c0.8-0.6,1.7-1.1,2.9-1.4c15-4.6,28.9-12.1,40.9-21.9c0.3-0.3,0.7-0.6,1.1-0.9
		c9.3-7.7,17.5-16.8,24.1-26.9c6.2-9.5,21.5-0.6,15.3,8.9c-6,9.2-13.1,17.6-21,25.1c7.5,6.8,15,13.5,22.5,20.3
		c8.5,7.6-4.1,20.1-12.5,12.5c-7.9-7.1-15.8-14.2-23.6-21.3c-10.2,7.5-21.3,13.6-33.2,18.2c5.6,6.9,8.9,15.3,10.9,23.9
		c0.3,0,0.6,0.1,0.9,0.2c25.6,5.8,48.4,19.2,66,37.5c0.3-0.1,0.5-0.1,0.8-0.2c28.3-4.3,53.5-20.6,68.3-45.3
		c5.8-9.8,21.1-0.9,15.3,8.9c-15.6,26.1-41.9,45.3-71.5,52c12,17,20.2,36.8,23.1,58.1c2.2,16.2,1.5,32.4-2.1,48.3
		c-2.5,11.1-19.6,6.4-17.1-4.7c7-30.9,0.8-63.9-17-90.1c-15-22.2-38-38.2-63.5-45.6c2.3,17.4,3.3,35.3,3.4,52.6
		c0.1,22.3-2.1,45.4-10.5,66.3c-4.3,10.7-9.9,20.5-17.2,29.5c-6.8,8.4-14.8,15.8-21.5,24.3c-5.1,6.5-10.5,14.7-9.1,23.4
		c1.6,10.4,10.8,18.2,15.6,27.1c4.7,8.8,5.8,18.1,4.1,26.9c1.6,0.7,3,1.9,3.8,3.5c7.9,17.4,25.4,28.2,44.6,27.1
		c11.4-0.6,11.3,17.1,0,17.7c-2.3,0.1-4.6,0.1-6.9,0c1.6,6.5,1.2,13.4-1.6,19.8c-3.2,7.4-9.4,13-16.6,16.1c3.6,14-2.4,30-14.7,38.2
		c-9.5,6.3-18.4-9-8.9-15.3c8.3-5.5,8.8-17.3,3.2-24.8c-4.1-5.5,1.5-13.3,7.6-13.3c11.8,0.1,19.1-13.5,10.8-22.8
		c-1-1.2-1.7-2.4-2-3.6c-11.2-5.1-20.9-13.5-27.3-24c-4.5,6.2-10.4,11.6-17.3,15.4c-25.5,14.1-56.3,4.1-79.4-10.1
		c-9.7-5.9-0.8-21.2,8.9-15.3c16.7,10.2,39.7,20.1,59.1,11.3c14.8-6.7,25.5-24,16.7-39.3c-5.1-8.8-12.2-16.1-15.5-25.9
		c-3.3-9.7-1.9-19.8,2.2-28.9c8.1-17.9,25.1-29.5,35.8-45.6c22.5-34,20-78,16.3-116.7c-1.6-16.7-1.5-40.8-17.4-51
		c-9-5.7-19.3-8.6-27.7-15.2c-6.4-5.1-11.2-12-14.7-19.4c-4-8.3-6.7-17.1-10-25.6c-2.8-7.2-6.2-15-12.3-19.7
		c-6.3-4.9-15.6-5.4-22.6-0.9c-8.3,5.3-10,15.8-6.6,24.4C808.3,807.9,804.6,813.2,800.4,814.3z"/>
	<path style="fill:#465662;" d="M771,653.3c3.7-10.7,20.8-6.1,17.1,4.7c-4.3,12.7,1.6,27.2,13.3,33.6c8.2,4.4,18.3,2.6,27.2,2.4
		c9.6-0.2,19.3,1.1,28.3,4.5c8.8,3.3,16.8,8,23.9,14.1c7.4,6.4,12.4,15.2,20,21.4c11.5,9.4,29,9.6,41.7,2.5
		c5.9-3.3,10.7-7.9,14.4-13.3c0.5-1.8,1.5-3.4,2.8-4.7c4.4-8.4,6.4-18.1,6.1-27.6c-0.4-11.4,17.3-11.4,17.7,0
		c0.3,9.5-1.3,19.2-4.8,28.3c25.5,7.8,48,24.3,63.5,46.1c19.2,27.2,25.5,62.2,18.6,94.6c-2.4,11.1-19.4,6.4-17.1-4.7
		c5.9-27.9-0.4-57.7-16.9-80.9c-13.7-19.3-34.3-32.8-56.9-39.1c-2.7,3.6-5.7,7-9.2,9.9c-15.4,13.1-37.5,17.9-56.6,10.8
		c-10.3-3.8-18-10.6-25-18.9c-6.8-8.1-13.8-15.1-23.5-19.8c-9.5-4.6-19.6-5.8-30-5.4c-11.5,0.5-22.9,0.7-33.3-4.9
		C774.2,696.9,764.2,673.2,771,653.3z"/>
	<path style="fill:#465662;" d="M742.8,596.1c10.2-10.8,21-21.5,35.2-26.9c11.6-4.4,25.8-4.2,36.6,2.3c11,6.5,16.3,18.3,14.2,30.8
		c-2,12.1-11.2,21.3-23.4,22.3c-4.8,0.4-8.8-4.4-8.8-8.8c0-5.1,4.1-8.4,8.8-8.8c3.7-0.3,6.3-5.8,6.3-10.3c0-6-4.9-10.3-11.2-11.9
		c-18.6-4.8-33.9,12-45.3,24C747.4,616.9,734.9,604.3,742.8,596.1z"/>
	<path style="fill:#465662;" d="M751.9,537.4c36.2-23,81.6-33.7,121.9-14.6c17.7,8.4,35.2,24.1,40.1,43.8c5,20.1-3.3,43.2-13.4,60.5
		c-5.6,9.5-12.5,18.2-20.4,25.8c12.7,7.5,23,18.9,29,32.4c5.3-6.6,11.2-12.8,18.1-17.9c11.5-8.6,24.8-11.6,38.8-13.5
		c11.2-1.5,23.7-1.6,34-6.7c11-5.5,15.5-16.6,14.2-28.5c-1.4-12.7-9.1-23.5-17.7-33c-11.8,15.8-27.8,28.5-46.5,36.4
		c-4.4,1.8-9.7-2-10.9-6.2c-1.4-5.1,1.8-9,6.2-10.9c32.7-13.7,55.2-48.2,55.8-83.5c0.2-11.4,17.9-11.4,17.7,0
		c-0.3,17.3-4.8,33.9-12.5,48.7c9.7,10.4,18.6,21.9,23.1,35.6c4.6,14.2,3.7,31.5-5.3,43.8c-18.1,24.6-50.4,16.9-75.7,26.1
		c-15.6,5.6-25.9,20.6-35,33.6c-3.8,5.4-14.9,6.2-16.2-2.1c-2.8-18.6-14.7-34.7-31.8-42.1c-3.6,2.5-7.3,4.7-11.1,6.7
		c-10.1,5.3-19-9.9-8.9-15.3c2.9-1.6,5.8-3.3,8.6-5.1c1.1-3.4,4.1-6.2,8.1-6c7.3-5.9,13.7-12.7,19-20.5
		c9.3-13.5,17.1-30.7,16.8-47.4c-0.4-16.8-15-30-28.7-37.5c-14.7-8-31.8-10.8-48.4-9.5c-21.5,1.7-41.7,10.5-59.7,22
		C751.2,558.8,742.3,543.5,751.9,537.4z"/>
	<path style="fill:#465662;" d="M848.6,417.7c1.7-11.8,12.2-20.3,23.3-22.9c13.2-3,25.8,1.3,35.5,10.5c10.1,9.5,15.8,22.7,20.5,35.5
		c5.4,14.9,9.1,30.5,11.5,46.2c2.8,18.4,4,36.8,4.3,55.4c0.2,11.4-17.5,11.4-17.7,0c-0.5-34.3-4.2-68.9-16.7-101.1
		c-4.2-10.8-10.9-24.6-22.6-28.8c-8.6-3.1-19.7,0.7-21,10c-0.7,4.7-6.7,7.3-10.9,6.2C849.7,427.2,847.9,422.4,848.6,417.7z"/>
	<path style="fill:#465662;" d="M1016,673.6c17.6,1.6,33.6,14.7,36.1,32.7c0.7,4.7-1.1,9.5-6.2,10.9c-4.1,1.1-10.2-1.4-10.9-6.2
		c-1.4-9.8-8.6-18.8-19-19.7c-4.8-0.4-8.8-3.8-8.8-8.8C1007.2,678,1011.3,673.1,1016,673.6z"/>
	<path style="fill:#465662;" d="M938.8,1036c15.4,0.1,30.7-7.1,39.7-19.7c2.8-3.9,7.7-5.7,12.1-3.2c3.8,2.2,6,8.2,3.2,12.1
		c-12.8,17.8-33,28.6-55,28.5C927.4,1053.6,927.4,1035.9,938.8,1036z"/>
	<path style="fill:#465662;" d="M926.5,1130.4c8-8,9.8-20.6,4.1-30.5c-5.7-9.9,9.6-18.8,15.3-8.9c9.6,16.7,6.7,38.3-6.9,51.9
		C930.9,1151,918.4,1138.5,926.5,1130.4z"/>
	<path style="fill:#465662;" d="M978.9,1096.4c16.3-8.4,36.4-5.7,49.4,7.4c8,8.1-4.5,20.6-12.5,12.5c-7.2-7.3-18.7-9.5-28-4.7
		C977.7,1116.9,968.7,1101.6,978.9,1096.4z"/>
	<path style="fill:#465662;" d="M848.6,1219.2c9.9-5.6,18.8,9.6,8.9,15.3c-17.9,10.2-27.5,32.1-22.3,52.1c2.8,11-14.2,15.7-17.1,4.7
		C811.1,1263.8,823.8,1233.3,848.6,1219.2z"/>
</g>
<g id="Lampe_Windung">
	<path style="fill:#79C5B6;" d="M936.4,1417.5c-0.4-1.7-1-3.4-1.7-5c1.2-7.8-1.1-16-6.8-22.4c-13.2-14.9-37.7-19.6-60.3-20.6
		c-12.3-0.5-24.7,0.4-37,1.1c-14.5,0.8-29,1.9-43.5,3.1c-29.4,2.4-58.8,5.3-88.2,7.9c-58.2,5.2-117,9.3-175.6,5.9
		c-14.4-0.8-30.1-2.3-42.8,4.2c-4.8,2.5-8.8,5.6-11.9,9.1c-2.2,1.4-3.8,3.3-4.7,5.6c-0.4,1.2-0.8,2.4-1.1,3.6
		c-0.7,1.8-1.3,3.7-1.7,5.6c-1.8,8.7-1.5,17.3-0.1,26c1.5,9.5,3.7,19.5,11.2,27.5c4.3,4.6,9.5,8.6,16.2,11.2
		c7.5,2.9,15.3,4.1,23.6,4.7c6.7,0.4,13.5,0.2,20.2,0c7.7-0.2,15.3-0.3,23-0.5c30-0.6,60-1.2,90-2c60.2-1.5,120.4-3.4,180.5-6.5
		c26.8-1.4,55.9-1.5,80-11.7C928.2,1455.2,940.7,1436.7,936.4,1417.5z M497.4,1453.6c-0.1-0.1-0.2-0.3-0.3-0.4
		c-0.1-0.1-0.1-0.2-0.2-0.4c-0.1-0.1-0.1-0.3-0.2-0.4C496.6,1452.1,496.9,1452.2,497.4,1453.6z"/>
	<path style="fill:#79C5B6;" d="M936.4,1533.6c-0.4-1.7-1-3.4-1.7-5c1.2-7.8-1.1-16-6.8-22.4c-13.2-14.9-37.7-19.6-60.3-20.6
		c-12.3-0.5-24.7,0.4-37,1.1c-14.5,0.8-29,1.9-43.5,3.1c-29.4,2.4-58.8,5.3-88.2,7.9c-58.2,5.2-117,9.3-175.6,5.9
		c-14.4-0.8-30.1-2.3-42.8,4.2c-4.8,2.5-8.8,5.6-11.9,9.1c-2.2,1.4-3.8,3.3-4.7,5.6c-0.4,1.2-0.8,2.4-1.1,3.6
		c-0.7,1.8-1.3,3.7-1.7,5.6c-1.8,8.7-1.5,17.3-0.1,26c1.5,9.5,3.7,19.5,11.2,27.5c4.3,4.6,9.5,8.6,16.2,11.2
		c7.5,2.9,15.3,4.1,23.6,4.7c6.7,0.4,13.5,0.2,20.2,0c7.7-0.2,15.3-0.3,23-0.5c30-0.6,60-1.2,90-2c60.2-1.5,120.4-3.4,180.5-6.5
		c26.8-1.4,55.9-1.5,80-11.7C928.2,1571.3,940.7,1552.7,936.4,1533.6z M497.4,1569.6c-0.1-0.1-0.2-0.3-0.3-0.4
		c-0.1-0.1-0.1-0.2-0.2-0.4c-0.1-0.1-0.1-0.3-0.2-0.4C496.6,1568.1,496.9,1568.3,497.4,1569.6z"/>
	<path style="fill:#125280;" d="M883.2,1660c-0.7-4.7-1.8-9.3-3.3-13.7c-2.2-6.9-9.2-13.6-17-13c-76.5,5.9-153.3,8.3-230,7.1
		c-6.5-0.1-13-0.2-19.5-0.4c-2.9-0.2-5.8-0.5-8.7-0.7c-13.8-1.1-27.5-2.2-41.3-3.3c-13.4-1.1-28.7-1.3-40.2,6.9
		c-4.3,3-8,6.9-10.8,11.2c-4,4.3-6.4,10-6.7,16.3c-0.3,5.7,1.2,11.8,2.2,17.4c1.6,9.2,3.7,18.3,6.3,27.3
		c11.3,37.8,32.7,74.5,67,95.7c20.5,12.7,44.3,17.5,68.2,18.7c22.3,1.1,44.9,0.1,67-2.5c45.3-5.4,91.2-19.2,124.8-51.6
		C871.8,1745.7,889.9,1702.9,883.2,1660z"/>
</g>
<g id="Light_strikes">
	<path style="fill:#EFE4A6;" d="M135.8,652.9c-3.8-11.7-14.9-18-26.9-15.3c-23.1,5.2-46.2,10.4-69.3,15.7
		c-11.2,2.5-18.8,16-15.3,26.9c3.8,11.7,14.9,18,26.9,15.3c23.1-5.2,46.2-10.4,69.3-15.7C131.7,677.3,139.3,663.8,135.8,652.9z"/>
	<path style="fill:#EFE4A6;" d="M132.6,504.1c-23.4-8.4-48-13-72.8-14.4c-11.4-0.6-22.4,10.5-21.9,21.9c0.6,12.4,9.6,21.2,21.9,21.9
		c5.5,0.3,11.4,1.6,16.9,1.5c1.2,0.2,2.4,0.4,3.6,0.6c2.8,0.5,5.6,1,8.4,1.6c11,2.3,21.7,5.3,32.2,9.1c10.8,3.9,24.4-4.4,26.9-15.3
		C150.7,518.7,144.2,508.3,132.6,504.1z"/>
	<path style="fill:#EFE4A6;" d="M211.3,374.7c-24-19.9-49.5-37.8-76.6-53.1c-10-5.6-24.4-2.7-29.9,7.9c-5.5,10.4-2.8,23.9,7.9,29.9
		c12.5,7.1,24.7,14.6,36.6,22.8c5.8,4,11.6,8.1,17.2,12.4c1.3,1,2.6,1.9,3.8,2.9c0.5,0.4,1,0.8,1.3,1.1c3,2.3,5.9,4.7,8.8,7.1
		c4.6,3.8,9.3,6.4,15.5,6.4c5.4,0,11.8-2.4,15.5-6.4C218.7,397.6,220.7,382.5,211.3,374.7z"/>
	<path style="fill:#EFE4A6;" d="M310,255.7l-49.3-49.3c-8.1-8.1-23-8.7-30.9,0c-8,8.7-8.6,22.3,0,30.9
		c16.4,16.4,32.8,32.8,49.3,49.3c8.1,8.1,23,8.7,30.9,0C318,277.9,318.6,264.4,310,255.7z"/>
	<path style="fill:#EFE4A6;" d="M427.7,163.9c-13.7-28.4-31.2-54.6-51.4-78.8c-7.4-8.8-23.4-8.2-30.9,0c-8.6,9.4-7.9,21.6,0,30.9
		c2.5,3,5,6.1,7.5,9.2c0,0,0,0.1,0.1,0.1c0,0.1,0.1,0.1,0.1,0.2c1.2,1.6,2.4,3.2,3.5,4.7c4.2,5.8,8.3,11.7,12.1,17.7
		c7.9,12.2,14.9,25,21.3,38.1c5,10.3,20.6,13.9,29.9,7.9C430.4,187,433,175,427.7,163.9z"/>
	<path style="fill:#EFE4A6;" d="M603.1,100.8c-2-4-4.3-8.1-5.8-12.3c0.4,1.2,0.6,1.2-0.3-0.9c-0.5-1.2-0.9-2.3-1.4-3.5
		c-0.9-2.3-1.8-4.7-2.6-7c-3.3-9.5-6-19.1-8.2-28.9c-2.5-11.2-16.1-18.8-26.9-15.3c-11.7,3.8-18,14.9-15.3,26.9
		c4.9,21.9,12.7,43,22.7,63.1c5.1,10.3,20.5,13.9,29.9,7.9C605.8,124,608.6,111.8,603.1,100.8z"/>
	<path style="fill:#EFE4A6;" d="M770.3,114.8c-1.3-5.3-2.3-10.7-3.2-16.1c-0.1-0.7-0.3-1.6-0.5-2.4c0-0.4,0-0.8,0-1.1
		c-0.3-2.8-0.6-5.7-0.8-8.6c-0.9-10.9-0.9-21.9-0.1-32.8c0.8-11.4-10.6-22.4-21.9-21.9c-12.5,0.6-21.1,9.6-21.9,21.9
		c-1.6,24.3,0.7,48.8,6.3,72.5c2.6,11.2,16,18.8,26.9,15.3C766.6,137.9,773.1,126.7,770.3,114.8z"/>
	<path style="fill:#EFE4A6;" d="M942.3,98.4c-9.8-5.2-24.6-3.2-29.9,7.9L887,158.8c-5,10.3-3.2,24.1,7.9,29.9
		c9.8,5.2,24.6,3.2,29.9-7.9l25.3-52.5C955.1,118,953.3,104.2,942.3,98.4z"/>
	<path style="fill:#EFE4A6;" d="M1109.7,194.9c-9-8.3-22-8.3-30.9,0c-24,22.3-45.4,47.2-64.3,74c-6.6,9.4-2,24.7,7.9,29.9
		c11.2,5.9,22.9,2.2,29.9-7.9c2.3-3.3,4.6-6.5,7-9.7c1-1.4,2-2.8,3.1-4.2c0.3-0.3,0.6-0.7,0.7-0.9c4.8-6.1,9.7-12,14.8-17.8
		c10-11.4,20.6-22.3,31.8-32.6C1118.1,218,1118.2,202.7,1109.7,194.9z"/>
	<path style="fill:#EFE4A6;" d="M1252.2,347.1c-6.6-10.2-19.2-13.7-29.9-7.9c-27.8,15.2-53.7,34-76.9,55.6c-8.4,7.8-8.5,23.2,0,30.9
		c9,8.3,22,8.3,30.9,0c5.4-5,10.9-9.8,16.6-14.5c1.5-1.2,3-2.5,4.6-3.7c0.5-0.4,1.1-0.8,1.6-1.2c2.7-2,5.3-4,8-5.9
		c11.9-8.5,24.4-16.3,37.3-23.4C1254.4,371.5,1258.4,356.8,1252.2,347.1z"/>
	<path style="fill:#EFE4A6;" d="M1333,514.7c-6.5-10-19.3-13.9-29.9-7.9c-20.3,11.6-40.5,23.2-60.8,34.9
		c-9.9,5.7-14.2,20.1-7.9,29.9c6.5,10,19.3,13.9,29.9,7.9c20.3-11.6,40.5-23.2,60.8-34.9C1335.1,539,1339.4,524.6,1333,514.7z"/>
	<path style="fill:#EFE4A6;" d="M1381.6,667.3c-3.5-10.9-15.3-19.1-26.9-15.3c-23,7.4-45.9,14.9-68.9,22.3
		c-10.9,3.5-19,15.3-15.3,26.9c3.5,10.9,15.3,19.1,26.9,15.3c23-7.4,45.9-14.9,68.9-22.3C1377.2,690.7,1385.3,678.9,1381.6,667.3z"
		/>
</g>
</svg>
