<?xml version="1.0" encoding="utf-8"?>
<!-- Generator: Adobe Illustrator 19.0.0, SVG Export Plug-In . SVG Version: 6.00 Build 0)  -->
<svg version="1.1" id="Ebene_1" xmlns="http://www.w3.org/2000/svg" xmlns:xlink="http://www.w3.org/1999/xlink" x="0px" y="0px"
	 viewBox="0 0 595.3 841.9" style="enable-background:new 0 0 595.3 841.9;" xml:space="preserve">
<g id="XMLID_41_" style="enable-background:new    ;">
	<g id="XMLID_42_">
		<defs>
			<rect id="XMLID_1_" x="151.8" y="275.1" width="291.7" height="291.7"/>
		</defs>
		<clipPath id="XMLID_43_">
			<use xlink:href="#XMLID_1_"  style="overflow:visible;"/>
		</clipPath>
		<path id="XMLID_39_" style="clip-path:url(#XMLID_43_);fill:#973C22;" d="M240.9,275.1c-10.3,0-19.7,3.2-27.6,8.6
			c-1.6-0.3-3.2-0.5-4.9-0.5c-17.9,0-32.4,14.5-32.4,32.4v48.6c0,31.3,25.4,56.7,56.7,56.7c31.3,0,56.7-25.4,56.7-56.7v-40.5
			C289.5,296.9,267.8,275.1,240.9,275.1z"/>
		<path id="XMLID_86_" style="clip-path:url(#XMLID_43_);fill:#D5AC89;" d="M222.8,553.1c0.4,5.5-15,7.7-17.3,6.4
			c-2.4-1.4,5.6-5,5.7-7.9c0.2-14.6-4.3-13.4-2.5-28.3c-3.6-13.2-5.4-21-5.4-25.4c0-10.1,26.8-6.2,26.8,0c0,2.8-2.9,13.6-3.4,25.4
			C229.3,536.7,221.6,536.4,222.8,553.1z M242.7,553.1c-0.4,5.5,15,7.7,17.3,6.4c2.4-1.4-5.7-5-5.7-7.9c-0.2-14.6,4.3-13.4,2.5-28.3
			c3.6-13.2,5.4-21,5.4-25.4c0-10.1-26.8-6.2-26.8,0c0,2.8,3,13.6,3.4,25.4C236.2,536.7,243.9,536.4,242.7,553.1z"/>
		<path id="XMLID_83_" style="clip-path:url(#XMLID_43_);fill:#CC9B7A;" d="M230.1,497.9c0-6.2-26.8-10.1-26.8,0
			c0,1.9,0.4,4.5,1,7.8h24.6C229.5,502,230.1,499.1,230.1,497.9z M262.2,497.9c0-10.1-26.8-6.2-26.8,0c0,1.2,0.6,4.1,1.2,7.8h24.6
			C261.8,502.4,262.2,499.8,262.2,497.9z"/>
		<path id="XMLID_80_" style="clip-path:url(#XMLID_43_);fill:#D5AC89;" d="M299.6,491.9c2.2,0.7,4-1.3,4.8-2.4
			c2.3-3.3,3.4-10.6,0-18.1c-3.4-7.5-7.3-18.5-13.7-30.9c-0.8-1.7-7.8-29.7-11-34.9c-2-3.3-11.2-5.9-15.4-4.6
			c-4.2,1.3-1.3,5.5,0.3,9.2c0,0,11.4,30.9,12.5,33.5c3.6,8.3,16,21.8,16.9,32.4c0.4,5.6,0.8,10.2,4,9.7
			C298.8,488.6,298.8,491.7,299.6,491.9z M178.2,493.5c-2.1,1-4.1-0.8-5-1.8c-2.7-3-4.7-10.1-2.3-17.9c2.4-7.9,4.9-19.3,9.7-32.4
			c0.6-1.8,4.1-30.5,6.5-36c1.6-3.6,10.4-7.3,14.7-6.5c4.3,0.7,2,5.3,0.8,9.2c0,0-7.4,32-8.2,34.8c-2.6,8.7-13.2,23.6-12.7,34.3
			c0.2,5.6,0.5,10.2-2.7,10.1C178.6,490.1,179,493.1,178.2,493.5z"/>
		<path id="XMLID_77_" style="clip-path:url(#XMLID_43_);fill:#2A3034;" d="M200.7,566.8c-2.4,0-3-3.4-0.7-5.1
			c3.1-2.3,7.1-11.1,12.7-11.1h10.1c1.9,0,4,9.8,3.3,12c-0.8,2.8-3.5,4.2-6.6,4.2H200.7z M264.8,566.8c2.5,0,3-3.4,0.8-5.1
			c-3.1-2.3-7.1-11.1-12.7-11.1h-10.1c-1.9,0-4,9.8-3.3,12c0.8,2.8,3.5,4.2,6.6,4.2H264.8z"/>
		<path id="XMLID_30_" style="clip-path:url(#XMLID_43_);fill:#E85B71;" d="M268.1,419.1l13.3-14.3c-11.6-14.5-32.4-16.2-32.4-16.2
			h-32.4c0,0-20.8,1.7-32.4,16.2l13.3,14.3c0,0,4.9,23.6,4.9,26.2c0,2.5-10.1,38.5-10.1,56.7h81c0-18.2-10.1-54.2-10.1-56.7
			C263.2,442.7,268.1,419.1,268.1,419.1z"/>
		<path id="XMLID_29_" style="clip-path:url(#XMLID_43_);fill:#DB3048;" d="M263.2,445.2c0-0.8,0.6-4.1,1.3-8.1h-63.4
			c0.8,4,1.3,7.3,1.3,8.1c0,0.7-1,4.1-1.8,8.1H265C264.1,448.8,263.2,445.9,263.2,445.2z"/>
		<path id="XMLID_28_" style="clip-path:url(#XMLID_43_);fill:#D5AC89;" d="M216.6,364.2v32.4c0,8.9,7.3,16.2,16.2,16.2
			c8.9,0,16.2-7.3,16.2-16.2v-32.4H216.6z"/>
		<path id="XMLID_27_" style="clip-path:url(#XMLID_43_);fill:#CC9B7A;" d="M216.6,385c4.9,5.5,9.5,6.9,16.2,6.9
			c6.6,0,11.3-1.4,16.2-6.9v-6.6h-32.4V385z"/>
		<path id="XMLID_26_" style="clip-path:url(#XMLID_43_);fill:#D5AC89;" d="M273.3,299.4h-81V348c0,22.4,18.1,40.5,40.5,40.5
			c22.4,0,40.5-18.1,40.5-40.5V299.4z"/>
		<path id="XMLID_25_" style="clip-path:url(#XMLID_43_);fill:#973C22;" d="M273.3,291.3h-81l-8.1,40.5c32.4,0,32.4-32.4,32.4-32.4
			s0,32.4,64.8,32.4L273.3,291.3z"/>
		<path id="XMLID_24_" style="clip-path:url(#XMLID_43_);fill:#E02233;" d="M249,372.3h-32.4c0,0,0,8.1,16.2,8.1
			C249,380.4,249,372.3,249,372.3z"/>
		<circle id="XMLID_23_" style="clip-path:url(#XMLID_43_);fill:#662114;" cx="212.6" cy="344" r="4.1"/>
		<circle id="XMLID_22_" style="clip-path:url(#XMLID_43_);fill:#662114;" cx="253.1" cy="344" r="4.1"/>
		<path id="XMLID_21_" style="clip-path:url(#XMLID_43_);fill:#C16A4F;" d="M224.7,356.1h16.2c0,0,0,8.1-8.1,8.1
			S224.7,356.1,224.7,356.1z"/>
		<path id="XMLID_20_" style="clip-path:url(#XMLID_43_);fill:#FFE51F;" d="M419.2,323.7c0-26.8-21.8-48.6-48.6-48.6
			c-10.3,0-19.7,3.2-27.6,8.6c-1.6-0.3-3.2-0.5-4.9-0.5c-17.9,0-32.4,14.5-32.4,32.4v48.6h113.4V323.7z"/>
		<path id="XMLID_63_" style="clip-path:url(#XMLID_43_);fill:#F3D2A2;" d="M352.5,553.1c0.4,5.5-15,7.7-17.3,6.4
			c-2.4-1.4,5.6-5,5.7-7.9c0.2-14.6-4.3-13.4-2.5-28.3c-3.6-13.2-5.4-21-5.4-25.4c0-10.1,26.8-6.2,26.8,0c0,2.8-2.9,13.6-3.4,25.4
			C358.9,536.7,351.2,536.4,352.5,553.1z M372.3,553.1c-0.4,5.5,15,7.7,17.3,6.4c2.4-1.4-5.7-5-5.7-7.9c-0.2-14.6,4.3-13.4,2.5-28.3
			c3.6-13.2,5.4-21,5.4-25.4c0-10.1-26.8-6.2-26.8,0c0,2.8,3,13.6,3.4,25.4C365.8,536.7,373.5,536.4,372.3,553.1z"/>
		<path id="XMLID_60_" style="clip-path:url(#XMLID_43_);fill:#E2C296;" d="M359.8,497.9c0-6.2-26.8-10.1-26.8,0
			c0,1.9,0.4,4.5,1,7.8h24.6C359.2,502,359.8,499.1,359.8,497.9z M391.8,497.9c0-10.1-26.8-6.2-26.8,0c0,1.2,0.6,4.1,1.2,7.8h24.6
			C391.4,502.4,391.8,499.8,391.8,497.9z"/>
		<path id="XMLID_57_" style="clip-path:url(#XMLID_43_);fill:#F3D2A2;" d="M416.8,493.6c2.1,1,4.1-0.8,5-1.8c2.7-3,4.8-10,2.4-17.9
			c-2.4-7.9-3.5-17.4-9.5-32.5c-0.7-1.8-1.1-22.6-5.4-36.3c-1.1-3.7-11.3-7.1-15.6-6.4c-4.3,0.7-1,7.9-0.9,9.2
			c1,13.6,6.1,34.1,7,36.9c4.5,15.4,13.2,21.3,12.7,31.9c-0.3,5.6,0.2,10.6,3.5,10.5C416.5,490.2,416.1,493.2,416.8,493.6z
			 M298.6,491.9c-2.2,0.7-3.9-1.3-4.7-2.4c-2.3-3.3-3.4-10.6,0-18.1c3.4-7.5,5.7-16.8,13.7-30.9c0.9-1.7,4-22.3,10-35.3
			c1.6-3.5,12.1-5.6,16.3-4.3c4.1,1.3,0,7.9-0.3,9.2c-2.8,13.4-10.6,33-11.8,35.7c-6.4,14.6-15.9,19.4-16.7,30
			c-0.5,5.6-1.7,10.4-4.9,10C299.4,488.6,299.4,491.7,298.6,491.9z"/>
		<path id="XMLID_54_" style="clip-path:url(#XMLID_43_);fill:#2A3034;" d="M330.3,566.8c-2.4,0-3-3.4-0.7-5.1
			c3.1-2.3,7.1-11.1,12.7-11.1h10.1c1.9,0,4,9.8,3.3,12c-0.8,2.8-3.5,4.2-6.6,4.2H330.3z M394.4,566.8c2.5,0,3-3.4,0.8-5.1
			c-3.1-2.3-7.1-11.1-12.7-11.1h-10.1c-1.9,0-4,9.8-3.3,12c0.8,2.8,3.5,4.2,6.6,4.2H394.4z"/>
		<path id="XMLID_11_" style="clip-path:url(#XMLID_43_);fill:#8569AB;" d="M397.7,419.1l13.3-14.3c-11.6-14.5-32.4-16.2-32.4-16.2
			h-32.4c0,0-20.8,1.7-32.4,16.2l13.3,14.3c0,0,4.9,23.6,4.9,26.2c0,2.5-10.1,38.5-10.1,56.7h81c0-18.2-10.1-54.2-10.1-56.7
			C392.8,442.7,397.7,419.1,397.7,419.1z"/>
		<path id="XMLID_10_" style="clip-path:url(#XMLID_43_);fill:#A68EC2;" d="M392.8,445.2c0-0.8,0.6-4.1,1.3-8.1h-63.4
			c0.8,4,1.3,7.3,1.3,8.1c0,0.7-1,4.1-1.8,8.1h64.3C393.7,448.8,392.8,445.9,392.8,445.2z"/>
		<path id="XMLID_9_" style="clip-path:url(#XMLID_43_);fill:#F3D2A2;" d="M346.2,364.2v32.4c0,8.9,7.3,16.2,16.2,16.2
			c8.9,0,16.2-7.3,16.2-16.2v-32.4H346.2z"/>
		<path id="XMLID_8_" style="clip-path:url(#XMLID_43_);fill:#E2C296;" d="M346.2,385c4.9,5.6,9.5,7,16.2,7c6.6,0,11.3-1.4,16.2-7
			v-6.6h-32.4V385z"/>
		<path id="XMLID_7_" style="clip-path:url(#XMLID_43_);fill:#F3D2A2;" d="M403,299.4h-81V348c0,22.4,18.1,40.5,40.5,40.5
			c22.4,0,40.5-18.1,40.5-40.5V299.4z"/>
		<path id="XMLID_6_" style="clip-path:url(#XMLID_43_);fill:#FFE51F;" d="M403,291.3h-81l-8.1,40.5c32.4,0,32.4-32.4,32.4-32.4
			s0,32.4,64.8,32.4L403,291.3z"/>
		<path id="XMLID_5_" style="clip-path:url(#XMLID_43_);fill:#E02233;" d="M378.7,372.3h-32.4c0,0,0,8.1,16.2,8.1
			C378.7,380.4,378.7,372.3,378.7,372.3z"/>
		<circle id="XMLID_4_" style="clip-path:url(#XMLID_43_);fill:#662114;" cx="342.2" cy="344" r="4.1"/>
		<circle id="XMLID_3_" style="clip-path:url(#XMLID_43_);fill:#662114;" cx="382.7" cy="344" r="4.1"/>
		<path id="XMLID_2_" style="clip-path:url(#XMLID_43_);fill:#C16A4F;" d="M354.4,356.1h16.2c0,0,0,8.1-8.1,8.1
			C354.4,364.2,354.4,356.1,354.4,356.1z"/>
	</g>
</g>
</svg>
