<?xml version="1.0" encoding="utf-8"?>
<!-- Generator: Adobe Illustrator 19.0.0, SVG Export Plug-In . SVG Version: 6.00 Build 0)  -->
<svg version="1.1" id="Ebene_1" xmlns="http://www.w3.org/2000/svg" xmlns:xlink="http://www.w3.org/1999/xlink" x="0px" y="0px"
	 viewBox="0 0 351 520" style="enable-background:new 0 0 351 520;" xml:space="preserve">
<g style="enable-background:new    ;">
	<g>
		<defs>
			<rect id="SVGID_1_" x="-80.3" y="4.3" width="510.7" height="510.7"/>
		</defs>
		<clipPath id="SVGID_2_">
			<use xlink:href="#SVGID_1_"  style="overflow:visible;"/>
		</clipPath>
		<path style="clip-path:url(#SVGID_2_);fill:#FFDC5D;" d="M345.4,290.6c0,0,1.3-33.5-25.4-43.5c-23.6-8.9-32.7,8.9-32.7,8.9
			s0.8-27.2-27.6-37.2c-26.8-9.5-42.4,10.9-42.4,10.9s-1-23.9-29.2-31.6c-23.7-6.5-41.4,16.6-41.4,16.6v-11.7
			c0-13.6-7.7-36.5-36.1-36.5c-28.4-0.1-34.9,23.5-34.9,36.5v22.9c0,18.8-13.4,2.8-23.2,11.7c-22.2,20.2-32.2,91.3-16.8,149
			c18.6,70,57.6,129.1,137.5,129.1c115.4,0,172-75.1,172.1-169.1V290.6z"/>
		<path style="clip-path:url(#SVGID_2_);fill:#FFDC5D;" d="M93.5,231.3l-32.8,0.1c-23.1,0-30.4,6.6-39.9,44.3
			c-6.2,24.5-14,36.1-14,62.3c0,41.2,65.2,175.2,161.2,175.8L93.5,231.3z M217.6,266.7c0,19.6-15.9,35.5-35.5,35.5
			c-19.6,0-35.5-15.9-35.5-35.5v-227c0-19.6,15.9-35.5,35.5-35.5c19.6,0,35.5,15.9,35.5,35.5V266.7z"/>
		<path style="clip-path:url(#SVGID_2_);fill:#EF9645;" d="M61.5,366.3c0,3.5,2.9,6.8,6.5,6.8h1.2c3.6,0,6.5-2.9,6.5-6.5V231.3H62
			L61.5,366.3z"/>
	</g>
</g>
</svg>
