<?xml version="1.0" encoding="utf-8"?>
<!-- Generator: Adobe Illustrator 19.0.0, SVG Export Plug-In . SVG Version: 6.00 Build 0)  -->
<svg version="1.1" id="Ebene_1" xmlns="http://www.w3.org/2000/svg" xmlns:xlink="http://www.w3.org/1999/xlink" x="0px" y="0px"
	 viewBox="0 0 495.3 496.7" style="enable-background:new 0 0 495.3 496.7;" xml:space="preserve">
<path style="fill:#FFCC4D;" d="M489.7,248.7c0,133.7-108.3,242-242,242s-242-108.3-242-242s108.3-242,242-242S489.7,115,489.7,248.7
	"/>
<path style="fill-rule:evenodd;clip-rule:evenodd;fill:#292F33;" d="M22.3,154.8c3.2,3.2,19.3,12.9,22.6,22.6
	c3.2,9.7,9.7,64.3,29,80.4c20,16.6,95.2,10.4,109.6,3.2c32.2-16,36.1-60.9,41.9-83.6c3.2-12.9,22.6-12.9,22.6-12.9s19.3,0,22.6,12.9
	c5.7,22.8,9.7,67.6,41.9,83.6c14.4,7.2,89.6,13.4,109.6-3.2c19.3-16.1,25.8-70.8,29-80.5c3.2-9.7,19.3-19.3,22.6-22.5
	c3.2-3.2,3.2-16.1,0-19.3c-6.5-6.5-82.5-12.2-164.4-3.2c-16.3,1.8-22.6,6.4-61.2,6.4c-38.7,0-44.9-4.7-61.2-6.4
	c-81.9-9-157.9-3.2-164.4,3.2C19.1,138.7,19.1,151.6,22.3,154.8z"/>
<path style="fill:#664500;" d="M373.2,324.4c-2.4-2.2-6-2.3-8.6-0.4c-0.5,0.4-52.7,39-116.9,39c-64.1,0-116.5-38.6-116.9-39
	c-2.6-1.9-6.2-1.7-8.6,0.4c-2.4,2.1-2.9,5.7-1.3,8.4c1.7,2.9,43.2,70.5,126.7,70.5c83.5,0,125.1-67.6,126.8-70.5
	C376.1,330.1,375.6,326.5,373.2,324.4z"/>
</svg>
