<?xml version="1.0" encoding="utf-8"?>
<!-- Generator: Adobe Illustrator 19.0.0, SVG Export Plug-In . SVG Version: 6.00 Build 0)  -->
<svg version="1.1" id="Ebene_1" xmlns="http://www.w3.org/2000/svg" xmlns:xlink="http://www.w3.org/1999/xlink" x="0px" y="0px"
	 viewBox="-84 209.4 425.4 422.5" style="enable-background:new -84 209.4 425.4 422.5;" xml:space="preserve">
<path id="XMLID_5_" style="fill:#FECC4F;" d="M334.7,422.4c0,113.7-92.1,205.8-205.8,205.8S-76.9,536.1-76.9,422.4
	c0-113.6,92.1-205.8,205.8-205.8S334.7,308.8,334.7,422.4"/>
<path id="XMLID_4_" style="fill:#664710;" d="M128.9,466.4c-33.9,0-56.5-3.9-84.3-9.4c-6.4-1.3-18.7,0-18.7,18.7
	c0,37.5,43,84.3,103,84.3s103-46.8,103-84.3c0-18.7-12.3-20-18.7-18.7C185.4,462.5,162.9,466.4,128.9,466.4"/>
<path id="XMLID_10_" style="fill:#DE2F45;" d="M144.3,254.2c9.8-27.8,40.3-42.4,68.1-32.6c16.9,6,28.8,19.5,33.5,35.5
	c13.6-9.5,31.4-12.6,48.3-6.7c27.8,9.8,42.4,40.3,32.6,68.1c-1.4,3.9-3.3,7.6-5.4,10.9c-22.3,41-86.8,69.7-125.8,70.1
	c-30.1-24.8-62.2-87.7-53.9-133.5C142.1,262.1,143,258.1,144.3,254.2z M113.5,254.2c-9.8-27.8-40.3-42.4-68.1-32.6
	c-16.9,6-28.8,19.5-33.5,35.5c-13.6-9.5-31.4-12.6-48.3-6.7c-27.8,9.8-42.4,40.3-32.6,68.1c1.4,3.9,3.2,7.6,5.4,10.9
	c22.3,41,86.8,69.7,125.8,70.1c30.1-24.8,62.2-87.7,54-133.5C115.7,262.1,114.9,258.1,113.5,254.2z"/>
</svg>
