<?xml version="1.0" encoding="utf-8"?>
<!-- Generator: Adobe Illustrator 19.0.0, SVG Export Plug-In . SVG Version: 6.00 Build 0)  -->
<svg version="1.1" id="Ebene_1" xmlns="http://www.w3.org/2000/svg" xmlns:xlink="http://www.w3.org/1999/xlink" x="0px" y="0px"
	 viewBox="0 0 382 434" style="enable-background:new 0 0 382 434;" xml:space="preserve">
<g style="enable-background:new    ;">
	<g>
		<defs>
			<rect id="SVGID_1_" x="-19.9" y="5.3" width="421.7" height="421.7"/>
		</defs>
		<clipPath id="SVGID_2_">
			<use xlink:href="#SVGID_1_"  style="overflow:visible;"/>
		</clipPath>
		<path style="clip-path:url(#SVGID_2_);fill:#963B22;" d="M108.9,5.3c-14.8,0-28.5,4.6-39.8,12.4c-2.3-0.4-4.6-0.7-7-0.7
			c-25.9,0-46.9,21-46.9,46.9v70.3c0,45.3,36.7,82,82,82c45.3,0,82-36.7,82-82V75.6C179.2,36.8,147.7,5.3,108.9,5.3z"/>
		<path style="clip-path:url(#SVGID_2_);fill:#D4AB88;" d="M82.7,407.1c0.6,8-21.6,11.2-24.9,9.3c-3.5-2,8.2-7.3,8.2-11.4
			c0.2-21.1-6.2-19.3-3.7-40.9c-5.2-19-7.9-30.4-7.9-36.7c0-14.6,38.8-9,38.8,0c0,4-4.3,19.7-4.9,36.7
			C92.1,383.5,80.9,383,82.7,407.1z M111.4,407.1c-0.6,8,21.7,11.2,25,9.3c3.5-2-8.2-7.3-8.2-11.4c-0.2-21.1,6.2-19.3,3.7-40.9
			c5.2-19,7.9-30.4,7.9-36.7c0-14.6-38.8-9-38.8,0c0,4,4.3,19.7,4.9,36.7C102.1,383.5,113.2,383,111.4,407.1z"/>
		<path style="clip-path:url(#SVGID_2_);fill:#CC9B7A;" d="M93.3,327.4c0-9-38.8-14.6-38.8,0c0,2.7,0.5,6.5,1.5,11.3h35.5
			C92.4,333.2,93.3,329.1,93.3,327.4z M139.7,327.4c0-14.6-38.8-9-38.8,0c0,1.8,0.8,5.9,1.8,11.3h35.5
			C139.1,333.8,139.7,330.1,139.7,327.4z"/>
		<path style="clip-path:url(#SVGID_2_);fill:#D4AB88;" d="M193.7,318.7c3.2,1,5.7-1.9,6.9-3.5c3.3-4.8,5-15.3,0.1-26.1
			c-4.9-10.9-10.5-26.8-19.8-44.7c-1.2-2.5-11.3-43-15.9-50.5c-2.9-4.7-16.2-8.5-22.2-6.7c-6,1.8-1.9,7.9,0.4,13.3
			c0,0,16.4,44.6,18.1,48.4c5.2,12.1,23.1,31.5,24.4,46.9c0.6,8.1,1.1,14.7,5.7,14C192.5,313.9,192.5,318.4,193.7,318.7z M18.3,321
			c-3,1.5-5.9-1.1-7.3-2.6c-3.8-4.3-6.8-14.6-3.3-25.9c3.5-11.4,7-28,14-46.9c0.9-2.6,5.9-44.1,9.4-52c2.3-5.1,15-10.5,21.2-9.5
			c6.2,1,2.9,7.6,1.2,13.2c0,0-10.7,46.3-11.9,50.3c-3.7,12.6-19,34.2-18.3,49.6c0.4,8.1,0.7,14.7-4,14.6
			C18.8,316.1,19.4,320.5,18.3,321z"/>
		<path style="clip-path:url(#SVGID_2_);fill:#292F33;" d="M50.7,426.9c-3.5,0-4.3-4.9-1-7.4c4.5-3.3,10.3-16,18.3-16h14.6
			c2.7,0,5.7,14.1,4.8,17.3c-1.2,4-5.1,6.1-9.5,6.1H50.7z M143.4,426.9c3.6,0,4.4-4.9,1.1-7.4c-4.5-3.3-10.3-16-18.3-16h-14.6
			c-2.7,0-5.7,14.1-4.8,17.3c1.2,4,5.1,6.1,9.5,6.1H143.4z"/>
		<path style="clip-path:url(#SVGID_2_);fill:#E75A70;" d="M148.2,213.4l19.3-20.7c-16.8-21-46.9-23.4-46.9-23.4H73.8
			c0,0-30,2.4-46.9,23.4l19.3,20.7c0,0,7.1,34.2,7.1,37.8c0,3.7-14.6,55.6-14.6,82h117.1c0-26.4-14.6-78.3-14.6-82
			C141.1,247.6,148.2,213.4,148.2,213.4z"/>
		<path style="clip-path:url(#SVGID_2_);fill:#DA2F47;" d="M141.1,251.2c0-1.2,0.8-6,1.9-11.7H51.4c1.1,5.7,1.9,10.5,1.9,11.7
			c0,1-1.4,6-2.6,11.7h93C142.4,256.4,141.1,252.2,141.1,251.2z"/>
		<path style="clip-path:url(#SVGID_2_);fill:#D4AB88;" d="M73.8,134.1V181c0,12.9,10.5,23.4,23.4,23.4c12.9,0,23.4-10.5,23.4-23.4
			v-46.9H73.8z"/>
		<path style="clip-path:url(#SVGID_2_);fill:#CC9B7A;" d="M73.8,164.1c7.1,8,13.8,10,23.4,10c9.6,0,16.3-2,23.4-10v-9.5H73.8V164.1
			z"/>
		<path style="clip-path:url(#SVGID_2_);fill:#D4AB88;" d="M155.8,40.4H38.6v70.3c0,32.3,26.2,58.6,58.6,58.6
			c32.3,0,58.6-26.2,58.6-58.6V40.4z"/>
		<path style="clip-path:url(#SVGID_2_);fill:#963B22;" d="M155.8,28.7H38.6L26.9,87.3c46.9,0,46.9-46.9,46.9-46.9s0,46.9,93.7,46.9
			L155.8,28.7z"/>
		<path style="clip-path:url(#SVGID_2_);fill:#DF1F32;" d="M120.6,145.8H73.8c0,0,0,11.7,23.4,11.7
			C120.6,157.5,120.6,145.8,120.6,145.8z"/>
		<circle style="clip-path:url(#SVGID_2_);fill:#662113;" cx="67.9" cy="104.8" r="5.9"/>
		<circle style="clip-path:url(#SVGID_2_);fill:#662113;" cx="126.5" cy="104.8" r="5.9"/>
		<path style="clip-path:url(#SVGID_2_);fill:#C1694F;" d="M85.5,122.4h23.4c0,0,0,11.7-11.7,11.7S85.5,122.4,85.5,122.4z"/>
		<path style="clip-path:url(#SVGID_2_);fill:#963B22;" d="M290.5,5.3c-13.9,0-26.7,4.5-37.3,11.9c-21.6,1.2-38.9,18.9-38.9,40.8
			c0,18.1,0.1,40.8,23.8,49.3c11.7,16.2,30.7,26.8,52.3,26.8c35.6,0,64.4-28.9,64.4-64.4S326,5.3,290.5,5.3z"/>
		<path style="clip-path:url(#SVGID_2_);fill:#D4AB88;" d="M363.2,321.1c3,1.5,5.9-1.1,7.3-2.6c3.8-4.3,6.9-14.5,3.5-25.8
			c-3.5-11.5-5-25.2-13.8-47c-1-2.6-1.5-32.6-7.7-52.5c-1.7-5.4-16.3-10.2-22.5-9.3c-6.2,1-1.4,11.4-1.3,13.2
			c1.5,19.7,8.9,49.3,10.1,53.4c6.5,22.2,19.1,30.7,18.4,46.2c-0.4,8.1,0.4,15.3,5.1,15.2C362.7,316.2,362.1,320.6,363.2,321.1z
			 M192.2,318.7c-3.2,1-5.7-1.9-6.8-3.5c-3.3-4.8-4.9-15.3,0-26.1c4.9-10.9,8.2-24.2,19.8-44.7c1.3-2.4,5.8-32.2,14.5-51
			c2.4-5.1,17.5-8.1,23.6-6.2c6,1.8-0.1,11.5-0.4,13.3c-4,19.3-15.3,47.8-17,51.6c-9.3,21.2-23,28-24.2,43.4
			c-0.7,8.1-2.5,15.1-7,14.4C193.5,313.9,193.4,318.4,192.2,318.7z"/>
		<path style="clip-path:url(#SVGID_2_);fill:#AAB8C2;" d="M326.3,350.8c5.9-32,4.9-76.1,4.9-76.1h-93.3c0,0-0.9,44.1,4.9,76.1
			c0.7,4,2.2,39.2-1.3,64.4c-0.8,5.6,33.8,11,33.3-1.5c-0.9-23.1,3.1-41.1,3.8-52.7c0.4-6.4,2.9-22,4-37.6c0.1-0.2,3.4-0.2,3.6,0
			c1.1,15.6,3.6,31.2,4,37.6c0.7,11.6,4.8,29.7,3.8,52.7c-0.5,12.4,34,7.1,33.3,1.5C324.1,390,325.5,354.8,326.3,350.8z"/>
		<path style="clip-path:url(#SVGID_2_);fill:#292F33;" d="M231,426.9c-5.9-4.8,0.5-13.6,16.7-16.4c13.6-2.4,25.7-0.4,27.7,4.1
			c2.4,5.8,0.5,12.3,0.5,12.3H231z M337.8,426.9c5.8-4.8-0.5-13.6-16.6-16.4c-13.6-2.4-25.8-0.4-27.7,4.1
			c-2.4,5.8-0.5,12.3-0.5,12.3H337.8z"/>
		<path style="clip-path:url(#SVGID_2_);fill:#4289C1;" d="M340.8,178.2c-14.3-9-32.8-9-32.8-9h-46.9c0,0-18.5,0-32.8,9
			c-14.1,8.9-19.4,35.1-19.4,35.1l25.8,8.1l1.3,65h97l1.3-65l25.8-8.1C360.2,213.4,354.9,187.1,340.8,178.2z"/>
		<path style="clip-path:url(#SVGID_2_);fill:#D4AB88;" d="M261.2,122.9v46.9c0,8,10.5,15.3,23.4,15.3c12.9,0,23.4-7.9,23.4-15.3
			v-46.9H261.2z"/>
		<path style="clip-path:url(#SVGID_2_);fill:#CC9B7A;" d="M261.2,164.1c7.1,8.1,13.8,10.1,23.4,10.1c9.6,0,16.3-2.1,23.4-10.1v-9.5
			h-46.9V164.1z"/>
		<path style="clip-path:url(#SVGID_2_);fill:#D4AB88;" d="M343.2,40.4H226v70.3c0,32.3,26.2,58.6,58.6,58.6
			c32.3,0,58.6-26.2,58.6-58.6V40.4z"/>
		<path style="clip-path:url(#SVGID_2_);fill:#963B22;" d="M226,34.6l-5.9,29.3l5.9,23.4c27.3,0,33.4-28.3,34.7-40.9
			c0.5,12.6,9.6,40.9,82.4,40.9l5.9-23.4l-5.9-29.3H226z"/>
		<path style="clip-path:url(#SVGID_2_);fill:#C1694F;" d="M308,145.8h-46.9c0,0,0,11.7,23.4,11.7C308,157.5,308,145.8,308,145.8z"
			/>
		<circle style="clip-path:url(#SVGID_2_);fill:#662113;" cx="255.3" cy="104.8" r="5.9"/>
		<circle style="clip-path:url(#SVGID_2_);fill:#662113;" cx="313.9" cy="104.8" r="5.9"/>
		<path style="clip-path:url(#SVGID_2_);fill:#C1694F;" d="M272.9,122.4h23.4c0,0,0,11.7-11.7,11.7
			C272.9,134.1,272.9,122.4,272.9,122.4z"/>
	</g>
</g>
</svg>
