<?xml version="1.0" encoding="utf-8"?>
<!-- Generator: Adobe Illustrator 19.0.0, SVG Export Plug-In . SVG Version: 6.00 Build 0)  -->
<svg version="1.1" id="Capa_1" xmlns="http://www.w3.org/2000/svg" xmlns:xlink="http://www.w3.org/1999/xlink" x="0px" y="0px"
	 viewBox="0 0 2141.8 1204.7" style="enable-background:new 0 0 2141.8 1204.7;" xml:space="preserve">
<style type="text/css">
	.st0{fill:#F46245;stroke:#707070;stroke-width:2;stroke-miterlimit:10;}
	.st1{fill:#F9A97D;}
	.st2{fill:#2D3130;}
</style>
<path class="st0" d="M982.9,952.6c-1.9-1.5-4.2-1.4-6.4-1.7c-18.9-3-39.8-17.4-46.1-43.4c-1-4.2-1.4-8.5-1.4-12.8
	c0-10.9-0.2-21.8,0.1-32.6c0.6-24,11.9-41.3,33.4-51.9c2.5-1.2,3.5-2.5,3.5-5.3c5.6-20.4,10.9-41.1-0.1-70.1c0-0.8,0-1.6,0-2.4
	c0-1.3-0.6-2-1.8-2.5c-1.2-0.5-2.3-1-3.5-1.6c-19.6-10.6-30.3-26.9-31.4-49.3c-1.1-23.3,12.5-44.4,32.6-53.8c4.7-2.2,4.1-1,4.1-6.8
	c0-30.9,6-36.4,5.9-67.2c0-7.7-5.6-40.7-4.3-48.3c0.2-1.1,0.3-2.2,0.4-3.3c0-0.6-0.2-1.2-0.8-1.6c-0.9-0.6-1.9-1.2-2.8-1.8
	c-19.7-13.5-27.8-32.2-25.2-55.8c4.5-23.3,17.9-39.2,40.8-45.5c20.1-5.6,38.3-0.7,53.7,13.5c4.3,3.9,2.7,3.5,8.1,1.4
	c18-7.1,36.6-10,55.9-8.2c13.3,1.2,26.1,4.5,38.4,9.9c4,1.8,3.6,1.6,6.4-1.4c8.6-8.9,19-14.6,31.2-16.5c32.2-5,57.3,15.9,63.8,41.3
	c6.4,25.3-4.8,51.1-27.8,63.6c-0.8,0.5-1.7,0.9-2.6,1.3c-0.8,0.4-1.1,1.1-0.9,2c0.1,0.8,0.3,1.6,0.4,2.4c0.9,6.5-5.2,42.3-5.2,48.9
	c0,30.9,6.4,32.5,6.4,63.3c0,6.4-0.6,5,4.9,7c21.8,8,40.1,30.6,37,59.4c-2.5,23.5-15.5,39.7-37.6,48.4c-4.2,1.6-4.2,1.5-4.2,6
	c-2.4,23.6-5.1,23.9-5.1,34.9c0,11.5,5,21.2,5,32.8c0,0.8,0,1.6,0,2.4c-0.1,1.4,0.3,2.5,1.8,3c1,0.4,2,1,3,1.5
	c19.4,11,29.6,27.7,30.4,50c0.4,11.2,0.3,22.4,0,33.6c-0.6,30.7-23.3,51.9-47.6,55.8c-2.3,0.4-4.8,0.3-6.9,1.7c-1.9,0-3.8,0-5.8,0
	c-2-1.3-4.3-1.3-6.4-1.6c-10.5-1.7-19.8-6-27.9-12.9c-1.9-1.6-3.7-2.2-6.1-2.2c-9,0.1-17.9,0-26.9,0c-28.3,0-56.6,0-84.9,0
	c-2.8,0-5.1,0.6-7.4,2.5c-8,6.8-17.2,10.9-27.5,12.6c-2,0.3-4.2,0.2-5.9,1.6C987.4,952.6,985.2,952.6,982.9,952.6z"/>
<path class="st1" d="M1154.3,767.1C1154.3,767.1,1154.3,767.1,1154.3,767.1c0-14.4-0.1-28.8,0-43.2c0-2.7-0.6-4.8-2.7-6.8
	c-2.2-2.1-4.1-4.5-5.9-6.9c-6-8.3-9.6-17.7-10.4-27.9c-0.2-2.9-1.4-4.6-3.8-6c-7.2-4.1-15-6.4-23.3-6.5c-14.4-0.1-28.8-0.1-43.2,0
	c-6.5,0-12.7,1.5-18.6,4.2c-2,0.9-3,2-2.9,4.3c0.1,6.5-1.2,12.7-3.5,18.7c-3.7,10-9.8,18.3-18.2,24.8c-2,1.6-3,3.2-2.6,5.6
	c0.1,0.6,0,1.3,0,1.9c0,26.9,0,53.7,0,80.6c0,1,0.1,1.9,0,2.9c-0.1,1.6,0.5,2.7,1.8,3.6c2.7,2,5.2,4.2,7.4,6.8
	c9.8,10.9,15,23.6,15.1,38.3c0.1,8.3,0.2,16.6-0.1,24.9c-0.1,3,1.1,4.3,3.6,5.3c5.8,2.4,11.9,3.8,18.2,3.8c14.2,0.1,28.5,0,42.7,0
	c5.2,0,10.2-0.9,15-2.6c5.6-2.1,4.8-1.5,4.8-6.7c0-8-0.1-16,0-24c0.3-19.1,8-34.6,23.2-46.3c0.5-0.4,1-0.8,1.5-1.1
	c1.2-0.8,1.6-1.9,1.6-3.3c0-1.1,0-2.2,0-3.4C1154.3,794.6,1154.3,780.9,1154.3,767.1z"/>
<path class="st1" d="M1182.7,418.3c-7,0.1-14.6,2.9-19.3,7.3c-1,0.9-1,1.5-0.1,2.3c0.6,0.5,1.2,1,1.8,1.6
	c13.6,11.6,24.1,25.5,31.6,41.6c0.4,0.9,0.8,1.7,1.3,2.6c0.3,0.5,0.8,0.6,1.2,0.3c0.7-0.4,1.4-0.8,2-1.3
	c10.4-7.8,14.6-21.5,10.4-33.8C1207.3,426.6,1195.6,418.2,1182.7,418.3z"/>
<path class="st1" d="M964.2,447.6c0.1,7.9,2.1,14.1,6.3,19.4c1.3,1.6,2.8,3.1,4.3,4.5c0.9,0.9,1.6,0.6,2.2-0.6
	c0.4-0.8,0.8-1.7,1.2-2.6c6-12,13.6-22.7,23.1-32.2c3.5-3.5,7.2-6.8,11.1-9.9c1-0.8,0.9-1.5-0.2-2.2c-10-6.8-20.6-7.8-31.3-2.4
	C970,427.2,964.6,436.5,964.2,447.6z"/>
<path class="st1" d="M1086.8,505c-31.1-0.6-58.9,25.4-58.8,58.8c0,32.4,26.6,58.6,58.6,58.7c30.8,0.2,59-24.6,59.1-58.7
	C1145.7,529.1,1116.7,504.3,1086.8,505z"/>
<path class="st1" d="M1185.5,844.3c6.1,0.1,11-4.8,11-10.9c0-5.9-4.7-10.5-10.7-10.7c-6.3-0.2-10.9,5.2-11,10.4
	C1174.7,839.2,1179.4,844.2,1185.5,844.3z"/>
<path class="st1" d="M1213.7,857.7c5.9-0.1,10.8-4.9,10.7-10.7c-0.1-6.9-5.7-11-11-10.8c-5.9,0.2-10.6,4.8-10.6,10.7
	C1202.7,853,1207.6,857.8,1213.7,857.7z"/>
<path class="st1" d="M1157.4,857.7c6.4,0.2,10.8-5.5,10.8-10.6c0.1-6-4.8-11-10.9-11c-5.9,0-10.8,4.7-10.8,10.6
	C1146.4,853.4,1151.8,858,1157.4,857.7z"/>
<path class="st1" d="M986.5,844.3c5.9,0.1,10.8-4.5,10.9-10.4c0.2-6.2-4.5-11-10.6-11.2c-5.2-0.2-10.9,4-11,10.9
	C975.8,839.5,980.5,844.2,986.5,844.3z"/>
<path class="st1" d="M1014.6,836.2c-5.5-0.3-11,4.3-11,10.8c0,5.9,4.7,10.6,10.6,10.7c6.1,0.1,10.9-4.7,11-10.8
	C1025.3,841.3,1020.4,836,1014.6,836.2z"/>
<path class="st1" d="M958.1,857.7c5,0.3,10.9-3.7,10.9-10.9c0.1-5.8-4.9-10.6-10.8-10.6c-6.1,0-10.9,4.8-10.9,10.9
	C947.5,853.1,952.2,857.7,958.1,857.7z"/>
<path class="st1" d="M968.5,659.1c5.9,0,10.7-4.5,10.8-10.5c0.2-6.1-4.6-11.1-10.7-11.1c-5.9,0-10.6,4.6-10.8,10.5
	C957.5,653.8,962.2,659.2,968.5,659.1z"/>
<path class="st1" d="M1000,633.8c-6.1-0.1-11.1,4.7-11.1,10.8c0,5.8,4.8,10.7,10.6,10.9c5.9,0.2,11.1-4.9,11.2-10.8
	C1010.7,638.9,1005.8,633.9,1000,633.8z"/>
<path class="st1" d="M941.4,674.6c0,5.9,4.7,10.7,10.5,10.9c6,0.2,10.9-4.7,11-10.8c0.1-4.8-3.5-10.6-10.5-10.9
	C946.4,663.6,941.4,668.3,941.4,674.6z"/>
<path class="st1" d="M1236.3,662.8c-0.1-5.8-5.1-10.7-10.9-10.7c-5.9,0-11,5.3-10.9,11.1c0.1,5.7,5.1,10.6,10.9,10.7
	C1231.3,673.9,1236.4,668.7,1236.3,662.8z"/>
<path class="st1" d="M1181.4,650.8c-0.2-5.8-4.2-10.7-10.6-11c-6.6-0.3-11.1,5.2-11.2,10.7c-0.1,5.8,4.7,10.8,10.5,11
	C1176,661.8,1181.3,656.7,1181.4,650.8z"/>
<path class="st1" d="M1211.5,643.6c0-6.1-5-10.8-11.1-10.7c-5.9,0.1-10.5,5-10.5,10.9c0,5.9,4.8,10.7,10.7,10.8
	C1206.5,654.6,1211.5,649.6,1211.5,643.6z"/>
<path class="st2" d="M1163.5,528.3c-0.1,5.7-4.8,10.3-10.5,10.2c-5.7-0.1-10.2-4.9-10.1-10.6c0.1-5.7,4.8-10.3,10.5-10.2
	C1159,517.9,1163.5,522.6,1163.5,528.3z"/>
<path class="st2" d="M1009.8,528.4c-0.1-5.7,4.4-10.5,10.1-10.6c5.6-0.1,10.4,4.5,10.5,10.2c0.1,5.7-4.4,10.5-10.1,10.6
	C1014.6,538.7,1009.9,534.1,1009.8,528.4z"/>
<path class="st2" d="M1088.2,521.3c1.9,0.1,3.9,0,5.7,0.3c4.9,0.8,7.1,4.6,5.3,9.2c-1.9,4.8-5.8,7.5-10.4,9.2
	c-1,0.3-1.9,0.1-2.8-0.2c-3.6-1.6-6.7-3.8-8.8-7.1c-0.3-0.4-0.5-0.8-0.7-1.3c-2.1-4.9,0.2-9.1,5.5-9.8c2-0.2,4.1,0,6.2,0
	C1088.2,521.5,1088.2,521.4,1088.2,521.3z"/>
<path class="st2" d="M1087.7,556.2c-9.4-0.1-16.8-2.7-23.3-7.8c-0.7-0.6-1.4-1.3-2.1-1.9c-0.5-0.5-0.5-1.2-0.1-1.7
	c0.4-0.6,1.1-0.8,1.7-0.4c1.1,0.7,2.1,1.5,3.1,2.2c5.7,4.2,12,6.5,19.1,6.6c7.6,0.1,14.4-2.2,20.4-6.8c0.8-0.6,1.5-1.2,2.2-1.8
	c0.7-0.5,1.5-0.5,2.1,0.3c0.4,0.6,0.4,1.2-0.1,1.7c-0.9,0.9-1.8,1.8-2.8,2.6C1102.2,553.5,1093.8,556.4,1087.7,556.2z"/>
</svg>
