<?xml version="1.0" encoding="utf-8"?>
<!-- Generator: Adobe Illustrator 19.0.0, SVG Export Plug-In . SVG Version: 6.00 Build 0)  -->
<svg version="1.1" id="human_x5F_body_x5F_back_xA0_Bild_1_"
	 xmlns="http://www.w3.org/2000/svg" xmlns:xlink="http://www.w3.org/1999/xlink" x="0px" y="0px" viewBox="0 0 866 1706"
	 style="enable-background:new 0 0 866 1706;" xml:space="preserve">
<path style="fill:#BABABA;" d="M46.6,922.7c1,5.1-3.8,7.6-5.6,11.5c-1.9,4.2-4.8,7.9-7.6,11.6c-1.6,2.2-3.4,4.3-6.8,4.3
	c-5.6-0.2-7.5-2.3-6.5-7.8c0.9-5.4,3.7-9.9,6.2-14.6c7.7-14.3,15.6-28.5,23.1-42.8c2.7-5.1,2-10.6,0.6-16c-0.4-1.6-1.2-1.6-2.5-1.2
	c-3.4,0.9-5.9,3.2-7.7,5.9c-6.2,9.4-15.8,12.1-26,13.2c-4.2,0.5-7.3-2.8-7.7-6.9c-0.5-5.2,2.8-9.6,8-10.8c-2.1,3.7-4.3,8.4-1.9,11.6
	c2.7,3.4,7.7,1.2,11.7,0.2c1.3-0.3,2.6-0.9,3.6-1.6c11.3-8,20.2-17.8,23.5-31.7c1-4,2.4-7.9,3.5-12c0.5-1.8,2.1-3.5,1.1-5.6
	c-2.1-0.3-3.1,1.3-4.1,2.4c-5.8,6.2-11.9,12.3-15.8,19.9C31.4,860.8,24,864.5,16,868c0.4-0.7,0.5-1.8,1.1-2.1
	c9.5-5.2,14.5-14.1,18.5-23.4c4.4-10.1,13-15.4,21.4-20.7c8.1-5.1,17.2-8.2,25.9-12.2c6.9-3.2,10.9-10.6,13-18.1
	c4.4-15.9,9.1-31.9,12.7-48c3.2-14.3,5.9-28.8,8.9-43.2c2.9-14,4.4-28.1,7-42.1c1.5-8,2.2-16.1,3.6-24.1
	c2.5-14.2,7.2-27.8,12.4-41.2c5.1-13.3,12.4-25.3,19.9-37.2c4-6.4,8.7-12.5,13.3-18.6c1.8-2.4,2.5-4.9,2.5-7.9
	c0-11.8,0.7-23.6,2.4-35.3c2.2-15.3,7.7-29.5,15.1-43c2.4-4.4,2.5-8.8,2-13.5c-1.8-16.9-3.6-33.8-2.4-50.7
	c0.5-7.4,0.4-14.8,0.4-22.2c-0.1-11.6,3.3-21.9,8.8-31.7c11.4-20,27.3-35.5,47.7-46.2c5.7-3,11.9-4.9,18.7-4.7
	c9.1,0.3,18.3,0,27.4,0.9c15,1.5,28.5-3.7,40.9-11.8c11-7.2,21.1-15.5,30.9-24.2c5-4.4,7.4-9.5,8-15.9c0.8-8.9,2.2-17.8,2.7-26.7
	c0.2-3.7-0.4-7.3-4.1-10.5c-5.1-4.4-5.9-11.3-6.5-17.7c-0.4-4.3-0.1-8.6-0.1-13.6c-5.3,3.3-7.1,0.1-9.3-3.7
	c-6.2-10.5-11.5-21.3-13.2-33.5c-0.7-4.9-1.9-9.8,0.9-14.5c1.7-2.8,3.8-4.6,7.1-4.6c0.5,1.6,1.1,3.1,1.4,4.7c1,5.7,3.6,9.5,9.7,11.3
	c6.3,1.9,11.1,6.4,15.2,11.7c5.4,7,8.7,15.3,13.2,22.9c2.2,3.6,4.9,5.4,9.3,5.3c17-0.2,34-0.1,51,0c3,0,5-1,7-3.1
	c3.8-4.1,5.7-9.3,8.4-14.1c5.4-9.9,11.6-19.3,23.1-23c5.2-1.7,7.5-5.1,8.6-9.9c0.4-1.6,0.1-3.4,1.3-4.7c6.9,0.3,9.4,2.8,10,9.6
	c0.5,5.6-1.2,10.7-2.9,15.9c-3.1,9.5-7.2,18.5-12.1,27.1c-2.1,3.6-4.3,5.8-8.9,0.6c0,5.9-0.1,10.5,0,15c0.1,4.7-0.9,9.2-2.2,13.7
	c-0.6,1.9-1.2,3.9-3.1,5c-3.8,2.3-4.8,6-4.6,9.9c0.5,11.5,0.8,23.1,2.2,34.5c0.7,5.7,4.6,10.2,10.8,11.6c3,0.7,4.6,3.2,6.7,5
	c8.9,7.7,18.1,15,28.5,20.4c7,3.6,14.3,6.6,22.6,7c11.2,0.6,22.2-0.7,33.3-1c14.1-0.4,26.6,5,37.8,13.3
	c11.4,8.5,21.5,18.4,29.4,30.2c7.4,11,12.7,22.6,13.8,36.3c1.6,20.2,0.2,40.2-0.4,60.3c-0.1,4.3-0.9,8.6-1.7,12.8
	c-1.6,8.5,1.4,15.9,5.1,23.3c7.8,15.3,12.5,31.3,13,48.7c0.2,6.8,0.7,13.6,0.8,20.4c0.1,9.7,7.2,15.7,12.1,22.9
	c12.1,17.8,22.4,36.5,29.3,57c6.3,18.7,9.1,38,11.7,57.4c2.5,18.5,6.3,36.9,9.8,55.3c2.9,15,7.1,29.6,10.3,44.6
	c2.1,10.2,5.1,20.3,8.8,30c3,8,8.3,14.4,16.9,17.9c12.1,4.9,23.8,10.7,33.8,19.5c4.2,3.7,8,8,9.7,13.1c4.1,12.4,13.6,19.6,23.8,26.3
	c1.7,1.1,3.1,2.2,3.8,4.4c2.7,9.5-1.9,12.2-9.4,11.6c-9.6-0.8-18.4-4.6-23.8-13.5c-2.1-3.4-5.6-6-8.8-5.3c-3,0.6-2.5,5.3-2.9,8.3
	c-0.7,5.7,2.4,10.5,5.1,14.8c6.4,10.4,11,21.6,17.3,32c3.3,5.4,6.6,10.7,8.8,16.7c1.9,5.1,0.9,8.5-3.5,10.8
	c-3.6,1.9-7.8,0.5-10.5-3.7c-8.1-13.1-15.9-26.5-26-38.3c-0.7-0.8-1.2-2.5-2.5-2c-1.7,0.8-0.4,2.3-0.1,3.4
	c4.4,17.2,10.9,33.7,17.9,50c1.6,3.7,2.2,7.7,0.1,11.6c-2.3,4.2-6.1,4.7-9.9,1.8c-8.6-6.6-12.8-15.9-16.8-25.4
	c-4.1-9.7-8.9-19.2-12.2-29.3c-0.4-1.3-0.8-2.9-3-4.1c1.3,7.4,2.3,14.4,3.6,21.3c2.1,11.4,3.4,23,3.4,34.6c0,3-0.3,6.7-4.4,7.4
	c-3.6,0.6-6.4-1.1-8.1-4.5c-0.7-1.3-1.5-2.6-1.9-4.1c-3.4-12-6.2-24.1-8.4-36.3c-1.3-7.3-3.3-14.5-5-21.8c-0.3-1.1-0.5-2.6-1.9-2.6
	c-1.6,0.1-1.9,1.7-2.1,3c-1.5,7.5-1.5,15.2-1.9,22.8c-0.3,6.2-0.6,12.3-2.2,18.2c-0.8,2.9-2.1,6.1-5.6,6.1c-3.3,0-4.5-3-5.3-5.8
	c-1.5-5.3-2.5-10.6-2.8-16.1c-0.8-12.7-1-25.6-4.1-38c-2.7-10.9-6.5-21.6-8.8-32.6c-3.7-17.5-9.1-34.6-6.3-53
	c1.6-10.4-1.2-20.7-5-30.2c-10.2-25.2-22.9-49.3-35-73.6c-9.7-19.6-20.8-38.5-30.1-58.2c-6.3-13.3-10.2-27.6-12.8-42.2
	c-2.4-13.4-3.4-26.9-4.8-40.4c-1-9.1-5.7-16.5-11.1-23.4c-7.3-9.5-11.3-20.5-14.9-31.7c-2.9-8.8-5.2-17.8-7.6-26.8
	c-0.7-2.7-2.8-3.3-4.8-3.4c-2.5-0.1-1.6,2.5-1.8,3.9c-1.8,11.6-2.3,23.4-5,34.9c-2.2,9.5-4.5,18.9-10.2,27.3
	c-4.3,6.3-5.2,14.4-5.6,22c-1.1,20.3-0.3,40.5,1.7,60.7c1.1,10.7,1.3,21.5,2.2,32.3c1.8,20.1,2.3,40.4,8,60
	c2.8,9.7,7.5,18.7,9.4,28.7c3.6,18.5,8.6,36.7,10.6,55.6c1.6,15.5,4.2,30.9,5.7,46.4c1.7,17.8,3.7,35.7,3.4,53.7
	c-0.4,18.2,0.4,36.3-0.2,54.5c-0.9,27.5-1.6,55.1-5.7,82.4c-2.2,14.6-4.6,29.1-9.1,43.2c-2.3,7.4-4.6,14.9-9.6,21.1
	c-1.9,2.3-2.4,4.6-1.9,7.8c0.7,3.9,0.8,8.1,0.1,11.9c-2,10.7,1.4,20.8,2.8,31c2.4,18.2,4.4,36.5,1,54.5c-2,10.5,1.4,19.5,2.9,29.2
	c1.2,8,2.5,16.1,3.5,24.1c2.7,20.6,3.4,41.3,3,62.1c-0.3,16.1-1.9,32.1-3.3,48.1c-0.8,8.5-1.5,17.2-3,25.5c-3.2,17.9-5.6,36-10,53.7
	c-3.4,13.8-7.7,27.5-9.2,41.7c-1.5,14-2,28.1-0.3,42.2c1.9,15.5,5.4,31.1,0.1,46.8c-1.4,4.1-1.3,8.7-1.1,13.3
	c0.6,10.8,8,17,14.8,23.9c6.4,6.6,14.7,11.6,18,20.8c1.8,5.1,3.3,10.3,4.6,15.6c0.4,1.4-0.1,4.1-1,4.7c-6.6,3.7-8.7,13.6-18.1,13.2
	c-3.1-0.1-5.4,0.8-7.3,3.3c-2.4,3.2-6,3.6-9.5,2.4c-2.6-0.9-4.3-0.3-6.3,1.4c-4.8,4.1-10.2,5.6-15.9,1.6c-2.5-1.7-4.2-1.3-6.4,0.8
	c-3.8,3.6-9,4-13.9,4.5c-0.8,0.1-1.9,0-2.3-0.5c-5.8-7.4-14.3-12.9-16.6-23c-0.6-2.5-1.1-4.9-0.8-7.4c1.9-14.8,1.8-29.5-3.3-43.8
	c-1.5-4.2-1.5-8.3-1.1-12.7c0.7-8.4,1.3-17.1-0.9-25.3c-1.8-6.9-0.1-13.3,1.9-19.5c3.7-11.4,4.4-23.1,5-34.8
	c0.8-15.6,0.6-31.3-0.9-46.9c-2.5-26.4-2.9-53.3-13.6-78.1c-9.9-23-9.4-46.9-9.3-71c0-24.1,3.3-48,6.7-71.8
	c1.4-9.8,3.5-19.6,3.5-29.6c0-3.6-0.6-7-2.4-10.1c-5.8-10-7.3-21.3-8.6-32.4c-0.8-6.4-0.8-12.9-1-19.4c-0.2-5.8-0.3-11.6,0.9-17.4
	c3.2-15.6-2.4-30.1-5.9-44.9c-4.7-19.8-8.6-39.8-13.5-59.6c-4.8-19.4-9.6-38.9-14-58.4c-3.3-14.8-5.8-29.5-5.9-44.8
	c0-8.1-0.6-16.3-0.7-24.4c-0.1-9.1,0.6-18.2,1.8-27.3c0.3-2.7,0-4.6-3.3-2.6c-4.1,2.4-8.1,3.1-12.3,0c-2.4-1.7-3.7-0.9-3.3,2.1
	c2.2,19.9,1.1,39.9,0.7,59.9c-0.2,15.8-4.4,31.1-8,46.5c-6.5,27.1-13,54.1-19.2,81.3c-3.6,15.8-7.2,31.7-11.2,47.4
	c-2.2,8.5-1.7,17.1-0.7,25.7c1.3,12,0.7,24.1-0.3,36.2c-1,12-4.1,23.3-9.3,34.3c-3.6,7.7-1.3,16.2,0,24.4
	c2.7,17.7,5.2,35.4,6.9,53.2c1.7,17.2,2.4,34.5,1.8,51.8c-0.4,11.1-1.1,22.3-3.4,33.1c-2,9.5-6.1,18.5-9.6,27.7
	c-3,7.9-4.7,16.2-5.7,24.5c-1.9,15.4-4,30.9-4.7,46.4c-0.7,16.3-1.4,32.7-0.3,49.1c0.7,11.3,1.8,22.3,5.8,33
	c2.1,5.7,1.3,11.8,0.4,17.8c-1,7-2.2,14-0.6,21.3c1.5,7,0.1,14.1-2.2,20.6c-4.5,12.4-3.3,24.9-2.4,37.4c0.6,9-2.4,16.1-8.1,22.5
	c-1.4,1.6-3,3.1-4.5,4.6c-6.4,6.6-13.1,6.9-20.1,1c-2.4-2-4.1-3.4-7.6-1.1c-5.3,3.6-10.3,2.5-15.4-1.9c-1.4-1.3-2.6-2.4-4.8-1.4
	c-4.3,2.1-8.2,0.6-11.2-2.7c-2.1-2.3-4.5-2.9-7.5-3c-4.5-0.2-9.1-0.9-10.3-6.6c-0.3-1.7-1.9-2-3.3-2.7c-5.1-2.7-6.2-5.5-5-11.1
	c2.7-12.2,8.4-22.2,18.4-30.1c5.8-4.5,10.5-10.5,15.4-16.1c1.8-2.1,2.7-4.8,2.8-7.8c0.4-7.4,0.1-14.6-1.8-22
	c-2.9-10.9-1.1-22.1,0.3-33.2c2-15.8,2.6-31.6,1-47.5c-2.2-21.1-9.4-41-13.1-61.7c-3.6-20.1-7.1-40.1-9.5-60.3
	c-3.5-29.5-3.8-59.1-2.6-88.7c0.8-21,4.3-41.9,9.1-62.4c1.6-6.7,0.3-13.3-0.9-19.8c-2.7-15-1.2-29.8,1-44.6
	c2.4-16.8,4.3-33.6,3.5-50.6c-0.2-3.2-2.4-5.4-3.9-7.9c-8.8-15.1-12.3-31.8-15.1-48.7c-3.2-19.2-5.1-38.5-5.9-57.9
	c-0.5-13.8-1.5-27.6-1.3-41.4c0.3-23.3-0.2-46.7,0.2-70c0.3-15.2,2.1-30.4,4.5-45.5c1.7-10.1,2.3-20.4,3.3-30.6
	c1.4-14.2,4.6-28.1,7.3-42.1c2.1-10.8,4.2-21.5,7.9-31.8c2.8-7.8,6.2-15.3,7.9-23.5c2.4-11.3,2.9-22.7,3.9-34.1
	c1.8-19.2,3.5-38.3,4.8-57.5c1.4-21.6,3.1-43.2-1.1-64.7c-0.9-4.8-3.3-9.4-5.9-13.7c-6.1-10.2-7.8-21.7-9.7-33.1
	c-1.5-8.6-3.1-17.3-3.3-26.1c0-1.4-0.5-2.9-2.2-2.8c-2.1,0.1-3.8,1.1-4.4,3.4c-1.5,5.4-3.1,10.8-4.5,16.2
	c-2.6,9.8-6.4,19.2-9.7,28.7c-2.1,6.2-6.1,11.6-10.4,16.3c-7.1,7.8-9.2,17.2-9.8,27c-1.6,25.7-6.4,50.7-16.5,74.5
	c-3.9,9.3-9.1,18-13.7,27c-8.3,16.2-16.8,32.4-24.8,48.7c-8.5,17.3-17.5,34.4-24.8,52.2c-5.5,13.4-9.1,27.7-6.6,42.8
	c1.7,10.2-1.2,20.1-3.1,30.1c-3.5,18.4-9.8,36.2-13.9,54.5c-1.6,7-1.8,14.1-1.8,21.3c0,8.5-1.5,16.8-3.4,25.1
	c-0.5,2.1-1.3,4.2-2.5,5.9c-2.2,3.3-5,2.7-7.1-0.8c-3.1-5.1-3.2-10.8-3.6-16.4c-0.6-8.8-1.1-17.6-2.1-26.3c-0.2-1.9-0.1-4.1-2.5-4.1
	c-2,0-2.3,2.1-2.7,3.7c-4.2,16.7-6.4,33.9-11.1,50.5c-1,3.5-1.9,7.1-3.7,10.3c-1.7,3.1-4.3,4.9-7.8,4.1c-3.5-0.8-4.2-3.7-4.3-7
	c-0.6-15.8,2.4-31.1,5.4-46.4c0.5-2.6,0.8-5.1-0.5-7.9c-1.4,3.2-2.8,6.5-4.1,9.8c-4.8,12.1-10,23.9-16,35.4c-2.6,5-6,9.2-10.7,12.2
	c-4.9,3.2-10.4,0.4-10-5.5c0.6-7.8,3.3-15,8.2-21.3c1,1.2-0.1,2.2-0.5,3.2c-1.9,5.1-4.3,10.1-4.7,15.7c-0.3,4.4,1.2,5.6,5.3,4
	c3.7-1.4,6.6-3.8,8.1-7.6c8-20.1,16.3-40,25.8-59.5c1.4-2.9,0.7-5-2.3-6.4c-8.3-3.9-12.6-2-14.9,6.7c-0.1,0.3-0.1,0.7-0.2,1
	c-3.9,10.9-6.9,22.1-12.5,32.4c0-6.2,3-11.7,4.8-17.4c1.3-4.3,1.4-8.7,3-13.8c-6.5,3.9-9.8,9.7-14.1,14.5
	C49.2,920.8,48.8,922.7,46.6,922.7c-0.1-1.4,0.7-2.3,1.3-3.2c5.9-8.4,11-17.4,18.5-24.8c2.7-2.6,5-6,2.3-9.7c-4.6-6.5-13.4-6-17,1.1
	c-7.9,15.4-15.8,30.8-24.7,45.7c-2.1,3.5-2.9,7.4-3,11.5c0,1.3,0,2.9,1.4,3.5c1.7,0.8,2.7-0.6,3.7-1.7c0.7-0.7,1.2-1.6,1.9-2.3
	C36.8,936.4,40.5,928.6,46.6,922.7z M134.9,794.9c2.3,0.2,3-1.7,4.1-3.1c6.2-7.9,10.7-16.8,15.2-25.7c11.6-23,21.8-46.8,34.5-69.3
	c12-21.3,20.9-43.8,29.7-66.5c2.4-6.2,1.1-7.7-5.6-6.9c-9.1,1.1-14.8,6.3-17.8,14.6c-2.8,7.5-5.6,15-8.2,22.5
	C171.4,706.1,158,752.4,134.9,794.9c0,0.2,0,0.3-0.1,0.4C134.9,795.2,134.9,795.1,134.9,794.9z M571.5,814.9
	c1.3-13.2-7-26.3-19.9-37.5c-11.2-9.6-23.5-17.5-36.2-24.8c-14.9-8.6-30.8-15-47.5-19.2c-6-1.5-11.1,0.2-14.7,5.7
	c-2.7,4.2-6,8-8.9,12c-5,7-8.7,14.4-10.3,23c-4.8,25-2.1,49.8,1.8,74.5c2.9,18.7,9.6,36.7,7.7,56.1c-0.8,8,3.6,13.9,11.2,17.2
	c9.3,4.1,18.7,3.8,28.4,1.4c9.1-2.3,17.4-7,26.7-8.1c5.9-0.7,10.9-2.9,15.4-6.4c8.7-6.9,15.7-15.3,22.1-24.3
	C561,865.1,570.6,844,571.5,814.9z M424.4,804.3c-0.1-22.8-2.8-41.9-16.4-58.4c-11.6-14.2-13.9-15.6-31.5-9.3
	c-0.5,0.2-1,0.3-1.4,0.5c-23.9,8.4-45.5,21-65.8,36.1c-19.8,14.8-28.3,33.6-23.7,58.2c5.6,30.4,21.2,55,43.3,75.8
	c4,3.8,8.7,7.1,14.4,7.6c6.1,0.6,11.7,2.5,17.3,4.6c9.3,3.4,18.6,6.8,28.7,5.6c18.5-2.1,24.4-9.8,23.3-24.1
	c-0.9-11.4,0.8-22.6,3.8-33.6C422.2,845.8,423.4,823.7,424.4,804.3z M402,506.2c-0.4-4-1.4-7.9-4-11.1c-7.6-9.2-12.2-20.2-17-30.9
	c-6.1-13.7-12.6-27.2-18.6-40.9c-1.8-4.1-3.7-4-6.6-1.5c-2.8,2.4-5.6,4.7-7.4,8.1c-2.9,5.5-7.7,8.5-13.2,10.8c-20.9,9-41,5-60.6-4.2
	c-3.5-1.6-4-1-3.8,2.3c0.8,11.9,4.2,23,10.5,33c6.1,9.7,9.3,20,10,31.4c0.5,8.4,1.5,17,3.4,25.2c6.2,27.2,11.2,54.7,16,82.2
	c1.2,7.2,1.3,14.9,5,21.3c6.7,11.3,14.4,22,23.7,31.4c3,3.1,4.5,2.2,5.7-1.6c7.8-23.7,17.2-46.9,26.4-70.1
	c9.3-23.4,19.6-46.3,27-70.3C400.1,516.3,401.6,511.4,402,506.2z M585.2,440.7c0.1-4,0-5-0.7-5.2c-1.7-0.5-2.7,1-4,1.6
	c-15.1,7.2-31,10.5-47.5,7.5c-10.7-2-21.3-5.7-27-16.8c-1.3-2.7-4.4-4.5-6.7-6.6c-2.2-1.9-4-1.9-5.4,1.2c-2.3,5.2-4.7,10.3-7.2,15.4
	c-9.4,19.1-15.3,39.9-28.5,57c-4.4,5.6-5.3,11.7-3.2,18.3c2.6,8.3,5.2,16.5,7.9,24.7c6.9,21.1,16.8,40.9,24.6,61.7
	c7.8,20.7,15.5,41.5,23.3,62.2c1.7,4.5,2.6,4.7,6,1.2c2.9-2.9,5.6-6.1,8.3-9.3c10.3-12.6,18.2-26,20.4-43
	c2.5-19.6,5.4-39.3,10.5-58.4c4-15,6.9-30.2,8.1-45.6c1.1-13.3,4.3-25.7,11.7-37.1C581.8,460.6,584.2,450.2,585.2,440.7z
	 M441.4,514.7c0.5,0.1,0.9,0.2,1.4,0.2c0.8-2.3,1.6-4.6,2.3-7c3.6-12.6,8.9-24.4,15.8-35.5c9.5-15.3,18.4-30.9,25.5-47.5
	c10.8-25.5,17.6-52.4,25.8-78.7c5.9-18.7,11.3-37.7,21.9-54.5c2.6-4.1,0.9-4.6-2.4-5.7c-21.3-7-42.8-6.1-64.2-1.5
	c-16.5,3.5-29.1,12.4-31,31.2c-0.3,3.5-1.1,6.9-1.4,10.4c-2.3,23.8-2.2,47.5-1.5,71.4c1,33.6,3.5,67.2,5.8,100.7
	C439.7,503.6,439.8,509.3,441.4,514.7z M414.5,515.6c0.4-1.7,0.6-2.5,0.7-3.3c3.3-36.2,5.7-72.4,7-108.7c1-27.6,1.6-55.3-2-82.8
	c-1-8-1.4-16.7-7.4-22.9c-7.4-7.6-16.5-12.9-27.4-14.3c-4.6-0.6-9.3-0.9-13.9-1.6c-16.3-2.7-32.2-0.3-47.9,4.1
	c-3.3,0.9-4.5,2-1.9,5.3c3,3.8,5,8.3,6.9,12.7c12.3,27.5,19.3,56.7,28.3,85.3c7.3,23.1,16.3,45.5,28.4,66.5
	c9.2,16,19.7,31.3,24.9,49.4C411,508.5,411.3,512.2,414.5,515.6z M570,1215.7c-2.2-17.9-3.5-34.9-6.5-51.5
	c-5.5-30.8-8-61.7-8.5-92.9c-0.6-43.1,0.5-86.3-1.1-129.5c-0.4-11.1-1-22.3-4.2-33.1c-0.7-2.4-1.4-5.5-4.6-6c-3-0.5-4.9,1.6-6.7,3.6
	c-6.9,7.8-13.1,16.1-17.5,25.5c-3.4,7.3-7.8,14.6-6.7,23.2c3,23,2.5,46.2,3.7,69.3c1.1,22.1,0.8,44.4,5.2,66.2
	c5,25,12.8,49.3,21.2,73.3c5.4,15.5,11.5,30.6,19.8,44.7C565.5,1210.8,566.6,1213.4,570,1215.7z M285.9,1215.8
	c2.5-1.6,3.4-3.4,4.4-5.1c9.2-14.2,15.2-29.9,20.8-45.8c8.9-25.3,17.2-50.8,21.9-77.2c5.2-28.6,4.3-57.7,5.7-86.6
	c0.7-15.8,0.7-31.6,2.9-47.3c0.4-2.4-0.1-4.7-0.8-6.9c-4.3-14.6-12.2-27.3-22-38.7c-2.2-2.6-4.4-6.7-8.2-5.7
	c-4.4,1.1-4.8,5.9-5.7,9.8c-3.4,15.9-3.5,32.1-3.7,48.2c-0.5,31.5-0.3,62.9-0.3,94.4c0.1,39.2-2.8,78.1-9.7,116.7
	C288.9,1186.1,287.7,1200.7,285.9,1215.8z M437.7,657.9c0,6.5-0.1,13,0,19.5c0.4,18.6,1.4,37.2,4.9,55.6c0.9,4.8,2.3,4.5,5.6,2.3
	c17.3-11.3,34.7-22.4,52-33.6c11.3-7.3,11.5-7.8,8.6-21c-0.1-0.5-0.3-0.9-0.4-1.4c-6.1-24.5-16-47.6-25.2-71
	c-9.4-23.9-19.8-47.3-31.6-70.1c-0.7-1.4-1.2-3.6-3.2-3.3c-1.7,0.2-1.8,2.3-2.1,3.7c-1.1,5.5-2.4,11.1-3.1,16.7
	C438.9,589.3,437.8,623.6,437.7,657.9z M418.3,650.9c0.2-23.4-1.2-49.6-3.4-75.8c-1-11.9-2.3-23.8-5-35.5c-0.4-1.7-0.5-4.2-2.6-4.4
	c-2.2-0.3-2.6,2.3-3.4,3.8c-20.4,40.3-37.2,82.1-52,124.8c-2.9,8.5-5.7,17-6.3,26.1c-0.3,3.9,1.1,6.5,4.5,8.6
	c18.7,11.8,37.2,23.9,55.8,35.9c6.2,4,6.3,4,7.6-3.3C418.1,705.4,418.4,679.6,418.3,650.9z M580.1,1323.5c0.1-13.5-0.5-27-2.1-40.4
	c-2.4-19.9-6.2-39.4-15-57.7c-6.3-13.1-16.4-23.4-24.6-35.1c-0.9-1.3-1.7-3.6-3.4-3.1c-2,0.6-0.9,2.9-0.8,4.4
	c1.1,23.3,2.7,46.5,3.5,69.8c0.8,24,1.2,48,1.4,71.9c0.2,20.6,1,41.3-0.7,61.9c-0.6,7.2,0.3,14.3,3.5,20.9c3.1,6.4,8.2,9.2,14.8,8.9
	c6.8-0.3,10-4.5,11.8-10.4c0.5-1.8,1.1-3.5,1.6-5.3C577.5,1381.4,579.9,1352.6,580.1,1323.5z M322,1186.5c-0.4-0.1-0.8-0.2-1.3-0.3
	c-3,3.9-6,7.9-9.1,11.8c-10.5,13-19.7,26.7-24.9,42.9c-7,21.8-9.6,44.2-10.6,66.8c-0.9,19.8-0.1,39.6,2,59.4
	c1.8,16.4,4.8,32.6,9.7,48.3c1.6,5.2,4.4,9.1,10.6,9.8c6.9,0.7,11.6-1.9,14.9-7.7c2-3.5,3.2-7.2,3.9-11.2c1.3-7-0.2-13.9-0.3-20.9
	c-0.3-31.8,0.2-63.6,0.8-95.4c0.4-25.1,1.4-50.2,2.9-75.3C321.3,1205.3,321.6,1195.9,322,1186.5z M330.9,1187.6
	c-0.2,1.6-0.6,3.2-0.7,4.9c-0.4,9.1-0.6,18.3-1,27.4c-0.7,14.8,0.9,29.6,1.5,44.4c0.8,20.8,1.3,41.6,0.6,62.4
	c-0.8,24.1-1.9,48.2-3,72.3c-0.3,6-0.1,12,1.3,17.9c2.3,9.3,8.4,11.4,15.2,5c18.1-17,28-38.1,29.1-63.1c0.7-17-1-33.9-3.1-50.8
	c-2.6-21.2-5.3-42.4-13.7-62.2C349,1226.3,338.2,1208,330.9,1187.6z M525,1187c-4,9.3-7.7,18.4-11.7,27.5
	c-5.7,13.1-13.5,25.3-17.6,39.1c-10.4,35.4-14.6,71.8-13.5,108.5c0.6,21.7,10.4,40.4,25,56.3c3.3,3.6,7.3,8.6,13.1,6.3
	c6-2.3,6.4-8.5,6.6-14c0.3-7.1,0.4-14.3,0-21.5c-2.1-36.7-3.8-73.5-2.6-110.3c0.8-24.8,2.9-49.5,1.5-74.3
	C525.6,1198.8,525.3,1192.9,525,1187z M338.1,1136.5c0,18.6,0.6,34,2,49.5c0.6,6.6,1.7,13.2,3.9,19.5c0.4,1,0.5,2.5,2.1,2.3
	c1.2-0.1,1.3-1.4,1.6-2.3c0.5-2.1,1-4.2,1.4-6.3c4.2-21.6,5.9-43.5,8.9-65.3c3.7-26.5,6.9-53.1,13.8-79.1c2.1-8,5.3-15.8,7-23.9
	c3.3-15.7,0-31-3.2-46.4c-2.9-14-9.1-26.3-16.6-38.2c-1.5-2.4-2.7-3.5-4,0.1c-1.9,5.1-4.6,9.9-5.4,15.5c-2.3,16.3-3.6,32.7-5.1,49.1
	C340.9,1053.8,338.8,1096.7,338.1,1136.5z M509.9,1209.6c4.4-8.9,5.3-17.4,6-25.8c2.1-23.6,1.6-47.3,1.1-70.9
	c-0.9-43.4-4.1-86.8-8.3-130c-1.2-12-1.5-24.3-7.4-35.4c-0.7-1.3-0.7-3.3-2.3-3.4c-1.7-0.1-2,2-2.8,3.1
	c-9.9,14.4-15.2,30.6-18.1,47.6c-2.5,14.2-4.3,28.5,0.7,42.4c7.9,22.3,12,45.3,15.2,68.6c3.9,28,7.4,56,11.2,84.1
	C505.9,1196.3,506.7,1202.7,509.9,1209.6z M713.8,839c0.6,14.3,2.6,29.6,7.2,44.5c2,6.5,6.4,10.3,13,11.8c4.3,1,8.6,1,12.9,0.3
	c16-2.7,29.4-10.5,41.2-21.1c12.5-11.1,14.4-22.8,5-37.9c-8.2-13.2-20.8-22.3-35.4-26c-13-3.3-26.5,0.1-38,8.1
	c-4,2.8-6.2,6.8-5.8,12C713.9,833.1,713.8,835.5,713.8,839z M142.2,834.5c0.9-6-0.3-13.6-8.5-17.5c-16.7-7.9-33.6-11.9-50.3,0.6
	c-9.1,6.8-18.8,12.7-23.3,23.9c-4,10-4.5,19.6,3.2,28c12.5,13.9,28,23.1,46.5,26.1c14.9,2.4,23-3.1,26.5-16.7
	C139.8,865.1,141.7,851,142.2,834.5z M201.2,381.4c0,10.3,0.1,19.5,0,28.6c0,3.5,0.4,4.7,4.5,3.3c13.9-4.7,25-13.6,35.6-23.4
	c6.3-5.9,10.1-12.1,10.5-21.5c0.8-20.1,9.1-36.6,27.2-47.1c3.6-2.1,6.8-4.7,10.2-7.1c1.8-1.2,2.7-2.5,0.4-4.2
	c-8.8-6.3-17.9-11.2-29.2-11.3c-12.1-0.1-21.7,5.3-31.1,11.9c-14.5,10.3-25.4,23.1-27.9,41.4C199.9,362.2,201.6,372.4,201.2,381.4z
	 M655,378.5c0-5.7,0.1-13.4,0-21c-0.1-5.7-1.1-11.2-3.2-16.5c-6.8-17.5-20.3-28.6-36.1-37.1c-13.9-7.5-28-7.1-41.7,1.4
	c-11,6.9-11.3,7.1,0,13.8c18.9,11.2,29.6,27.3,30.2,49.5c0.2,8.4,3.5,14.6,9.6,20.4c10.9,10.3,22.2,19.6,36.6,24.4
	c2.8,0.9,3.7,0.8,4-2.4C655.3,400.8,654.5,390.6,655,378.5z M509.9,414.9c3.1-0.5,6.9-1.5,10.6-3c11.1-4.6,21.5-10.6,32-16.3
	c11.6-6.3,21.3-14.8,27.2-26.9c3.4-7,6.6-14.2,10-21.2c2-4,1-6.3-2.9-8.4c-13.8-7.5-27.8-14.4-42.3-20.4c-14.6-6-17.1-5.1-21.4,10.1
	c-3,10.4-5,21-7.6,31.5c-3.7,15.2-8.3,30.1-12.8,45.1C501,411.7,503.3,415,509.9,414.9z M353.3,407.9c0.1-1.4-0.5-3.1-1-4.9
	c-4.8-15.9-9.4-31.9-13.4-48.1c-2.7-11-4-22.3-8.6-32.8c-3.4-7.6-5.9-8.6-13.6-5.7c-14.3,5.5-28.1,12.3-41.6,19.4
	c-10.9,5.7-10.9,5.8-6.1,17.3c0.1,0.2,0.1,0.3,0.2,0.5c6.6,14.6,13.2,29.1,27.8,38c13.1,8,26.7,15,40.8,21c2.9,1.2,6.1,1.9,9.2,2.2
	C351.5,415.3,353.4,413.2,353.3,407.9z M120.8,801.8c4.3-3.7,7.2-8.5,9.8-13.2c12.8-22.9,23.6-46.7,32.9-71.1
	c4.4-11.6,7.5-23.4,7.5-36c0-17.6-2.1-34.9-5.4-52.1c-2.1-11-7-20.9-12.2-32.3C143.7,666.5,136.7,734.8,120.8,801.8z M702.2,598
	c-3.9,9.4-9.1,18.3-11.3,28.4c-2.8,12.9-4.7,25.9-5.5,39c-0.9,13.3-1.4,26.7,2.8,39.6c10.1,31.1,24.1,60.6,40,89.1
	c1.8,3.2,3.5,6.7,7.6,9.2C719,735.4,712.1,666.6,702.2,598z M567.5,1111c2.3-1.4,2.4-3.2,2.9-4.7c4.8-13.7,7.7-27.9,9.6-42.3
	c3.4-24.9,5.7-49.9,7.2-75c2.1-35.4,4.9-70.7,2.7-106.2c-0.1-2.2,0.7-5.6-1.8-6.2c-2.9-0.6-3.8,2.9-4.5,5.1
	c-4.8,13.6-10.8,26.9-13.8,41.1c-7.9,37.4-6.7,75-2.6,112.8c2.1,18.8,3.2,37.8,0.9,56.7C567.6,1098.2,566.4,1104.3,567.5,1111z
	 M288.6,1110.8c0-3.3,0.4-6.4-0.1-9.4c-3.3-21.9-2.1-43.8-0.2-65.7c2.2-25,4.9-49.9,2.9-75.2c-2.1-26.8-8-52.5-18.2-77.3
	c-0.8-2-2-3.8-3.1-5.7c-0.5-0.8-1.3-1.8-2.4-1.2c-0.6,0.3-1.1,1.3-1.3,2c-0.3,1.5-0.3,3-0.4,4.5c-1.5,20.3-0.6,40.6,0.2,60.9
	c1.5,36.1,3.9,72.1,8.1,108c2.2,18.5,5,36.9,11.3,54.6C286,1107.8,285.9,1109.9,288.6,1110.8z M206.5,581.1
	c0.3,4.1,0.5,8.3,0.9,12.4c0.2,1.5,0.2,3.6,2.2,4.1c1.7,0.4,2.5-1.3,3.5-2.4c2.2-2.5,4.3-5.1,6.6-7.5c6.9-7.2,10.6-15.8,11.1-25.6
	c0.4-9.2,3.9-16.7,10-23.3c5.2-5.7,8.4-12.3,10.2-19.7c1.7-6.9,2.9-14,6-20.5c5.9-12.4,7.7-25.4,5.1-38.9c-1.3-6.7-2.6-7.3-7.7-2.9
	c-8.2,7.1-16.1,14.5-24.3,21.5c-9.6,8.1-13.9,18.3-13.4,30.8c0.3,7.3-1.1,14.6-2.4,21.8C211.5,547.6,206.7,564,206.5,581.1z
	 M649.1,581.6c0.2-6.9-0.7-13.6-1.9-20.4c-3.5-19.8-8.5-39.4-8.6-59.7c0-7.7-3.9-14.4-9.6-19.8c-5.8-5.5-11.7-10.8-17.7-16.2
	c-3.9-3.6-7.8-7.3-12.2-10.2c-2.8-1.8-4.4-1.5-5.1,2.1c-2.1,10.8-2.3,21.6,1.3,32c3.3,9.4,7.3,18.6,9.2,28.4
	c1.6,8.2,5.3,15.3,11,21.5c5.4,5.8,9,12.6,9.1,20.6c0.2,15.4,9.2,25.9,18.9,36.2c2.3,2.5,3.7,1.5,4.4-1.2
	C649.1,590.6,649.1,586.1,649.1,581.6z M472.4,273.8c10.8,0.5,21.6,0.7,32.4-0.7c1.5-0.2,3.8,0.4,4.3-1.7c0.5-2.2-1.5-3.1-3.2-4
	c-7-3.8-14-7.7-21.1-11.4c-4.3-2.2-7.5-5.3-9.8-9.6c-9.6-18.4-13.1-38.2-13.1-58.8c0-8.9-2.1-11.3-10.9-11.7c-1.8-0.1-3.7,0-5.5,0.2
	c-7.4,0.8-9.7,3.3-9.5,10.6c0.5,25.6,1.1,51.2,1.6,76.9c0.2,7.7,2,9.9,9.7,10.1C455.8,274,464.1,273.8,472.4,273.8z M382.7,273.8
	c8.3,0,16.6,0.1,25,0c8.4-0.1,10.3-2,10.5-10.3c0.3-9.5,0.5-19,0.7-28.4c0.3-16.3,0.6-32.6,0.9-48.9c0.1-6.5-1.6-8.5-8.1-9.8
	c-1.9-0.4-4-0.5-5.9-0.4c-9.7,0.2-11.8,2.8-11.8,12.4c0,20-3.5,39.4-12.6,57.4c-2.3,4.4-5.5,7.8-9.9,10.2c-7.5,4-14.9,8.1-22.3,12.3
	c-1.2,0.7-3.1,1.4-2.6,3.2c0.5,1.9,2.4,1.4,3.8,1.6C361,274.4,371.8,274.4,382.7,273.8z M530.9,1577.1c-0.6,7.1,1.7,18.2,3.6,29.3
	c0.3,1.5,0.3,4,2.2,4.1c2,0.1,1.9-2.5,2.1-3.9c3.2-17.4,5.9-34.8,8.3-52.3c3.2-23.9,5.7-47.9,9.8-71.7c1.7-10.1,5.7-19.5,8.4-29.2
	c1.1-3.9,0.3-7.1-2.5-10.1c-4.5-4.8-9.8-5.2-15.6-3.3c-6.2,2.1-8.5,7-9.1,13.1C534.2,1492.9,532.5,1532.8,530.9,1577.1z
	 M324.2,1564.2c-0.4-26.5-2.1-51.1-3.6-75.7c-0.8-12.8-1.4-25.6-3.6-38.2c-1.8-10.4-14.4-14.7-22.5-8.2c-5.3,4.2-5.2,9.3-3,14.8
	c5.7,14.7,8.5,30.1,10.5,45.6c4.6,34.6,8.2,69.4,15,103.7c0.3,1.7-0.1,4.3,2.2,4.4c1.8,0,1.7-2.5,2.1-4.1
	C324.2,1591.8,326.1,1577.2,324.2,1564.2z M203.9,456.4c-0.1,8.6,1,16,2.5,23.3c0.6,2.7,1,6,4.2,6.9c3.3,0.9,5.2-1.9,6.7-4.2
	c6.9-10.8,17-18.1,27.2-25.2c3.4-2.4,6.8-4.8,10.1-7.4c1.8-1.4,3.4-3.1,2.9-5.9c-2.7-15.9-5.3-31.8-7.9-47.7c-0.4-2.4-1-3.7-3.8-1.6
	c-9.4,6.9-18.3,14.4-26.1,23.1C209.8,429,203.6,441.9,203.9,456.4z M651.9,459.7c0.1-12.8-2.2-21.6-7.7-30.8
	c-8.2-13.9-20.5-23.8-33-33.6c-3.5-2.7-4.5-2.1-5.1,1.9c-2.2,13.6-4,27.3-7,40.7c-1.7,7.6,1.1,11.5,6.9,15.5
	c11.8,8.2,24.4,15.7,32.2,28.6c0.5,0.8,1.3,1.5,2,2.2c4.2,3.9,6.9,3.3,8.5-2.3C650.9,474.1,651.5,466,651.9,459.7z M334.3,1610.2
	c1.5-2,1.5-4.2,1.7-6.3c2.5-20.8,4.3-41.7,8.8-62.2c6.2-28.1,8.9-56.4,9.2-85.1c0.1-9.4-8.4-15.9-17.6-13.9
	c-3.2,0.7-4.9,2.3-5.5,5.5c-1.1,5.9-1.5,11.9-1.7,17.9c-0.4,20.5-0.5,40.9,0.5,61.4c0.9,19.6,1.4,39.2,2.5,58.8
	C332.8,1594.1,332.6,1602.1,334.3,1610.2z M520.5,1609.4c0.4,0,0.8,0,1.1,0c0.4-3.7,1-7.5,1.2-11.2c2.2-39.9,4-79.8,3.9-119.8
	c0-9.5-0.2-19-1.8-28.4c-0.4-2.6-0.6-5.3-3.5-6.7c-8.1-3.8-19.6,2.9-19.6,11.8c-0.1,19,1.1,38,3.7,56.8c2.6,18.8,7.7,37.1,9.9,56
	C517,1581.7,518.8,1595.5,520.5,1609.4z M288.8,772.7c0,1.7-0.6,3.2,0.5,3.8c1.4,0.8,2.5-0.6,3.5-1.3c7.2-5.1,14.6-9.9,21.5-15.4
	c18.2-14.4,38-25.6,60.9-30.8c2.3-0.5,6.1-0.4,6.3-2.8c0.1-2.6-3.1-4.4-5.4-6c-0.4-0.3-0.9-0.5-1.3-0.7c-14.9-5.6-30.1-9.6-46.2-8.4
	c-5.2,0.4-9.6,2.2-13.3,6c-8.3,8.5-13.5,18.9-18.2,29.6C293.2,755.1,290.2,763.9,288.8,772.7z M567.2,774.5
	c-0.1-1.4-0.1-2.4-0.3-3.4c-4-18.5-11.8-35.3-22.8-50.6c-4.9-6.9-11.8-9.7-20.2-9.8c-12.1-0.1-23.8,2.4-35.3,6
	c-4.4,1.4-8.8,2.6-12.2,6.3c-2.9,3.2-2.7,4.2,1.6,5.3c21.3,5.1,40.9,13.7,58.2,27.4c8.8,7,18.4,13.2,27.6,19.8
	c0.9,0.7,1.9,1.7,3.1,0.9C567.2,776.1,567.1,774.9,567.2,774.5z M550.7,433c35.1-0.3,50.2-29.3,47.8-60c-0.3-3.2-1.2-7.3-4.9-7.9
	c-4.1-0.7-5.4,3.4-6.6,6.4c-2.6,6.8-7.2,11.8-12.5,16.5c-15,13.3-31.1,24.5-51.6,27.5c-2.1,0.3-4.2,0.9-6.3,1.6
	c-4,1.4-4.3,2.9-1.4,6.1c0.9,1,2,1.9,3.1,2.4C527.9,429.7,537.7,433.3,550.7,433z M307.2,433.1c11.1,0,21.3-3.2,31.1-8.1
	c2.2-1.1,4.3-2.7,4.2-5.1c-0.1-2.9-3.3-2.8-5.3-3.6c-1.4-0.5-2.9-0.7-4.4-1c-28.1-6.1-50.5-20.3-64.9-45.8c-1.2-2.1-2.3-4.9-5.3-4.5
	c-3.1,0.4-3.9,3.3-4.7,5.9c-1.7,5.6-0.5,11.2-0.1,16.8C260.1,415.1,279.6,433,307.2,433.1z M294.1,685.9c0.3,10.7,1.4,21.7,3.1,32.5
	c0.2,1.4,0.4,3.3,2.2,3.5c1.6,0.2,2.1-1.5,2.8-2.5c6.7-10.3,15.6-18.1,26.5-23.7c2.8-1.4,5.6-3.1,8.1-4.9c6.3-4.6,6.9-6.5,3.3-13.4
	c-5.4-10.6-12.8-19.8-20.3-29c-6-7.3-12-7-17.8,0.7c-1.7,2.3-2.9,4.9-3.8,7.6C295.1,666,294.5,675.8,294.1,685.9z M561.9,684.6
	c-0.9-9.2-0.9-19.4-4.5-29.1c-1.6-4.4-4.1-8-8-10.6c-3.2-2.1-6.8-3.6-10-0.2c-9.8,10.5-18.4,21.8-24.8,34.8
	c-1.9,3.9-0.9,7.3,2.5,9.6c3.8,2.7,7.8,5.1,11.8,7.4c10,5.5,18.2,12.7,24.3,22.4c0.8,1.2,1.4,3,3.1,2.8c2.1-0.3,2-2.5,2.2-4
	C560.7,707.1,561.3,696.3,561.9,684.6z M718.6,792.9c0.6-1.7-0.2-2.7-0.7-3.7c-17.2-33.3-29.1-68.6-40.5-104.1
	c-5.3-16.3-10.7-32.6-17.1-48.5c-3.4-8.5-9.8-12.7-18.8-13.3c-5-0.3-6.2,1.1-4.5,5.7c3.3,8.9,6.9,17.7,10.3,26.5
	c9.1,23.9,22.7,45.5,33.8,68.4c10.6,21.8,20.1,44.3,33.3,64.8C715.5,790.4,716.2,792.3,718.6,792.9z M506.9,1586.1
	c-1.3,0.7-1.1,1.6-1.1,2.3c0.1,10.1,0,20.3,0.5,30.4c0.4,7.9,0.8,16,2.8,23.7c1,3.9,2.3,8.1,7.2,8.4c9.8,0.6,19.6,1.6,29.4,1.2
	c4.1-0.2,6.8-2,7.7-6.4c0.9-4.4,1.5-8.8,1.7-13.3c0.4-11.8-0.5-23.6,0.8-35.4c0.5-4.8,0.8-9.6,1-14.4c0.1-1.6,0.9-4.1-1.4-4.7
	c-1.8-0.5-2.6,1.7-3.6,3c-2.8,3.7-4.1,7.9-4.9,12.4c-1.2,6.7-2.5,13.4-4,20c-0.7,3.2-2.1,6.3-5.4,8c-9.3,4.8-20.4,0.5-23.4-9.6
	c-1.2-4-1.6-8.1-2.3-12.2C511.1,1594.7,510.5,1589.8,506.9,1586.1z M349.8,1586.4c-4,3.5-5.2,8-5.8,12.7c-0.6,4.9-1.1,9.9-3.1,14.6
	c-3,6.7-8.4,9.9-16,9.4c-7.3-0.5-10.1-2.9-12.3-10.8c-1.1-4.2-1.8-8.4-2.6-12.7c-1.3-7.2-2.3-14.5-7.3-20.4
	c-0.7-0.8-1.3-2.2-2.7-1.8c-1.4,0.5-1,1.9-1.1,3.1c0,2.2-0.1,4.3,0.1,6.5c1.5,14.6,1.8,29.2,1.7,43.9c0,4.5,0.2,9,1.2,13.4
	c1.4,6.3,3.1,8,9.4,8c7.8-0.1,15.6-0.7,23.4-0.9c8.5-0.3,10.5-2.1,12.3-10.5c2.2-10.2,2.2-20.5,2.7-30.8
	C350.1,1602.1,349.8,1594.2,349.8,1586.4z M675.8,551.9c-0.6-10.9-1.2-21.6-2.8-32.1c-2.3-15.3-5.2-30.5-9.5-45.4
	c-0.3-1-0.2-2.7-1.5-2.9c-1.8-0.3-1.9,1.6-2.4,2.6c-2.9,6-6,11.9-8.5,18.1c-3.7,9.2-7.8,18.5-4.9,28.9c5,18,12,35.3,18.3,52.8
	c0.7,1.8,1.4,4.1,3.8,4c2.2-0.1,2.7-2.2,3.5-3.8C675.3,567,675.2,559.2,675.8,551.9z M194,469.9c-1,2.6-1.5,4-1.9,5.3
	c-6.5,23.1-10.4,46.7-11.7,70.7c-0.5,9.3-0.4,18.7,3.3,27.5c0.8,1.9,1.4,4.5,4.1,4.4c2.7-0.1,3.1-2.9,3.8-4.7
	c6-17.1,13-33.9,17.7-51.4c1.4-5.1,1.4-10.2,0.1-15.3C206.4,493.8,200.3,482.6,194,469.9z M464,1039.6c0.5-1.6,0.8-2,0.7-2.3
	c-0.1-1.2-0.3-2.3-0.5-3.4c-6.7-34.4,1.1-65.6,21.3-94c1.9-2.7,1-3.4-1.7-3.8c-8.1-1-16.1-2.4-24.3-2.9c-15.5-1-18.1,2.1-16.3,17.7
	c2.2,19.2,5.8,38.1,10.9,56.8C456.9,1018.1,459.5,1028.5,464,1039.6z M391.3,1038.5c0.3,0.1,0.5,0.2,0.8,0.3
	c0.6-1.3,1.3-2.5,1.7-3.8c6.7-21.1,12.4-42.5,16-64.3c1.5-9.2,3.3-18.4,3-27.7c-0.2-7.6-2.1-9.4-9.6-9.7
	c-10.5-0.4-20.9,1.5-31.2,3.1c-2.7,0.4-3.2,1.2-1.4,3.8c16.2,22.6,24.4,47.9,23.3,75.8C393.6,1023.5,392.2,1031,391.3,1038.5z
	 M755.2,800.5c-3.2-10.6-6.4-21-9.2-31.6c-10.5-39.8-16-80.6-22.9-121.1c-1.7-10.2-4.2-20.2-5.1-30.5c-0.1-1.4-0.3-3.3-2.3-3.3
	c-1.5,0.1-2.1,1.6-2.4,2.9c-0.6,2.8-1,5.6-0.8,8.4c2.5,30.9,6,61.6,10.6,92.2c3.2,20.8,7.4,41.3,16,60.6
	C742.9,786.7,747.1,794.9,755.2,800.5z M99.9,801.3c4.7-2.7,7.3-6.1,9.6-9.6c10.2-16,15.8-33.8,19.4-52.1c6.2-31.7,9.9-63.8,13-95.9
	c0.8-8.1,1.7-16.2,1.3-24.4c-0.1-2.2-0.5-4.9-3.1-5c-2.4-0.1-1.9,2.7-2.2,4.3c-2.3,13.3-4.6,26.5-6.8,39.8
	c-5.6,34.1-10.7,68.3-19.1,102C108.6,773.9,104.9,787.3,99.9,801.3z M292.6,1656.2c-1.2,0-2.3,0-3.5,0c-5.7,0.1-11.3,0.1-17,0.2
	c-2.8,0-5,1.4-5.9,3.9c-0.8,2.2,1.9,2.8,3.2,3.8c6,4.7,12.6,7.9,20.2,9.1c8.2,1.4,16.3,3.2,24.5,4.4c9.2,1.4,18.4,2.7,27.8,2.6
	c3.9,0,7.4-0.9,7.9-5.7c1-8.6-4.5-15.6-13-16.5C322.2,1656.4,307.4,1656.3,292.6,1656.2z M565,1656.3c-14.5,0.1-29,0.1-43.4,1.6
	c-9.1,0.9-10.6,2.1-13.3,10.7c-2.6,8.4-0.2,11.7,8.5,11.5c16.7-0.3,33-3.7,49.4-6.6c8.4-1.5,15.9-4.7,22.6-10
	c3.4-2.6,3.2-4.4-0.5-6.5c-1.5-0.9-3.2-0.8-4.9-0.8C577.3,1656.3,571.2,1656.3,565,1656.3z M495.9,1228.9c-0.1-1.5,0-3-0.2-4.5
	c-3.1-25-5-50-4.5-75.2c0.2-11.9-1.2-23.6-3.7-35.2c-4.5-20.6-9.4-41.2-13.9-61.8c-1.5-6.7-2.4-13.5-3.6-20.3
	c-2,11.4-5.2,22.6-2.5,34.2c1.4,5.8,2.7,11.7,4.1,17.5c3.5,15.1,8.5,29.9,9.4,45.4c1.2,20.1,2.2,40.2,5.1,60.1
	C488,1202.7,490.5,1216.1,495.9,1228.9z M360,1228.7c0.2,0,0.4,0,0.6,0.1c0.6-1.5,1.2-3,1.7-4.6c6.3-20,8.6-40.6,10.5-61.3
	c1.2-13.1,1.4-26.3,2.8-39.3c1.8-16.2,6.7-31.9,10.8-47.6c3.5-13.6,4.3-27.1-0.5-40.6c-0.3,0.2-0.7,0.4-0.7,0.6
	c-2.2,17.5-7.2,34.5-11,51.7c-4.3,19.5-9.8,38.8-9.4,59c0.3,15-0.2,29.9-1.5,44.9C362.2,1203.9,361.1,1216.3,360,1228.7z
	 M682.6,576.6c-6.8,7.6-12.9,14.6-19.1,21.6c-1.9,2.2-3.3,4.7-3.5,7.6c-1,13.9,1.6,26.9,9.9,38.3c3,4.2,4.5,4,7.2-0.4
	c3.7-6,4.4-12.8,4.6-19.7c0.3-11.1-1.5-22.2,0.3-33.4C682.7,586.2,683.7,581.8,682.6,576.6z M173.2,576.9c-0.8,4.9,0.1,9.1,0.7,13.2
	c1.8,11.6-0.2,23.2,0.3,34.8c0.3,6.8,1.1,13.6,5.1,19.5c1.9,2.9,3.7,3.4,6.1,0.4c4.3-5.5,7.2-11.6,8.8-18.3
	c3.4-13.3,4-26.1-8.5-35.7c-1.9-1.5-3.3-3.7-4.9-5.6C178.6,582.5,176.6,579.4,173.2,576.9z M779.6,894.6c-2.3,0.5-4.6,0.8-6.8,1.4
	c-4,1.1-4.9,3.6-3.1,7.2c9.3,19,17.4,38.4,25.1,58c1.5,3.9,4.3,6.7,8,8.5c4.3,2,6.4,0.4,5.9-4.3c-0.5-4.2-2-8-3.5-11.9
	c-6.6-18.1-14.6-35.7-19.6-54.3C784.8,896.1,783.2,894.1,779.6,894.6z M831.7,943c-0.3-4-0.9-8.1-3.1-11.8
	c-9.4-15.3-17.3-31.4-25.6-47.3c-0.8-1.6-1.6-3.4-3.5-4c-2.2-0.7-11.4,3-12.5,5.2c-2,4,0.1,7.2,2.8,9.8c4,3.8,7.1,8.3,10.3,12.8
	c8.7,12.4,16.6,25.3,26.4,36.8c1.1,1.3,2.1,2.9,4.1,2.1C831.9,946.1,831.7,944.5,831.7,943z M773.2,965.4
	c-2.9-18.6-5.7-37.7-8.8-56.7c-1.4-8.4-1.5-8.3-9.7-6.8c-3,0.6-4,2-3.4,4.8c4.1,20.1,8.2,40.1,12.3,60.2c0.7,3.5,2.6,6.6,6.7,6.1
	C774.5,972.3,772.2,968.3,773.2,965.4z M82.8,965.2c1,2.8-1.5,7,3,7.6c4.2,0.5,5.9-3,6.9-6.6c0-0.2,0.1-0.3,0.1-0.5
	c3.9-19.5,7.6-39.1,11.7-58.6c0.8-4-0.5-5.2-4-5.4c-3.2-0.2-7.4-3.1-8.3,3.2c-1.1,7.7-2.4,15.4-3.6,23.1
	C86.5,940.5,84.7,953,82.8,965.2z M844,876.8c0.7-4.4-1.5-7.1-5.4-8.9c-8.8-4.1-16-9.6-20.5-18.7c-3.3-6.7-9.2-11.7-14.2-17.3
	c-0.9-1-2-2.4-3.3-1.8c-1.6,0.8-0.3,2.3,0.1,3.5c1,3,2.4,5.9,3,9c2.6,14.1,9.6,25.3,20.9,34.1c4.5,3.5,9.1,5.2,14.6,5.5
	C843,882.3,844.9,881,844,876.8z M116.3,919.3c-0.6,7.3,0.4,16.1,1.2,24.9c0.3,3,0.1,7.9,3,8.3c3.3,0.5,3.6-4.4,4.8-7.2
	c0.6-1.3,1.1-2.8,1.2-4.3c0.5-13.1,0.2-26.3,1.3-39.4c0.1-1.1,0.3-2.3-1.4-2.6c-4.6-1-10.1,3.2-10.1,7.8
	C116.2,910.4,116.3,914.1,116.3,919.3z M739.2,922c0-4.7-0.5-9.4,0.1-14c0.7-5.6-1.7-7.6-6.7-8.6c-3.6-0.7-4.9-0.3-4.4,3.6
	c1.3,11.3,0.8,22.6,1.2,33.9c0.1,3.3,0.4,6.7,1.9,9.7c1,2.2,1.4,6,3.9,5.8c3.1-0.3,2.6-4.1,3-6.6C739.2,938,739.3,930,739.2,922z"/>
<g id="Left_leg">
	<path style="fill:#404242;" d="M292.6,1656.2c14.8,0.2,29.6,0.3,44.4,1.9c8.5,0.9,14,7.9,13,16.5c-0.5,4.8-4,5.7-7.9,5.7
		c-9.4,0.1-18.6-1.2-27.8-2.6c-8.2-1.2-16.3-3.1-24.5-4.4c-7.6-1.3-14.3-4.4-20.2-9.1c-1.3-1-4-1.6-3.2-3.8c0.9-2.4,3.1-3.8,5.9-3.9
		c5.7-0.1,11.3-0.1,17-0.2C290.3,1656.2,291.5,1656.2,292.6,1656.2z"/>
	<path style="fill:#404242;" d="M349.8,1586.4c0,7.9,0.3,15.7-0.1,23.6c-0.5,10.3-0.5,20.6-2.7,30.8c-1.8,8.5-3.8,10.3-12.3,10.5
		c-7.8,0.2-15.6,0.8-23.4,0.9c-6.3,0.1-8-1.7-9.4-8c-1-4.4-1.2-8.9-1.2-13.4c0.1-14.6-0.1-29.3-1.7-43.9c-0.2-2.1-0.2-4.3-0.1-6.5
		c0-1.1-0.3-2.6,1.1-3.1c1.4-0.5,2,0.9,2.7,1.8c5,5.9,5.9,13.2,7.3,20.4c0.8,4.2,1.5,8.5,2.6,12.7c2.1,7.9,5,10.3,12.3,10.8
		c7.6,0.5,13-2.7,16-9.4c2.1-4.7,2.5-9.6,3.1-14.6C344.6,1594.4,345.8,1589.9,349.8,1586.4z"/>
	<path style="fill:#404242;" d="M324.2,1564.2c1.8,13,0,27.7-3,42.2c-0.3,1.6-0.3,4.1-2.1,4.1c-2.2,0-1.8-2.7-2.2-4.4
		c-6.7-34.3-10.4-69.1-15-103.7c-2-15.5-4.8-30.9-10.5-45.6c-2.1-5.5-2.3-10.6,3-14.8c8.2-6.5,20.8-2.1,22.5,8.2
		c2.2,12.6,2.8,25.5,3.6,38.2C322.2,1513.1,323.8,1537.6,324.2,1564.2z"/>
	<path style="fill:#404242;" d="M334.3,1610.2c-1.8-8-1.6-16-2-24c-1.1-19.6-1.6-39.2-2.5-58.8c-0.9-20.5-0.9-40.9-0.5-61.4
		c0.1-6,0.6-11.9,1.7-17.9c0.6-3.2,2.3-4.8,5.5-5.5c9.2-2,17.7,4.6,17.6,13.9c-0.3,28.7-3,57-9.2,85.1c-4.5,20.4-6.3,41.4-8.8,62.2
		C335.8,1606,335.8,1608.1,334.3,1610.2z"/>
	<path style="fill:#404242;" d="M322,1186.5c-0.4,9.4-0.7,18.8-1.3,28.2c-1.5,25.1-2.5,50.2-2.9,75.3c-0.6,31.8-1.1,63.6-0.8,95.4
		c0.1,7,1.5,13.9,0.3,20.9c-0.7,4-1.9,7.8-3.9,11.2c-3.3,5.7-8.1,8.4-14.9,7.7c-6.2-0.7-8.9-4.6-10.6-9.8c-4.9-15.8-8-31.9-9.7-48.3
		c-2.1-19.7-2.8-39.5-2-59.4c1-22.6,3.6-45.1,10.6-66.8c5.2-16.2,14.4-29.8,24.9-42.9c3.1-3.9,6.1-7.8,9.1-11.8
		C321.2,1186.3,321.6,1186.4,322,1186.5z"/>
	<path style="fill:#404242;" d="M330.9,1187.6c7.2,20.5,18.1,38.7,26.3,58.2c8.4,19.8,11.1,41,13.7,62.2c2,16.8,3.7,33.8,3.1,50.8
		c-1,25-10.9,46-29.1,63.1c-6.9,6.4-13,4.3-15.2-5c-1.4-5.8-1.6-11.9-1.3-17.9c1.1-24.1,2.2-48.2,3-72.3c0.7-20.8,0.1-41.6-0.6-62.4
		c-0.6-14.8-2.2-29.5-1.5-44.4c0.4-9.1,0.6-18.3,1-27.4C330.3,1190.8,330.7,1189.2,330.9,1187.6z"/>
	<path style="fill:#404242;" d="M285.9,1215.8c1.8-15.1,3-29.7,5.5-44.1c6.9-38.6,9.8-77.5,9.7-116.7c-0.1-31.5-0.2-63,0.3-94.4
		c0.3-16.1,0.3-32.3,3.7-48.2c0.8-3.9,1.3-8.7,5.7-9.8c3.8-1,6,3.1,8.2,5.7c9.8,11.5,17.7,24.1,22,38.7c0.7,2.2,1.1,4.5,0.8,6.9
		c-2.3,15.7-2.2,31.5-2.9,47.3c-1.4,28.9-0.5,58-5.7,86.6c-4.8,26.4-13,51.9-21.9,77.2c-5.6,15.9-11.6,31.5-20.8,45.8
		C289.3,1212.4,288.4,1214.2,285.9,1215.8z"/>
	<path style="fill:#404242;" d="M360,1228.7c1.1-12.4,2.2-24.8,3.3-37.3c1.3-14.9,1.8-29.9,1.5-44.9c-0.4-20.2,5.1-39.5,9.4-59
		c3.8-17.2,8.8-34.1,11-51.7c0-0.2,0.4-0.4,0.7-0.6c4.8,13.5,4,27,0.5,40.6c-4.1,15.8-9,31.4-10.8,47.6c-1.5,13-1.7,26.2-2.8,39.3
		c-1.9,20.7-4.2,41.4-10.5,61.3c-0.5,1.6-1.1,3.1-1.7,4.6C360.5,1228.7,360.3,1228.7,360,1228.7z"/>
	<path style="fill:#404242;" d="M338.1,1136.5c0.7-39.9,2.8-82.7,6.6-125.5c1.5-16.4,2.7-32.8,5.1-49.1c0.8-5.6,3.4-10.4,5.4-15.5
		c1.3-3.6,2.5-2.5,4-0.1c7.5,11.9,13.7,24.2,16.6,38.2c3.2,15.4,6.4,30.8,3.2,46.4c-1.7,8.1-4.9,15.9-7,23.9
		c-6.9,26-10.1,52.6-13.8,79.1c-3,21.7-4.7,43.7-8.9,65.3c-0.4,2.1-0.9,4.2-1.4,6.3c-0.2,0.9-0.4,2.2-1.6,2.3
		c-1.6,0.2-1.7-1.3-2.1-2.3c-2.3-6.3-3.3-12.9-3.9-19.5C338.7,1170.5,338.1,1155.1,338.1,1136.5z"/>
	<path style="fill:#404242;" d="M288.6,1110.8c-2.6-0.9-2.5-3-3.1-4.5c-6.3-17.7-9.1-36.1-11.3-54.6c-4.2-35.9-6.6-71.9-8.1-108
		c-0.8-20.3-1.7-40.6-0.2-60.9c0.1-1.5,0.1-3,0.4-4.5c0.1-0.7,0.6-1.7,1.3-2c1.1-0.6,1.9,0.4,2.4,1.2c1.1,1.8,2.3,3.7,3.1,5.7
		c10.1,24.8,16.1,50.5,18.2,77.3c2,25.3-0.7,50.2-2.9,75.2c-1.9,21.9-3.1,43.8,0.2,65.7C288.9,1104.4,288.6,1107.5,288.6,1110.8z"/>
	<path style="fill:#404242;" d="M391.3,1038.5c0.9-7.5,2.3-15,2.6-22.5c1.1-27.9-7.1-53.2-23.3-75.8c-1.9-2.6-1.3-3.4,1.4-3.8
		c10.4-1.6,20.7-3.5,31.2-3.1c7.5,0.3,9.4,2.1,9.6,9.7c0.3,9.4-1.5,18.6-3,27.7c-3.6,21.9-9.3,43.2-16,64.3
		c-0.4,1.3-1.1,2.5-1.7,3.8C391.8,1038.7,391.6,1038.6,391.3,1038.5z"/>
</g>
<g id="Right_leg">
	<path style="fill:#404242;" d="M565,1656.3c6.2,0,12.3,0,18.5,0c1.7,0,3.3-0.1,4.9,0.8c3.7,2.1,3.9,3.8,0.5,6.5
		c-6.7,5.2-14.2,8.4-22.6,10c-16.4,3-32.7,6.3-49.4,6.6c-8.8,0.2-11.1-3.2-8.5-11.5c2.7-8.6,4.2-9.7,13.3-10.7
		C536,1656.4,550.5,1656.4,565,1656.3z"/>
	<path style="fill:#404242;" d="M506.9,1586.1c3.6,3.7,4.2,8.6,5,13.4c0.7,4.1,1.1,8.3,2.3,12.2c3,10,14,14.4,23.4,9.6
		c3.3-1.7,4.6-4.8,5.4-8c1.5-6.6,2.8-13.3,4-20c0.8-4.5,2.2-8.7,4.9-12.4c1-1.3,1.8-3.4,3.6-3c2.3,0.6,1.5,3.1,1.4,4.7
		c-0.2,4.8-0.5,9.6-1,14.4c-1.3,11.8-0.4,23.6-0.8,35.4c-0.2,4.5-0.8,8.9-1.7,13.3c-0.9,4.4-3.6,6.2-7.7,6.4
		c-9.8,0.5-19.6-0.6-29.4-1.2c-5-0.3-6.2-4.4-7.2-8.4c-2-7.8-2.4-15.8-2.8-23.7c-0.5-10.1-0.4-20.3-0.5-30.4
		C505.8,1587.7,505.6,1586.7,506.9,1586.1z"/>
	<path style="fill:#404242;" d="M530.9,1577.1c1.6-44.3,3.4-84.2,7.3-124c0.6-6.1,3-11,9.1-13.1c5.8-1.9,11.1-1.6,15.6,3.3
		c2.8,3,3.6,6.2,2.5,10.1c-2.8,9.8-6.7,19.2-8.4,29.2c-4.1,23.8-6.6,47.8-9.8,71.7c-2.4,17.5-5.1,34.9-8.3,52.3
		c-0.3,1.5-0.1,4-2.1,3.9c-1.9-0.1-1.9-2.6-2.2-4.1C532.6,1595.3,530.3,1584.2,530.9,1577.1z"/>
	<path style="fill:#404242;" d="M520.5,1609.4c-1.7-13.8-3.5-27.6-5.1-41.5c-2.2-18.9-7.3-37.2-9.9-56c-2.6-18.8-3.8-37.8-3.7-56.8
		c0.1-8.9,11.5-15.6,19.6-11.8c3,1.4,3.1,4.1,3.5,6.7c1.5,9.4,1.7,18.9,1.8,28.4c0.1,40-1.7,79.9-3.9,119.8
		c-0.2,3.8-0.8,7.5-1.2,11.2C521.3,1609.4,520.9,1609.4,520.5,1609.4z"/>
	<path style="fill:#404242;" d="M580.1,1323.5c-0.1,29.1-2.6,57.9-10.2,86.1c-0.5,1.8-1.1,3.5-1.6,5.3c-1.8,5.9-4.9,10.1-11.8,10.4
		c-6.6,0.3-11.7-2.5-14.8-8.9c-3.2-6.6-4.1-13.7-3.5-20.9c1.7-20.6,0.9-41.3,0.7-61.9c-0.2-24-0.5-48-1.4-71.9
		c-0.8-23.3-2.3-46.6-3.5-69.8c-0.1-1.5-1.1-3.8,0.8-4.4c1.8-0.5,2.5,1.8,3.4,3.1c8.2,11.7,18.3,22,24.6,35.1
		c8.8,18.3,12.6,37.8,15,57.7C579.6,1296.6,580.2,1310,580.1,1323.5z"/>
	<path style="fill:#404242;" d="M525,1187c0.3,5.9,0.6,11.8,1,17.7c1.4,24.8-0.7,49.5-1.5,74.3c-1.3,36.8,0.4,73.6,2.6,110.3
		c0.4,7.1,0.3,14.3,0,21.5c-0.2,5.5-0.7,11.7-6.6,14c-5.9,2.3-9.8-2.6-13.1-6.3c-14.6-15.9-24.4-34.6-25-56.3
		c-1.1-36.8,3.1-73.1,13.5-108.5c4.1-13.8,11.9-26,17.6-39.1C517.3,1205.4,521,1196.3,525,1187z"/>
	<path style="fill:#404242;" d="M570,1215.7c-3.4-2.2-4.5-4.9-5.9-7.2c-8.4-14.1-14.5-29.2-19.8-44.7c-8.3-24.1-16.1-48.4-21.2-73.3
		c-4.4-21.8-4.1-44.1-5.2-66.2c-1.1-23.1-0.6-46.3-3.7-69.3c-1.1-8.5,3.3-15.9,6.7-23.2c4.4-9.4,10.6-17.7,17.5-25.5
		c1.8-2.1,3.7-4.1,6.7-3.6c3.2,0.5,3.9,3.5,4.6,6c3.2,10.8,3.7,22,4.2,33.1c1.7,43.1,0.5,86.3,1.1,129.5c0.4,31.2,3,62.1,8.5,92.9
		C566.4,1180.8,567.8,1197.7,570,1215.7z"/>
	<path style="fill:#404242;" d="M509.9,1209.6c-3.2-6.9-4-13.3-4.9-19.6c-3.8-28-7.3-56.1-11.2-84.1c-3.3-23.2-7.3-46.3-15.2-68.6
		c-5-14-3.1-28.3-0.7-42.4c3-17,8.2-33.2,18.1-47.6c0.8-1.2,1.2-3.2,2.8-3.1c1.7,0.1,1.7,2.2,2.3,3.4c5.9,11.1,6.2,23.4,7.4,35.4
		c4.2,43.2,7.4,86.6,8.3,130c0.5,23.6,1.1,47.3-1.1,70.9C515.2,1192.3,514.3,1200.7,509.9,1209.6z"/>
	<path style="fill:#404242;" d="M567.5,1111c-1.1-6.7,0.1-12.8,0.8-18.8c2.2-19,1.1-37.9-0.9-56.7c-4.1-37.7-5.3-75.3,2.6-112.8
		c3-14.3,8.9-27.5,13.8-41.1c0.8-2.1,1.6-5.7,4.5-5.1c2.4,0.5,1.7,4,1.8,6.2c2.1,35.5-0.6,70.8-2.7,106.2c-1.5,25.1-3.8,50.1-7.2,75
		c-2,14.4-4.9,28.5-9.6,42.3C569.9,1107.7,569.8,1109.5,567.5,1111z"/>
	<path style="fill:#404242;" d="M495.9,1228.9c-5.5-12.9-7.9-26.3-9.9-39.7c-2.9-19.9-4-40-5.1-60.1c-0.9-15.5-5.9-30.3-9.4-45.4
		c-1.4-5.8-2.7-11.7-4.1-17.5c-2.8-11.6,0.4-22.8,2.5-34.2c1.2,6.8,2.2,13.6,3.6,20.3c4.6,20.6,9.4,41.2,13.9,61.8
		c2.5,11.6,3.9,23.2,3.7,35.2c-0.5,25.2,1.5,50.2,4.5,75.2C495.9,1225.9,495.9,1227.4,495.9,1228.9z"/>
	<path style="fill:#404242;" d="M464,1039.6c-4.5-11.1-7-21.5-9.8-31.9c-5.1-18.6-8.7-37.6-10.9-56.8c-1.8-15.6,0.8-18.7,16.3-17.7
		c8.1,0.5,16.2,1.9,24.3,2.9c2.7,0.3,3.5,1.1,1.7,3.8c-20.2,28.3-27.9,59.5-21.3,94c0.2,1.1,0.4,2.3,0.5,3.4
		C464.7,1037.6,464.5,1038,464,1039.6z"/>
</g>
<g id="Hands">
	<path style="fill:#404242;" d="M713.8,839c0-3.5,0.1-5.9,0-8.2c-0.4-5.2,1.8-9.3,5.8-12c11.5-8,25-11.4,38-8.1
		c14.6,3.7,27.3,12.8,35.4,26c9.4,15.1,7.5,26.7-5,37.9c-11.9,10.6-25.3,18.4-41.2,21.1c-4.3,0.7-8.6,0.7-12.9-0.3
		c-6.5-1.5-11-5.3-13-11.8C716.3,868.6,714.4,853.3,713.8,839z"/>
	<path style="fill:#404242;" d="M844,876.8c1,4.2-0.9,5.5-4.8,5.3c-5.5-0.3-10.1-2.1-14.6-5.5c-11.3-8.8-18.3-20-20.9-34.1
		c-0.6-3.1-2-6-3-9c-0.4-1.2-1.7-2.7-0.1-3.5c1.3-0.6,2.4,0.8,3.3,1.8c5,5.6,10.9,10.7,14.2,17.3c4.5,9.1,11.7,14.7,20.5,18.7
		C842.4,869.6,844.7,872.4,844,876.8z"/>
	<path style="fill:#404242;" d="M831.7,943c0,1.5,0.2,3.1-1.3,3.7c-2,0.8-3-0.9-4.1-2.1c-9.8-11.5-17.7-24.4-26.4-36.8
		c-3.1-4.5-6.2-9-10.3-12.8c-2.7-2.6-4.8-5.8-2.8-9.8c1.1-2.2,10.4-5.9,12.5-5.2c2,0.6,2.7,2.4,3.5,4c8.3,15.9,16.2,32,25.6,47.3
		C830.8,934.9,831.4,939,831.7,943z"/>
	<path style="fill:#404242;" d="M779.6,894.6c3.7-0.5,5.2,1.5,6,4.6c5,18.7,13.1,36.2,19.6,54.3c1.4,3.9,3,7.8,3.5,11.9
		c0.5,4.6-1.6,6.2-5.9,4.3c-3.7-1.7-6.5-4.5-8-8.5c-7.7-19.6-15.9-39.1-25.1-58c-1.8-3.6-0.8-6.1,3.1-7.2
		C775,895.4,777.3,895,779.6,894.6z"/>
	<path style="fill:#404242;" d="M773.2,965.4c-1,3,1.3,6.9-3,7.5c-4.1,0.6-5.9-2.6-6.7-6.1c-4.2-20-8.2-40.1-12.3-60.2
		c-0.6-2.8,0.4-4.2,3.4-4.8c8.2-1.5,8.4-1.7,9.7,6.8C767.4,927.7,770.3,946.8,773.2,965.4z"/>
	<path style="fill:#404242;" d="M739.2,922c0.1,8,0.1,16-1.2,23.9c-0.4,2.5,0.1,6.3-3,6.6c-2.5,0.2-2.9-3.6-3.9-5.8
		c-1.4-3-1.8-6.4-1.9-9.7c-0.3-11.3,0.2-22.7-1.2-33.9c-0.5-3.9,0.8-4.3,4.4-3.6c5.1,1,7.5,3,6.7,8.6
		C738.7,912.6,739.2,917.3,739.2,922z"/>
	<path style="fill:#404242;" d="M142.2,834.5c-0.5,16.5-2.4,30.6-5.9,44.5c-3.4,13.6-11.5,19.1-26.5,16.7c-18.5-3-34-12.2-46.5-26.1
		c-7.6-8.4-7.1-18.1-3.2-28c4.5-11.2,14.2-17.2,23.3-23.9c16.7-12.5,33.6-8.5,50.3-0.6C141.8,820.9,143,828.5,142.2,834.5z"/>
	<path style="fill:#404242;" d="M116.3,919.3c0-5.2,0-8.9,0-12.6c0-4.6,5.5-8.8,10.1-7.8c1.7,0.4,1.5,1.5,1.4,2.6
		c-1.1,13.1-0.8,26.3-1.3,39.4c-0.1,1.5-0.6,3-1.2,4.3c-1.3,2.7-1.5,7.6-4.8,7.2c-2.9-0.4-2.7-5.3-3-8.3
		C116.7,935.4,115.7,926.6,116.3,919.3z"/>
	<path style="fill:#404242;" d="M82.8,965.2c1.9-12.2,3.8-24.7,5.7-37.2c1.2-7.7,2.5-15.4,3.6-23.1c0.9-6.3,5.1-3.3,8.3-3.2
		c3.5,0.2,4.8,1.4,4,5.4c-4.1,19.5-7.8,39-11.7,58.6c0,0.2-0.1,0.3-0.1,0.5c-1,3.6-2.6,7.1-6.9,6.6C81.2,972.3,83.8,968,82.8,965.2z
		"/>
	<path style="fill:#404242;" d="M56.5,936.4c5.6-10.3,8.6-21.5,12.5-32.4c0.1-0.3,0.1-0.7,0.2-1c2.3-8.7,6.6-10.6,14.9-6.7
		c3.1,1.4,3.8,3.5,2.3,6.4c-9.5,19.4-17.7,39.4-25.8,59.5c-1.5,3.8-4.4,6.2-8.1,7.6c-4.1,1.6-5.6,0.4-5.3-4
		c0.4-5.6,2.9-10.5,4.7-15.7c0.4-1,1.5-2,0.5-3.2C53.8,943.5,55.1,939.9,56.5,936.4z"/>
	<path style="fill:#404242;" d="M46.6,922.7c-6.1,5.9-9.8,13.7-15.5,20c-0.7,0.7-1.2,1.6-1.9,2.3c-1,1.1-2,2.5-3.7,1.7
		c-1.4-0.7-1.4-2.2-1.4-3.5c0.1-4.1,0.9-8,3-11.5c8.8-14.9,16.7-30.3,24.7-45.7c3.6-7,12.4-7.6,17-1.1c2.7,3.7,0.3,7.1-2.3,9.7
		C59,902,53.8,911,47.9,919.5C47.3,920.4,46.5,921.3,46.6,922.7C46.7,922.6,46.6,922.7,46.6,922.7z"/>
	<path style="fill:#404242;" d="M16,868c8-3.4,15.4-7.2,19.7-15.7c3.8-7.6,9.9-13.7,15.8-19.9c1.1-1.2,2.1-2.7,4.1-2.4
		c1,2.1-0.6,3.8-1.1,5.6c-1.1,4-2.5,7.9-3.5,12c-3.4,13.9-12.2,23.7-23.5,31.7c-1.1,0.8-2.4,1.3-3.6,1.6c-4,1-9,3.2-11.7-0.2
		c-2.4-3.1-0.2-7.9,1.9-11.6C14.7,868.7,15.3,868.3,16,868z"/>
</g>
<g id="Left_arm">
	<path style="fill:#404242;" d="M173.2,576.9c3.4,2.5,5.4,5.6,7.7,8.3c1.6,1.9,2.9,4.2,4.9,5.6c12.5,9.6,11.9,22.4,8.5,35.7
		c-1.7,6.7-4.6,12.8-8.8,18.3c-2.4,3-4.1,2.6-6.1-0.4c-3.9-5.9-4.8-12.7-5.1-19.5c-0.5-11.6,1.5-23.2-0.3-34.8
		C173.3,586,172.4,581.8,173.2,576.9z"/>
	<path style="fill:#404242;" d="M99.9,801.3c5-14,8.7-27.4,12-40.9c8.3-33.6,13.5-67.8,19.1-102c2.2-13.3,4.4-26.6,6.8-39.8
		c0.3-1.6-0.2-4.4,2.2-4.3c2.6,0.1,3,2.7,3.1,5c0.4,8.2-0.5,16.3-1.3,24.4c-3,32.1-6.7,64.2-13,95.9c-3.6,18.3-9.2,36.2-19.4,52.1
		C107.1,795.2,104.5,798.6,99.9,801.3z"/>
	<path style="fill:#404242;" d="M194,469.9c6.2,12.7,12.4,23.9,15.4,36.5c1.2,5.1,1.2,10.2-0.1,15.3c-4.7,17.6-11.6,34.3-17.7,51.4
		c-0.7,1.9-1.1,4.6-3.8,4.7c-2.7,0.1-3.3-2.5-4.1-4.4c-3.8-8.8-3.9-18.2-3.3-27.5c1.4-24,5.2-47.6,11.7-70.7
		C192.5,473.9,193.1,472.5,194,469.9z"/>
	<path style="fill:#404242;" d="M135,795c22.9-42.6,36.4-88.9,51.8-134.5c2.6-7.6,5.4-15,8.2-22.5c3.1-8.3,8.7-13.5,17.8-14.6
		c6.6-0.8,8,0.7,5.6,6.9c-8.8,22.7-17.7,45.2-29.7,66.5c-12.7,22.5-22.8,46.3-34.5,69.3c-4.5,8.9-9,17.9-15.2,25.7
		C138,793.2,137.3,795.1,135,795L135,795z"/>
	<path style="fill:#404242;" d="M203.9,456.4c-0.4-14.5,5.8-27.4,15.8-38.7c7.7-8.8,16.6-16.2,26.1-23.1c2.8-2,3.4-0.7,3.8,1.6
		c2.6,15.9,5.2,31.8,7.9,47.7c0.5,2.8-1.1,4.5-2.9,5.9c-3.3,2.6-6.7,5-10.1,7.4c-10.2,7.2-20.3,14.4-27.2,25.2
		c-1.5,2.3-3.5,5-6.7,4.2c-3.2-0.8-3.6-4.2-4.2-6.9C204.9,472.4,203.8,465,203.9,456.4z"/>
	<path style="fill:#404242;" d="M206.5,581.1c0.2-17.1,5-33.5,7.9-50.2c1.2-7.2,2.6-14.5,2.4-21.8c-0.5-12.5,3.9-22.7,13.4-30.8
		c8.2-7,16.1-14.4,24.3-21.5c5.1-4.4,6.4-3.8,7.7,2.9c2.6,13.5,0.9,26.5-5.1,38.9c-3.1,6.5-4.3,13.6-6,20.5
		c-1.9,7.4-5.1,14-10.2,19.7c-6,6.6-9.5,14.1-10,23.3c-0.5,9.8-4.2,18.4-11.1,25.6c-2.3,2.4-4.4,5-6.6,7.5c-1,1.1-1.8,2.8-3.5,2.4
		c-2-0.4-2.1-2.6-2.2-4.1C207,589.4,206.8,585.3,206.5,581.1z"/>
	<path style="fill:#404242;" d="M120.8,801.8c15.9-67,22.9-135.3,32.7-204.7c5.2,11.4,10.1,21.3,12.2,32.3
		c3.3,17.2,5.4,34.5,5.4,52.1c0,12.6-3.1,24.4-7.5,36c-9.3,24.5-20.1,48.3-32.9,71.1C128,793.4,125.1,798.1,120.8,801.8z"/>
	<path style="fill:#404242;" d="M201.2,381.4c0.4-9-1.3-19.2,0.1-29.3c2.5-18.2,13.4-31.1,27.9-41.4c9.3-6.6,19-12,31.1-11.9
		c11.4,0.1,20.4,5,29.2,11.3c2.3,1.7,1.4,3-0.4,4.2c-3.4,2.4-6.7,5-10.2,7.1c-18.1,10.5-26.4,27-27.2,47.1
		c-0.4,9.3-4.2,15.6-10.5,21.5c-10.5,9.8-21.6,18.7-35.6,23.4c-4.1,1.4-4.5,0.2-4.5-3.3C201.3,400.9,201.2,391.7,201.2,381.4z"/>
</g>
<g id="Right_arm">
	<path style="fill:#404242;" d="M682.6,576.6c1.1,5.3,0.1,9.7-0.6,14c-1.7,11.1,0.1,22.3-0.3,33.4c-0.2,6.8-0.9,13.6-4.6,19.7
		c-2.7,4.4-4.2,4.6-7.2,0.4c-8.3-11.4-10.9-24.4-9.9-38.3c0.2-2.9,1.6-5.4,3.5-7.6C669.6,591.1,675.8,584.2,682.6,576.6z"/>
	<path style="fill:#404242;" d="M755.2,800.5c-8-5.6-12.3-13.8-16.1-22.3c-8.6-19.3-12.8-39.8-16-60.6c-4.7-30.6-8.2-61.4-10.6-92.2
		c-0.2-2.9,0.2-5.7,0.8-8.4c0.3-1.3,1-2.8,2.4-2.9c2-0.1,2.2,1.8,2.3,3.3c0.9,10.3,3.4,20.3,5.1,30.5c6.9,40.5,12.5,81.3,22.9,121.1
		C748.8,779.5,752,789.9,755.2,800.5z"/>
	<path style="fill:#404242;" d="M675.8,551.9c-0.6,7.3-0.5,15-3.9,22.2c-0.8,1.6-1.3,3.8-3.5,3.8c-2.5,0.1-3.2-2.2-3.8-4
		c-6.4-17.5-13.3-34.8-18.3-52.8c-2.9-10.4,1.1-19.7,4.9-28.9c2.5-6.2,5.6-12.1,8.5-18.1c0.5-1.1,0.6-3,2.4-2.6
		c1.3,0.2,1.2,1.9,1.5,2.9c4.3,14.9,7.2,30.1,9.5,45.4C674.6,530.4,675.2,541,675.8,551.9z"/>
	<path style="fill:#404242;" d="M718.6,792.9c-2.4-0.6-3.1-2.5-4.2-4.1c-13.2-20.5-22.7-43-33.3-64.8
		c-11.1-22.9-24.8-44.5-33.8-68.4c-3.4-8.9-7-17.6-10.3-26.5c-1.7-4.6-0.5-6,4.5-5.7c9,0.6,15.4,4.9,18.8,13.3
		c6.4,15.9,11.8,32.2,17.1,48.5c11.4,35.5,23.3,70.8,40.5,104.1C718.4,790.1,719.2,791.1,718.6,792.9z"/>
	<path style="fill:#404242;" d="M651.9,459.7c-0.4,6.3-0.9,14.4-3.2,22.3c-1.6,5.6-4.3,6.2-8.5,2.3c-0.7-0.7-1.5-1.4-2-2.2
		c-7.8-12.8-20.4-20.3-32.2-28.6c-5.8-4-8.6-7.9-6.9-15.5c3-13.4,4.8-27.1,7-40.7c0.6-4,1.7-4.6,5.1-1.9c12.5,9.8,24.7,19.7,33,33.6
		C649.6,438.2,652,446.9,651.9,459.7z"/>
	<path style="fill:#404242;" d="M649.1,581.6c0.1,4.5,0.1,9-1.1,13.4c-0.7,2.8-2.1,3.7-4.4,1.2c-9.7-10.3-18.7-20.9-18.9-36.2
		c-0.1-8-3.7-14.8-9.1-20.6c-5.7-6.2-9.4-13.3-11-21.5c-2-9.9-6-19-9.2-28.4c-3.6-10.5-3.4-21.2-1.3-32c0.7-3.6,2.3-4,5.1-2.1
		c4.5,2.9,8.3,6.6,12.2,10.2c5.9,5.4,11.9,10.7,17.7,16.2c5.6,5.4,9.5,12,9.6,19.8c0.1,20.3,5.1,39.9,8.6,59.7
		C648.4,568,649.2,574.8,649.1,581.6z"/>
	<path style="fill:#404242;" d="M702.2,598c10,68.6,16.8,137.3,33.7,205.3c-4.1-2.6-5.8-6-7.6-9.2c-16-28.5-29.9-57.9-40-89.1
		c-4.2-12.9-3.7-26.3-2.8-39.6c0.9-13.1,2.7-26.1,5.5-39C693.1,616.3,698.3,607.4,702.2,598z"/>
	<path style="fill:#404242;" d="M655,378.5c-0.5,12.1,0.3,22.2-0.6,32.4c-0.3,3.2-1.2,3.4-4,2.4c-14.4-4.9-25.7-14.2-36.6-24.4
		c-6.1-5.8-9.4-12-9.6-20.4c-0.6-22.2-11.3-38.3-30.2-49.5c-11.2-6.7-11-6.9,0-13.8c13.7-8.5,27.8-8.9,41.7-1.4
		c15.8,8.5,29.3,19.6,36.1,37.1c2.1,5.4,3.1,10.9,3.2,16.5C655,365.2,655,372.8,655,378.5z"/>
</g>
<g id="Back">
	<path style="fill:#404242;" d="M550.7,433c-13,0.2-22.8-3.3-32.4-7.6c-1.2-0.5-2.3-1.4-3.1-2.4c-2.9-3.1-2.5-4.7,1.4-6.1
		c2-0.7,4.1-1.3,6.3-1.6c20.5-2.9,36.6-14.2,51.6-27.5c5.3-4.7,9.9-9.7,12.5-16.5c1.1-3,2.5-7.1,6.6-6.4c3.7,0.6,4.7,4.7,4.9,7.9
		C600.9,403.8,585.8,432.7,550.7,433z"/>
	<path style="fill:#404242;" d="M307.2,433.1c-27.6-0.2-47-18.1-49.4-45.5c-0.5-5.6-1.6-11.2,0.1-16.8c0.8-2.6,1.6-5.4,4.7-5.9
		c3.1-0.4,4.1,2.3,5.3,4.5c14.4,25.5,36.8,39.7,64.9,45.8c1.5,0.3,3,0.5,4.4,1c2.1,0.8,5.2,0.7,5.3,3.6c0.1,2.4-2,4-4.2,5.1
		C328.5,429.9,318.2,433.1,307.2,433.1z"/>
	<path style="fill:#404242;" d="M294.1,685.9c0.5-10.1,1-19.9,4.1-29.3c0.9-2.7,2-5.3,3.8-7.6c5.8-7.7,11.8-8,17.8-0.7
		c7.5,9.1,14.9,18.4,20.3,29c3.5,6.9,2.9,8.9-3.3,13.4c-2.5,1.9-5.3,3.5-8.1,4.9c-10.9,5.6-19.8,13.4-26.5,23.7
		c-0.7,1.1-1.2,2.7-2.8,2.5c-1.9-0.2-2-2.1-2.2-3.5C295.5,707.5,294.4,696.6,294.1,685.9z"/>
	<path style="fill:#404242;" d="M561.9,684.6c-0.6,11.7-1.2,22.5-3.1,33.1c-0.3,1.5-0.1,3.7-2.2,4c-1.7,0.2-2.4-1.5-3.1-2.8
		c-6.1-9.6-14.4-16.9-24.3-22.4c-4.1-2.2-8.1-4.7-11.8-7.4c-3.4-2.4-4.4-5.7-2.5-9.6c6.4-13,15-24.3,24.8-34.8
		c3.2-3.4,6.8-1.9,10,0.2c3.8,2.5,6.4,6.2,8,10.6C561,665.3,561,675.4,561.9,684.6z"/>
	<path style="fill:#404242;" d="M509.9,414.9c-6.6,0.1-8.9-3.2-7-9.5c4.5-15,9.1-29.9,12.8-45.1c2.5-10.5,4.6-21.1,7.6-31.5
		c4.3-15.2,6.8-16.1,21.4-10.1c14.5,5.9,28.5,12.9,42.3,20.4c3.9,2.1,4.8,4.5,2.9,8.4c-3.5,7-6.6,14.2-10,21.2
		c-5.9,12.2-15.6,20.7-27.2,26.9c-10.5,5.7-20.9,11.7-32,16.3C516.8,413.4,513,414.5,509.9,414.9z"/>
	<path style="fill:#404242;" d="M353.3,407.9c0.1,5.3-1.8,7.4-6.6,7c-3.1-0.3-6.3-0.9-9.2-2.2c-14.1-6-27.6-13.1-40.8-21
		c-14.6-8.9-21.2-23.4-27.8-38c-0.1-0.2-0.1-0.3-0.2-0.5c-4.8-11.5-4.8-11.6,6.1-17.3c13.6-7.1,27.3-13.9,41.6-19.4
		c7.8-3,10.3-2,13.6,5.7c4.6,10.5,5.9,21.8,8.6,32.8c4,16.2,8.7,32.1,13.4,48.1C352.8,404.8,353.4,406.5,353.3,407.9z"/>
	<path style="fill:#404242;" d="M437.7,657.9c0.1-34.3,1.2-68.6,5.4-102.6c0.7-5.6,2-11.1,3.1-16.7c0.3-1.4,0.4-3.4,2.1-3.7
		c2-0.3,2.5,1.9,3.2,3.3c11.8,22.8,22.2,46.2,31.6,70.1c9.2,23.4,19.1,46.5,25.2,71c0.1,0.5,0.3,0.9,0.4,1.4
		c2.9,13.2,2.7,13.7-8.6,21c-17.4,11.2-34.7,22.4-52,33.6c-3.4,2.2-4.7,2.5-5.6-2.3c-3.5-18.4-4.5-37-4.9-55.6
		C437.6,670.9,437.7,664.4,437.7,657.9z"/>
	<path style="fill:#404242;" d="M418.3,650.9c0.1,28.7-0.2,54.5-4.6,80.1c-1.3,7.3-1.4,7.3-7.6,3.3c-18.6-12-37.1-24.1-55.8-35.9
		c-3.4-2.2-4.8-4.7-4.5-8.6c0.6-9.1,3.3-17.7,6.3-26.1c14.8-42.6,31.5-84.5,52-124.8c0.8-1.5,1.2-4.1,3.4-3.8c2,0.3,2.2,2.7,2.6,4.4
		c2.7,11.7,4,23.6,5,35.5C417,601.2,418.5,627.5,418.3,650.9z"/>
	<path style="fill:#404242;" d="M402,506.2c-0.4,5.2-1.9,10.1-3.4,15c-7.4,24.1-17.8,47-27,70.3c-9.2,23.2-18.6,46.3-26.4,70.1
		c-1.3,3.8-2.7,4.7-5.7,1.6c-9.3-9.4-17.1-20-23.7-31.4c-3.7-6.4-3.8-14.1-5-21.3c-4.7-27.5-9.7-55-16-82.2
		c-1.9-8.2-2.9-16.7-3.4-25.2c-0.7-11.4-3.9-21.7-10-31.4c-6.3-10-9.6-21.1-10.5-33c-0.2-3.4,0.3-4,3.8-2.3
		c19.6,9.2,39.7,13.2,60.6,4.2c5.5-2.4,10.3-5.3,13.2-10.8c1.7-3.3,4.6-5.7,7.4-8.1c2.9-2.5,4.8-2.6,6.6,1.5
		c6,13.7,12.5,27.2,18.6,40.9c4.8,10.8,9.3,21.7,17,30.9C400.6,498.3,401.5,502.1,402,506.2z"/>
	<path style="fill:#404242;" d="M585.2,440.7c-1.1,9.5-3.5,19.9-9.2,28.8c-7.5,11.4-10.7,23.8-11.7,37.1
		c-1.2,15.5-4.1,30.6-8.1,45.6c-5.1,19.2-8,38.8-10.5,58.4c-2.2,17-10.1,30.3-20.4,43c-2.6,3.2-5.3,6.4-8.3,9.3
		c-3.5,3.5-4.4,3.2-6-1.2c-7.8-20.7-15.5-41.5-23.3-62.2c-7.8-20.7-17.7-40.6-24.6-61.7c-2.7-8.2-5.3-16.5-7.9-24.7
		c-2.1-6.7-1.1-12.7,3.2-18.3c13.2-17.1,19.1-37.9,28.5-57c2.5-5.1,5-10.2,7.2-15.4c1.4-3.1,3.2-3.1,5.4-1.2
		c2.4,2.1,5.4,3.9,6.7,6.6c5.7,11.2,16.2,14.8,27,16.8c16.4,3,32.4-0.2,47.5-7.5c1.3-0.6,2.2-2.2,4-1.6
		C585.2,435.6,585.4,436.7,585.2,440.7z"/>
	<path style="fill:#404242;" d="M441.4,514.7c-1.6-5.4-1.7-11-2.1-16.6c-2.3-33.5-4.8-67.1-5.8-100.7c-0.7-23.8-0.8-47.6,1.5-71.4
		c0.3-3.5,1.1-6.9,1.4-10.4c1.9-18.8,14.5-27.6,31-31.2c21.3-4.6,42.9-5.5,64.2,1.5c3.4,1.1,5.1,1.6,2.4,5.7
		c-10.7,16.8-16.1,35.8-21.9,54.5c-8.3,26.4-15,53.2-25.8,78.7c-7.1,16.6-16,32.2-25.5,47.5c-6.9,11.1-12.2,22.9-15.8,35.5
		c-0.7,2.4-1.5,4.7-2.3,7C442.3,514.8,441.8,514.7,441.4,514.7z"/>
	<path style="fill:#404242;" d="M414.5,515.6c-3.2-3.5-3.5-7.1-4.4-10.3c-5.2-18-15.7-33.4-24.9-49.4c-12.1-21-21.1-43.4-28.4-66.5
		c-9-28.6-16-57.8-28.3-85.3c-2-4.4-4-8.9-6.9-12.7c-2.5-3.3-1.4-4.4,1.9-5.3c15.7-4.5,31.5-6.8,47.9-4.1c4.6,0.8,9.3,1.1,13.9,1.6
		c10.9,1.4,20,6.6,27.4,14.3c6,6.2,6.4,14.9,7.4,22.9c3.6,27.5,3,55.2,2,82.8c-1.3,36.3-3.7,72.5-7,108.7
		C415.1,513.1,414.8,513.9,414.5,515.6z"/>
</g>
<g id="Head">
	<path style="fill:#404242;" d="M472.4,273.8c-8.3,0-16.6,0.2-25-0.1c-7.7-0.2-9.6-2.4-9.7-10.1c-0.6-25.6-1.1-51.2-1.6-76.9
		c-0.1-7.4,2.1-9.9,9.5-10.6c1.8-0.2,3.7-0.2,5.5-0.2c8.9,0.4,10.9,2.7,10.9,11.7c0,20.6,3.5,40.4,13.1,58.8
		c2.2,4.3,5.5,7.4,9.8,9.6c7.1,3.7,14.1,7.6,21.1,11.4c1.6,0.9,3.6,1.8,3.2,4c-0.5,2.1-2.7,1.5-4.3,1.7
		C494.1,274.5,483.2,274.3,472.4,273.8z"/>
	<path style="fill:#404242;" d="M382.7,273.8c-10.8,0.5-21.6,0.6-32.4-0.8c-1.4-0.2-3.3,0.3-3.8-1.6c-0.5-1.8,1.4-2.6,2.6-3.2
		c7.4-4.2,14.8-8.3,22.3-12.3c4.4-2.4,7.6-5.8,9.9-10.2c9.2-18,12.7-37.4,12.6-57.4c0-9.6,2.2-12.2,11.8-12.4c2,0,4,0.1,5.9,0.4
		c6.5,1.2,8.2,3.2,8.1,9.8c-0.2,16.3-0.5,32.6-0.9,48.9c-0.2,9.5-0.4,19-0.7,28.4c-0.3,8.3-2.1,10.2-10.5,10.3
		C399.3,273.9,391,273.8,382.7,273.8z"/>
	<path style="fill:#404242;" d="M501.9,107c-1.2,1.4-0.9,3.1-1.3,4.7c-1.1,4.8-3.4,8.3-8.6,9.9c-11.5,3.7-17.6,13.1-23.1,23
		c-2.6,4.8-4.6,10-8.4,14.1c-1.9,2.1-4,3.1-7,3.1c-17-0.1-34-0.2-51,0c-4.4,0-7.2-1.7-9.3-5.3c-4.5-7.6-7.8-15.8-13.2-22.9
		c-4.1-5.3-8.9-9.8-15.2-11.7c-6-1.8-8.7-5.6-9.7-11.3c-0.3-1.6-0.9-3.1-1.4-4.7c-3.2-14.1-3.6-28.3-1.4-42.6
		c2.6-16.9,9.9-31.2,24.9-40.3c6.6-4.1,14.4-6,22-7.7c23.5-5.1,46.4-3.9,69.6,3.7c20.6,6.8,29.6,21.5,33.8,40.7
		c3.1,14.1,3.5,28.5-0.4,42.7C501.8,104,502,105.6,501.9,107z"/>
</g>
<g id="Ass">
	<path style="fill:#404242;" d="M571.5,814.9c-0.9,29.1-10.5,50.2-24.4,69.6c-6.4,9-13.4,17.4-22.1,24.3c-4.5,3.6-9.5,5.8-15.4,6.4
		c-9.3,1.1-17.7,5.8-26.7,8.1c-9.6,2.4-19,2.7-28.4-1.4c-7.6-3.3-11.9-9.2-11.2-17.2c1.9-19.4-4.8-37.5-7.7-56.1
		c-3.8-24.7-6.6-49.5-1.8-74.5c1.7-8.6,5.3-16,10.3-23c2.9-4.1,6.2-7.9,8.9-12c3.6-5.5,8.8-7.2,14.7-5.7
		c16.7,4.2,32.6,10.6,47.5,19.2c12.7,7.3,25.1,15.2,36.2,24.8C564.5,788.6,572.8,801.8,571.5,814.9z"/>
	<path style="fill:#404242;" d="M424.4,804.3c-1,19.4-2.2,41.5-8.1,63c-3,11-4.7,22.2-3.8,33.6c1.1,14.3-4.8,22-23.3,24.1
		c-10,1.1-19.4-2.2-28.7-5.6c-5.6-2.1-11.2-4-17.3-4.6c-5.7-0.5-10.4-3.8-14.4-7.6c-22.1-20.8-37.7-45.4-43.3-75.8
		c-4.6-24.6,3.9-43.5,23.7-58.2c20.3-15.1,41.9-27.7,65.8-36.1c0.5-0.2,1-0.3,1.4-0.5c17.6-6.3,19.9-4.9,31.5,9.3
		C421.6,762.4,424.3,781.4,424.4,804.3z"/>
	<path style="fill:#404242;" d="M288.8,772.7c1.3-8.8,4.4-17.6,8.2-26.1c4.7-10.7,9.9-21.1,18.2-29.6c3.7-3.8,8.1-5.6,13.3-6
		c16.1-1.2,31.3,2.8,46.2,8.4c0.5,0.2,0.9,0.4,1.3,0.7c2.3,1.6,5.5,3.5,5.4,6c-0.1,2.5-4,2.3-6.3,2.8c-22.9,5.2-42.7,16.4-60.9,30.8
		c-6.9,5.5-14.3,10.3-21.5,15.4c-1,0.7-2.1,2.1-3.5,1.3C288.3,775.8,288.8,774.3,288.8,772.7z"/>
	<path style="fill:#404242;" d="M567.2,774.5c-0.1,0.4,0,1.6-0.5,1.9c-1.2,0.8-2.1-0.3-3.1-0.9c-9.2-6.6-18.7-12.8-27.6-19.8
		c-17.3-13.7-36.9-22.3-58.2-27.4c-4.2-1-4.5-2.1-1.6-5.3c3.4-3.7,7.8-5,12.2-6.3c11.5-3.5,23.1-6,35.3-6c8.5,0.1,15.3,2.9,20.2,9.8
		c11,15.3,18.8,32.1,22.8,50.6C567,772.1,567,773.1,567.2,774.5z"/>
</g>
</svg>
