<?xml version="1.0" encoding="utf-8"?>
<!-- Generator: Adobe Illustrator 19.0.0, SVG Export Plug-In . SVG Version: 6.00 Build 0)  -->
<svg version="1.1" id="Ebene_2" xmlns="http://www.w3.org/2000/svg" xmlns:xlink="http://www.w3.org/1999/xlink" x="0px" y="0px"
	 viewBox="0 0 595.3 841.9" style="enable-background:new 0 0 595.3 841.9;" xml:space="preserve">
<style type="text/css">
	.st0{fill:none;stroke:#000000;stroke-width:11;stroke-miterlimit:10;}
	.st1{fill:none;stroke:#000000;stroke-width:11;stroke-linecap:round;stroke-linejoin:round;stroke-miterlimit:10;}
</style>
<path id="XMLID_1_" class="st0" d="M207.5,464c12.3-36.7,35.3-46.5,41.8-52s62.5-31,68-46.3s-4.5-30.8-4.3-40.5s3.8-32.3,24.8-37
	s65.5-5.8,79,4.8s35.3,25,29,42.8s-42,34.8-42,34.8s12,34-8.8,58.3s-35.8,36.3-40.8,57.5s3.3,17.8,7.9,23.3c4.7,5.5,21,20,13.2,47.5
	c-7.8,27.5-60.7,33.8-77.7,33.8c-17,0-72.6-10.5-86.3-48C197.7,505.3,198.5,490.8,207.5,464z"/>
<path id="XMLID_3_" class="st0" d="M256.2,582.1c0,0-15.2,17.9-10.5,27.6c4.7,9.7,100.3,7.8,100.3,7.8s33.8-1,50.5-7.7
	c16.7-6.7-16.5-19-16.5-19s-29.5-8.3-39.7-6.7"/>
<path id="XMLID_2_" class="st0" d="M202.1,510.8c0,0-29.6-8.8-51.9-2.3s5.6,34.8,16.8,43.4s25.6,13.8,39.9,16.4s19.4-3.8,19.4-3.8"
	/>
<path id="XMLID_4_" class="st1" d="M368.5,425.7c7.8,2.3,31.5,14.3,43.2,16.2c11.7,1.8,25.7,8.2,30.7,15.8c5,7.7,0.7,14-6.7,15.3
	c-7.3,1.3-29.8-2.7-42.7-9.2s-39.7,2.8-54.2-1.8s-22-12.1-19.3-17.1"/>
<ellipse id="XMLID_7_" cx="396.2" cy="309.4" rx="11.8" ry="8.3"/>
<path id="XMLID_8_" class="st0" d="M327.4,292.8c0,0-8.5,3.5-12.7,20.4c0,0-27.5,2.1-52.6-0.9s-46.5-11-66.8-28.3
	s-21.8-31.8-21.8-31.8s26.7-4,51.8,0c25.2,4,40.6,8.2,53.3,16.3C278.5,268.4,299.9,283.8,327.4,292.8c0,0-50.4-17.3-64.4-39.7
	s-11.3-43.5-11.3-43.5s11.2,0.8,19,4.2c7.8,3.3,33.5,15.2,52,32.5s29.2,39.7,29.2,39.7"/>
</svg>
