<?xml version="1.0" encoding="utf-8"?>
<!-- Generator: Adobe Illustrator 19.0.0, SVG Export Plug-In . SVG Version: 6.00 Build 0)  -->
<svg version="1.1" id="Ebene_1" xmlns="http://www.w3.org/2000/svg" xmlns:xlink="http://www.w3.org/1999/xlink" x="0px" y="0px"
	 viewBox="-248 254.9 97.3 251.2" style="enable-background:new -248 254.9 97.3 251.2;" xml:space="preserve">
<path style="fill:#BD3940;" d="M-225.1,311.7c0-0.4,0-0.7,0-1.1c1.3-0.9,0.8-1.9,0.1-2.9l0.1-0.1c-0.6-2,0.5-4.3-1.5-5.9
	c-1.8-1.9-4.2-3.3-5.1-6c-0.7-2.2-2.4-1.3-3.9-1.3c-1.5,0.1-3.3,0.5-4.2-1.2c-0.9-1.8,0.4-3.2,1.5-4.5c0.8-0.9,1.8-1.8,2.8-2.6
	c2-1.7,3.1-3.5,2.4-6.5c-1.2-5,1.9-8.1,5.9-10.5c2.2-0.1,4.5-1,6.2,1.2c-7.1,0.4-10.7,2.9-10.8,7.7c-0.1,5.6,5.3,12.5,10.9,12.9
	c-3.2-1.5-5.4-3.3-4.5-6.5c0.9-3.1,3.7-3.5,6.5-3.6c1.3,0,2.3-0.4,2.7-1.5c2-4.9,6-5,10.2-4.1c2,0.4,3.8,0.5,5.9-0.4
	c-3.5-3.7-8.2-4.1-12.7-5.1c5.5-0.3,8.4-4.7,12.2-7.3c6-3.2,12.4-5,18.2-0.2c5.7,4.8,11.9,9.7,11.4,18.8c4.2-0.7,8.6-1.4,12.9-2.2
	c1.2-0.2,2.2-0.6,3.1,0.4c1.1,1.2,0.4,2.5-0.4,3.5c-3,3.6-3,9-5.6,12c-7.5,8.7-6,20.4-11.2,29.8c-1.7,3-3.4,5.8-6.2,7.9
	c-0.5,0.2-1,0.5-1.5,0.7c-5,1.2-10.6-0.6-15.3,2.5c-0.6,0.2-1.1,0.4-1.7,0.5c-0.4,0.2-0.8,0.3-1.3,0.5c-0.4,0.2-0.8,0.3-1.3,0.5
	c-1,0.1-2,0.2-3,0.2c-0.5-0.6-1.2-0.6-1.9-0.5c-3.3-0.9-6.1-2.7-8.7-4.7c-0.2-0.5-0.4-1-0.6-1.5c1-0.6,1.6,0.3,2.1,0.7
	c5.2,4.4,10.8,5.4,17.1,2.3c1.5-0.7,2.3-1.2,2-2.9c-0.2-1.4-0.2-2.8,0-4.2c0.4-2-0.1-2.7-2.1-3.7c-4-1.9-5.3-6.1-6.6-10.1
	c2.7,1.3,3,4.2,4.5,6.4c1.3,1.8,2.8,3.5,5.2,2.6c2.3-0.8,3.2-4.9,2.1-7.1c-3.5-6.7-9.9-7.8-16.5-8.3c-3-0.2-5.4-1.1-7.7-3
	c-6.7-5.7-14.4-10.3-18-19c-1.9,1.7-3.3,3-4.7,4.4c-0.9,0.9-2.7,1.8-1.9,3.4c0.7,1.4,2.3,0.5,3.5,0.4c1.5,0,2.8-0.4,3.9,1.4
	c5,8.5,12.6,13.2,22.3,14.7c3,0.4,5.6,1.6,7.4,4.2c-7.4-3.1-15.9-3.2-22.8-9c0.5,9.4,1.8,13.5,5.4,20.1c1.3,2.4,4,3.8,4.7,6.6
	c-0.4,0-0.9,0-1.3,0c-1.8-2.3-3.6-4.6-5.4-7c-0.2-0.5-0.5-1-0.7-1.6C-222.7,318.9-222.8,314.9-225.1,311.7z M-213.4,285
	c0.9-1.3,3.4,1.4,3.3-0.9c-0.2-3.3,2.6-4.7,3.7-7.1c-4.8-1.2-7.4-0.1-8.2,3.1C-215.1,282.1-213.1,283.2-213.4,285
	c-0.4,0-1.3-0.2-1.3-0.1c-0.6,1.4,0.8,1.7,1.5,2.4c3.6,3.1,8,3.1,12.4,3c0.9,0,2.8-0.4,2.4,0.4c-1.3,3.3,1.4,1.9,2.2,1.9
	c2.4,0.2,4.8,0.2,7.2,0c3.1-0.2,6-0.7,6.4-4.6c0.5-4.8-1.9-8.6-6-9.5c0.9,3.9,1,7.5-2.3,10.4c-0.2-0.3-0.5-0.6-0.7-0.9
	c3.9-6.2,2.5-10.7-3.6-11.2c4.2,4.1,4.3,6,0.5,7.3c0.7-1.5,2.2-2.9,0.2-4.7c-2.7-2.4-5.6-3.8-9.2-2c-2.5,1.3-4.4,3.2-4.5,6.1
	c-0.1,2.1,1.8,1.5,3.5,2.1c-2.5-5,0.7-5.8,3.7-6.5c3.4-0.8,5.1,0.3,4.6,4.1c-0.1,0.9,1.1,0.5,1.6,0.8c-0.1,2.2-2,1.7-3.2,2
	c-4.7,1.2-9.5,0.5-14.3,0.3C-212.6,285.9-213.6,285.9-213.4,285z M-215.9,294.3c-2.4-0.5-4.6-2.3-7.4-1.4c3.2,2.7,6.4,5.1,9.3,7.9
	c7.3,7,22.5,5.7,28.2-4c-1.6,0-3.1,0.1-4.6,0.4c-7.5,1.5-15.1,2.2-22.5-0.6C-214,296.3-215.9,296.4-215.9,294.3
	c8.8,3.1,17.7,4,26.7,0.3c-6.8,1-12.8-2.1-19.1-3.5c-3.7-0.8-7.2-2.3-8.3-6.3c-0.6-2.1-1.5-2.7-3.5-2.4c-1.8,0.3-3.5,0.8-3.7,2.8
	c-0.2,1.9,1,3.2,2.8,3.7C-218.3,289.7-216.8,291.7-215.9,294.3z M-188.4,322.8c5.5-2.8,10.6-6.2,15.6-9.8c0,1.5-1.2,2.1-2,3
	c-2.8,3.1-6.8,4.4-10.3,6.5c-2.7,1.6-5.3,3.3-5.5,6.9c0,1-0.5,2.2,1.4,2.5c3.5,0.5,7,0.9,10.3-0.9c5-2.8,10.2-15,8.9-20.8
	c-1.3,0.6-1.2,2.6-2.8,2.8c-1.2-1.7,0.6-2.5,1.3-3.4c7-8.8,10.9-19.2,15.5-29.4c-2.9,0.4-5.8,0.8-8.7,1.3c-2.5,0.4-6.6,0-2.6,4.4
	c0.8,0.9,0.4,2.1,0.1,3.3c-1,4.1-2.3,8.2-4.8,11.6c-2.8,3.8-5.7,7.6-10,9.8c1-3.1,3.8-4.7,5.9-6.9c4.2-4.3,6.1-9.7,7.7-15.2
	c-7.9,7.9-19,10.8-26.6,18.5c3.6,1.7,6.3,4.9,8.3,8.8c2.2-1.6,2.6-4.3,4.7-5.3c1.3,1.1-0.1,1.7-0.5,2.3c-2.1,3.2-4.2,6.3-6.4,9.5
	c-0.6,0.2-0.9,0.8-0.5,1.2C-189,323.8-188.7,323-188.4,322.8z M-206.2,269.3c5.6,2.7,10.6,6.6,17,7.4c4,0.5,6.2,2.5,7.3,6.4
	c1.4,5.1,1.1,9.2-4.8,11.5c5.6-0.1,12.4-7.8,14.4-15.6c0.9-3.6-6.6-13.8-12.3-16.8C-190.9,259-198.4,261.4-206.2,269.3z
	 M-178.5,293.4c4.3-0.6,7-3,8.3-6.9c0.5-1.5-0.1-3.1-1.4-3.7c-1.5-0.7-1.5,1.2-2,2C-175.3,287.6-176.8,290.4-178.5,293.4z"/>
<path style="fill:#CCDE43;" d="M-189.7,456.6c-1.5,13.8-2.2,27.6-2.1,41.4c0.5-0.6,1-1.2,1.5-1.8c-0.3-7.1-0.3-14.2,0.5-21.3
	c1-9.5,2-19.1,1.7-28.7c-0.1-2.6-0.4-5.1-0.7-8.1c0.1,0.1,0.2,0.2,0.3,0.3c-0.1-0.5-0.1-0.9-0.1-1.4c-0.1-0.4-0.1-0.8-0.1-1.2
	c-0.2-0.2-0.3-0.4-0.3-0.6c-0.2-0.3-0.4-0.6-0.6-1c-0.5-0.4-0.8-0.9-1.1-1.4c-0.4-0.1-0.6-0.5-0.9-1.5h-1.2
	C-190.3,439.6-188.8,447.9-189.7,456.6z"/>
<path style="fill:#CCDE43;" d="M-196.5,456.3c0.5,16.4-0.9,32.7-1.5,49c0.6-0.7,1.3-1.4,1.9-2.1c0.1-5.4,0.3-10.7,0.7-16.1
	c1.4-19.2,2.1-38.7-1.4-57.8c-2.8-15.2-2.9-30.4-1-45.5c2-15.8,0.3-31.5,0-47.3c-0.4,0.2-0.8,0.3-1.3,0.5c0,4.8-0.3,9.6,0.2,14.4
	c1.3,13-0.3,25.9-1.2,38.8c-0.8,10.7-1.5,21.4,0.5,32.1C-197.4,433.6-196.9,444.9-196.5,456.3z"/>
<path style="fill:#CCDE43;" d="M-196.6,336.1c0.6-0.2,1.1-0.4,1.7-0.5c0.8,1.9,2.5,3,4.2,3.8c2.3,1.1,6.2,0.7,6.4-0.7
	c0.4-4.7,3.1-2.8,5.4-2.6c0.7,0.4,1.4,0.8,2.2,0.2c-0.5-0.3-1-0.7-1.6-1c-0.4-0.7-0.9-1.5-1.3-2.2c0.5-0.2,1-0.5,1.5-0.7
	c1.2,2,2.8,3.1,5.2,2.1c0.7-0.3,1.5-0.5,1.8,0.3c0.2,0.5-0.2,1.4-0.7,1.8c-2.4,2.7-5.5,1.3-8.3,1.2c-0.5-0.3-1.1-0.8-1.7-0.2
	c0.3,0.3,0.7,0.6,1,1c-1.3,2.7-4.1,2.6-6.1,2.6c-3.6,0-4,1.7-4.1,4.6c-0.7,11.6-1.6,23.2-2.4,34.8c-0.4,0-0.8,0-1.2,0
	c0.6-10.7,1-21.4,1.8-32C-192.4,343.9-192.1,339.4-196.6,336.1z"/>
<path style="fill:#CCDE43;" d="M-213.4,330.6c0.2,0.5,0.4,1,0.6,1.5c-3.8,4.9-9.1,6.7-16.1,7.5c4.4,1.6,7.8,2.2,11.4,2
	c4.9-0.3,9.9-0.5,13.4-4.8c0.7-0.1,1.4-0.1,1.9,0.5c-2,3-5.1,4.3-8.5,5.1c-8.3,1.9-16.2,0.5-23.7-3.8c4.6-0.8,9.2-0.5,13.4-2.6
	c2.8-0.9,5.5-2.1,6.2-5.4C-214.2,330.7-213.8,330.7-213.4,330.6L-213.4,330.6z"/>
<path style="fill:#B3CD23;" d="M-194.6,380.7c0.4,0,0.8,0,1.2,0c-0.8,16.9-1,33.8,1.7,50.6c-0.4,0-0.8,0-1.2,0
	C-196,414.6-195.4,397.6-194.6,380.7z"/>
<path style="fill:#BD3940;" d="M-190.9,289c-1.5,1.3-3.3,1.9-5.9,2c1.5-2.2,3.7-1.8,5.1-2.9C-191.4,288.4-191.2,288.7-190.9,289z"/>
</svg>
