<?xml version="1.0" encoding="utf-8"?>
<!-- Generator: Adobe Illustrator 19.0.0, SVG Export Plug-In . SVG Version: 6.00 Build 0)  -->
<svg version="1.1" id="Ebene_1" xmlns="http://www.w3.org/2000/svg" xmlns:xlink="http://www.w3.org/1999/xlink" x="0px" y="0px"
	 viewBox="0 0 141.7 141.7" style="enable-background:new 0 0 141.7 141.7;" xml:space="preserve">
<path style="fill:#070710;" d="M113.3,55.4L70.7,15.2L28.1,55.4C21.2,61.3,16.8,70,16.8,79.8c0,17.7,14.4,32.1,32.1,32.1
	c7.4,0,14.2-2.5,19.7-6.7c-1.6,6-4.7,11.5-9.2,15.9l-6.1,6l2.1-0.6c10-2.8,20.6-2.8,30.6,0l2.1,0.6l-6.1-6
	c-4.4-4.4-7.6-9.8-9.2-15.9c5.4,4.2,12.3,6.7,19.7,6.7c17.7,0,32.1-14.4,32.1-32.1C124.6,70,120.2,61.3,113.3,55.4z"/>
</svg>
